<?xml version="1.0" encoding="utf-8"?>
<!-- Generator: Adobe Illustrator 26.3.1, SVG Export Plug-In . SVG Version: 6.00 Build 0)  -->
<svg version="1.1" xmlns="http://www.w3.org/2000/svg" xmlns:xlink="http://www.w3.org/1999/xlink" x="0px" y="0px" width="800px"
	 height="220px" viewBox="0 0 800 220" style="enable-background:new 0 0 800 220;" xml:space="preserve">
<style type="text/css">
	.st0{enable-background:new    ;}
	.st1{fill:#FFFFFF;}
	.st2{fill:#080808;}
	.st3{opacity:0.44;fill:#FFE73B;enable-background:new    ;}
	.st4{opacity:0.44;fill:#0000FF;enable-background:new    ;}
	.st5{display:none;opacity:0.21;}
	.st6{display:inline;fill:#080808;}
	.st7{display:inline;}
	.st8{font-family:'BebasNeue';}
	.st9{font-size:56px;}
	.st10{display:inline;fill:#FFFFFF;}
	.st11{font-family:'UDKakugoC80Pro-B-90ms-RKSJ-H';}
	.st12{font-size:12px;}
	.st13{display:none;}
	.st14{clip-path:url(#SVGID_00000051359864797272561540000005479479347314792111_);}
	.st15{clip-path:url(#SVGID_00000031186938052411650270000006838633961401396866_);}
	.st16{clip-path:url(#SVGID_00000018208980804905320680000016070156422313937575_);}
	.st17{clip-path:url(#SVGID_00000005243532551661539130000001192996338773514416_);}
	.st18{opacity:0.44;fill:#FF39AF;enable-background:new    ;}
</style>
<g id="レイヤー_1">
	<g id="_x2F_comics-sp" transform="translate(-14.418 -667.249)" class="st5">
		<path id="合体_11_00000001661779585435615630000003223362977745260173_" class="st6" d="M91.2644196,794.5298462
			c-8.8090057-0.5809937-31.2700043-4.9589844-39.9000015-4.4429932c-1.1221466-0.0709229-2.1948624-0.4873047-3.0709991-1.1920166
			c-1.0706635,0.0593262-2.1426697,0.1153564-3.2160034,0.1680298c-0.7730865,0.7244263-1.6317749,1.3517456-2.5569992,1.867981
			c0.0510025,0.1829834,0.0930023,0.3250122,0.1259995,0.4310303c-0.2929459-0.902832-0.9143143-1.6626587-1.7409973-2.1290283
			l-0.1910019,0.0059814c-5.9059982,0.1799927-11.7299976,0.6520386-17.5910053,0.993042
			c-1.25,0-2.4639969,0.0999756-3.6780014,0.2089844c-1.689209,0.1958618-3.3920441,0.2473755-5.090004,0.1539917
			l-21.7139893,2.5900269c-10.9690018,0.8999634-21.6910019,0.6999512-31.725996-2.5650024
			c-0.4690018-0.2420044-19.8560028-1.4640503-20.3390007-1.7150269c-2.8339996-0.8789673,13.737999-0.9439697,13.2080002-2.5999756
			c-1.7999992-0.4819946-13.0650024-1.1470337-13.2080002-2.0809937c-2.0820007-1.2490234-4.5330009-0.7580566-6.7000008-0.2670288
			c-2.3479996,0.5310059-4.3720016,1.0620117-5.2549973-0.6069946c-2.913002-1.5889893,5.5399933-0.9849854,3.3069992-2.8220215
			c2.760994-0.052002,5.079998-6.5999756,3.9860001-8.9649658c-0.6626968-0.2235107-1.343605-0.3887939-2.0350037-0.4940186
			c0.0770035-0.0059814,0.4540024-0.0999756-0.6689987-1.1329956c-4.0999985,0.0280151,2.711998-0.2000122,1.2709961-1.3800049
			c-0.0429993,0,0.9000015-1.0709839,1.7560043-2.0289917c-0.2669983-0.0220337-0.5299988-0.0579834-0.7919998-0.0999756
			l-2.2410049,1.4509888c-0.4289932,0-0.7169952-0.9240112-0.760994-1.8619995
			c-0.3619995-0.1000366-0.727005-0.1930542-1.0780029-0.3000488c-2.8000031-0.8809814-3.3239975-1.7119751-1.7679977-2.9559937
			c-0.4749985-0.0139771-0.9150009-0.0209961-1.2610016-0.0239868c0.3440018-0.007019,0.8199997-0.0139771,1.314003-0.0180054
			c0.1819992-0.1426392,0.3906631-0.2906494,0.6259995-0.4439697c0.3766632-0.2460327,0.746994-0.4953613,1.1110001-0.7480469
			c-1.7600021,0.0370483-2.9070053-0.0249634-2.1090012-0.4309692c-0.5790024-0.2109985-1.6710052-0.447998-1.6580048-0.6309814
			c0.1340027-1.9130249,6.2940063-4.4050293,2.9280014-4.7709961c2.0289993-1.1610107,2.4210052-0.2260132,2.6549988-1.447998
			c0.9840012-0.394043-7.2699966-0.8500366-6.2879944-1.2369995c0.224411-0.0134888,0.4476166-0.0426025,0.6679993-0.0870361
			c2.6780014-0.7659912-1.7770004-1.8599854,0.2809982-2.882019c1.0210037-0.5079956,2.6070023-1.6159668,0.7519989-2.6999512
			c-0.3106613-0.666687-0.9029999-1.1596069-1.6149979-1.3439941c1.2810516-0.3319092,2.584465-0.5704956,3.9000015-0.7140503
			c-0.2667236-0.0990601-0.5163879-0.2390747-0.7400055-0.414978c-0.3020096,0.0023193-0.6035004-0.0254517-0.8999939-0.0830078
			c-0.300354,0.052124-0.6059265,0.067627-0.9100037,0.0460205c-0.9690018,0,3.7000046-0.2410278,5.7000046-0.6520386
			c-0.0870056-0.18396-0.1730042-0.3999634-0.2639999-0.6159668c-1.3380051-0.0100098-3.4290009,0.0379639-4.3790054,0.0800171
			l0.1710052-0.0310059c0,0,0.4119949,0,0.4639969,0.006958c0.4560013-0.4819946,0.7229996-1.0739746,1.1999969-1.5419922
			c-0.6487656-0.1149292-1.311058-0.1324463-1.9649963-0.052002c0,0-0.1760025-0.9599609,4.4440002-2.0570068
			c0.6159973-0.1459961-0.6340027-0.8999634,0-1.0359497c1.1664124-0.050293,2.3003464-0.3994751,3.2929993-1.0140381
			c0.9938087-0.614624,2.1277847-0.9660034,3.2949982-1.0209961c-0.0719986-1.2529907-2.1569977-0.9710083-3.7799988-1.039978
			c1.6755333-1.5322876,3.5006866-2.8924561,5.4480019-4.0599976c0.8899994-2.3439941,2.8600006-4.3530273,5.2000008-6.2479858
			c-2.6240005-1.6830444-2.1590004-2.7140503,1.6669998-3.7560425c0.5369987-0.1459961,1.0999985-0.2659912,1.6529999-0.3999634
			c0.1899986,0.0099487,0.3769989,0.0119629,0.5620003,0.0079956c0.8348007-0.6530762,1.7754402-1.15802,2.7809982-1.493042
			l0.9290009-0.5999756c6.6409988-2.6480103,13.8489971-2.6820068,21.2629986-1.7769775l14.7000008,2.4790039
			c2.038002-0.1670532,3.9179993,0.3909912,5.913002,0.4199829c3.9560013,0.3640137,7.8929977,0.8410034,11.8730011,1.0700073
			c7.1719971,0.4129639,14.163002,1.5239868,21.5059967,1.3499756c11.2429981-0.2680054,22.5000019-0.5369873,33.7550049-0.2589722
			l5.7149963-0.2839966c0.8676758-0.4675293,1.8763275-0.6015625,2.8359985-0.3770142
			c0.3364868-0.0297852,0.670578-0.0822144,1-0.1569824c1.1000061-0.2190552,2.1929932-0.4390259,1.9349976,0.9949951
			l1.0930023,0.0709839c1.2586212-0.1525269,2.5315857-0.1437988,3.7879944,0.026001
			c3.6000061,0.3380127,11.072998-0.5469971,17.6560059-1.3640137c4.076004-0.5059814,7.8090057-0.9849854,10.0679932-1.1300049
			c2.3087616-0.31604,4.6557007-0.2109985,6.927002,0.3099976c0,1.0629883,0.5890045,1.776001,2.6880035,1.6600342
			c1.0709991-0.0580444,2.1519928-0.0490112,3.2290039-0.0700073c0.0059967,0.3999634,0.0119934,0.7973022,0.0180054,1.1919556
			c1.4170074-0.0569458,2.8999939-0.3519897,4.0079956,0.4540405c0.5890045,0.3759766,2.253006,0.0529785,1.9129944,1.0349731
			c0.6444092,0.3721924,1.3828583,0.5496826,2.1260071,0.5109863c0.6000061,0.0060425,4.526001-0.7849731,8.8099976-1.5999756
			c5.7140045-1.09198,12.0659943-2.2329712,12.0160065-1.5999756s-1,0.657959-1.9600067,0.6719971
			c-0.408783-0.0064087-0.8174286,0.0200195-1.2220001,0.0789795c-0.6325836,0.432373-1.4101105,0.5980225-2.1640015,0.4609985
			c-1.6190033-0.3179932-1.2200012,0-0.8090057,0.3170166c0.3090057,0.2369995,0.6260071,0.4749756,0.1000061,0.4429932
			l-1.9420013,0.0540161c-0.6275635,0.3321533-1.363205,0.3949585-2.0379944,0.1739502
			c-0.5072632,0.3482666-1.1057892,0.5395508-1.720993,0.5500488l-1.0509949,0.6149902
			c-0.8670044,1.6389771,1.9100037,1.4229736,2.973999,2.0800171l0.1139984-0.0060425l-0.0540161-1.0570068
			c0.7784729,0.1248779,1.4904938,0.5131836,2.0169983,1.1000366c0.7143097,0.4002686,1.4621277,0.7375488,2.2350006,1.0079956
			c0.9100037,0.2509766,1.4470062,0.5249634,0.5149994,0.9550171c-2.1210022,0.9779663-0.1000061,1.7929688,0.5119934,2.3359985
			c0.6119995,0.5429688,1.9539948-0.2330322,2.9470062-0.4910278c1.6439972-0.4260254,2.3600006-1.8480225,4.9409943-1.5219727
			c-3.2350006,0.3549805,0.0469971,2.6129761-2.9859924,3.0269775c0.8479156,0.1870117,1.7204132,0.2362671,2.5839996,0.1459961
			c1.107666-0.1768799,2.2429199-0.0125732,3.2550049,0.4710083c0.3139954,0,0.6279907-0.0026855,0.9420013-0.0079956
			l1.9400024-0.0560303c1.1710052,0.7369995-8.0449982,3.1920166-6.3860016,3.0870361
			c1.380661-0.0802612,2.7657623-0.0341187,4.1380005,0.1380005h0.5469971
			c2.0634613,0.0620117,4.1287689-0.0095215,6.1829987-0.2139893c0.5130005-0.0640259,1.5399933,0.0719604,1.3130035,0.4819946
			c-1.0079956,1.8189697,1.7420044,1.4419556,3.2570038,1.6259766c2.3159943,0.2819824,3.9219971,0.8200073,4.1069946,2.2000122
			c-1.0460663,0.0335083-2.0932007,0.0001221-3.1349945-0.1000366c-1.8886566-0.2940063-3.8196869-0.1485596-5.6430054,0.4250488
			c-0.0350037,0.0219727-0.072998,0.0440063-0.1089935,0.0669556c0.2371063,0.0592041,0.4707794,0.1312866,0.6999969,0.2160034
			c1.4900055,1.947998-0.6999969,2.8909912-3.151001,3.7640381c-0.3060608,0.163208-0.5855713,0.3718872-0.8289948,0.6189575
			c-0.4128571,0.18573-0.8584595,0.2877197-1.3110046,0.3000488c-1.1000061,0.131958-1.427002,0.7349854-2.220993,1.0569458
			c-0.4163055,0.1478271-0.8196869,0.3297729-1.2059937,0.5440063c0.326767,0.2879639,0.7275085,0.4788208,1.1569977,0.5510254
			c0.3559418,0.0200195,0.7037506,0.1143799,1.0209961,0.2769775c0.1932373,0.2103882,0.416275,0.3913574,0.6620026,0.5369873
			c1.9190063,0.7790527,3.6459961,1.6119995,2.5659943,3.2460327c-0.1746368,0.0687866-0.353302,0.1268921-0.5350037,0.1740112
			c0.029007,0.0189819,0.0590057,0.0379639,0.0870056,0.0579834c1.3956299,0.5094604,2.8965912,0.661377,4.3659973,0.4420166
			c0.727066-0.0593262,1.4569397-0.0766602,2.1860046-0.052002l0.2859955-0.0289917
			c0.5870056-0.0630493,1.7660065,0.072998,1.5050049,0.4819946c-1.1560059,1.8200073,2,1.4429932,3.7350006,1.6269531
			c2.6549988,0.2810059,4.5,0.8190308,4.7089996,2.2000122c-1.2009277,0.0339966-2.4028168,0.0006104-3.6000061-0.0999756
			c-2.1626129-0.2940674-4.3622894-0.1498413-6.4680023,0.4240112l-0.1239929,0.0669556
			c0.2539978,0.0560303,0.5180054,0.1230469,0.8059998,0.2160034c1.7070007,1.947998-0.8070068,2.8910522-3.6130066,3.7640381
			c-0.3451233,0.1589355-0.6651764,0.3674927-0.9499969,0.6189575c-0.4433136,0.1759033-0.9126434,0.2772217-1.3890076,0.3000488
			c1,0.4400024,1.5720062,0.8239746,1.1779938,1.0479736l-2.3820038-0.0999756l-1.8470001,0.2509766
			c-1.1640015,0.4089966-2.0850067,0.8909912-1.9470062,1.6900024c0.4349976,2.5219727,12.2519989,7,7.8939972,7.4210205
			c-2.6179962-0.0700073,5.1159973,2.4389648,2.5509949,2.8049927c-3.4637604,0.5562134-6.9764404,0.7462769-10.4799957,0.5670166
			c-2.4730072-0.1600342,11.3869934,2.9369507,9.6909943,3.7779541l-2.7310028-0.0999756l-2.4579926,0.289978
			c-1.29039,0.2428589-2.609436,0.295105-3.9149933,0.1550293c-1.2763367-0.1255493-2.5635071-0.0869141-3.8300018,0.1149902
			c4.5370026,0.5549927-0.1999969,3.1409912,4.6320038,3.6309814c-3.8179932,0.3259888-4.970993-1.3649902-7.4440002-1.8999634
			c-1.4920044-0.3259888-3.5390015-1.2720337-4.4140015-0.644043c-0.875,0.6280518-3.8320007,1.5410156-0.6139984,2.7400513
			c1.4120026,0.5269775,0.6309967,0.8379517-0.7059937,1.1129761c-1.1139221,0.2947388-2.203476,0.6748657-3.2590027,1.1370239
			c-0.8226166,0.7122803-1.8482513,1.1481323-2.9320068,1.2459717l0.0359955-1.2440186l-0.1100006-0.0390015
			c-1.4720001,0.7770386-5.6490021,0.447998-4.3999939,2.335022l1.7830048,0.835022
			c0.862793,0.0350952,1.7062073,0.2666626,2.4660034,0.677002c0.8822937-0.2175903,1.8085785-0.1762695,2.6679993,0.1189575
			l2.9219971,0.2630005c1.2369995-0.117981,0.7180023,0.1890259,0.2180023,0.5
			c-0.5919952,0.3630371-1.1580048,0.7269897,1.2259979,0.3890381c1.1178131-0.1425781,2.2523651,0.064209,3.2480011,0.59198
			c1.6880035,0.2730103,4.6089935-0.151001,4.779007,0.9550171c0.1999969,1.3109741-29.0910034-4.2200317-31.173996-4.2340088
			c-1.0614929-0.0657959-2.1235352,0.1195679-3.1000061,0.5410156c-0.0143585,0.0071411-0.0211945,0.0238037-0.0160065,0.0390015
			c0.5209961,1.1339722-1.9450073,0.7249756-2.7920074,1.151001c-1.5899963,0.9229736-3.8200073,0.5440063-5.9299927,0.4450073
			c0.0160065,0.4679565,0.0319977,0.9349976,0.048996,1.3999634c-1.6000061-0.0490112-3.2109985-0.0620117-4.8079987-0.1549683
			c-3.128006-0.1820068-3.9530029,0.6439819-3.8930054,1.8999634c-1.6293488,0.3366089-3.29039,0.4955444-4.9539948,0.473999
			C94.8334198,794.7948608,93.0514221,794.664856,91.2644196,794.5298462z M56.7994232,788.4098511
			c12.7440033,0.0189819,22.9710083-0.0380249,15.8139954-0.2800293c-1.4860077-0.0506592-2.9616699-0.0749512-4.427002-0.072998
			C64.3444214,788.0568237,60.5624237,788.2098389,56.7994232,788.4098511z M45.9914246,788.3778687l1.2740021,0.0050049
			c-0.2674179-0.1031494-0.5454559-0.1762695-0.8290024-0.2180176
			C46.2744064,788.2027588,46.1225662,788.2754517,45.9914246,788.3778687z M32.6334229,788.3018188l-0.9690037-0.1349487
			C21.7194195,788.1768188,24.7514172,788.2418213,32.6334229,788.3018188z M-59.8465805,737.5678711l0.0519981-0.0180054
			c0.0089989-0.0280151,0.0170021-0.0549927,0.0250015-0.0820312
			C-59.7970428,737.4997559-59.8227463,737.5331421-59.8465805,737.5678711z M42.6454163,791.3618164
			c0.0354691,0.0838013,0.0648804,0.1700439,0.0879974,0.2580566
			C42.6979599,791.5360718,42.6685486,791.4498291,42.6454163,791.3618164z M-66.1345825,771.0668335 M-71.6665802,762.7328491
			c-0.2229996,0-0.3909988,0.0089722-0.4729996,0.0120239C-72.6835785,762.7368164-72.3665848,762.7268677-71.6665802,762.7328491z
			 M-70.59758,743.6328735l-0.2870026,0.0519409c-0.3889999-0.006958-0.2040024-0.0269775,0.2900009-0.0489502
			L-70.59758,743.6328735z"/>
		<g id="グループ_83_00000173881375742204591300000008961060529502884792_" transform="translate(50.942 678.516)" class="st7">
			<text transform="matrix(1 0 0 1 -88.0904083 99.2789307)" class="st1 st8 st9">COMICS</text>
		</g>
		<text transform="matrix(1 0 0 1 97.8076477 762.7949219)" class="st10 st11 st12">コミックス</text>
	</g>
	<g id="_x2F_goods-sp" transform="translate(-14.419 -670.724)" class="st5">
		<path id="合体_9-2" class="st6" d="M811.6099243,797.7870483c-8.809021-0.5809937-31.2700195-4.9589844-39.9000244-4.4439697
			c-1.1220703-0.0705566-2.1947632-0.4865723-3.0709839-1.19104c-1.0706787,0.0593262-2.1427002,0.1153564-3.2160034,0.1680298
			c-0.7731323,0.7244263-1.6318359,1.3517456-2.5570068,1.867981c0.0510254,0.1830444,0.0930176,0.3250122,0.1259766,0.4310303
			c-0.2927246-0.9031982-0.9141235-1.6634521-1.7409668-2.1300049l-0.1900024,0.0059814
			c-5.9060059,0.1810303-11.7300415,0.6520386-17.5910034,0.992981c-1.25,0-2.4639893,0.1000366-3.6779785,0.2090454
			c-1.68927,0.1957397-3.3920898,0.2473145-5.0900269,0.1539917L712.987915,796.44104
			c-10.9689941,0.9000244-21.69104,0.7000122-31.7260132-2.5650024c-0.4680176-0.2420044-19.8549805-1.4649658-20.3389893-1.7139893
			c-2.8339844-0.8800049,13.7379761-0.9439697,13.2080078-2.5999756c-1.8000488-0.4830322-13.06604-1.1470337-13.2080078-2.0809937
			c-2.0830078-1.2490234-4.53302-0.7579956-6.7000122-0.2670288c-2.3480225,0.5310059-4.3729858,1.0620117-5.2559814-0.6060181
			c-2.9190063-1.5899658,5.5349731-0.9849854,3.3009644-2.8209839c2.7610474-0.052002,5.0800171-6.5999756,3.9860229-8.9649658
			c-0.6630249-0.2235718-1.3442383-0.388855-2.0360107-0.4940186c0.0770264-0.0059814,0.4540405-0.0999756-0.6690063-1.1329956
			c-4.0999756,0.0280151,2.7120361-0.2000122,1.2709961-1.3800049c-0.0789795,0,3.0790405-3.5059814,3.0790405-3.5059814
			l-4.3500366,2.8309937c-0.4329834,0-0.723999-0.947998-0.7619629-1.9000244
			c-0.0380249-0.9519653,0.1779785-1.9160156,0.7619629-1.8999634c2.5240479,0.0819702,1.4940186-0.4000244,0-0.6340332
			c1.1640015-0.5769653-3.0859985-0.7000122-4.8670044-0.71698c1.0250244-0.0200195,3.217041-0.0440063,3.5859985,0.0119629
			c0.4300537-0.0599976,6.526001-0.8289795,6.9840088-0.8199463c1.1000366-0.7080078-2.1189575-0.5930176-5.1709595-0.4790039
			c-2.8610229,0.1069946-5.5770264,0.2149658-4.4559937-0.3540039c-0.5790405-0.2109985-1.6710205-0.4470215-1.65802-0.6310425
			c0.1350098-1.9129639,6.2940063-4.4049683,2.9279785-4.7719727c2.0280151-1.15802,2.4210205-0.2219849,2.6550293-1.4440308
			c0.9829712-0.3899536-7.2730103-0.8429565-6.2890015-1.2329712c0.2243652-0.0135498,0.4475708-0.0426025,0.6679688-0.0869751
			c2.6780396-0.7660522-1.776001-1.8600464,0.2810059-2.882019c1.0209961-0.5079956,2.6080322-1.6149902,0.7520142-2.7000122
			c-0.3096924-0.6688232-0.9026489-1.1637573-1.6160278-1.348999c-0.0700073-0.2069702,7.5510254-1.1690063,7.4750366-1.382019
			c-0.4450073,0.1400146-0.7260132-1.7299805-1.2709961-1.867981c-1.2051392-0.6323853-2.5736694-0.8844604-3.9250488-0.7230225
			c0,0-0.1759644-0.9599609,4.4430542-2.0569458c0.6159668-0.1459961-0.6340332-0.9000244,0-1.0360107
			c1.1663208-0.0496826,2.300354-0.3985596,3.2929688-1.0130005c1.0631104-0.6742554,2.3013916-1.0200195,3.5599976-0.9940186
			c0.3920288-0.0809937,0.6920166-0.1480103,0.9140015-0.2000122c-0.8569946,0.3070068-2.2869873,1.0679932-0.9140015,2.2080078
			c1.1550293,0.960022,2.5130005,0.8439941,4.0700073,1.0360107c1.8720093,0.2310181,3.7440186,0.3770142,5.6160278,0.4710083
			c0.6653442-0.7392578,1.0776367-1.6713867,1.177002-2.6610107l2.572998-1.1699829
			c0.1959839-0.0137329,0.390564-0.0427856,0.5819702-0.0870361c2.3359985-0.7649536-1.5490112-1.8590088,0.2449951-2.881958
			c0.8909912-0.5079956,2.2739868-1.6150513,0.6550293-2.7000122c-0.2422485-0.6387939-0.7594604-1.1343384-1.40802-1.348999
			c-0.0609741-0.2070312-0.1049805-0.4150391-0.1729736-0.6279907c-0.4185791,0.1430664-0.8723145,0.1466064-1.2930298,0.0100098
			c-1.6610107-1.0500488-3.2749634-2.1240234-5-3.1450195c-3.1079712-1.8460083-2.8049927-2.9320068,1.223999-4.0289917
			c0.5369873-0.1459961,1.1000366-0.2659912,1.6530151-0.4000244c0.9283447,0.0205078,1.8563232-0.055603,2.7689819-0.2269897
			c1.0919189-0.2193604,2.2098999-0.2792969,3.3190308-0.1779785c3.7439575-0.8860474,7.1629639-0.5460205,9.34198,1.5299683
			c1.007019,0.960022,2.1920166,0.8439941,3.5499878,1.0360107c6.1640015,0.8699951,12.3280029,0.5390015,18.4890137,0.7349854
			c3.2810059-1.0880127,6.9829712-0.348999,10.3999634-0.1109619c4.4800415,0.3119507,9.144043,0.5189819,13.1650391,2.1559448
			c2.1137695,0.798645,4.3951416,1.0497437,6.631958,0.7300415c4.4390259-1.1140137,8.5710449-0.15802,12.6710205,0.492981
			c-10.0759888,0.1110229-17.1339722,0.3250122-13.5999756,0.6439819l7.5559692,0.335022
			c0,0.223999-0.0059814,0.447998-0.0169678,0.6719971c2.3363647,0.6784668,4.7615356,1.0014038,7.1939697,0.9580078
			c6.1799927,0.2449951,12.3610229,0.492981,18.5390015,0.8070068c2.4299927,0.1239624,4.9860229,0.039978,7.1669922,0.9599609
			l23.6500244,1.0380249c0.8300171-1.3759766,2.6400146-1.2280273,4.4489746-1.0789795
			c0.6587524,0.067749,1.3208618,0.0968018,1.9830322,0.0869751c0.4176636-0.0116577,0.8356934,0.0007324,1.2520142,0.0369873
			c9.0939941,0.6000366,18.2149658,0.434021,27.3189697,1.677002c1.9508057,0.1923828,3.9157104,0.1950684,5.8670044,0.0079956
			c1.7318115-0.1446533,3.4714966-0.1720581,5.2070312-0.0819702c3.34198,0.2479858,6.6109619,0.4920044,9.3379517,1.7999878
			l-3.3649902-0.1350098l-0.0930176,1.3209839l2.7120361,0.2630005l6.723999-0.2229614
			c1.0457153-0.199585,2.1283569-0.0224609,3.0559692,0.5l3.5780029,0.1409912
			c0.3754272-0.1314697,0.7713623-0.194458,1.1690063-0.1859741c2.1615601-0.2435913,4.3379517-0.3301392,6.5120239-0.2590332
			c2.0634766,0.0615234,4.1287842-0.0103149,6.1829834-0.2149658c0.5120239-0.0630493,1.539978,0.0719604,1.3129883,0.4819946
			c-1.0079956,1.8189697,1.7420044,1.4429932,3.2579956,1.6269531c2.31604,0.2820435,3.9219971,0.8200073,4.1069946,2.2000122
			c-1.0463867,0.0338135-2.0938721,0.0004272-3.1359863-0.0999756c-1.8882446-0.2941895-3.8189087-0.1490479-5.6419678,0.4240112
			l-0.1090088,0.0669556c0.2369995,0.0595093,0.4706421,0.1316528,0.7000122,0.2160034
			c1.4899902,1.947998-0.7000122,2.8909912-3.151001,3.7640381c-0.3062134,0.1629639-0.5858154,0.3716431-0.8290405,0.6189575
			c-0.4128418,0.1856689-0.8584595,0.2875977-1.3109741,0.3000488c-1.1000366,0.131958-1.427002,0.7349854-2.2210083,1.0569458
			c-1.1679688,0.4400024-2.1719971,0.9349976-2.0379639,1.8220215c0.1739502,1.1600342,2.4469604,2.7319946,4.4829712,4.1340332
			l1.0570068,0.0059814c2.3651733,0.0615234,4.7319336-0.0102539,7.0889893-0.2150269
			c0.5880127-0.0629883,1.7670288,0.072998,1.5060425,0.4819946c-1.1560059,1.8190308,2,1.4429932,3.7349854,1.6270142
			c2.6549683,0.2819824,4.5,0.8200073,4.7089844,2.2000122c-1.2009277,0.0339355-2.402832,0.0005493-3.5999756-0.0999756
			c-2.1626587-0.2941284-4.3623047-0.1499023-6.4680176,0.4239502l-0.125,0.0670166
			c0.2539673,0.0560303,0.5189819,0.1229858,0.8059692,0.2160034c1.7080078,1.947998-0.8070068,2.8909912-3.6129761,3.7639771
			c-0.3450928,0.1590576-0.6651611,0.3675537-0.9500122,0.6190186c-0.4432373,0.1760254-0.9125977,0.2774048-1.3889771,0.2999878
			c1,0.4400024,1.5719604,0.8240356,1.1779785,1.0480347l-2.382019-0.1000366l-1.8480225,0.2510376
			c-1.1640015,0.4089966-2.0849609,0.8909912-1.9459839,1.6900024c0.4349976,2.5219727,12.2520142,7,7.8939819,7.4219971
			c-2.617981-0.0710449,5.1160278,2.4389648,2.5510254,2.7999878c-3.4637451,0.5562134-6.9764404,0.7462769-10.4799805,0.5670166
			c-2.4730225-0.1600342,11.3869629,2.9359741,9.690979,3.7779541l-2.7310181-0.0999756l-2.4580078,0.289978
			c-1.2904053,0.2425537-2.609375,0.2947998-3.914978,0.1550293c-1.2766113-0.1259155-2.5640869-0.0875854-3.8309937,0.1140137
			c4.5369873,0.5549927-0.2000122,3.1409912,4.632019,3.631958c-3.8179932,0.3260498-4.9719849-1.3649902-7.4429932-1.8999634
			c-1.492981-0.3259888-3.5390015-1.2720337-4.4140015-0.644043c-0.875,0.6280518-3.8320312,1.5410156-0.6149902,2.7400513
			c1.4119873,0.526001,0.631958,0.8379517-0.7059937,1.1129761c-1.1140137,0.2944946-2.2036133,0.6746216-3.2590332,1.1370239
			c-0.8227539,0.7113037-1.8478394,1.1467285-2.9309692,1.2449951l0.0349731-1.2449951l-0.1099854-0.0390015
			c-1.4719849,0.7769775-5.6489868,0.4469604-4.4000244,2.3349609l1.78302,0.835022
			c0.862793,0.0354004,1.7061157,0.2669067,2.4660034,0.677002c0.881958-0.2175293,1.8079224-0.1762085,2.6669922,0.1190186
			l2.9230347,0.2630005c1.2359619-0.118042,0.7180176,0.1900024,0.2180176,0.5
			c-0.5910034,0.3639526-1.15802,0.7269897,1.2259521,0.3889771c1.1178589-0.1427002,2.2524414,0.0640869,3.2480469,0.59198
			c1.6879883,0.2730103,4.6089478-0.1519775,4.7789917,0.9550171c0.2000122,1.3110352-29.0910034-4.2199707-31.1740112-4.2329712
			c-1.0614014-0.06604-2.1234131,0.1189575-3.0999756,0.539978c-0.0144043,0.0071411-0.0212402,0.0238037-0.0160522,0.0390015
			c0.5220337,1.1340332-1.9439697,0.7249756-2.7919922,1.151001c-1.5899658,0.9229736-3.8200073,0.5440063-5.9299927,0.4440308
			l0.0480347,1.3999634c-1.6000366-0.0490112-3.210022-0.0620117-4.8080444-0.1549683
			c-3.1269531-0.1820068-3.9519653,0.6439819-3.8930054,1.8999634c-1.6293335,0.3366089-3.2903442,0.4954834-4.9539795,0.473999
			C815.178894,798.0550537,813.3969116,797.9250488,811.6099243,797.7870483z M792.9589233,791.387085
			c-5.382019-0.1820068-10.6160278,0-15.8140259,0.2799683C789.888916,791.6870728,800.1159058,791.6320801,792.9589233,791.387085z
			 M767.6099243,791.6410522c-0.267334-0.1033936-0.5454102-0.1765137-0.8290405-0.2180176
			c-0.1617432,0.0377808-0.3132935,0.1104736-0.4439697,0.2130127L767.6099243,791.6410522z M752.9788818,791.5620728
			l-0.9679565-0.1350098C742.0648804,791.4370728,745.0958862,791.5020752,752.9788818,791.5620728z M762.9949341,794.6220703
			c0.0358276,0.083313,0.0652466,0.1691895,0.0879517,0.257019c-0.0363159-0.0835571-0.0670776-0.1694336-0.09198-0.257019
			H762.9949341z M654.2059326,774.3260498 M648.678894,765.9920654c-0.2229614,0-0.3909912,0.0089722-0.4729614,0.0120239
			C647.6619263,765.9970703,647.9788818,765.9870605,648.678894,765.9920654z M661.8359375,739.9760742 M753.7719116,731.1650391
			c-0.8660278-0.0879517-1.7300415-0.2119751-2.6000366-0.348999c3.0599976-0.0339966,6.4000244-0.0579834,9.8000488-0.0719604
			l2.7459717,1.2680054C760.3859253,731.8330688,757.0889282,731.5020752,753.7719116,731.1650391z M777.3568726,730.7470703
			c10.0180054,0.0529785,17.0090332,0.2059937,13.4940186,0.4559937c-1.1640015,0.0830078-2.3309937,0.117981-3.5,0.117981
			C784.0458984,731.3210449,780.7188721,731.0380859,777.3568726,730.7470703z M760.9788818,730.7470703l-0.6170044-0.2850342
			c5.6760254-0.6859741,11.210022-0.2129517,16.6540527,0.2590332l0.3410034,0.0299683
			c-5.0140381-0.0309448-10.7870483-0.0319824-16.3780518-0.0079956V730.7470703z"/>
		
			<g id="グループ_83-2_00000003809512571639343090000009440128166654810253_" transform="translate(50.942 678.516)" class="st7">
			<text transform="matrix(1 0 0 1 632.2538452 102.5390625)" class="st1 st8 st9">GOODS</text>
		</g>
		<text transform="matrix(1 0 0 1 800.1519165 767.5550537)" class="st10 st11 st12">グッズ</text>
	</g>
</g>
<g id="レイヤー_2">
	<g id="_x2F_comics-sp_00000098934169379518851660000010337680483353463940_" transform="translate(-14.418 -667.249)">
		<path id="合体_11_00000147206271067077495930000010813943372078482844_" class="st2" d="M418.9592896,849.5726318
			c-17.6180115-1.1619873-62.5400085-9.9180298-79.8000183-8.8859863c-2.2442932-0.1418457-4.3897095-0.9746094-6.1419983-2.3840332
			c-2.1413269,0.1186523-4.2853394,0.2306519-6.4320068,0.3359985c-1.5461731,1.4489746-3.2635498,2.7035522-5.1139832,3.7360229
			c0.1019897,0.3659668,0.1860046,0.6499634,0.2519836,0.8619995c-0.5858765-1.805603-1.8286133-3.3253174-3.4819946-4.2579956
			l-0.3819885,0.0119629c-11.8120117,0.3600464-23.4599915,1.3040161-35.1820068,1.9860229
			c-2.5,0-4.928009,0.2000122-7.3560181,0.4179688c-3.378418,0.3917847-6.7840881,0.494812-10.1799927,0.3080444
			l-43.4279938,5.1799927c-21.9380035,1.7999878-43.3820038,1.3999634-63.4519958-5.1300049
			c-0.9380035-0.4840088-39.711998-2.9279785-40.6780014-3.4299927c-5.6679993-1.7579956,27.4760056-1.8880005,26.416008-5.2000122
			c-3.6000061-0.9639893-26.1300049-2.2940063-26.416008-4.1619873c-4.1639938-2.4979858-9.0659943-1.5159912-13.3999939-0.5339966
			c-4.6960068,1.0620117-8.7440033,2.1239624-10.5100021-1.2139893c-5.826004-3.1780396,11.0800018-1.9700317,6.6139984-5.644043
			c5.5220032-0.1040039,10.1600037-13.1999512,7.9720001-17.9299927c-1.3253937-0.4468994-2.6872101-0.7775269-4.0699997-0.9879761
			c0.1539993-0.0120239,0.9079971-0.2000122-1.3379974-2.2659912c-8.2000046,0.0559692,5.423996-0.4000244,2.5419998-2.7600098
			c-0.0860062,0,1.7999954-2.1420288,3.512001-4.0579834c-0.5340042-0.0440063-1.0600052-0.1160278-1.5839996-0.2000122
			l-4.4820023,2.9019775c-0.8580017,0-1.4340057-1.8480225-1.5220032-3.723999
			c-0.723999-0.2000122-1.4540024-0.3859863-2.1559982-0.5999756c-5.5999985-1.7620239-6.6480026-3.4240112-3.5360031-5.9120483
			c-0.9499969-0.0279541-1.8300018-0.0419922-2.5219955-0.0479736c0.6879959-0.0139771,1.6399994-0.0280151,2.6279984-0.0360107
			c0.3639984-0.2853394,0.7813339-0.5813599,1.2519989-0.8880005c0.753334-0.4920044,1.4939957-0.9906616,2.2220001-1.4959717
			c-3.5199966,0.0739746-5.814003-0.0500488-4.2180023-0.8619995c-1.1579971-0.4219971-3.3419952-0.8960571-3.3159943-1.2620239
			c0.2679977-3.8259888,12.5879974-8.8099976,5.8559952-9.5419922c4.0579987-2.3220215,4.8420029-0.4520264,5.3099976-2.8959961
			c1.9680023-0.7880249-14.5399933-1.7000122-12.5759964-2.473999c0.4488297-0.0269775,0.8952408-0.085144,1.3359985-0.1740112
			c5.3560028-1.5319824-3.5540009-3.7200317,0.5620041-5.7639771c2.0419998-1.0160522,5.2139969-3.2320557,1.5039978-5.4000244
			c-0.6213226-1.333313-1.8059998-2.3192139-3.2299957-2.6879883c2.5621033-0.6637573,5.1689224-1.1409912,7.7999954-1.4280396
			c-0.5334473-0.1981201-1.0327682-0.4780884-1.4799957-0.8299561c-0.6040268,0.0046387-1.207016-0.0509644-1.8000031-0.1660156
			c-0.6007004,0.1043091-1.2118454,0.1351929-1.8199997,0.09198c-1.9379959,0,7.4000015-0.4819946,11.4000015-1.3040161
			c-0.1740036-0.367981-0.3460007-0.7999878-0.5279999-1.2319946c-2.6760025-0.0199585-6.8580017,0.0760498-8.7580032,0.1600342
			l0.3420029-0.0620117c0,0,0.8239975,0,0.9280014,0.0139771c0.9119949-0.9639893,1.4459991-2.1479492,2.3999939-3.0839844
			c-1.2975388-0.2298584-2.6221085-0.2648926-3.9300003-0.1040039c0,0-0.3519974-1.9199829,8.8880005-4.1140137
			c1.2320023-0.2919922-1.2679977-1.7999878,0-2.0719604c2.33284-0.1005249,4.6006927-0.7988892,6.5860062-2.0280151
			c1.9876099-1.229248,4.2555618-1.9320068,6.5899963-2.0419922c-0.1439972-2.5059814-4.314003-1.9420166-7.5599976-2.0800171
			c3.351059-3.0645142,7.0013733-5.7848511,10.8959961-8.1199951c1.7799988-4.6879883,5.7200012-8.7059937,10.4000015-12.4959717
			c-5.2480011-3.3660278-4.3180008-5.4280396,3.3339996-7.5120239c1.0740051-0.2919922,2.1999969-0.5319824,3.3059998-0.7999878
			c0.3800049,0.0200195,0.7539978,0.0239868,1.1240082,0.0159912c1.6696014-1.3060913,3.5508728-2.31604,5.5619965-2.9860229
			l1.8580017-1.1999512c13.2819977-5.2960205,27.697998-5.3640137,42.526001-3.5540161l29.3999939,4.9580078
			c4.076004-0.3339844,7.8359985,0.7819824,11.826004,0.8399658c7.9120026,0.7280273,15.7859955,1.6820068,23.7460022,2.1400146
			c14.3440094,0.8259888,28.326004,3.0480347,43.0120087,2.7000122c22.4859924-0.5360107,45-1.0740356,67.5100098-0.5180054
			l11.4299927-0.5679932c1.7353516-0.9349365,3.752655-1.203125,5.6719971-0.7540283
			c0.6729736-0.0595093,1.341156-0.1643677,2-0.3139648c2.2000122-0.4379883,4.3859863-0.8779907,3.8699951,1.9899902
			l2.1860046,0.1419678c2.5172424-0.3050537,5.0631714-0.2875366,7.5759888,0.052002
			c7.2000122,0.6760254,22.1459961-1.0939941,35.3120117-2.7279663c8.1520081-1.0120239,15.6180115-1.9700317,20.1359863-2.2600098
			c4.6175232-0.632019,9.3114014-0.4219971,13.8540039,0.6199951c0,2.1260376,1.178009,3.552002,5.3760071,3.3200073
			c2.1419983-0.1160278,4.3039856-0.0980225,6.4580078-0.1400146c0.0119934,0.7999878,0.0239868,1.5946655,0.0360107,2.3840332
			c2.8340149-0.1140137,5.7999878-0.7040405,8.0159912,0.907959c1.178009,0.7520142,4.506012,0.1060181,3.8259888,2.0700073
			c1.2888184,0.7443237,2.7657166,1.0993042,4.2520142,1.0220337c1.2000122,0.0119629,9.052002-1.5700073,17.6199951-3.2000122
			c11.428009-2.184021,24.1319885-4.4660034,24.0320129-3.2000122s-2,1.315979-3.9200439,1.3439941
			c-0.8175659-0.0126953-1.6348267,0.0401001-2.4439697,0.15802c-1.2651978,0.8647461-2.8202515,1.1960449-4.3280029,0.9219971
			c-3.2380371-0.6359863-2.4400024,0-1.618042,0.6339722c0.618042,0.473999,1.2520142,0.9500122,0.2000122,0.8860474
			l-3.8839722,0.1079712c-1.255127,0.6643677-2.7264404,0.789978-4.0759888,0.3480225
			c-1.0145264,0.6964722-2.2116089,1.0790405-3.4420166,1.0999756l-2.1019592,1.2299805
			c-1.7340088,3.2780151,3.8199768,2.8460083,5.9479675,4.1600342l0.2280273-0.0120239l-0.1080322-2.1140137
			c1.5569458,0.2496948,2.980957,1.0263062,4.0339966,2.2000122c1.4285889,0.8005981,2.9242554,1.4751587,4.4699707,2.0159912
			c1.8200073,0.5020142,2.894043,1.0500488,1.0300293,1.9100342c-4.2420044,1.9559937-0.2000122,3.5859985,1.0239868,4.6719971
			s3.907959-0.4660034,5.8939819-0.9819946c3.2880249-0.8519897,4.7200317-3.6959839,9.882019-3.0440063
			c-6.4700317,0.710022,0.0939941,5.2260132-5.9719849,6.0540161c1.6958008,0.3739624,3.4407959,0.4725342,5.1679688,0.2919922
			c2.215332-0.3537598,4.4858398-0.0252075,6.5100098,0.9420166c0.6279907,0,1.2559814-0.0053711,1.8840332-0.0160522
			l3.8800049-0.1119995c2.34198,1.473999-16.0900269,6.3840332-12.7720337,6.1740112
			c2.7613525-0.1605225,5.5315552-0.0681152,8.276001,0.276001h1.0939941
			c4.1269531,0.1240234,8.2575684-0.0189209,12.3660278-0.4279785c1.026001-0.1279907,3.0799561,0.1439819,2.6259766,0.9639893
			c-2.0159912,3.6380005,3.4840088,2.8839722,6.5140381,3.2520142c4.631958,0.5639648,7.8439941,1.6400146,8.2139893,4.3999634
			c-2.0921631,0.0670776-4.1864014,0.0002441-6.2700195-0.1999512c-3.7772827-0.5880737-7.6393433-0.2971802-11.2860107,0.8499756
			c-0.0700073,0.0440063-0.1459961,0.0880127-0.2179565,0.1339722c0.4741821,0.1183472,0.9415283,0.2625732,1.3999634,0.4320068
			c2.9800415,3.8959961-1.3999634,5.7820435-6.302002,7.5280151c-0.6121216,0.326416-1.1711426,0.7438354-1.657959,1.2379761
			c-0.8257446,0.37146-1.7169189,0.5753784-2.6220093,0.6000366c-2.2000122,0.2639771-2.8540039,1.4699707-4.4420166,2.1140137
			c-0.8325806,0.2955322-1.6393433,0.6594238-2.4119873,1.0879517c0.6535645,0.5758667,1.4550171,0.9575806,2.3140259,1.1020508
			c0.711853,0.039978,1.4074707,0.2286987,2.0419922,0.5539551c0.3864746,0.4207764,0.8325195,0.7826538,1.3239746,1.0740356
			c3.8380127,1.5579834,7.2919922,3.223999,5.132019,6.4920044c-0.3493042,0.1375732-0.706604,0.2537842-1.0700073,0.3479614
			c0.0579834,0.0380249,0.117981,0.0759888,0.1740112,0.1160278c2.7912598,1.0188599,5.7931519,1.3227539,8.7319946,0.8839722
			c1.4541016-0.1185913,2.9138794-0.1533203,4.3720093-0.1040039l0.5719604-0.0579834
			c1.1740112-0.1259766,3.5320435,0.1459961,3.0100098,0.9639893c-2.3120117,3.6400146,4,2.8859863,7.4700317,3.2540283
			c5.3099976,0.5619507,9,1.6380005,9.4179688,4.3999634c-2.4018555,0.0679932-4.805603,0.0012207-7.2000122-0.1999512
			c-4.3251953-0.5881348-8.7245483-0.2997437-12.9359741,0.8479614l-0.2479858,0.1340332
			c0.5079956,0.1119995,1.0360107,0.2459717,1.6119995,0.4320068c3.4140015,3.8959961-1.6140137,5.7819824-7.2260132,7.5279541
			c-0.6902466,0.3179321-1.3303833,0.7349854-1.9000244,1.2380371c-0.8865967,0.3516846-1.8252563,0.5543823-2.7780151,0.5999756
			c2,0.8800049,3.144043,1.6480103,2.3560181,2.0960083l-4.7640381-0.2000122l-3.6939697,0.5020142
			c-2.3280029,0.8179932-4.1700439,1.7819824-3.894043,3.3800049c0.8699951,5.0440063,24.5040283,14,15.7880249,14.84198
			c-5.2360229-0.1400146,10.2319946,4.8779907,5.1019897,5.6099854c-6.9275513,1.1124268-13.9528809,1.4925537-20.960022,1.1340332
			c-4.9459839-0.3200073,22.7739868,5.8740234,19.382019,7.5559692l-5.4620361-0.1999512l-4.9159546,0.5799561
			c-2.5808105,0.4857178-5.2188721,0.59021-7.8300171,0.3099976c-2.5526733-0.2510986-5.1270142-0.1737671-7.6599731,0.2300415
			c9.0739746,1.1099854-0.4000244,6.2819824,9.2639771,7.2619629c-7.6359863,0.6520386-9.9419556-2.7299805-14.8880005-3.7999878
			c-2.9840088-0.6519775-7.0780029-2.5440063-8.8280029-1.2879639c-1.75,1.2559814-7.6640015,3.0819702-1.2279663,5.4799805
			c2.8239746,1.0540161,1.2619629,1.6759644-1.4119873,2.2260132c-2.2278442,0.5894775-4.4069824,1.3497314-6.5180054,2.2739868
			c-1.6452637,1.4246216-3.6965332,2.2963867-5.8640137,2.4920044l0.0719604-2.4880371l-0.2199707-0.0780029
			c-2.9440002,1.5540161-11.2980042,0.8959961-8.7999878,4.6700439l3.5660095,1.6699829
			c1.7255859,0.0703125,3.4124146,0.5333862,4.9319763,1.3540039c1.7645874-0.4351196,3.6171875-0.352478,5.3359985,0.2379761
			l5.8439941,0.526001c2.473999-0.2359619,1.4360352,0.3780518,0.4360352,1
			c-1.184021,0.7260132-2.31604,1.4540405,2.4519653,0.7780151c2.2356567-0.2850952,4.5047607,0.128479,6.4960327,1.184021
			c3.3759766,0.5460205,9.2179565-0.302002,9.5579834,1.9099731c0.4000244,2.6220093-58.1819763-8.4400024-62.3479614-8.4679565
			c-2.1229858-0.1315918-4.2470703,0.2391357-6.2000122,1.0819702c-0.028717,0.0142822-0.0423889,0.0476685-0.0320129,0.0780029
			c1.0419922,2.2680054-3.8900146,1.4500122-5.5840149,2.302002c-3.1799927,1.8460083-7.6400146,1.0880127-11.8599854,0.8900146
			c0.0320129,0.9359741,0.0639954,1.8699951,0.0979919,2.7999878c-3.2000122-0.0980225-6.4219971-0.1239624-9.6159973-0.3099976
			c-6.256012-0.3640137-7.9060059,1.2880249-7.7860107,3.7999878c-3.2586975,0.6732178-6.58078,0.9910889-9.9079895,0.947998
			C426.09729,850.1026001,422.5332947,849.8425903,418.9592896,849.5726318z M350.0292969,837.3326416
			c25.4880066,0.0379639,45.9420166-0.0760498,31.6279907-0.5599976c-2.9720154-0.1013184-5.9233398-0.1500244-8.8540039-0.1459961
			C365.1192932,836.6265869,357.5552979,836.9326172,350.0292969,837.3326416z M328.4132996,837.2686157l2.5480042,0.0100098
			c-0.5348511-0.2062378-1.0909119-0.352478-1.65802-0.4360352
			C328.979248,836.918457,328.6755676,837.0637817,328.4132996,837.2686157z M301.6972961,837.1166382l-1.9380188-0.2700195
			C279.8692932,836.8666382,285.9332886,836.9966431,301.6972961,837.1166382z M116.7372742,735.6486206l0.1040039-0.0360107
			c0.0179977-0.0559692,0.0339966-0.1099854,0.0499954-0.1640015
			C116.8363571,735.5124512,116.7849426,735.5792236,116.7372742,735.6486206z M321.721283,843.2366333
			c0.0709229,0.1675415,0.1297607,0.3399658,0.1759949,0.5159912
			C321.826355,843.585022,321.7675476,843.4125977,321.721283,843.2366333z M104.1612778,802.6466064 M93.0972748,785.9786377
			c-0.4459991,0-0.7819977,0.0179443-0.9459991,0.0239868C91.0632782,785.9866333,91.6972809,785.9666138,93.0972748,785.9786377z
			 M95.2352753,747.7786255l-0.5739975,0.1040039c-0.7779999-0.0140381-0.4079971-0.0540161,0.5800018-0.0980225
			L95.2352753,747.7786255z"/>
		<g id="グループ_83_00000099649841046147849050000015927035660802571672_" transform="translate(50.942 678.516)">
			<g class="st0">
				<path class="st1" d="M151.3994293,108.3541718v10.4160156c0,12.5449219-6.2724609,19.7128906-18.3681641,19.7128906
					s-18.3681641-7.1679688-18.3681641-19.7128906V78.0026093c0-12.5429688,6.2724609-19.7109375,18.3681641-19.7109375
					s18.3681641,7.1679688,18.3681641,19.7109375v7.6152344h-11.6484375v-8.3984375
					c0-5.5996094-2.4638672-7.7285156-6.3837891-7.7285156s-6.3837891,2.1289062-6.3837891,7.7285156v42.3359375
					c0,5.5996094,2.4638672,7.6152344,6.3837891,7.6152344s6.3837891-2.015625,6.3837891-7.6152344v-11.2011719H151.3994293z"/>
				<path class="st1" d="M156.7734528,78.0026093c0-12.5429688,6.6083984-19.7109375,18.7041016-19.7109375
					s18.7041016,7.1679688,18.7041016,19.7109375v40.7675781c0,12.5449219-6.6083984,19.7128906-18.7041016,19.7128906
					s-18.7041016-7.1679688-18.7041016-19.7128906V78.0026093z M169.0937653,119.5553436
					c0,5.5996094,2.4638672,7.7265625,6.3837891,7.7265625s6.3837891-2.1269531,6.3837891-7.7265625V77.2194061
					c0-5.5996094-2.4638672-7.7285156-6.3837891-7.7285156s-6.3837891,2.1289062-6.3837891,7.7285156V119.5553436z"/>
				<path class="st1" d="M226.9970856,114.8502655h0.2236328l8.2880859-55.6640625h17.1357422v78.4003906h-11.6474609V81.3619843
					h-0.2236328l-8.2880859,56.2246094h-11.6484375l-8.9599609-55.4394531h-0.2236328v55.4394531h-10.7519531V59.186203h17.1357422
					L226.9970856,114.8502655z"/>
				<path class="st1" d="M260.4824524,59.186203h12.3203125v78.4003906h-12.3203125V59.186203z"/>
				<path class="st1" d="M316.3696594,108.3541718v10.4160156c0,12.5449219-6.2734375,19.7128906-18.3686523,19.7128906
					c-12.0957031,0-18.3681641-7.1679688-18.3681641-19.7128906V78.0026093
					c0-12.5429688,6.2724609-19.7109375,18.3681641-19.7109375c12.0952148,0,18.3686523,7.1679688,18.3686523,19.7109375v7.6152344
					h-11.6489258v-8.3984375c0-5.5996094-2.4638672-7.7285156-6.3837891-7.7285156s-6.3837891,2.1289062-6.3837891,7.7285156
					v42.3359375c0,5.5996094,2.4638672,7.6152344,6.3837891,7.6152344s6.3837891-2.015625,6.3837891-7.6152344v-11.2011719
					H316.3696594z"/>
				<path class="st1" d="M339.3286438,58.2916718c11.984375,0,18.1445312,7.1679688,18.1445312,19.7109375v2.4648438h-11.6484375
					v-3.2480469c0-5.5996094-2.2402344-7.7285156-6.1601562-7.7285156s-6.1601562,2.1289062-6.1601562,7.7285156
					c0,5.7109375,2.4648438,9.9667969,10.5273438,17.0234375c10.3046875,9.0722656,13.5527344,15.5683594,13.5527344,24.5273438
					c0,12.5449219-6.2714844,19.7128906-18.3671875,19.7128906c-12.0976562,0-18.3691406-7.1679688-18.3691406-19.7128906
					v-4.8164062h11.6484375v5.6015625c0,5.5996094,2.4628906,7.6152344,6.3847656,7.6152344
					c3.9199219,0,6.3828125-2.015625,6.3828125-7.6152344c0-5.7128906-2.4628906-9.96875-10.5273438-17.0253906
					c-10.3046875-9.0703125-13.5527344-15.5664062-13.5527344-24.5273438
					C321.1841125,65.4596405,327.3442688,58.2916718,339.3286438,58.2916718z"/>
			</g>
		</g>
	</g>
</g>
<g id="レイヤー_3">
</g>
</svg>
