<?xml version="1.0" encoding="utf-8"?>
<!-- Generator: Adobe Illustrator 26.3.1, SVG Export Plug-In . SVG Version: 6.00 Build 0)  -->
<svg version="1.1" xmlns="http://www.w3.org/2000/svg" xmlns:xlink="http://www.w3.org/1999/xlink" x="0px" y="0px"
	 viewBox="0 0 800 220" style="enable-background:new 0 0 800 220;" xml:space="preserve">
<style type="text/css">
	.st0{enable-background:new    ;}
	.st1{fill:#FFFFFF;}
	.st2{fill:#080808;}
	.st3{opacity:0.44;fill:#FFE73B;enable-background:new    ;}
	.st4{opacity:0.44;fill:#0000FF;enable-background:new    ;}
	.st5{display:none;opacity:0.21;}
	.st6{display:inline;fill:#080808;}
	.st7{display:inline;}
	.st8{display:none;}
	.st9{clip-path:url(#SVGID_00000109716041163912831830000010828454457652334256_);}
	.st10{clip-path:url(#SVGID_00000084520436928300686900000005421543474662528433_);}
	.st11{clip-path:url(#SVGID_00000057129200203465283660000003617060839518734735_);}
	.st12{clip-path:url(#SVGID_00000034057358813443116060000013615619774436317625_);}
	.st13{opacity:0.44;fill:#FF39AF;enable-background:new    ;}
	.st14{clip-path:url(#SVGID_00000085960886218923314520000008367903979765672359_);}
	.st15{clip-path:url(#SVGID_00000033339251816134970260000002521923805855473024_);}
</style>
<g id="レイヤー_1">
</g>
<g id="レイヤー_2">
	<g id="グループ_3264_00000076595618871708763040000016007101635499632269_" transform="translate(-9358 -10603.709)">
		<g id="グループ_2764_00000030471512116137629990000004738759057057003672_" transform="translate(9109.484 9327.992)">
			<path id="パス_4031_00000000925887061334044690000003216556033206391715_" class="st2" d="M824.578125,1318.9368896
				c-3.5040283-0.2419434-9.7319946,1.5639648-7.7639771-4.4119873c0.4439697-1.3480225-1.934021-1.5460205-3.0980225-1.2320557
				c-9.367981,2.5400391-19.684021,1.618042-28.9819946,4.3459473c-0.9786377,0.072876-1.9237671,0.3884277-2.75,0.9179688
				l-8.2000122,0.2440186c-2.8041992-1.9335938-6.5524292-1.7652588-9.1719971,0.4119873l-14.2280273,0.9239502
				l-5.7999878-0.1999512c0.8653564-1.4240723,1.7319336-2.8459473,2.5999756-4.2659912l5.6660156-0.2380371
				c-6.4899902-3.5159912-14.0219727-3.5560303-21.7219849-3.5880127
				c-8.7260132-0.0340576-17.3120117,3.4360352-25.3499756,2.7180176
				c-21.0840454-1.8859863-41.9400024,0.6719971-62.8800049,0.8299561c-0.9608154-0.0217285-1.921875,0.0332031-2.8740234,0.1639404
				c-5.2479858,0.8000488-12.2860107-1.6560059-14.5419922,4.5799561l-54.3579712,2.0240479
				c-5.1680298-2.4200439-11-1.5820312-16.6000366-1.4279785c-14.2000122,0.4000244-28.3999634,1-42.6000061,1.5999756
				c-5.7059937,0.2440186-11.3819885,0.6159668-16.6539917-1.4119873c-0.0186768-0.7093506-0.0480042-1.4187012-0.0880127-2.1280518
				l-17.3659973,0.6340332c-22.7900085-0.5999756,144.447998-17.1999512,121.9680176-12.7640381
				c-22.5219727,4.4460449-46.0620117-1.9060059-69.9660034,4.4880371l8,4.1540527
				c-7.6799927,0.1879883-15.2919922-0.1199951-22.9519653-0.4420166
				c-11.4740295-0.4840088-23.0600281-4.7099609-35.1060181,0.7559814
				c-3.3760071,1.5319824-10.6759949,1.2679443-15.3259888-0.8199463
				c-9.5160217-4.2740479-20.2360229-3.8800049-30.5540161-3.8620605
				c-7.8779907,0.0140381-16.4979858-1.4899902-23.7999878,2.6860352c-14.1459961,0.7619629-2.4240112,1.0379639-16.70401-0.3320312
				c-3.1459961-0.302002-12.3639832-2.355957-12.3639832-2.355957s-13.8919983-1.6800537-22.2980042,1.9599609
				c-5.0280151-0.3900146-9,2.5159912-13.8520203,2.6500244c-1.2399902,0.5400391-2.5079956,1.0439453-3.7120056,1.6280518
				c-9.019989,4.3719482-9.5059814,7.8719482-2.0440063,13.0100098c4.1300049,2.8439941,8.0280151,5.8759766,12.0300293,8.8220215
				c0.9849548,0.3365479,2.068512,0.2186279,2.9579773-0.3220215c0.2000122,0.657959,0.3359985,1.3060303,0.5140076,1.9460449
				c1.6882629,0.7335205,2.9632874,2.1793213,3.480011,3.9460449c3.9119873,3.06604,0.9499817,6.8740234-1,8.6800537
				c-3.9160156,3.6359863,5.1860046,6.223999-0.0200195,9.1679688c-0.4240112,0.1794434-0.8657837,0.3134766-1.3179932,0.4000244
				l-5.6719971,4.2800293c0.0788879,4.3956299-1.5657349,8.647583-4.5820007,11.8459473
				c6.8000183,0.4980469,12.973999,1.2259521,13.0660095,7.2979736c0,0.5820312,2.2339783,1.1159668,3.4299927,1.6719971
				c-4.4139709,4.184082-13.2139893,2.144043-17.2139893,6.8859863c-0.900177,0.0585938-1.7896423,0.2285156-2.6479797,0.5059814
				c-0.9043884-0.126709-1.8226624-0.1165771-2.723999,0.0300293c-2.2156982,0.1268311-4.1491089,1.5460205-4.934021,3.6219482
				c2.4830017,0.6685791,5.0777588,0.814209,7.6200256,0.4279785l1.3859863,0.1999512l1.382019-0.1259766
				c3.1000061,3.43396,4.0220032,8.7220459,12.1999817,7.8320312c4.7140198,5.9100342,11.9859924,9.552002,20.132019,12.4179688
				c2.6279907,7.2619629-4.8420105,6.3859863-10.3460083,7.092041c4.8000183,5.3699951,11.5,9.4219971,17.6159973,13.8759766
				c4,9.8220215-0.243988,11.2159424,8.8999939,18.5820312c0.4620056,2.9239502,1.184021,0.8859863,1.184021,0.8859863
				s6.2519836,8,12.0759888,10.2180176l2.9760132,2.0400391c20.6560059,8.3520508,42.1080017,6.8900146,63.8479919,1.8979492
				l42.8840332-12.43396c6.1220093,0.1700439,11.5180054-2.3139648,17.4419556-2.8640137
				c11.644043-2.223999,23.1879883-4.855957,34.9500122-6.5839844c21.2000122-3.1120605,41.6000366-8.7779541,63.5040283-9.7459717
				c33.5360107-1.4840088-123.0000305,12.4420166-89.6260376,8.9320068l17.0980225-0.1999512
				c2.5964966,1.5284424,5.7412109,1.8132324,8.5700073,0.776001c3.7860107-0.0279541,6.0499878,12.18396,4.3800049,5.2459717
				c1.0739746-0.1679688,6.2260132-9.342041,7.2999878-9.5100098c3.8519897,0.4799805,6.4779663,5.8260498,10.2000122,5.105957
				c17.1419678-3.3179932,62.8259888,6.1300049,80.5299683,6.2419434
				c7.0499878,0.1479492,14.0900269,0.2459717,20.4960327-2.6739502c-0.3540039-3.9439697,1.1380005-6.7180176,7.4199829-6.7559814
				c3.2000122-0.0179443,6.4200439-0.2919922,9.6300049-0.4499512c-0.1186523-1.4746094-0.2379761-2.9500732-0.3579712-4.4260254
				c4.2340088-0.0999756,8.7600098,0.6639404,11.7619629-2.56604c1.6240234-1.526001,6.684021-0.6939697,5.3319702-4.2619629
				c1.7053223-1.4902344,3.883606-2.3277588,6.1480103-2.3640137c4.1640015-0.3659668,63.7059937,11.3859863,63.0599976,7.2840576
				c-0.5479736-3.4639893-6.2999878-1.552002-9.7260132-2.0839844c-1.8804932-1.4332275-4.3286743-1.8909912-6.5999756-1.2340088
				c-8.2379761,2.6939697,1.2459717-3.2139893-2.367981-2.6619873l-5.7999878,0.2280273
				c-1.8774414-1.0935059-4.1791992-1.1687012-6.1240234-0.1999512c-1.5272217-1.1459961-3.4019775-1.7320557-5.3099976-1.6600342
				l-3.3380127-2.0539551c-3.1480103-5.8859863,5.1859741-5.6999512,8.1259766-8.3699951c0.1140137,0,0.2260132,0,0.3380127,0
				l0.1640015,3.9420166c2.3825684-0.7266846,4.3946533-2.3413086,5.6199951-4.5100098
				c1.949585-1.6207275,4.0591431-3.0388184,6.2960205-4.2320557c2.6199951-1.1300049,4.1199951-2.2679443,1.2000122-3.6560059
				c-6.6519775-3.1600342-0.9060059-6.6359863,0.7119751-8.7819824s5.8939819,0.4320068,8.9379883,1.1700439
				c5.0380249,1.2199707,7.6599731,6.3380127,15.223999,4.5600586c-9.7459717-0.5999756-0.7680054-9.7080078-9.934021-10.5739746
				c5.4619751-2.4160156,12.5999756,0.5899658,17.1560059-3.5739746c0.9333496-0.0639648,1.8666382-0.1240234,2.7999878-0.1800537
				l5.789978-0.2180176c3.2299805-3-25.0360107-10.0720215-20.065979-10.0479736
				c7.1048584-0.1317139,14.1398926-1.4296875,20.8239746-3.842041c5.0560303-1.657959-10.8640137-8.0799561-5.6220093-8.3699951
				c8.6259766-2.1860352-15.8200073-14.0279541-17.1619873-21.9160156c-0.4719849-2.7719727,1.7340088-4.56604,4.3239746-6.2199707
				c1.7579956-1.1999512,2.3880005-3.1739502,4.8900146-3.8380127c1.0712891-0.159668,2.0842896-0.5892334,2.9439697-1.2480469
				c0.4807739-0.8016357,1.0817261-1.5247803,1.7819824-2.144043c5.4400024-3.3100586,10.2860107-6.7860107,6.5079956-12.5999756
				c-0.536377-0.2155762-1.0878296-0.3913574-1.6500244-0.526001c0.0780029-0.0799561,0.1599731-0.157959,0.2360229-0.2359619
				c5.9260254-4.06604,13.4000244-1.8280029,20.039978-3
				C833.7221069,1320.6468506,829.9421387,1319.3048096,824.578125,1318.9368896z"/>
			<g id="グループ_2762_00000055692608657506183170000007496514752514005907_" transform="translate(181.729 585.222)">
				<g class="st0">
					<path class="st1" d="M218.5591278,761.5183105h15.4560547l11.984375,46.9277344h0.2236328v-46.9277344h10.9755707v78.4003906
						h-12.6552582l-14.7841797-57.2324219h-0.2236328v57.2324219h-10.9765625V761.5183105z"/>
					<path class="st1" d="M265.261261,761.5183105h33.5996094v11.2011719h-21.2792969v20.71875h16.9121094v11.2011719h-16.9121094
						v24.0800781h21.2792969v11.1992188H265.261261V761.5183105z"/>
					<path class="st1" d="M301.8843079,761.5183105h11.8720703l5.4882812,60.2558594h0.2236328l5.8242188-60.2558594h13.4404297
						l5.8232422,60.2558594h0.2246094l5.4873047-60.2558594h10.640625l-7.9521484,78.4003906h-15.34375l-5.6005859-52.8632812
						h-0.2236328l-5.6005859,52.8632812h-16.3515625L301.8843079,761.5183105z"/>
					<path class="st1" d="M363.9321594,821.3269043v-4.4804688h11.6484375v5.3769531
						c0,5.5996094,2.4638672,7.6152344,6.3837891,7.6152344s6.3837891-2.015625,6.3837891-7.8398438
						c0-6.4960938-2.4638672-10.640625-10.5283203-17.6953125c-10.3037109-9.0722656-13.6630859-15.4570312-13.6630859-24.4160156
						c0-12.3203125,6.3837891-19.4882812,18.3671875-19.4882812c11.984375,0,17.9199219,7.1679688,17.9199219,19.7109375v3.2480469
						h-11.6474609v-4.03125c0-5.5996094-2.2402344-7.7285156-6.1601562-7.7285156s-6.1601562,2.1289062-6.1601562,7.5039062
						c0,5.7128906,2.5761719,9.8574219,10.6396484,16.9121094c10.3046875,9.0722656,13.5527344,15.34375,13.5527344,25.0878906
						c0,12.7675781-6.4960938,19.9355469-18.5917969,19.9355469
						C369.980011,841.0378418,363.9321594,833.869873,363.9321594,821.3269043z"/>
				</g>
			</g>
			<g class="st0">
				<path class="st1" d="M607.4463501,1376.7324219h4.4179688l3.4248047,13.4121094h0.0644531v-13.4121094h3.1376953v22.4082031
					h-3.6181641l-4.2255859-16.359375h-0.0634766v16.359375h-3.1376953V1376.7324219z"/>
				<path class="st1" d="M623.5108032,1376.7324219h4.7705078l3.6494141,22.4082031h-3.5214844l-0.640625-4.4492188v0.0625
					h-4.0009766l-0.640625,4.3867188h-3.265625L623.5108032,1376.7324219z M627.3526001,1391.7128906l-1.5683594-11.0761719
					h-0.0644531l-1.5361328,11.0761719H627.3526001z"/>
				<path class="st1" d="M633.3018188,1376.7324219h5.2177734c3.6494141,0,5.21875,1.6953125,5.21875,5.1523438v1.3769531
					c0,2.3046875-0.7363281,3.7773438-2.3056641,4.4179688v0.0644531c1.7607422,0.5449219,2.3378906,2.2089844,2.3378906,4.7382812
					v3.9375c0,1.0878906,0.03125,1.8886719,0.3837891,2.7207031h-3.5859375
					c-0.1914062-0.5761719-0.3193359-0.9277344-0.3193359-2.7539062v-4.0976562
					c0-2.0800781-0.6083984-2.7519531-2.2089844-2.7519531h-1.2167969v9.6035156h-3.5214844V1376.7324219z
					 M638.1035767,1386.3359375c1.3125,0,2.1132812-0.5761719,2.1132812-2.3691406v-1.7285156
					c0-1.6015625-0.5439453-2.3046875-1.7929688-2.3046875h-1.6005859v6.4023438H638.1035767z"/>
				<path class="st1" d="M645.7490845,1393.8261719v-17.09375h3.5214844v17.3496094
					c0,1.6015625,0.671875,2.1777344,1.7929688,2.1777344c1.1201172,0,1.7919922-0.5761719,1.7919922-2.1777344v-17.3496094
					h3.3935547v17.09375c0,3.5859375-1.7929688,5.6347656-5.25,5.6347656S645.7490845,1397.4121094,645.7490845,1393.8261719z"/>
				<path class="st1" d="M661.1738892,1379.9335938h-3.6816406v-3.2011719h10.8847656v3.2011719h-3.6816406v19.2070312h-3.5214844
					V1379.9335938z"/>
				<path class="st1" d="M669.3652954,1393.8261719v-11.78125c0-3.5839844,1.8886719-5.6328125,5.3457031-5.6328125
					c3.4580078,0,5.3466797,2.0488281,5.3466797,5.6328125v11.78125c0,3.5859375-1.8886719,5.6347656-5.3466797,5.6347656
					C671.2539673,1399.4609375,669.3652954,1397.4121094,669.3652954,1393.8261719z M676.5361938,1394.0507812v-12.2285156
					c0-1.6015625-0.7041016-2.2089844-1.8251953-2.2089844c-1.1201172,0-1.8242188,0.6074219-1.8242188,2.2089844v12.2285156
					c0,1.5996094,0.7041016,2.2089844,1.8242188,2.2089844
					C675.8320923,1396.2597656,676.5361938,1395.6503906,676.5361938,1394.0507812z"/>
				<path class="st1" d="M686.6768188,1393.9550781v-12.0371094c0-3.4570312,1.7919922-5.5058594,5.1855469-5.5058594
					s5.1865234,2.0488281,5.1865234,5.5058594v2.3691406h-3.3300781v-2.59375c0-1.4726562-0.7041016-2.0800781-1.7607422-2.0800781
					c-1.0556641,0-1.7597656,0.6074219-1.7597656,2.0800781v12.5175781c0,1.4726562,0.7041016,2.0488281,1.7597656,2.0488281
					c1.0566406,0,1.7607422-0.5761719,1.7607422-2.0488281v-3.4257812h3.3300781v3.1699219
					c0,3.4570312-1.7929688,5.5058594-5.1865234,5.5058594S686.6768188,1397.4121094,686.6768188,1393.9550781z"/>
				<path class="st1" d="M698.6445923,1393.8261719v-11.78125c0-3.5839844,1.8886719-5.6328125,5.3457031-5.6328125
					c3.4580078,0,5.3466797,2.0488281,5.3466797,5.6328125v11.78125c0,3.5859375-1.8886719,5.6347656-5.3466797,5.6347656
					C700.5332642,1399.4609375,698.6445923,1397.4121094,698.6445923,1393.8261719z M705.8154907,1394.0507812v-12.2285156
					c0-1.6015625-0.7041016-2.2089844-1.8251953-2.2089844c-1.1201172,0-1.8242188,0.6074219-1.8242188,2.2089844v12.2285156
					c0,1.5996094,0.7041016,2.2089844,1.8242188,2.2089844
					C705.1113892,1396.2597656,705.8154907,1395.6503906,705.8154907,1394.0507812z"/>
				<path class="st1" d="M711.3799438,1376.7324219h5.2177734c3.6494141,0,5.21875,1.6953125,5.21875,5.1523438v1.3769531
					c0,2.3046875-0.7363281,3.7773438-2.3056641,4.4179688v0.0644531c1.7607422,0.5449219,2.3378906,2.2089844,2.3378906,4.7382812
					v3.9375c0,1.0878906,0.03125,1.8886719,0.3837891,2.7207031h-3.5859375
					c-0.1914062-0.5761719-0.3193359-0.9277344-0.3193359-2.7539062v-4.0976562
					c0-2.0800781-0.6083984-2.7519531-2.2089844-2.7519531h-1.2167969v9.6035156h-3.5214844V1376.7324219z
					 M716.1817017,1386.3359375c1.3125,0,2.1132812-0.5761719,2.1132812-2.3691406v-1.7285156
					c0-1.6015625-0.5439453-2.3046875-1.7929688-2.3046875h-1.6005859v6.4023438H716.1817017z"/>
				<path class="st1" d="M723.9561157,1376.7324219h4.4179688l3.4248047,13.4121094h0.0644531v-13.4121094h3.1376953v22.4082031
					h-3.6181641l-4.2255859-16.359375h-0.0634766v16.359375h-3.1376953V1376.7324219z"/>
				<path class="st1" d="M737.2998657,1376.7324219h9.6035156v3.2011719h-6.0820312v5.921875h4.8339844v3.2011719h-4.8339844
					v6.8828125h6.0820312v3.2011719h-9.6035156V1376.7324219z"/>
				<path class="st1" d="M748.5957642,1376.7324219h5.2177734c3.6494141,0,5.21875,1.6953125,5.21875,5.1523438v1.3769531
					c0,2.3046875-0.7363281,3.7773438-2.3056641,4.4179688v0.0644531c1.7607422,0.5449219,2.3369141,2.2089844,2.3369141,4.7382812
					v3.9375c0,1.0878906,0.0322266,1.8886719,0.3847656,2.7207031h-3.5859375
					c-0.1914062-0.5761719-0.3193359-0.9277344-0.3193359-2.7539062v-4.0976562
					c0-2.0800781-0.6083984-2.7519531-2.2089844-2.7519531h-1.2167969v9.6035156h-3.5214844V1376.7324219z M753.397522,1386.3359375
					c1.3125,0,2.1132812-0.5761719,2.1132812-2.3691406v-1.7285156c0-1.6015625-0.5449219-2.3046875-1.7929688-2.3046875h-1.6005859
					v6.4023438H753.397522z"/>
			</g>
		</g>
	</g>
</g>
<g id="レイヤー_3">
</g>
</svg>
