<?xml version="1.0" encoding="utf-8"?>
<!-- Generator: Adobe Illustrator 26.3.1, SVG Export Plug-In . SVG Version: 6.00 Build 0)  -->
<svg version="1.1" xmlns="http://www.w3.org/2000/svg" xmlns:xlink="http://www.w3.org/1999/xlink" x="0px" y="0px" width="800px"
	 height="220px" viewBox="0 0 800 220" style="enable-background:new 0 0 800 220;" xml:space="preserve">
<style type="text/css">
	.st0{enable-background:new    ;}
	.st1{fill:#FFFFFF;}
	.st2{fill:#080808;}
	.st3{opacity:0.44;fill:#FFE73B;enable-background:new    ;}
	.st4{opacity:0.44;fill:#0000FF;enable-background:new    ;}
	.st5{display:none;opacity:0.21;}
	.st6{display:inline;fill:#080808;}
	.st7{display:inline;}
	.st8{font-family:'BebasNeue';}
	.st9{font-size:56px;}
	.st10{display:inline;fill:#FFFFFF;}
	.st11{font-family:'UDKakugoC80Pro-B-90ms-RKSJ-H';}
	.st12{font-size:12px;}
	.st13{display:none;}
	.st14{clip-path:url(#SVGID_00000101816489824383449320000009731862889966459810_);}
	.st15{clip-path:url(#SVGID_00000144333451188280251390000009719581537978501803_);}
	.st16{clip-path:url(#SVGID_00000004542624024213275590000013312600917679791018_);}
	.st17{clip-path:url(#SVGID_00000050657109700021787670000004443046704548360626_);}
	.st18{opacity:0.44;fill:#FF39AF;enable-background:new    ;}
</style>
<g id="レイヤー_1">
	<g id="_x2F_news-comics-sp" transform="translate(9.485 -1356.321)" class="st5">
		<path id="パス_4030" class="st6" d="M352.9940796,1413.5708008c-1.7520142-0.1209717-4.8659973,0.7819824-3.8819885-2.2060547
			c0.2219849-0.6739502-0.9670105-0.7729492-1.5490112-0.6159668c-4.6839905,1.2700195-9.8420105,0.80896-14.4909973,2.1729736
			c-0.4893188,0.036377-0.9618835,0.1942139-1.375,0.4589844l-4.1000061,0.1219482
			c-1.4020996-0.9667969-3.2762146-0.8825684-4.5859985,0.2060547l-7.1140137,0.4619141l-2.8999939-0.0999756
			c0.4326782-0.7120361,0.8659668-1.4229736,1.2999878-2.1329346l2.8330078-0.1190186
			c-3.2449951-1.7580566-7.0109863-1.7780762-10.8609924-1.7940674c-4.3630066-0.0169678-8.6560059,1.7180176-12.6749878,1.3590088
			c-10.5420227-0.9429932-20.9700012,0.3360596-31.4400024,0.4150391c-0.4804077-0.0108643-0.9609375,0.0166016-1.4370117,0.0819092
			c-2.6239929,0.4000244-6.1430054-0.8280029-7.2709961,2.2900391l-27.1790009,1.0119629
			c-2.5839996-1.2099609-5.5-0.7910156-8.3000031-0.7139893c-7.1000061,0.2000732-14.1999969,0.5-21.3000031,0.8000488
			c-2.8529968,0.1219482-5.6909943,0.3079834-8.3269958-0.7060547c-0.0093384-0.3546143-0.0240021-0.7093506-0.0440063-1.0639648
			l-8.6829987,0.3170166c-11.3950043-0.3000488,72.223999-8.5999756,60.9840088-6.3820801
			c-11.2610016,2.2230225-23.0310059-0.9530029-34.9830017,2.2440186l4,2.0770264
			c-3.8399963,0.0939941-7.6459961-0.0599365-11.4759979-0.2209473c-5.7369995-0.2420654-11.5299988-2.3549805-17.5529938,0.3779297
			c-1.6880035,0.7659912-5.3379974,0.6340332-7.6629944-0.4099121c-4.7580109-2.137085-10.1180115-1.9400635-15.2770081-1.9310303
			c-3.9389954,0.006958-8.2489929-0.7449951-11.8999939,1.3430176c-7.072998,0.3809814-1.2120056,0.5189209-8.352005-0.1660156
			c-1.572998-0.151001-6.1819916-1.1779785-6.1819916-1.1779785s-6.9459991-0.8400879-11.1490021,0.9799805
			c-2.5139999-0.1950684-4.5,1.2579346-6.9260025,1.3249512c-0.6200027,0.2700195-1.2539978,0.5219727-1.8560028,0.8140869
			c-4.5100021,2.1859131-4.7529984,3.9359131-1.0220032,6.5050049c2.0650024,1.4219971,4.0140076,2.9379883,6.015007,4.4110107
			c0.492485,0.1682129,1.034256,0.1092529,1.4789963-0.1610107c0.0999985,0.3289795,0.1679993,0.6529541,0.2570038,0.9730225
			c0.8441315,0.3666992,1.4816437,1.0895996,1.7399979,1.9730225c1.9560013,1.532959,0.4749985,3.4370117-0.5,4.3399658
			c-1.9580002,1.8179932,2.5930023,3.1120605-0.0100021,4.5839844c-0.2120056,0.0897217-0.4328995,0.1567383-0.6589966,0.2000732
			l-2.8359985,2.1400146c0.0394363,2.1977539-0.7828751,4.3237305-2.2910004,5.9229736
			c3.4000015,0.2490234,6.4869995,0.612915,6.5329971,3.6489258c0,0.2910156,1.1169968,0.5579834,1.7149963,0.8360596
			c-2.2069855,2.092041-6.606987,1.0720215-8.606987,3.4429932c-0.4500961,0.0292969-0.8948212,0.1142578-1.3239975,0.2529297
			c-0.4521866-0.0633545-0.9113235-0.0582275-1.3619995,0.0150146c-1.1078491,0.0634766-2.0745544,0.7730713-2.4670029,1.8110352
			c1.2415009,0.3342285,2.5388794,0.4071045,3.8100052,0.2139893l0.6930008,0.0999756l0.6910019-0.0629883
			c1.5500031,1.7169189,2.0110016,4.3609619,6.0999985,3.9160156c2.3570023,2.9549561,5.9929962,4.776001,10.0660019,6.2089844
			c1.3139954,3.6309814-2.4209976,3.1929932-5.1729965,3.5460205c2.4000015,2.6849365,5.7499924,4.7109375,8.807991,6.9379883
			c2,4.9110107-0.121994,5.6079102,4.4499969,9.2910156c0.2310028,1.4619141,0.5920105,0.4429932,0.5920105,0.4429932
			s3.1259918,4,6.0379944,5.1090088l1.4880066,1.0200195c10.3280029,4.1760254,21.0540009,3.4449463,31.923996,0.9489746
			l21.4420013-6.217041c3.0610046,0.085083,5.7590027-1.1569824,8.720993-1.4320068
			c5.8220062-1.1119385,11.5939941-2.4279785,17.4750061-3.2919922c10.6000061-1.5560303,20.8000031-4.388916,31.7520142-4.8729248
			c16.7680054-0.7420654-61.5000153,6.2209473-44.8130188,4.4659424l8.548996-0.0999756
			c1.2982483,0.7642822,2.8706055,0.9066162,4.2850037,0.3880615c1.8930054-0.0140381,3.0249939,6.0919189,2.1900024,2.6229248
			c0.5370026-0.0839844,3.1130066-4.6710205,3.6499939-4.7550049c1.9259949,0.2399902,3.2389984,2.9130859,5.1000061,2.5529785
			c8.5709991-1.6589355,31.4130096,3.0650635,40.2649994,3.1209717c3.5249939,0.0739746,7.0450134,0.1230469,10.2480164-1.3369141
			c-0.177002-1.9720459,0.5690002-3.3590088,3.7099915-3.3780518c1.6000061-0.0089111,3.210022-0.1459961,4.8150024-0.2249756
			c-0.0593262-0.7373047-0.118988-1.4749756-0.1789856-2.2130127c2.1170044-0.0499268,4.3800049,0.3320312,5.8809814-1.282959
			c0.8120117-0.7630615,3.3420105-0.3470459,2.6659851-2.1309814c0.8526611-0.7451172,1.941803-1.1639404,3.0740051-1.1820068
			c2.0820007-0.1829834,31.8529968,5.6929932,31.5299988,3.6419678c-0.2739868-1.7319336-3.1499939-0.776001-4.8630066-1.0419922
			c-0.9402466-0.7165527-2.1643372-0.9454346-3.2999878-0.6169434c-4.118988,1.3469238,0.6229858-1.6070557-1.1839905-1.3310547
			l-2.8999939,0.1140137c-0.9387207-0.5467529-2.0895996-0.5843506-3.0620117-0.0999756
			c-0.7636108-0.572998-1.7009888-0.8659668-2.6549988-0.8299561l-1.6690063-1.0269775
			c-1.5740051-2.9429932,2.5929871-2.8499756,4.0629883-4.1850586c0.0570068,0,0.1130066,0,0.1690063,0l0.0820007,1.9710693
			c1.1912842-0.3634033,2.1973267-1.1706543,2.8099976-2.2550049c0.9747925-0.8104248,2.0295715-1.5194092,3.1480103-2.1160889
			c1.3099976-0.5649414,2.0599976-1.1339111,0.6000061-1.8280029c-3.3259888-1.5799561-0.4530029-3.3179932,0.3559875-4.3909912
			s2.946991,0.2160645,4.4689941,0.585083c2.5190125,0.6099854,3.8299866,3.1689453,7.6119995,2.2800293
			c-4.8729858-0.3000488-0.3840027-4.8540039-4.9670105-5.2869873c2.7309875-1.2080078,6.2999878,0.2949219,8.5780029-1.7869873
			c0.4666748-0.0319824,0.9333191-0.0620117,1.3999939-0.0900879l2.894989-0.1090088
			c1.6149902-1.5-12.5180054-5.0360107-10.0329895-5.0239258c3.5524292-0.065918,7.0699463-0.7148438,10.4119873-1.9210205
			c2.5280151-0.8289795-5.4320068-4.0400391-2.8110046-4.1850586c4.3129883-1.0930176-7.9100037-7.013916-8.5809937-10.9580078
			c-0.2359924-1.3859863,0.8670044-2.282959,2.1619873-3.1099854c0.8789978-0.5999756,1.1940002-1.5869141,2.4450073-1.9189453
			c0.5356445-0.079834,1.0421448-0.2946777,1.4719849-0.6240234c0.240387-0.4008789,0.540863-0.7624512,0.8909912-1.0720215
			c2.7200012-1.6550293,5.1430054-3.3930664,3.2539978-6.3000488c-0.2681885-0.1077881-0.5439148-0.1956787-0.8250122-0.2629395
			c0.0390015-0.0400391,0.0799866-0.0789795,0.1180115-0.118042c2.9630127-2.032959,6.7000122-0.9139404,10.019989-1.5
			C357.5660706,1414.4257812,355.6760864,1413.7547607,352.9940796,1413.5708008z"/>
		<g id="グループ_2751" transform="translate(-76.271 665.826)" class="st7">
			<text transform="matrix(1 0 0 1 214.8240967 800.8456421)" class="st1 st8 st9">NEWS</text>
		</g>
		<text transform="matrix(1 0 0 1 243.7733002 1442.2229004)" class="st10 st11 st12">コミックス</text>
		<text transform="matrix(1 0 0 1 243.7733002 1462.2229004)" class="st10 st11 st12">最新情報</text>
	</g>
</g>
<g id="レイヤー_2">
	<g id="グループ_5917" transform="translate(9.485 -1426.321)">
		<path id="パス_4030_00000150088759546158351330000004146325236015124142_" class="st2" d="M565.7468872,1469.0415039
			c-3.5040283-0.2419434-9.7319946,1.5639648-7.7639771-4.4119873c0.4439697-1.3480225-1.934021-1.5460205-3.0980225-1.2320557
			c-9.367981,2.5400391-19.684021,1.618042-28.9819946,4.3459473c-0.9786377,0.072876-1.9237671,0.3884277-2.75,0.9179688
			l-8.2000122,0.2440186c-2.8041992-1.9335938-6.5523987-1.7652588-9.1719666,0.4119873l-14.2280273,0.9239502l-5.7999878-0.1999512
			c0.8653564-1.4240723,1.7319336-2.8459473,2.5999756-4.2659912l5.6660156-0.2380371
			c-6.4899902-3.5159912-14.0219727-3.5560303-21.7219849-3.5880127
			c-8.7260132-0.0340576-17.3120117,3.4360352-25.3500061,2.7180176
			c-21.0840149-1.8859863-41.9400024,0.6719971-62.8800049,0.8299561c-0.9608154-0.0217285-1.921875,0.0332031-2.8739929,0.1639404
			c-5.2479858,0.8000488-12.2860107-1.6560059-14.5419922,4.5799561l-54.3580017,2.0240479
			c-5.1679993-2.4200439-11-1.5820312-16.6000061-1.4279785c-14.2000122,0.4000244-28.3999939,1-42.6000061,1.5999756
			c-5.7059937,0.2440186-11.3819885,0.6159668-16.6539917-1.4119873c-0.0186768-0.7093506-0.0480042-1.4187012-0.0880127-2.1280518
			l-17.3659973,0.6340332c-22.7900085-0.5999756,144.447998-17.1999512,121.9680176-12.7640381
			c-22.5220032,4.4460449-46.0620117-1.9060059-69.9660034,4.4880371l8,4.1540527
			c-7.6799927,0.1879883-15.2919922-0.1199951-22.9519958-0.4420166
			c-11.473999-0.4840088-23.0599976-4.7099609-35.1059875,0.7559814c-3.3760071,1.5319824-10.6759949,1.2679443-15.326004-0.8199463
			c-9.5160065-4.2740479-20.2360077-3.8800049-30.5540009-3.8620605c-7.878006,0.0140381-16.4980011-1.4899902-23.8000031,2.6860352
			c-14.1459961,0.7619629-2.423996,1.0379639-16.7039948-0.3320312c-3.1459961-0.302002-12.3639984-2.355957-12.3639984-2.355957
			s-13.8919983-1.6800537-22.2980042,1.9599609c-5.0279999-0.3900146-9,2.5159912-13.852005,2.6500244
			c-1.2400055,0.5400391-2.5079956,1.0439453-3.7120056,1.6280518c-9.0200043,4.3719482-9.5059967,7.8719482-2.0439987,13.0100098
			c4.1299973,2.8439941,8.0280075,5.8759766,12.0300064,8.8220215c0.9849701,0.3365479,2.068512,0.2186279,2.9579926-0.3220215
			c0.1999969,0.657959,0.3359985,1.3060303,0.5140076,1.9460449c1.6882629,0.7335205,2.9632874,2.1793213,3.4799957,3.9460449
			c3.9120026,3.06604,0.9499969,6.8740234-1,8.6800537c-3.9160004,3.6359863,5.1860046,6.223999-0.0200043,9.1679688
			c-0.4240112,0.1794434-0.865799,0.3134766-1.3179932,0.4000244l-5.6719971,4.2800293
			c0.0788727,4.3956299-1.5657501,8.647583-4.5820007,11.8459473c6.8000031,0.4980469,12.973999,1.2259521,13.0659943,7.2979736
			c0,0.5820312,2.2339935,1.1159668,3.4299927,1.6719971c-4.4139709,4.184082-13.213974,2.144043-17.213974,6.8859863
			c-0.9001923,0.0585938-1.7896423,0.2285156-2.647995,0.5059814c-0.9043732-0.126709-1.8226471-0.1165771-2.723999,0.0300293
			c-2.2156982,0.1268311-4.1491089,1.5460205-4.9339981,3.6219482c2.4830017,0.6685791,5.0777588,0.814209,7.6200027,0.4279785
			l1.3860016,0.1999512l1.3820038-0.1259766c3.1000061,3.43396,4.0220032,8.7220459,12.1999969,7.8320312
			c4.7140045,5.9100342,11.9859924,9.552002,20.1320038,12.4179688c2.628006,7.2619629-4.8419952,6.3859863-10.345993,7.092041
			c4.8000031,5.3699951,11.5,9.4219971,17.6159973,13.8759766c4,9.8220215-0.2440033,11.2159424,8.8999939,18.5820312
			c0.4620056,2.9239502,1.1840057,0.8859863,1.1840057,0.8859863s6.2519989,8,12.076004,10.2180176l2.9759979,2.0400391
			c20.6560059,8.3520508,42.1080017,6.8900146,63.8480072,1.8979492l42.8840027-12.43396
			c6.1220093,0.1700439,11.5180054-2.3139648,17.4419861-2.8640137c11.6440125-2.223999,23.1879883-4.855957,34.9500122-6.5839844
			c21.2000122-3.1120605,41.6000061-8.7779541,63.5039978-9.7459717c33.5360107-1.4840088-123,12.4420166-89.6260071,8.9320068
			l17.0979919-0.1999512c2.5964966,1.5284424,5.7412109,1.8132324,8.5700073,0.776001
			c3.7860107-0.0279541,6.0499878,12.18396,4.3800049,5.2459717c1.0740051-0.1679688,6.2260132-9.342041,7.2999878-9.5100098
			c3.8519897,0.4799805,6.4779968,5.8260498,10.2000122,5.105957c17.1419983-3.3179932,62.8259888,6.1300049,80.5299988,6.2419434
			c7.0499878,0.1479492,14.0899963,0.2459717,20.4960022-2.6739502c-0.3540039-3.9439697,1.1380005-6.7180176,7.4200134-6.7559814
			c3.2000122-0.0179443,6.4200134-0.2919922,9.6300049-0.4499512c-0.1186523-1.4746094-0.2380066-2.9500732-0.3580017-4.4260254
			c4.2340088-0.0999756,8.7600098,0.6639404,11.7619934-2.56604c1.6239929-1.526001,6.684021-0.6939697,5.3319702-4.2619629
			c1.7053223-1.4902344,3.883606-2.3277588,6.1480103-2.3640137c4.1640015-0.3659668,63.7059631,11.3859863,63.059967,7.2840576
			c-0.5479736-3.4639893-6.2999878-1.552002-9.7260132-2.0839844c-1.8804932-1.4332275-4.3286743-1.8909912-6.5999756-1.2340088
			c-8.2379456,2.6939697,1.2459717-3.2139893-2.367981-2.6619873l-5.7999573,0.2280273
			c-1.8774414-1.0935059-4.1791992-1.1687012-6.1240234-0.1999512c-1.5272217-1.1459961-3.4019775-1.7320557-5.3099976-1.6600342
			l-3.3380127-2.0539551c-3.1480103-5.8859863,5.1859741-5.6999512,8.1259766-8.3699951c0.1140137,0,0.2260132,0,0.3380127,0
			l0.1640015,3.9420166c2.3825684-0.7266846,4.3946533-2.3413086,5.6199951-4.5100098
			c1.9495544-1.6207275,4.0591125-3.0388184,6.29599-4.2320557c2.6199951-1.1300049,4.1199951-2.2679443,1.2000122-3.6560059
			c-6.651947-3.1600342-0.9060059-6.6359863,0.7119751-8.7819824s5.8939819,0.4320068,8.9379883,1.1700439
			c5.0380249,1.2199707,7.6599731,6.3380127,15.223999,4.5600586c-9.7459717-0.5999756-0.7680054-9.7080078-9.934021-10.5739746
			c5.4619751-2.4160156,12.5999756,0.5899658,17.1560059-3.5739746c0.9333496-0.0639648,1.8666382-0.1240234,2.7999878-0.1800537
			l5.789978-0.2180176c3.2299805-3-25.0360107-10.0720215-20.065979-10.0479736
			c7.1048584-0.1317139,14.1398926-1.4296875,20.8239746-3.842041c5.0560303-1.657959-10.8640137-8.0799561-5.6220093-8.3699951
			c8.6259766-2.1860352-15.8200073-14.0279541-17.1619873-21.9160156c-0.4719849-2.7719727,1.7340088-4.56604,4.3239746-6.2199707
			c1.7579956-1.1999512,2.3880005-3.1739502,4.8900146-3.8380127c1.0712891-0.159668,2.0842896-0.5892334,2.9439697-1.2480469
			c0.4807739-0.8016357,1.0817261-1.5247803,1.7819824-2.144043c5.4400024-3.3100586,10.2860107-6.7860107,6.5079956-12.5999756
			c-0.536377-0.2155762-1.0878296-0.3913574-1.6500244-0.526001c0.0780029-0.0799561,0.1599731-0.157959,0.2360229-0.2359619
			c5.9260254-4.06604,13.4000244-1.8280029,20.039978-3
			C574.8908691,1470.7514648,571.1109009,1469.4094238,565.7468872,1469.0415039z"/>
		<g id="グループ_2751_00000062883089906994397970000012120323590800513184_" transform="translate(-76.271 735.826)">
			<g class="st0">
				<path class="st1" d="M228.8155518,782.6342163h-0.223877v56.7836914H217.50354v-78.3996582h15.4560547l12.4318848,46.9277344
					h0.2241211v-46.9277344h10.9758301v78.3996582h-12.6560059L228.8155518,782.6342163z"/>
				<path class="st1" d="M276.6380615,794.0580444h16.9118652v11.1999512h-16.9118652v22.9599609h21.2797852v11.1999512h-33.5998535
					v-78.3996582h33.5998535v11.1999512h-21.2797852V794.0580444z"/>
				<path class="st1" d="M331.8536377,797.6420288h-0.2241211l-4.3679199,41.7758789h-16.9118652l-8.736084-78.3996582h11.9838867
					l6.4960938,61.8237305h0.2241211l5.8237305-61.8237305h11.8720703l6.0478516,62.2717285h0.2241211l6.2719727-62.2717285
					h10.7519531l-8.7358398,78.3996582h-16.3520508L331.8536377,797.6420288z"/>
				<path class="st1" d="M382.9241943,760.1222534c11.9838867,0,18.144043,7.1679688,18.144043,19.7119141v2.4641113h-11.6479492
					v-3.2480469c0-5.6000977-2.2402344-7.7280273-6.1601562-7.7280273s-6.1599121,2.1279297-6.1599121,7.7280273
					c0,5.7119141,2.4641113,9.9677734,10.5280762,17.0239258c10.3037109,9.0717773,13.5517578,15.5678711,13.5517578,24.527832
					c0,12.5439453-6.2719727,19.7119141-18.3679199,19.7119141s-18.3679199-7.1679688-18.3679199-19.7119141v-4.815918h11.6479492
					v5.5998535c0,5.6000977,2.4641113,7.6159668,6.3840332,7.6159668s6.3840332-2.0158691,6.3840332-7.6159668
					c0-5.7119141-2.4641113-9.9680176-10.5280762-17.0239258c-10.3039551-9.0720215-13.552002-15.5678711-13.552002-24.527832
					C364.7801514,767.2902222,370.9403076,760.1222534,382.9241943,760.1222534z"/>
			</g>
		</g>
		<g class="st0">
			<path class="st1" d="M348.586792,1510.8474121h3.5197754v19.1987305h5.791748v3.199707h-9.3115234V1510.8474121z"/>
			<path class="st1" d="M370.5057373,1533.2458496h-3.5517578l-0.6079102-4.0637207h-4.3198242l-0.6079102,4.0637207h-3.2316895
				l3.5837402-22.3984375h5.1516113L370.5057373,1533.2458496z M362.4742432,1526.142334h3.3918457l-1.6640625-11.3271484
				h-0.0639648L362.4742432,1526.142334z"/>
			<path class="st1" d="M369.5789795,1510.8474121h10.8791504v3.199707h-3.6796875v19.1987305h-3.5197754v-19.1987305h-3.6796875
				V1510.8474121z"/>
			<path class="st1" d="M385.1939697,1520.2868652h4.8317871v3.199707h-4.8317871v6.5595703h6.0795898v3.199707h-9.5993652
				v-22.3984375h9.5993652v3.199707h-6.0795898V1520.2868652z"/>
			<path class="st1" d="M397.8658447,1510.5915527c3.423584,0,5.1835938,2.0478516,5.1835938,5.6315918v0.7038574h-3.3278809
				v-0.9279785c0-1.5998535-0.6398926-2.2077637-1.7597656-2.2077637s-1.7597656,0.6079102-1.7597656,2.2077637
				c0,1.6320801,0.7038574,2.8479004,3.0075684,4.8637695c2.9438477,2.5917969,3.8718262,4.4475098,3.8718262,7.0075684
				c0,3.5834961-1.7919922,5.6313477-5.2475586,5.6313477c-3.4558105,0-5.2478027-2.0478516-5.2478027-5.6313477v-1.3759766
				h3.3278809v1.5998535c0,1.5998535,0.7038574,2.1757812,1.8237305,2.1757812c1.1201172,0,1.8239746-0.5759277,1.8239746-2.1757812
				c0-1.6318359-0.7038574-2.8479004-3.0078125-4.8637695c-2.9438477-2.5917969-3.871582-4.4475098-3.871582-7.0073242
				C392.682251,1512.6394043,394.4420166,1510.5915527,397.8658447,1510.5915527z"/>
			<path class="st1" d="M403.7537842,1510.8474121h10.8793945v3.199707h-3.6796875v19.1987305h-3.5197754v-19.1987305h-3.6799316
				V1510.8474121z"/>
		</g>
		<g class="st0">
			<path class="st1" d="M358.7940674,1560.8945312v2.9758301c0,3.5834961-1.791748,5.6313477-5.2475586,5.6313477
				s-5.2475586-2.0478516-5.2475586-5.6313477v-11.6472168c0-3.5837402,1.791748-5.6315918,5.2475586-5.6315918
				s5.2475586,2.0478516,5.2475586,5.6315918v2.1757812h-3.3276367v-2.3999023c0-1.5998535-0.7038574-2.2077637-1.8239746-2.2077637
				c-1.119873,0-1.8237305,0.6079102-1.8237305,2.2077637v12.0952148c0,1.5998535,0.7038574,2.1757812,1.8237305,2.1757812
				c1.1201172,0,1.8239746-0.5759277,1.8239746-2.1757812v-3.199707H358.7940674z"/>
			<path class="st1" d="M360.3304443,1552.2231445c0-3.5837402,1.8879395-5.6315918,5.3435059-5.6315918
				c3.4558105,0,5.34375,2.0478516,5.34375,5.6315918v11.6472168c0,3.5834961-1.8879395,5.6313477-5.34375,5.6313477
				c-3.4555664,0-5.3435059-2.0478516-5.3435059-5.6313477V1552.2231445z M363.8502197,1564.0942383
				c0,1.5998535,0.7038574,2.2077637,1.8237305,2.2077637c1.1201172,0,1.8239746-0.6079102,1.8239746-2.2077637v-12.0952148
				c0-1.5998535-0.7038574-2.2077637-1.8239746-2.2077637c-1.119873,0-1.8237305,0.6079102-1.8237305,2.2077637V1564.0942383z"/>
			<path class="st1" d="M380.3939209,1562.7502441h0.0639648l2.3679199-15.902832h4.8955078v22.3984375h-3.3276367v-16.0627441
				h-0.0639648l-2.3679199,16.0627441h-3.3276367l-2.5598145-15.8388672h-0.064209v15.8388672h-3.0717773v-22.3984375h4.895752
				L380.3939209,1562.7502441z"/>
			<path class="st1" d="M389.961792,1546.8474121h3.5197754v22.3984375h-3.5197754V1546.8474121z"/>
			<path class="st1" d="M405.9285889,1560.8945312v2.9758301c0,3.5834961-1.791748,5.6313477-5.2475586,5.6313477
				s-5.2475586-2.0478516-5.2475586-5.6313477v-11.6472168c0-3.5837402,1.791748-5.6315918,5.2475586-5.6315918
				s5.2475586,2.0478516,5.2475586,5.6315918v2.1757812h-3.3276367v-2.3999023c0-1.5998535-0.7038574-2.2077637-1.8239746-2.2077637
				c-1.119873,0-1.8237305,0.6079102-1.8237305,2.2077637v12.0952148c0,1.5998535,0.7038574,2.1757812,1.8237305,2.1757812
				c1.1201172,0,1.8239746-0.5759277,1.8239746-2.1757812v-3.199707H405.9285889z"/>
			<path class="st1" d="M412.4886475,1546.5915527c3.423584,0,5.1835938,2.0478516,5.1835938,5.6315918v0.7038574h-3.3278809
				v-0.9279785c0-1.5998535-0.6398926-2.2077637-1.7597656-2.2077637s-1.7600098,0.6079102-1.7600098,2.2077637
				c0,1.6320801,0.7041016,2.8479004,3.0078125,4.8637695c2.9438477,2.5917969,3.8718262,4.4475098,3.8718262,7.0075684
				c0,3.5834961-1.7919922,5.6313477-5.2475586,5.6313477c-3.4558105,0-5.2478027-2.0478516-5.2478027-5.6313477v-1.3759766
				h3.3278809v1.5998535c0,1.5998535,0.7038574,2.1757812,1.8239746,2.1757812c1.119873,0,1.8237305-0.5759277,1.8237305-2.1757812
				c0-1.6318359-0.7038574-2.8479004-3.0078125-4.8637695c-2.9438477-2.5917969-3.871582-4.4475098-3.871582-7.0073242
				C407.3050537,1548.6394043,409.0648193,1546.5915527,412.4886475,1546.5915527z"/>
			<path class="st1" d="M424.0408936,1546.8474121h3.5195312v22.3984375h-3.5195312V1546.8474121z"/>
			<path class="st1" d="M433.0001221,1553.0229492h-0.0639648v16.2229004h-3.1679688v-22.3984375h4.4157715l3.5517578,13.4069824
				h0.0639648v-13.4069824h3.1357422v22.3984375h-3.6157227L433.0001221,1553.0229492z"/>
			<path class="st1" d="M446.6636963,1556.7988281h4.5437012v3.199707h-4.5437012v9.2473145h-3.5197754v-22.3984375h9.3115234
				v3.199707h-5.791748V1556.7988281z"/>
			<path class="st1" d="M453.5438232,1552.2231445c0-3.5837402,1.8879395-5.6315918,5.3435059-5.6315918
				c3.4558105,0,5.34375,2.0478516,5.34375,5.6315918v11.6472168c0,3.5834961-1.8879395,5.6313477-5.34375,5.6313477
				c-3.4555664,0-5.3435059-2.0478516-5.3435059-5.6313477V1552.2231445z M457.0635986,1564.0942383
				c0,1.5998535,0.7038574,2.2077637,1.8237305,2.2077637c1.1201172,0,1.8239746-0.6079102,1.8239746-2.2077637v-12.0952148
				c0-1.5998535-0.7038574-2.2077637-1.8239746-2.2077637c-1.119873,0-1.8237305,0.6079102-1.8237305,2.2077637V1564.0942383z"/>
		</g>
	</g>
</g>
<g id="レイヤー_3">
</g>
</svg>
