<?xml version="1.0" encoding="utf-8"?>
<!-- Generator: Adobe Illustrator 26.3.1, SVG Export Plug-In . SVG Version: 6.00 Build 0)  -->
<svg version="1.1" xmlns="http://www.w3.org/2000/svg" xmlns:xlink="http://www.w3.org/1999/xlink" x="0px" y="0px" width="800px"
	 height="220px" viewBox="0 0 800 220" style="enable-background:new 0 0 800 220;" xml:space="preserve">
<style type="text/css">
	.st0{enable-background:new    ;}
	.st1{fill:#FFFFFF;}
	.st2{fill:#080808;}
	.st3{opacity:0.44;fill:#FFE73B;enable-background:new    ;}
	.st4{opacity:0.44;fill:#0000FF;enable-background:new    ;}
	.st5{display:none;opacity:0.21;}
	.st6{display:inline;fill:#080808;}
	.st7{display:inline;}
	.st8{display:none;}
	.st9{clip-path:url(#SVGID_00000088102604473525025040000002166117834224960422_);}
	.st10{clip-path:url(#SVGID_00000031195241072954260860000000365009194759676810_);}
	.st11{clip-path:url(#SVGID_00000042703770878202461440000016712113137350326953_);}
	.st12{clip-path:url(#SVGID_00000005236867375947514090000006256983912430310273_);}
	.st13{opacity:0.44;fill:#FF39AF;enable-background:new    ;}
</style>
<g id="レイヤー_1">
</g>
<g id="レイヤー_2">
	<g id="_x2F_news-sp" transform="translate(-10.388 -675.543)">
		<path id="パス_5" class="st2" d="M502.1596069,729.1220093c-2.8880005-0.1999512-8.0239868,1.2819824-6.3999939-3.6140137
			c0.3659973-1.105957-1.6000061-1.2659912-2.5539856-1c-7.723999,2.0799561-16.2279968,1.3260498-23.8940125,3.5620117
			c-0.806488,0.0594482-1.5856934,0.3178711-2.2680054,0.7519531l-6.7539978,0.1999512
			c-2.3147583-1.5836182-5.3977966-1.4459229-7.5620117,0.3380127l-11.730011,0.7559814l-4.7820129-0.1700439
			c0.7133484-1.166626,1.4273376-2.3320312,2.1419983-3.4959717l4.6719971-0.1999512
			c-5.3500061-2.8800049-11.5599976-2.9139404-17.9100037-2.9379883c-7.2000122-0.0279541-14.2720032,2.81604-20.8999939,2.2259521
			c-17.3819885-1.5439453-34.5780029,0.5500488-51.8439941,0.6800537c-0.7922974-0.0179443-1.5847778,0.0268555-2.3699951,0.1340332
			c-4.3259888,0.657959-10.1300049-1.3580322-12,3.7519531l-44.8160095,1.657959
			c-4.2619934-1.9820557-9.0759888-1.2960205-13.6820068-1.1700439c-11.7139893,0.3199463-23.4219971,0.81604-35.1299896,1.3179932
			c-4.7059937,0.1999512-9.3840027,0.5040283-13.7319946-1.1560059c-0.0146637-0.5812988-0.0393219-1.1625977-0.0740051-1.7440186
			l-14.3179932,0.5200195c-18.7900085-0.4980469,119.0939789-14.0959473,100.5579987-10.4580078
			c-18.5679932,3.644043-37.9760132-1.5620117-57.6860046,3.6779785l6.6000061,3.4000244
			c-6.3320007,0.1540527-12.5999908-0.0980225-18.923996-0.3620605c-9.4600067-0.4000244-19.0140076-3.8599854-28.9440002,0.6199951
			c-4.1632385,1.2418213-8.6279602,1.0043945-12.6360016-0.6719971c-7.845993-3.5019531-16.6840057-3.1800537-25.1999969-3.1639404
			c-6.4960022,0.0119629-13.6000061-1.2199707-19.628006,2.1999512
			c-11.6640015,0.6240234-23.2519989,2.6159668-35.0240097,1.4940186c-2.6000061-0.2459717-4.8119965,0.2700195-6.8619995-2.0300293
			c-4.435997-4.9780273-10.9459991-5.2299805-17.8759995-2.2459717c-4.1439972-0.3179932-7.4160004,2.0620117-11.4199982,2.1719971
			c-1.0220032,0.4420166-2.0680008,0.855957-3.0619965,1.3339844c-7.435997,3.5820312-7.8379974,6.4499512-1.6839981,10.6619873
			c3.4000015,2.3299561,6.6179962,4.8139648,9.9179993,7.2299805c0.8118515,0.2757568,1.7039948,0.1790771,2.4380035-0.2640381
			c0.1620026,0.5400391,0.276001,1.0699463,0.4240036,1.5999756c1.3891525,0.5981445,2.4401932,1.7833252,2.8680038,3.2340088
			c3.2259979,2.5119629,0.7839966,5.6340332-0.8199997,7.1120605c-3.2300034,2.9799805,4.276001,5.0999756-0.0159988,7.5119629
			c-0.3493881,0.1483154-0.7133789,0.2596436-1.0859985,0.3320312l-4.6619873,3.4882812
			c0.0634537,3.605835-1.2935104,7.092041-3.7779999,9.7060547c5.5999985,0.4000244,10.697998,1,10.7720032,5.9799805
			c0,0.4780273,1.8420029,0.9139404,2.8280029,1.3699951c-3.6340027,3.4200439-10.8919983,1.7419434-14.1880035,5.6359863
			c-0.7423248,0.0484619-1.4758606,0.1881104-2.1839981,0.4160156c-0.7456894-0.1038818-1.5027084-0.0957031-2.2460022,0.0240479
			c-3.1999969,0.2480469-6.7419968-0.6560059-9.2900009,1.6879883c3.8280029,0.5679932,7.3899994,2.0620117,11.5039978,1.6300049
			l1.1419983,0.1700439l1.1399994-0.1020508c2.5559998,2.8139648,3.3160019,7.1459961,10.0619965,6.4160156
			c3.8860016,4.842041,9.8820038,7.8260498,16.6000061,10.1760254c2.1679993,5.9499512-4,5.2320557-8.5299988,5.8100586
			c3.9639969,4.4000244,9.4799957,7.7199707,14.5240021,11.3699951c3.2980042,8.0479736,13.1840134,7,20.7240067,13.0360107
			c0.4670258,2.5628662,2.4470978,4.583374,5,5.1020508c1.1300049,4.2159424,5.154007,6.5479736,9.9559937,8.3719482
			l2.4539948,1.6719971c17.0299988,6.842041,34.7160034,5.644043,52.6399994,1.5560303l35.3579865-10.1879883
			c5.04599,0.1400146,9.4979706-1.8959961,14.3819733-2.3459473c9.6000061-1.8220215,19.1180115-3.9780273,28.8160095-5.4000244
			c17.4700012-2.5500488,34.2980042-7.1999512,52.3580017-7.9859619
			c27.6499939-1.2159424-101.4139862,10.1999512-73.8940125,7.3179932l14.0960083-0.1700439
			c2.1434326,1.2526855,4.7333374,1.4857178,7.0660095,0.6359863c3.1199951-0.0240479,4.9880066,9.9840088,3.6099854,4.2979736
			c0.8859863-0.1379395,5.1319885-7.6560059,6.019989-7.8000488c3.1759949,0.4000244,5.3420105,4.7740479,8.4140015,4.18396
			c14.1340027-2.7180176,51.7999878,5.0219727,66.3999939,5.1140137c5.8139954,0.1199951,11.6180115,0.1999512,16.8980103-2.1999512
			c-0.2919922-3.2320557,0.9379883-5.5059814,6.1180115-5.5360107c2.6440125-0.0140381,5.2940063-0.2399902,7.9400024-0.368042
			c-0.0973206-1.2080078-0.1960144-2.4173584-0.29599-3.6280518c3.4920044-0.0820312,7.2220154,0.5439453,9.697998-2.1020508
			c1.3380127-1.25,5.5100098-0.5679932,4.3999939-3.4919434c1.4088135-1.2216797,3.2034607-1.9072266,5.0679932-1.9360352
			c3.4320068-0.3000488,52.5239868,9.3299561,52,5.9680176c-0.4519958-2.8380127-5.2000122-1.2719727-8.0180054-1.7080078
			c-1.5524902-1.1740723-3.5670776-1.5489502-5.4379883-1.0119629c-6.7999878,2.1999512,1.026001-2.6340332-1.95401-2.1800537
			l-4.7779846,0.1879883c-1.5495911-0.8951416-3.4442139-0.9559326-5.0480042-0.1619873
			c-1.261322-0.9398193-2.8062134-1.4196777-4.3779907-1.3599854l-2.7520142-1.6820068
			c-2.6000061-4.8239746,4.276001-4.6719971,6.697998-6.8580322c0.0939941,0,0.1860046,0,0.2799988,0l0.1359863,3.2299805
			c1.9609375-0.5932617,3.6195679-1.9161377,4.6340027-3.6960449c1.6112671-1.3293457,3.3535461-2.491333,5.2000122-3.4680176
			c2.1600037-0.9260254,3.3999939-1.8580322,1-3c-5.4840088-2.5899658-0.7479858-5.4379883,0.5880127-7.1999512
			s4.8599854,0.3540039,7.3680115,0.9580078c4.1539917,1,6.3160095,5.1999512,12.552002,3.7359619
			c-8.0360107-0.4959717-0.6340027-7.9539795-8.2000122-8.6639404c4.5039978-1.9799805,10.3999939,0.4820557,14.1440125-2.9279785
			c0.7706604-0.0532227,1.5413208-0.1025391,2.3120117-0.1479492l4.7720032-0.1779785
			c2.6619873-2.4539795-20.6419983-8.2519531-16.5440063-8.2340088c5.8558655-0.1077881,11.6548157-1.1711426,17.1679993-3.1479492
			c4.1679993-1.3599854-8.9580078-6.6199951-4.6340027-6.8580322c7.1119995-1.8000488-13.0419922-11.4940186-14.1499939-17.9580078
			c-0.3900146-2.2719727,1.4299927-3.7419434,3.5660095-5.0959473c1.4500122-0.9780273,1.9700012-2.5999756,4.0320129-3.1459961
			c0.8826904-0.1300049,1.7180176-0.4816895,2.428009-1.0219727c0.3964539-0.6571045,0.891571-1.2493896,1.4679871-1.7559814
			c4.4859924-2.7120361,8.4819946-5.5600586,5.3659973-10.3299561c-0.4421387-0.177124-0.8966675-0.3215332-1.3599854-0.4320068
			c0.0639954-0.06604,0.1319885-0.1300049,0.2000122-0.1999512c4.8859863-3.3320312,11.0499878-1.4980469,16.5219727-2.4580078
			C509.6915894,730.5239868,506.5756226,729.4259644,502.1596069,729.1220093z"/>
		<g id="グループ_83_00000173865228922695859000000009281197356503489214_" transform="translate(50.942 678.516)">
			<g class="st0">
				<path class="st1" d="M121.2886429,89.0968628h-0.2236328v56.7832031h-11.0878906V67.4796753h15.4560547l12.431633,46.9277344
					h0.2236328V67.4796753h10.9765625v78.4003906h-12.65625L121.2886429,89.0968628z"/>
				<path class="st1" d="M169.1109009,100.5206909h16.9121094v11.1992188h-16.9121094v22.9609375h21.2802734v11.1992188h-33.6005859
					V67.4796753h33.6005859v11.2011719h-21.2802734V100.5206909z"/>
				<path class="st1" d="M224.3267212,104.1046753h-0.2236328l-4.3681641,41.7753906h-16.9121094l-8.7363281-78.4003906h11.984375
					l6.4960938,61.8242188h0.2236328l5.8242188-61.8242188h11.8720703l6.0478516,62.2714844h0.2236328l6.2724609-62.2714844
					h10.7519531l-8.7363281,78.4003906h-16.3515625L224.3267212,104.1046753z"/>
				<path class="st1" d="M275.3970337,66.585144c11.984375,0,18.1445312,7.1679688,18.1445312,19.7109375v2.4648438h-11.6484375
					v-3.2480469c0-5.5996094-2.2402344-7.7285156-6.1601562-7.7285156s-6.1591797,2.1289062-6.1591797,7.7285156
					c0,5.7109375,2.4638672,9.9667969,10.5273438,17.0234375c10.3037109,9.0722656,13.5517578,15.5683594,13.5517578,24.5273438
					c0,12.5449219-6.2714844,19.7128906-18.3671875,19.7128906c-12.0966797,0-18.3681641-7.1679688-18.3681641-19.7128906
					v-4.8164062h11.6474609v5.6015625c0,5.5996094,2.4638672,7.6152344,6.3837891,7.6152344
					c3.9208984,0,6.3847656-2.015625,6.3847656-7.6152344c0-5.7128906-2.4638672-9.96875-10.5283203-17.0253906
					c-10.3037109-9.0703125-13.5517578-15.5664062-13.5517578-24.5273438
					C257.253479,73.7531128,263.4136353,66.585144,275.3970337,66.585144z"/>
			</g>
		</g>
	</g>
</g>
<g id="レイヤー_3">
</g>
</svg>
