<?xml version="1.0" encoding="UTF-8"?>
<svg id="sp" xmlns="http://www.w3.org/2000/svg" xmlns:xlink="http://www.w3.org/1999/xlink" viewBox="0 0 800 220">
  <defs>
    <style>
      .cls-1 {
        clip-path: url(#clippath-2);
      }

      .cls-2, .cls-3, .cls-4, .cls-5 {
        stroke-width: 0px;
      }

      .cls-3 {
        fill: none;
      }

      .cls-6 {
        clip-path: url(#clippath-1);
      }

      .cls-4 {
        fill: #fff;
      }

      .cls-7 {
        clip-path: url(#clippath);
      }

      .cls-8 {
        clip-path: url(#clippath-3);
      }

      .cls-5 {
        fill: #080808;
      }
    </style>
    <clipPath id="clippath">
      <rect class="cls-3" x="38.07" y="33.73" width="423.29" height="162.94"/>
    </clipPath>
    <clipPath id="clippath-1">
      <rect class="cls-3" x="230.28" y="30.67" width="442.72" height="151.75"/>
    </clipPath>
    <clipPath id="clippath-2">
      <rect class="cls-3" x="97.9" y="60.04" width="275.6" height="116.79"/>
    </clipPath>
    <clipPath id="clippath-3">
      <rect class="cls-3" x="299.62" y="50.92" width="430.2" height="135.02"/>
    </clipPath>
  </defs>
  <g id="_グループ_52042" data-name="グループ 52042">
    <g id="_グループ_3859" data-name="グループ 3859">
      <g class="cls-7">
        <g id="_グループ_3859-2" data-name="グループ 3859-2">
          <path id="_パス_4976" data-name="パス 4976" class="cls-5" d="m328.49,157.21c-3.4.28-6.8.57-9.83-1.08-.06-.05-.13-.1-.19-.15.42-.13.83-.29,1.22-.48,2.57-4.39-1.26-6.57-5.54-8.6-.55-.4-1.04-.87-1.45-1.42-.69-.42-1.48-.67-2.29-.71-1.92-.32-2.49-1.7-3.88-2.44-2.04-1.02-3.79-2.17-3.57-4.17.35-3.22,6.19-7.78,10.04-11.34.18,0,.37,0,.55,0,.73-.21,1.48-.41,2.19-.64,5.34-1.75,5.73-3.39,1.62-6.11-.44-.29-.87-.58-1.3-.88,2.11-1.61,4.81-3.56,2.63-4.05-2.44-.58-4.92-1.01-7.41-1.28,3.14-.78,3.94-3.37,5.73-5.2l1.05.09,1.05-.14c3.79.38,7.04-.87,10.54-1.33-2.37-1.98-5.62-1.24-8.55-1.45-.68-.1-1.38-.11-2.06-.03-.46-.13-.92-.22-1.39-.28-.04-.1-.11-.19-.2-.25l-.58.03c-1.5-1.47-3.75-1.96-6.06-2.36l1.53-.82c.15-2.18,1.27-4.18,3.04-5.46-1.88-.13-3.73-.55-5.49-1.23,2.1-.55,4.25-.86,6.42-.91-1.26-1.15-2.23-2.59-2.84-4.19,1.04-.13,2.03-.53,2.87-1.17.52,0,1.03-.04,1.54-.14.52.09,1.04.12,1.57.08,2.24,0,4.67.68,6.55-.56-2.65-.5-5.07-1.52-7.95-1.46l-.79-.15h-.8c-1.67-1.74-2.02-4.28-6.75-4.16-.84-.97-1.8-1.83-2.85-2.56.86-1.04,1.95-2.14.39-3.44-1.5-1.25-3.78-3.89-.85-5.99.39-1.26,1.35-2.26,2.59-2.71.13-.44.23-.89.37-1.34.69.38,1.49.46,2.24.23,3-2.02,5.91-4.1,9.01-6.05,5.59-3.52,5.18-5.94-1.69-8.98-.92-.4-1.88-.76-2.83-1.13-3.68-.11-6.72-2.12-10.52-1.87-6.41-2.54-12.38-2.35-16.39,1.83-1.69,1.76-3.54,1.55-5.66,1.65-.62-1.2-1.73-2.06-3.05-2.36-.61-2.49-3.32-4.02-6.59-5.3l-1.64-1.08c-11.58-4.72-23.96-4.82-36.63-3.24-8.36,1.45-16.71,2.9-25.07,4.34-3.51-.3-6.7.68-10.12.72-6.77.63,47.8-1.38,40.98-.99-6.76.39-13.4,1.14-20.12,1.69l.04-.02c-10-2.47,3.79-2.33-5.91-2.17,7.99.69-6.57,1.59,2.37,2.46-4.35.3-8.74.47-13.22.35-19.33-.52,27.44-.61,8.14-.16l-9.84-.53c-1.49-.83-3.24-1.07-4.9-.68-2.18-.12-5.71-1.88-4.99,1.48l-1.87.12c-2.16-.28-4.34-.27-6.5.03-9.96.95-37.61-3.85-47.79-4.55-4.04-.33-8.09-.64-11.87.52.07,1.89-.89,3.15-4.5,2.94-1.85-.11-3.7-.09-5.55-.14.02.7.04,1.41.05,2.12-2.44-.11-5.01-.64-6.85.79-.96.65-3.68.13-3.25,1.68-.74.15-1.45.42-2.1.8l-4.33-.19c-3.04-.56-8.02-1.59-13.21-2.61-9.67-1.91-20.06-3.82-19.93-2.72.19,1.67,3.57.97,5.52,1.35.1.07.22.11.33.18-.63.09-1.14.36-.94.9,1.56,4.12-3.18,2.86-5.83,3.02-4.05.24-6.9,1.15-7.36,4.13,5.04.83,10.67-.7,15.2,2.13.06.06.12.11.18.17-.42.09-.84.21-1.24.36-1.47,2.1-1.13,3.76.11,5.2-.88-.29-1.82-.7-2.62-.91-2.85-.76-4.18-3.29-8.59-2.73,5.58.65.11,4.64,5.35,5.39-1.45.33-2.95.41-4.43.25-2-.11-3.98-.22-5.55.82-.54,0-1.08,0-1.62-.01-1.11-.04-2.22-.07-3.34-.11-1.96,1.3,14.04,5.7,11.19,5.51-4.06-.2-8.13.16-12.1,1.06-2.96.6,5.97,4.24,2.94,4.19-5.03.72,8.61,7.24,9.11,11.04.17,1.33-1.15,2.11-2.7,2.8-1.05.5-1.48,1.42-2.94,1.65-.61.03-1.2.2-1.74.49-.32.37-.69.69-1.1.95-3.24,1.37-6.15,2.84-4.18,5.75.3.12.61.22.93.31-.05.04-.09.07-.14.11-2.3,1.11-4.89.94-7.47.77-1.38-.13-2.76-.15-4.14-.08.24,2.08,2.37,2.85,5.44,3.22,2.01.25,5.65-.39,4.31,2.38-.3.63,1.06.81,1.74.7,5.47-.86,11.37-.05,16.81-1.01.55,0,1.1-.11,1.61-.33l2.86.11c-.36.34-.44.65-.12.92l4.15.16,3.69.98c2.13,1,4.72.83,7.26.92.99.41,2.01.75,3.05,1-4.53,1.29.77,6.67-6.01,7.02,4.83,1.05,6.96-1.26,9.77-2.52,2.25.27,3.76,1.2,2.81,4.31-6.01,2.55-11.33,5.59-14.6,10.1-6.23-.14-6.67,3.69-8.84,6.33h-1.05l-1.04.23c-3.8-.07-6.97,1.49-10.45,2.27,2.48,1.86,5.67.8,8.61.78.69.05,1.38,0,2.06-.14.67.15,1.35.21,2.03.2,3.26,3.15,9.81,1.15,13.34,3.86-.88.47-2.53.99-2.51,1.4.23,4.34-4.41,5.24-9.51,6.01,3.1,2.67,3.67,5.4,4.04,8.17,1.5.9,3,1.8,4.5,2.71.34.04.68.11,1.01.21,4.08,1.78-2.67,4.18.47,6.54,1.56,1.17,3.98,3.71,1.18,6.13-.31,1.32-1.21,2.44-2.44,3.03-.1.47-.18.94-.29,1.42-.71-.33-1.53-.35-2.25-.05-2.88,2.35-5.68,4.75-8.66,7.03-5.39,4.13-4.85,6.59,2.18,9.16.94.34,1.92.62,2.88.93,1.62-.03,3.24.17,4.81.57,1.88.52,3.84.68,5.78.47,2.11.69,4.31,1.06,6.53,1.09,3.75.14,7.34-1.49,9.7-4.4,1.74-2.16,3.81-1.87,6.17-2.28,7.45-1.29,14.91-1.26,22.37-1.23,3.27.01,6.55.03,9.82-.07,5.73,2.53,12.17.93,18.12.46,7.8-.62,15.92-.99,22.9-4.62,3.41-1.77,8.91-2.41,11.54-1.52,7.74,2.62,14.91.53,22.05-.86-17.55-.45-29.84-1.08-23.7-1.73l13.15-.61c0-.51-.02-1.02-.04-1.52,3.88-1.77,8.19-1.85,12.52-2.03,10.76-.43-20.95-1.37-10.2-1.96,4.23-.23,8.68.01,12.47-2.03l17.52-1.82c1.46,3.14,4.61,2.84,7.76,2.53,1.15-.14,2.3-.19,3.45-.15.73.04,1.46.02,2.18-.06,15.82-1.17-29.58,2.22-13.74-.42,3.4-.4,6.83-.36,10.23.1,3.01.36,6.04.46,9.06.29,5.82-.49,11.51-.98,16.24-3.89l-5.86.24-.18-3,4.72-.54,11.71.64c1.84.47,3.8.08,5.31-1.07l6.23-.25c.64.3,1.33.45,2.04.45,7.16,1.38,14.91.09,22.11,1.33.89.15,2.68-.13,2.28-1.07-1.78-4.14,3.01-3.24,5.65-3.62,4.03-.59,6.82-1.78,7.12-4.9-1.82-.1-3.65-.05-5.46.16M76.41,48.01c-.49-.07-.97-.14-1.46-.23,1.63-.3,1.76-.1,1.46.23"/>
          <path id="_パス_4976_-_アウトライン" data-name="パス 4976 - アウトライン" class="cls-2" d="m93.23,197.17h0c-2.24-.03-4.45-.39-6.58-1.08-.53.05-1.06.08-1.59.08-1.44,0-2.87-.2-4.26-.58-1.53-.39-3.1-.58-4.68-.55h-.08l-.08-.02c-.3-.1-.6-.19-.9-.28-.66-.21-1.35-.42-2.01-.66-3.96-1.45-5.84-2.85-6.1-4.56-.24-1.59.92-3.28,3.79-5.47,2.04-1.57,4.04-3.22,5.97-4.81.88-.73,1.78-1.48,2.68-2.21l.06-.05.07-.03c.4-.16.83-.25,1.26-.25.27,0,.55.03.81.1.02-.08.03-.16.04-.23.04-.21.08-.42.13-.64l.06-.26.25-.1c1.08-.54,1.87-1.53,2.14-2.71l.04-.14.11-.1c.68-.49,1.09-1.27,1.11-2.1-.05-1.45-1.6-2.76-2.26-3.26-.76-.46-1.17-1.34-1.02-2.21.19-.68.52-1.32.97-1.87.41-.58.83-1.18.72-1.58-.08-.27-.42-.55-1.01-.81-.29-.09-.59-.15-.89-.18h-.11s-.1-.07-.1-.07c-1.5-.9-3-1.8-4.5-2.71l-.21-.12-.03-.24c-.37-2.8-.92-5.32-3.87-7.86l-.82-.71,1.08-.16c2.27-.23,4.5-.77,6.61-1.62,1.6-.58,2.61-2.17,2.48-3.87-.03-.63.75-.97,1.83-1.43l.15-.06c-1.73-.73-3.58-1.13-5.46-1.17-2.57-.24-5.22-.48-7.05-2.12-.62,0-1.23-.07-1.83-.19-.68.14-1.38.18-2.07.13-.74,0-1.52.08-2.28.16-.82.08-1.66.16-2.49.16-1.47.08-2.93-.35-4.13-1.2l-.87-.65,1.06-.24c1.11-.25,2.22-.59,3.28-.91,2.32-.84,4.76-1.3,7.22-1.37l1.03-.23h.87c.41-.55.78-1.12,1.13-1.71.63-1.2,1.49-2.27,2.52-3.15,1.49-1.05,3.29-1.57,5.11-1.47h.07c1.73-2.25,3.85-4.18,6.25-5.7,2.6-1.66,5.34-3.09,8.19-4.26.63-1.11.24-2.52-.87-3.15-.44-.25-.94-.35-1.44-.28-.57.26-1.11.57-1.68.89-1.73,1.16-3.76,1.82-5.84,1.89-.82,0-1.63-.1-2.43-.28l-3.65-.79,3.73-.2c1.52-.08,2.48-.42,2.94-1.04.36-.65.52-1.38.46-2.11-.13-1.21.32-2.41,1.22-3.24-.59-.18-1.17-.39-1.74-.63-.42-.01-.85-.02-1.26-.03-2.06.11-4.13-.2-6.06-.92l-3.6-.95-4.26-.16-.13-.11c-.23-.17-.37-.44-.38-.72,0-.04,0-.07,0-.11l-1.94-.07c-.53.22-1.09.33-1.66.33h0c-2.87.41-5.76.59-8.66.54-2.71-.04-5.42.11-8.11.46-.16.02-.33.04-.49.04-.4,0-1.39-.06-1.74-.63-.15-.25-.17-.56-.03-.82.23-.49.3-.86.18-1.06-.28-.46-1.65-.5-2.66-.53-.52-.01-1-.03-1.44-.08-1.37-.1-2.7-.45-3.95-1.03-1.06-.48-1.79-1.48-1.93-2.63l-.06-.53.53-.03c.53-.03,1.07-.05,1.59-.05.87,0,1.75.04,2.62.12h.01c.92.06,1.87.12,2.78.12,1.18.03,2.36-.13,3.48-.47l-.04-.06c-.62-.78-.85-1.8-.62-2.76.5-1.68,2.64-2.71,4.98-3.71.36-.23.68-.51.95-.83l.06-.07.08-.04c.59-.32,1.25-.5,1.92-.54.63-.12,1.21-.41,1.67-.85.34-.29.71-.54,1.11-.74h.01c1.86-.84,2.52-1.45,2.41-2.28-.2-1.55-3.31-3.94-5.8-5.85-3.09-2.37-4.69-3.66-4.39-4.79.17-.64.87-.85,1.29-.92-.33-.24-.78-.54-1.13-.77-1.73-1.13-2.78-1.87-2.62-2.67.07-.39.41-.65.99-.78,3.3-.75,6.67-1.13,10.05-1.13l-1.09-.39c-1.67-.59-3.76-1.33-5.4-2.02-2.56-1.08-3.13-1.66-3.2-2.19-.03-.31.12-.61.38-.77l.13-.09h.16c1.11.03,2.22.07,3.33.11.55,0,1.02.01,1.46.01,1.18-.65,2.52-.95,3.87-.88.61,0,1.23.03,1.84.07h.04c.47.05.95.08,1.42.08.28,0,.57,0,.85-.03-.74-.6-1.1-1.55-.95-2.49.07-.47-.02-.95-.24-1.37-.57-.54-1.33-.84-2.12-.83l-4.07-.47,4.06-.52c.43-.06.86-.08,1.29-.09,1.79.03,3.52.6,4.98,1.63.78.52,1.62.92,2.51,1.19.4.11.83.26,1.26.42-.19-.42-.31-.88-.34-1.34-.02-1.15.35-2.26,1.05-3.17l.09-.13.15-.05.19-.07c-2.63-1.32-5.59-1.32-8.71-1.32-1.85.05-3.7-.05-5.53-.3l-.49-.08.08-.49c.22-1.53,1.2-2.84,2.61-3.47,1.65-.7,3.42-1.07,5.22-1.09.17-.01.36-.02.58-.02.42,0,.87.02,1.31.04s.91.04,1.35.04c.8,0,1.91-.06,2.28-.59.24-.35.2-.96-.12-1.82-.12-.28-.1-.59.04-.86-.35-.02-.71-.02-1.07-.03-.8.02-1.6-.05-2.38-.2-.92-.23-1.43-.71-1.52-1.45-.02-.19.04-.38.16-.51.23-.26.65-.37,1.46-.37,3.02,0,11.25,1.54,18.89,3.06,1.87.37,3.68.73,5.43,1.08,3.11.62,5.8,1.16,7.74,1.52l4.15.18c.53-.3,1.09-.53,1.68-.69.01-.2.08-.4.19-.56.39-.59,1.23-.71,2.05-.83.44-.03.87-.13,1.27-.31,1.12-.77,2.46-1.15,3.81-1.07.68,0,1.38.05,2.06.1.25.02.5.04.76.05,0-.17,0-.35-.01-.52,0-.35-.02-.7-.03-1.05v-.52s.51.01.51.01c.58.01,1.17.02,1.74.03,1.25.02,2.55.03,3.82.11.26.02.5.02.73.02.98.11,1.96-.16,2.74-.76.39-.47.57-1.08.5-1.68v-.38s.35-.11.35-.11c2.09-.6,4.25-.88,6.43-.84,1.92,0,3.89.16,5.63.3,3.53.24,9.03.96,15.39,1.79,10.35,1.35,22.07,2.88,29.3,2.88,1.15,0,2.17-.04,3.01-.12,2.18-.3,4.39-.31,6.58-.03l.85-.06.43-.03c-.09-.52.03-1.06.34-1.49.39-.42.95-.64,1.52-.59.7.03,1.39.13,2.07.3.53.12,1.06.21,1.6.27,1.1-.25,2.24-.24,3.33.03,1.12-.06,2.25-.21,3.35-.36,1.51-.23,3.03-.37,4.55-.4.47,0,.93.02,1.37.05,8.33-1.44,16.66-2.87,25-4.31h.02c4.49-.59,9.01-.89,13.54-.92,7.98-.15,15.91,1.28,23.34,4.19l.04.02.04.03.91.6.68.45c1.54.55,3.01,1.3,4.36,2.23,1.13.75,1.97,1.84,2.41,3.12,1.22.36,2.27,1.15,2.95,2.23l.51-.02c1.76-.05,3.16-.09,4.48-1.47,2.33-2.42,5.59-3.75,8.95-3.64,2.71.06,5.38.62,7.88,1.66.2-.01.39-.02.59-.02,1.77.07,3.53.4,5.21.97,1.5.51,3.07.82,4.65.92h.09l.08.03c.3.12.61.24.91.36.64.25,1.3.5,1.93.78,3.92,1.73,5.73,3.26,5.85,4.95.11,1.55-1.15,3.06-4.09,4.91-2.13,1.34-4.21,2.77-6.23,4.15-.9.62-1.84,1.26-2.77,1.89l-.06.04-.07.02c-.67.21-1.39.2-2.06-.03l-.05.2c-.05.19-.1.4-.16.59l-.08.26-.27.08c-1.09.4-1.92,1.29-2.26,2.41l-.05.14-.12.09c-.68.39-1.13,1.09-1.21,1.87-.05,1.4,1.44,2.8,2.09,3.34.73.49,1.09,1.37.9,2.23-.18.56-.49,1.08-.89,1.51.86.63,1.65,1.35,2.35,2.15h.1c2.38-.2,4.65,1.01,5.82,3.09.25.37.53.74.82,1.08h.63s.79.14.79.14h.23c1.79.06,3.56.36,5.27.88.82.21,1.66.43,2.5.59l1.21.23-1.02.68c-.98.59-2.12.88-3.27.83-.6,0-1.22-.05-1.82-.09-.57-.04-1.16-.09-1.72-.09-.53.04-1.06.01-1.58-.08-.45.08-.91.13-1.36.13-.7.52-1.51.88-2.36,1.04.59,1.31,1.44,2.48,2.5,3.45l.83.79-1.14.07c-1.58.07-3.16.24-4.72.5,1.26.3,2.54.51,3.83.65l1.21.15-.97.74c-1.67,1.2-2.72,3.08-2.85,5.14l-.04.25-.22.12-.28.15c1.75.25,3.39.97,4.76,2.08l.55-.02.14.11c.07.05.14.12.2.18.38.05.76.13,1.14.24.69-.08,1.39-.06,2.08.04.4.03.85.04,1.4.04.29,0,.58,0,.87,0s.59,0,.88,0c1.85,0,3.96.12,5.66,1.54l.87.73-1.13.15c-1.12.15-2.24.38-3.33.61-1.91.47-3.87.74-5.84.8-.48,0-.96-.02-1.43-.07l-1.04.14-.86-.07c-.43.49-.84,1-1.21,1.54-.72,1.14-1.67,2.12-2.79,2.88,1.92.27,3.79.62,5.59,1.05.68.15,1.07.46,1.17.93.21.97-1,2.02-3.06,3.59.24.16.48.32.72.48,2.21,1.46,3.13,2.62,2.98,3.75-.17,1.25-1.58,2.22-4.72,3.25-.51.17-1.04.31-1.55.46-.22.06-.44.12-.65.18l-.08.02h-.08c-.11,0-.22,0-.33,0-.65.6-1.35,1.22-2.08,1.87-3.46,3.08-7.38,6.57-7.65,9.02-.17,1.6,1.13,2.59,3.3,3.67h.01c.52.31,1,.67,1.43,1.09.6.66,1.39,1.12,2.27,1.3.88.05,1.73.32,2.49.78l.08.05.06.08c.37.49.81.93,1.31,1.29,2.99,1.42,5.72,2.89,6.44,5.22.35,1.4.09,2.88-.72,4.06l-.08.13-.14.07c-.08.04-.16.07-.24.11,1.57.62,3.25.92,4.93.86,1.26,0,2.57-.11,3.84-.21h0c1.23-.14,2.47-.21,3.72-.21.6,0,1.21.02,1.82.05l.52.03-.05.52c-.12,1.58-1.02,3-2.4,3.78-1.59.86-3.34,1.4-5.15,1.57-.63.08-1.25.12-1.88.14-1.46.06-3.11.12-3.58.86-.25.4-.18,1.05.2,1.94.15.33.13.71-.07,1.01-.5.76-1.89.8-2.16.8-.2,0-.4-.01-.59-.05-3.54-.5-7.11-.7-10.68-.6-3.81.11-7.63-.13-11.39-.72-.72,0-1.43-.15-2.09-.44l-5.96.24c-1.15.82-2.53,1.26-3.94,1.28-.55,0-1.09-.07-1.62-.21l-11.62-.63-4.21.48.12,2.03,7.28-.3-1.63,1c-2.43,1.43-5.1,2.42-7.88,2.91-2.84.51-5.7.86-8.58,1.04h-.01c-.97.05-1.95.08-2.91.08-.83,0-1.68-.02-2.51-.06h-.11c-.65.07-1.3.1-1.95.08-6.16.36-10.53.54-12.98.54-.73,0-1.29-.02-1.68-.05-.41-.04-1.03-.09-1.07-.62-.04-.55.6-.71,1.16-.85s1.47-.32,2.66-.51h.02c.21-.02.43-.05.64-.07-.2-.25-.38-.52-.53-.8l-17.08,1.77c-3.01,1.6-6.39,1.81-9.71,1.93.92.07,1.87.13,2.72.19,1.79.12,3.48.24,4.76.35.7.06,1.21.12,1.56.17.16.02.32.05.48.09.46.12.53.4.53.57s-.07.44-.52.54c-.15.03-.31.05-.46.07-.39.04-.96.07-1.76.11l-.68.03c-4.03.16-7.84.31-11.35,1.82.01.41.02.81.03,1.2v.48l-11.35.53c3.29.23,9.55.53,21.41.84l4.55.12-4.47.87c-.88.17-1.78.36-2.65.54-3.81.92-7.7,1.45-11.61,1.58-2.73.02-5.45-.41-8.05-1.28-.93-.27-1.91-.4-2.88-.37-2.86,0-5.69.64-8.27,1.86-6.55,3.41-14.08,3.99-21.35,4.54l-1.74.13c-1.24.1-2.52.25-3.77.39-2.3.31-4.62.49-6.94.54-2.59.07-5.16-.4-7.55-1.39-1.84.05-3.81.08-6.36.08-1.12,0-2.27,0-3.37,0s-2.26,0-3.39,0c-6.32-.13-12.64.28-18.89,1.23-.51.09-1,.14-1.48.2-1.75.2-3.14.36-4.39,1.9-1.2,1.51-2.75,2.7-4.51,3.48-1.76.74-3.66,1.11-5.57,1.08Zm-6.48-2.1l.1.03c2.06.68,4.21,1.04,6.38,1.06,3.59.15,7.05-1.41,9.31-4.21,1.5-1.86,3.23-2.06,5.05-2.27.46-.05.94-.11,1.42-.19,6.31-.95,12.68-1.37,19.06-1.24,1.13,0,2.28,0,3.39,0s2.25,0,3.37,0c2.59,0,4.58-.02,6.44-.08h.11l.1.05c2.29.96,4.77,1.42,7.25,1.35,2.28-.05,4.56-.23,6.82-.53,1.25-.15,2.55-.3,3.81-.4l1.74-.13c7.17-.55,14.59-1.12,20.96-4.43,2.73-1.3,5.71-1.97,8.73-1.98,1.08-.03,2.16.12,3.2.42,2.49.83,5.1,1.25,7.73,1.23,3.3-.08,6.58-.5,9.8-1.23-5.63-.16-10.23-.34-13.71-.52-2.33-.12-4.12-.24-5.34-.37-.65-.07-1.14-.13-1.48-.2s-.89-.17-.9-.67.54-.63.78-.68c.42-.08.84-.14,1.27-.18h.03l12.67-.59c0-.34-.02-.68-.03-1.03v-.34s.29-.14.29-.14c2.85-1.18,5.89-1.82,8.97-1.9l-.88-.06c-1.91-.13-3.89-.27-5.38-.4-.81-.07-1.41-.14-1.83-.2-.19-.03-.38-.06-.57-.11-.25-.07-.55-.23-.55-.58,0-.51.58-.59.97-.64s.97-.1,1.77-.14c.74-.04,1.49-.07,2.22-.09,3.45-.12,7.01-.24,10.04-1.88l.09-.05h.1s17.87-1.87,17.87-1.87l.15.32c.24.55.6,1.04,1.06,1.44.95-.07,1.91-.1,2.86-.1,1.86,0,3.73.13,5.57.38,1.06.13,2.14.22,3.21.28,1.05-.06,1.94-.12,2.57-.16.91-.06,1.02-.06,1.06-.06h.48v.29c.55-.01,1.09-.04,1.63-.07,5.07-.43,9.91-.84,14.12-2.8l-4.18.17-.24-3.96,5.23-.6h.04l11.76.64h.05c.46.14.94.2,1.41.2,1.25-.02,2.47-.43,3.48-1.18l.12-.09,6.5-.26.11.05c.57.27,1.19.41,1.82.4h.1c3.72.6,7.49.83,11.25.72,3.63-.1,7.26.11,10.85.62.14.02.28.03.42.03.47.05.94-.08,1.33-.35h0s0-.04-.02-.06c-.52-.87-.57-1.95-.12-2.86.75-1.18,2.6-1.26,4.39-1.33.59-.01,1.19-.05,1.78-.12,1.67-.16,3.29-.65,4.77-1.43.95-.53,1.63-1.44,1.85-2.5-.4-.01-.81-.02-1.21-.02-1.21,0-2.41.07-3.61.2h-.02c-1.29.11-2.62.22-3.93.22-2.14.08-4.27-.38-6.18-1.36l-.04-.02-.04-.03-.09-.07-.1-.08-.72-.59.89-.28c.35-.11.69-.24,1.02-.39.62-.92.82-2.05.55-3.13-.6-1.95-3.27-3.36-5.95-4.63l-.04-.02-.03-.02c-.57-.4-1.08-.89-1.5-1.45-.6-.35-1.28-.56-1.97-.59h-.06c-1.07-.21-2.05-.75-2.8-1.55-.37-.36-.78-.68-1.23-.94-1.01-.46-1.94-1.07-2.76-1.81-.8-.73-1.2-1.79-1.08-2.87.14-1.31,1.04-2.82,2.82-4.76,1.49-1.63,3.36-3.29,5.17-4.9.78-.7,1.52-1.36,2.21-1.99l.14-.13h.69l.58-.16c.5-.14,1.02-.29,1.51-.44,2.58-.84,3.94-1.66,4.04-2.43.09-.67-.76-1.61-2.54-2.78-.44-.29-.88-.59-1.31-.88l-.57-.39.83-.64c.77-.58,1.56-1.18,2.15-1.73.76-.71.81-1,.81-1.05-.12-.09-.27-.15-.42-.17h0c-2.42-.57-4.88-1-7.35-1.27l-2.78-.31,2.71-.68c2.04-.51,3-1.84,4.03-3.25.44-.64.93-1.25,1.46-1.82l.17-.17,1.23.11,1.05-.14h.06c.45.05.92.07,1.39.07,1.9-.06,3.79-.32,5.64-.77.68-.14,1.38-.29,2.09-.42-1.26-.5-2.61-.71-3.96-.63-.29,0-.58,0-.87,0s-.59,0-.88,0c-.59,0-1.07-.01-1.5-.05h-.04c-.64-.1-1.29-.11-1.93-.03h-.1s-.1-.02-.1-.02c-.43-.12-.87-.21-1.32-.26l-.3-.04-.07-.19-.54.02-.15-.15c-1.39-1.36-3.53-1.83-5.8-2.22l-1.43-.25,1.28-.68.69-.37.62-.33c.17-1.82,1-3.52,2.32-4.79-1.56-.15-3.09-.53-4.53-1.14l-1.1-.54,1.17-.38c1.78-.49,3.61-.78,5.46-.86-.96-1.04-1.71-2.26-2.2-3.59l-.2-.56.59-.1c.96-.11,1.86-.48,2.63-1.06l.14-.12h.19c.48,0,.96-.04,1.44-.13l.09-.02.09.02c.48.09.96.11,1.44.08h.04c.6,0,1.22.05,1.82.09.58.04,1.18.09,1.74.09.44,0,.88-.03,1.32-.11-.33-.08-.66-.17-.99-.25-1.71-.53-3.49-.82-5.28-.84h-.05l-.79-.15h-.97s-.15-.15-.15-.15c-.39-.42-.74-.87-1.06-1.35-1.01-1.43-1.88-2.67-5-2.67h-.55s-.15-.18-.15-.18c-.81-.94-1.74-1.77-2.76-2.48l-.44-.31.34-.41.16-.19c1-1.2,1.29-1.73.3-2.56-.94-.78-2.51-2.36-2.45-4.14.08-1.04.63-1.98,1.5-2.55.44-1.25,1.38-2.26,2.59-2.78.03-.1.05-.21.08-.32.07-.25.13-.51.22-.78l.18-.58.53.28c.36.19.76.3,1.17.3.21,0,.42-.03.63-.09.9-.61,1.81-1.23,2.7-1.84,2.02-1.39,4.11-2.82,6.26-4.18,2.52-1.59,3.71-2.89,3.63-3.99-.09-1.24-1.81-2.58-5.26-4.11-.61-.27-1.26-.52-1.89-.77-.28-.11-.56-.22-.84-.33-1.64-.12-3.25-.44-4.81-.96-1.59-.54-3.25-.86-4.93-.93-.21,0-.43,0-.64.02h-.11s-.1-.03-.1-.03c-2.41-1.01-5-1.57-7.61-1.63-3.09-.1-6.08,1.11-8.23,3.33-1.61,1.67-3.34,1.72-5.17,1.77-.27,0-.55.02-.83.03l-.35.02-.13-.32c-.57-1.06-1.57-1.82-2.75-2.08l-.26-.09-.07-.27c-.48-1.94-2.35-3.42-6.28-4.95l-.05-.02-.04-.03-.73-.48-.87-.57c-7.3-2.85-15.08-4.25-22.92-4.1-4.48.03-8.96.33-13.4.91l-16.16,2.78c.02.05.04.11.04.17.02.27-.17.52-.45.55l-.14.03c-.12.02-.36.06-.59.12,0,.03,0,.06-.02.09,3.44-.11,7.03-.22,10.21-.32,6.86-.22,12.28-.39,13.24-.39h.13c.28-.01.51.21.52.48s-.21.51-.48.52h-.13c-.1.02-.25.03-.46.04-4.35.25-8.73.66-12.96,1.05-2.34.22-4.76.44-7.14.64l-2.7.22,1.26-.6c-.62-.17-1.23-.38-1.83-.63h0l-2,.06c.4.07.97.14,1.78.22v.15c.09.09.14.21.14.33,0,.14-.05.28-.15.38v.14l-.52.03c-.09,0-.21.02-.35.02-3.47.22-6.57.33-9.45.33-.99,0-1.99-.01-2.95-.04-1.65-.05-2.89-.09-3.69-.13-.39-.02-.67-.04-.86-.06-.11-.01-.18-.02-.25-.03-.28-.03-.49-.28-.47-.56.02-.23.2-.42.43-.46-.16-.04-.28-.16-.34-.31-.43.01-.86.07-1.29.17l-.07.02h-.07c-.61-.05-1.21-.15-1.81-.29-.61-.15-1.24-.24-1.86-.28-.27-.04-.54.04-.74.22-.18.39-.19.82-.05,1.22l.12.57-.58.04-.97.06-.9.06h-.1c-2.12-.28-4.26-.27-6.37.02h-.02c-.88.08-1.92.13-3.12.13-7.29,0-19.05-1.53-29.42-2.89-6.35-.83-11.83-1.54-15.33-1.78h0c-1.72-.14-3.66-.3-5.55-.3-1.95-.04-3.9.2-5.78.69,0,.75-.27,1.47-.78,2.02-.96.81-2.21,1.2-3.47,1.07-.25,0-.52,0-.79-.02-1.25-.07-2.54-.09-3.78-.11-.4,0-.82-.01-1.23-.02,0,.18,0,.35.01.53,0,.35.02.71.03,1.07v.53s-.52-.02-.52-.02c-.44-.02-.89-.05-1.32-.09-.66-.05-1.34-.1-1.98-.1-1.14-.09-2.28.22-3.22.87l-.03.02c-.53.28-1.11.44-1.7.48-.48.07-1.21.17-1.36.39-.03.09-.03.18,0,.27l.14.52-.53.1c-.69.14-1.34.39-1.94.74l-.13.07-4.51-.2h-.03c-1.95-.37-4.65-.91-7.79-1.54-1.75-.35-3.56-.71-5.43-1.08-2.67-.53-5.55-1.09-8.26-1.58.07.06.12.13.16.21.11.29.03.61-.21.81l-.18.2-.44-.06c-.43-.06-.87-.13-1.3-.2l-2.72-.49,2.72-.5c.4-.07.72-.12.98-.14-3.12-.63-6.28-1.06-9.45-1.28-.17,0-.35,0-.52.02.34.42,1.4.48,2.82.5.73,0,1.47.04,2.19.15l.1.02.08.06s.09.05.14.08c.05.02.1.05.16.08l1.24.72-1.42.21c-.2.01-.39.08-.55.19,0,.01,0,.02.01.04.46.85.46,1.88,0,2.74-.62.9-1.92,1.02-3.1,1.02-.46,0-.93-.02-1.39-.04s-.87-.04-1.26-.04c-.19,0-.36,0-.52.01-1.66.01-3.3.35-4.83.99-.95.41-1.67,1.23-1.95,2.23,1.61.17,3.23.24,4.85.21,3.42,0,6.95,0,10.02,1.91l.04.03.04.04s.06.06.1.09l.08.07.71.65-.94.2c-.35.07-.69.17-1.03.29-1.12,1.3-1.05,3.25.17,4.46l1.17,1.36-1.71-.55c-.38-.12-.76-.27-1.13-.4-.52-.2-1.02-.38-1.46-.5-.98-.3-1.91-.74-2.77-1.3-.9-.6-1.9-1.05-2.95-1.33.05.05.09.11.13.16.36.59.5,1.29.42,1.98-.06.46.02.93.22,1.35.5.52,1.18.82,1.9.83l2.7.39-2.67.6c-1.5.34-3.05.43-4.58.26-.59-.03-1.2-.06-1.78-.06-1.2-.07-2.4.21-3.45.8l-.13.08h-.15c-.49,0-1,0-1.62-.01h-.01l-2.6-.08c.77.46,1.58.86,2.42,1.18,1.58.65,3.47,1.33,5.14,1.92.99.35,1.84.65,2.47.9.34.13.59.24.76.32s.6.29.52.72c-.03.17-.16.46-.68.46-.06,0-.12,0-.19,0-.72-.04-1.45-.05-2.17-.05-3.29,0-6.58.37-9.79,1.1h-.01c-.06.01-.1.02-.14.03.18.21.39.4.61.56.43.33.98.69,1.5,1.04,1.44.94,2.16,1.42,1.98,2.04-.15.52-.8.52-1.05.52h-.03c-.51.08-.63.2-.65.22,0,.04,0,.36,1.03,1.31.77.71,1.86,1.55,3.01,2.43,2.91,2.24,5.92,4.55,6.18,6.51.25,1.87-1.85,2.81-2.99,3.32-.32.17-.63.38-.91.62-.6.56-1.36.93-2.17,1.07h-.05c-.5.03-1,.16-1.44.39-.33.38-.72.71-1.15.98l-.03.02h-.04c-2.05.88-4.07,1.83-4.45,3.1-.14.63.01,1.29.41,1.8.22.08.45.16.73.23l.91.25-.72.62c-.06.05-.12.1-.18.14l-.03.02-.03.02c-1.53.68-3.19,1.01-4.86.94-.95,0-1.91-.06-2.84-.13h-.03c-.84-.08-1.69-.12-2.54-.12-.31,0-.63,0-.94.02.45,1.22,1.95,1.9,4.88,2.26.39.05.86.06,1.35.07,1.44.04,2.92.08,3.49,1.01.3.6.27,1.32-.08,1.89.26.09.54.14.82.13.11,0,.22,0,.34-.02,2.74-.36,5.5-.52,8.26-.47,2.86.06,5.71-.12,8.54-.53h.05s.08,0,.08,0c.47,0,.94-.1,1.37-.29l.1-.05,4.17.16-.87.82s-.05.05-.07.07l3.82.15,3.79,1.01.04.02c1.82.67,3.76.96,5.69.84.45,0,.91.01,1.37.03h.09l.08.04c.96.4,1.96.73,2.97.97l1.85.45-1.83.52c-1.68.48-1.72,1.56-1.78,2.92-.04,1.17-.1,2.53-1.4,3.36,1.68-.2,3.29-.79,4.7-1.73.61-.34,1.23-.69,1.89-.99l.13-.06.14.02c1.2,0,2.34.55,3.09,1.49.56,1.08.61,2.35.13,3.46l-.07.22-.22.09c-7.18,3.04-11.62,6.1-14.39,9.93l-.16.21h-.26c-.1,0-.21,0-.31,0-4.26,0-5.48,2.01-6.78,4.14-.4.7-.86,1.37-1.35,2.01l-.15.18h-1.23l-1.04.24h-.3c-2.3.1-4.57.54-6.73,1.33-.7.21-1.41.43-2.14.63.8.3,1.65.44,2.5.42.77,0,1.6-.08,2.39-.16s1.6-.15,2.39-.16h.04c.64.05,1.29,0,1.92-.14l.1-.02.1.02c.63.14,1.27.2,1.91.19h.21l.15.14c1.58,1.52,4.01,1.75,6.6,1.99,2.41.22,4.9.45,6.7,1.83l.62.47-.69.37c-.29.16-.67.32-1.02.47-.42.17-.83.37-1.22.6.11,2.06-1.12,3.95-3.04,4.68-1.88.79-3.86,1.31-5.88,1.55,2,2.02,3.21,4.7,3.41,7.53l4.2,2.53c.34.04.67.11,1,.22h.03s.03.02.03.02c.73.22,1.32.76,1.6,1.47.09.9-.23,1.78-.87,2.42-.93,1.32-1.2,1.93-.17,2.71.97.73,2.6,2.21,2.66,4.02,0,1.09-.5,2.12-1.35,2.79-.36,1.32-1.24,2.44-2.44,3.1-.02.12-.05.24-.07.37-.05.26-.1.54-.17.82l-.14.59-.55-.25c-.56-.26-1.21-.29-1.79-.07-.88.71-1.76,1.45-2.62,2.15-1.94,1.6-3.94,3.26-5.99,4.84-2.47,1.89-3.58,3.37-3.41,4.53.19,1.26,1.98,2.5,5.46,3.77.63.23,1.31.44,1.96.64.27.08.55.17.83.26,1.64-.02,3.27.18,4.86.59h0c1.3.36,2.65.54,4,.54.53,0,1.07-.03,1.6-.09l.11-.02Zm150.59-22.24l-.17.03c.55,0,1.16-.02,1.85-.05-.07-.04-.13-.08-.19-.13-.49.04-.99.09-1.49.15h0Zm4.01-.26c.42.06.85.08,1.27.08.38,0,.78-.02,1.18-.04-.82-.03-1.64-.04-2.46-.03h0Zm-29.35-126.71c.82,0,1.57,0,2.24.01v-.08l-2.24.07Zm9.01-.27l.38.09c.66-.05,1.31-.11,1.97-.17l-2.35.07Zm-5.67-1.14l-2.23.39,2.73-.08h0l.41-.11.12-.03c-.27-.03-.61-.07-1.02-.1v-.06Z"/>
          <path id="_パス_4978" data-name="パス 4978" class="cls-5" d="m234.4,40.05c7.69,1.44,15.52,1.34,23.46,1.21-17.39-1.53-29.53-2.35-23.46-1.21"/>
          <path id="_パス_4978_-_アウトライン" data-name="パス 4978 - アウトライン" class="cls-2" d="m251.35,41.83c-5.71.1-11.41-.33-17.04-1.29-.56-.1-.96-.19-1.24-.27s-.79-.22-.75-.7c.04-.46.54-.51.7-.53.18-.02.44-.03.78-.03,2.79,0,11.35.62,24.1,1.74l-.04,1c-2.31.04-4.39.07-6.51.07Zm-11.93-1.55c2.08.23,4.12.36,6.09.44-2.33-.18-4.37-.33-6.09-.44Z"/>
        </g>
      </g>
      <g id="_グループ_51984" data-name="グループ 51984">
        <g class="cls-6">
          <g id="_グループ_3859-3" data-name="グループ 3859-3">
            <path id="_パス_4976-2" data-name="パス 4976-2" class="cls-5" d="m534.03,145.68c-3.55.26-7.11.53-10.28-1l-.2-.14c.43-.12.86-.27,1.28-.44,2.69-4.08-1.32-6.12-5.79-8.01-.57-.36-1.08-.81-1.52-1.32-.74-.4-1.55-.62-2.39-.66-2.01-.3-2.61-1.58-4.06-2.27-2.13-.95-3.97-2.02-3.74-3.89.37-3,6.48-7.25,10.5-10.56h.58c.76-.2,1.55-.38,2.29-.59,5.58-1.63,6-3.16,1.7-5.69-.46-.27-.91-.54-1.36-.82,2.21-1.5,5.04-3.32,2.75-3.77-2.56-.54-5.15-.94-7.75-1.19,3.29-.73,4.12-3.14,5.99-4.84l1.1.08,1.1-.13c3.96.35,7.36-.81,11.03-1.24-2.48-1.85-5.88-1.15-8.95-1.35-.72-.1-1.44-.11-2.16-.03-.48-.12-.97-.21-1.47-.26-.04-.09-.11-.17-.2-.23l-.61.02c-1.57-1.37-3.92-1.82-6.34-2.2l1.6-.76c.2-2.1,1.38-3.99,3.18-5.09-1.96-.12-3.89-.51-5.74-1.15,2.2-.52,4.45-.8,6.7-.85-1.29-1.04-2.31-2.38-2.97-3.9,1.07-.11,2.1-.49,3-1.09.54,0,1.08-.04,1.61-.13.54.09,1.09.11,1.64.08,2.34,0,4.89.63,6.85-.53-2.77-.46-5.3-1.42-8.32-1.35l-.83-.14h-.84c-1.74-1.62-2.11-3.99-7.06-3.88-.89-.91-1.89-1.72-2.98-2.38.9-.97,2.04-1.99.41-3.21-1.56-1.16-3.95-3.62-.89-5.58.46-1.22,1.46-2.15,2.71-2.52.13-.41.24-.83.38-1.25.73.35,1.56.43,2.35.22,3.14-1.88,6.19-3.82,9.42-5.63,5.85-3.28,5.42-5.53-1.77-8.36-.96-.38-1.97-.7-2.96-1.06-3.85-.1-7.03-1.98-11-1.74-6.7-2.36-12.95-2.19-17.14,1.7-1.77,1.64-3.71,1.44-5.92,1.54-.44-.94-1.46-1.69-3.19-2.2-.64-2.32-3.47-3.75-6.89-4.93l-1.71-1c-12.12-4.4-25.06-4.49-38.31-3.02l-26.23,4.04c-3.67-.28-7.01.63-10.59.67-7.08.59,49.99-1.28,42.86-.92-7.07.36-14.02,1.06-21.04,1.57l.05-.02c-10.46-2.3,3.97-2.17-6.18-2.02,8.35.64-6.88,1.48,2.48,2.29-4.55.28-9.14.44-13.83.33-20.21-.49,28.7-.56,8.51-.15l-10.29-.49c-1.59-.78-3.39-1-5.12-.64-2.28-.12-5.97-1.75-5.22,1.37l-1.96.11c-2.26-.26-4.54-.25-6.8.03-10.42.88-39.34-3.59-49.98-4.24-4.23-.31-8.46-.59-12.41.48.07,1.76-.93,2.94-4.71,2.74-1.93-.1-3.87-.09-5.81-.13.02.66.04,1.31.06,1.97-2.55-.1-5.24-.59-7.16.73-1,.6-3.84.12-3.4,1.56-.77.14-1.51.39-2.2.75l-4.53-.18c-3.18-.52-8.39-1.47-13.82-2.43-10.11-1.78-20.97-3.56-20.84-2.54.2,1.55,3.73.9,5.77,1.25.11.06.23.11.34.17-.66.09-1.19.34-.98.83,1.63,3.84-3.33,2.66-6.1,2.81-4.24.22-7.22,1.07-7.7,3.85,5.27.77,11.16-.65,15.9,1.98.06.05.13.1.19.15-.44.08-.87.19-1.3.33-1.53,1.96-1.19,3.5.11,4.84-.92-.27-1.9-.65-2.74-.85-2.98-.71-4.38-3.07-8.99-2.54,5.83.6.11,4.32,5.59,5.02-1.52.3-3.09.38-4.63.23-2.1-.1-4.17-.2-5.81.76-.56,0-1.13,0-1.69-.01-1.16-.03-2.33-.07-3.49-.1-2.05,1.21,14.69,5.31,11.7,5.13-4.24-.19-8.49.15-12.66.99-3.1.56,6.24,3.95,3.08,3.9-5.26.67,9,6.74,9.53,10.28.18,1.24-1.2,1.96-2.83,2.6-1.1.47-1.55,1.32-3.08,1.53-.63.03-1.25.18-1.81.45-.34.35-.72.65-1.15.89-3.39,1.28-6.43,2.65-4.37,5.36.32.11.64.21.97.29-.05.04-.1.07-.15.1-2.41,1.04-5.11.87-7.82.72-1.44-.12-2.89-.14-4.33-.07.26,1.94,2.48,2.66,5.68,3,2.1.23,5.91-.36,4.51,2.22-.32.58,1.11.75,1.82.65,5.72-.81,11.89-.04,17.58-.94.58,0,1.15-.1,1.68-.31l2.99.1c-.38.32-.46.61-.13.86l4.34.15,3.86.91c2.23.93,4.94.78,7.59.86,1.04.39,2.11.7,3.19.93-4.74,1.2.81,6.21-6.29,6.54,5.05.98,7.28-1.18,10.22-2.35,2.35.25,3.93,1.12,2.94,4.02-6.29,2.37-11.85,5.2-15.27,9.4-6.51-.12-6.97,3.44-9.24,5.9h-1.1l-1.08.22c-3.97-.07-7.29,1.39-10.93,2.12,2.59,1.73,5.93.75,9.01.73.72.05,1.44,0,2.15-.14.7.14,1.41.2,2.12.18,3.41,2.93,10.26,1.07,13.95,3.59-.92.44-2.65.92-2.62,1.31.24,4.04-4.61,4.88-9.95,5.6,2.46,1.79,4.01,4.58,4.23,7.61l4.71,2.52c.36.03.71.1,1.06.19,4.27,1.66-2.8,3.9.49,6.09,1.63,1.09,4.16,3.45,1.23,5.71-.37,1.28-1.31,2.32-2.55,2.82-.11.44-.19.87-.31,1.32-.75-.31-1.59-.32-2.35-.04-3.01,2.19-5.94,4.42-9.06,6.55-5.64,3.84-5.07,6.14,2.28,8.53.98.32,2.01.58,3.02.87,1.69-.02,3.38.15,5.03.53,1.98.48,4.02.63,6.05.44,2.22.65,4.52.99,6.83,1.01,3.81.17,7.52-1.32,10.14-4.09,1.82-2.01,3.98-1.74,6.45-2.12,7.79-1.2,15.59-1.17,23.39-1.14,3.43.01,6.85.02,10.27-.07,5.99,2.36,12.72.87,18.95.43,8.16-.57,16.65-.92,23.95-4.31,3.57-1.65,9.32-2.24,12.07-1.42,8.09,2.44,15.6.5,23.06-.8-18.35-.42-31.21-1-24.79-1.61l13.76-.57c0-.47-.02-.95-.04-1.42,4.06-1.65,8.57-1.72,13.09-1.89,11.25-.4-21.91-1.28-10.66-1.83,4.42-.21,9.08.01,13.04-1.89l18.32-1.69c1.53,2.92,4.82,2.64,8.11,2.36,1.2-.13,2.41-.18,3.61-.14.76.03,1.52.02,2.28-.05,16.55-1.09-30.93,2.06-14.37-.39,3.56-.37,7.14-.34,10.69.09,3.15.34,6.32.43,9.48.27,6.08-.46,12.03-.91,16.98-3.62l-6.13.22-.19-2.79,4.94-.5,12.25.6c1.91.44,3.92.08,5.56-.99l6.52-.23c.67.28,1.4.42,2.13.42,7.49,1.29,15.59.08,23.13,1.24.93.14,2.8-.12,2.38-.99-1.86-3.86,3.15-3.01,5.91-3.37,4.21-.55,7.13-1.66,7.45-4.57-1.9-.09-3.81-.04-5.71.15M270.38,43.98c-.51-.07-1.02-.13-1.52-.21,1.71-.28,1.84-.1,1.52.21"/>
            <path id="_パス_4976_-_アウトライン-2" data-name="パス 4976 - アウトライン-2" class="cls-2" d="m287.97,182.92h0c-2.33-.02-4.64-.36-6.88-1.01-.56.05-1.12.07-1.68.07-1.5,0-2.99-.18-4.44-.54-1.61-.37-3.26-.54-4.91-.52h-.07l-.07-.02c-.31-.09-.63-.18-.94-.26-.69-.19-1.41-.39-2.1-.61-4.19-1.36-6.16-2.7-6.39-4.33-.21-1.5,1.01-3.07,3.98-5.09,2.14-1.46,4.22-3,6.24-4.48.92-.68,1.86-1.38,2.81-2.06l.06-.04.07-.02c.69-.25,1.45-.3,2.16-.12l.05-.21c.04-.19.09-.39.14-.6l.06-.26.25-.09c1.09-.45,1.92-1.37,2.24-2.51l.05-.14.12-.09c.67-.41,1.1-1.12,1.15-1.9-.04-1.32-1.66-2.54-2.35-3-.56-.31-.96-.85-1.1-1.48,0-.91.38-1.78,1.05-2.41.39-.5.84-1.06.75-1.39-.04-.14-.23-.43-1.06-.75-.31-.08-.63-.14-.95-.17h-.1s-.09-.06-.09-.06l-4.71-2.52-.22-.12-.04-.25c-.39-2.59-.96-4.93-4.04-7.29l-.95-.73,1.19-.16c5.52-.74,9.73-1.59,9.52-5.07-.04-.63.74-.93,1.92-1.38l.06-.02c-1.81-.65-3.71-1-5.63-1.05-2.68-.22-5.45-.45-7.35-1.97-.65,0-1.3-.06-1.94-.18-.71.13-1.44.17-2.17.13-.78,0-1.6.08-2.4.15-.85.07-1.74.15-2.59.15-1.51.08-3-.31-4.29-1.11l-1-.67,1.18-.24c1.16-.23,2.32-.55,3.44-.85,2.44-.78,4.98-1.21,7.54-1.27l1.08-.22h.92c.43-.51.82-1.04,1.19-1.6.68-1.14,1.58-2.14,2.64-2.94,1.59-.99,3.44-1.46,5.31-1.36h.1c3-3.58,7.68-6.46,15.1-9.28.29-.67.28-1.43-.03-2.09-.63-.68-1.52-1.06-2.44-1.03-.6.25-1.18.54-1.78.84-1.85,1.09-3.94,1.69-6.08,1.75-.85,0-1.69-.09-2.52-.26l-4.11-.79,4.18-.2c1.61-.07,2.62-.4,3.11-.98.36-.58.52-1.25.47-1.93-.12-1.14.33-2.26,1.2-2.99-.59-.17-1.18-.36-1.75-.57-.44-.01-.9-.02-1.33-.03-2.14.11-4.28-.18-6.32-.85l-3.78-.89-4.44-.15-.12-.09c-.24-.16-.4-.43-.41-.72v-.07l-2.07-.07c-.55.2-1.14.31-1.73.31-3,.39-6.03.55-9.05.5-2.84-.04-5.68.1-8.5.43-.17.02-.33.03-.5.03-.44,0-1.48-.06-1.82-.64-.14-.24-.14-.54,0-.78.22-.41.29-.73.2-.89-.26-.45-1.8-.49-2.82-.52-.54-.01-1.05-.03-1.5-.08-2.85-.31-5.8-.95-6.13-3.44l-.07-.53.54-.03c.55-.03,1.11-.04,1.66-.04.91,0,1.83.04,2.74.11h.02c.96.06,1.95.12,2.91.12,1.22.03,2.44-.11,3.63-.42-.63-.69-.88-1.64-.68-2.55.47-1.63,2.74-2.61,5.24-3.56.37-.21.71-.47,1-.78l.06-.06.08-.04c.62-.3,1.29-.47,1.98-.5.65-.1,1.27-.38,1.78-.8.36-.27.74-.51,1.15-.69h.01c1.6-.63,2.64-1.23,2.52-2.07-.09-.6-.76-1.42-1.99-2.46-1.16-.98-2.64-1.99-4.07-2.96-3.21-2.2-4.88-3.4-4.62-4.48.15-.61.82-.82,1.27-.9-.34-.21-.75-.46-1.08-.65-1.86-1.08-2.9-1.73-2.76-2.52.07-.4.42-.65,1.03-.77,3.39-.69,6.84-1.04,10.29-1.05l-.92-.29c-1.75-.55-3.94-1.24-5.65-1.89-2.7-1.01-3.28-1.55-3.34-2.08-.03-.31.13-.61.41-.75l.12-.07h.14c1.16.03,2.32.07,3.49.1.59,0,1.08.01,1.55.01,1.25-.61,2.64-.89,4.03-.83.63,0,1.29.03,1.92.06h.04c.5.05,1,.07,1.49.07.27,0,.54,0,.81-.02-.18-.13-.34-.28-.47-.46-.34-.54-.49-1.19-.41-1.83.07-.43-.02-.87-.24-1.24-.63-.52-1.42-.8-2.24-.78l-4.58-.47,4.57-.52c.44-.05.89-.08,1.34-.08,1.83.02,3.62.54,5.18,1.51.83.49,1.72.86,2.64,1.12.42.1.89.25,1.34.4-.64-1.33-.38-2.74.78-4.22l.09-.12.15-.05.09-.03c-2.74-1.19-5.8-1.19-9.03-1.19-1.93.05-3.86-.05-5.77-.28l-.51-.07.09-.51c.27-1.49,1.31-2.73,2.73-3.25,1.74-.65,3.58-.99,5.43-1.01.18-.01.38-.01.6-.01.43,0,.91.02,1.36.04s.95.04,1.41.04c.88,0,2.09-.06,2.44-.6.26-.39.06-1.07-.16-1.58-.12-.25-.11-.55,0-.8-.36-.02-.74-.02-1.11-.03-.83.02-1.66-.04-2.48-.18-.96-.21-1.49-.67-1.58-1.37-.02-.18.03-.36.15-.5.23-.26.66-.36,1.52-.36,3.16,0,11.75,1.44,19.74,2.84,1.95.34,3.85.68,5.68,1.01,3.26.58,6.07,1.08,8.1,1.42l4.37.17c.56-.28,1.16-.5,1.77-.64.02-.17.07-.33.16-.47.39-.59,1.25-.7,2.16-.82.46-.03.92-.13,1.35-.29,1.19-.72,2.56-1.06,3.95-.98.71,0,1.44.05,2.14.1.27.02.55.04.82.05,0-.15,0-.3-.01-.45,0-.33-.02-.65-.03-.98v-.52s.51.01.51.01c.61.01,1.22.02,1.82.03,1.31.02,2.67.03,4,.1.27.01.53.02.77.02,1.05.13,2.12-.15,2.97-.78.35-.4.51-.93.44-1.46v-.4s.37-.1.37-.1c2.19-.56,4.44-.82,6.7-.78,2.01,0,4.07.15,5.88.28,3.69.23,9.43.89,16.09,1.67,10.82,1.26,23.09,2.68,30.65,2.68,1.21,0,2.27-.04,3.16-.11,2.28-.28,4.59-.29,6.87-.03l.9-.05.45-.03c-.07-.47.04-.94.31-1.33.41-.45,1.01-.68,1.62-.61.72.03,1.44.12,2.15.28.56.11,1.12.2,1.69.25,1.14-.23,2.33-.22,3.47.03,1.18-.06,2.37-.2,3.52-.33,1.57-.22,3.16-.34,4.75-.37.49,0,.97.02,1.43.05l26.17-4.03h.02c4.7-.55,9.42-.83,14.15-.85,8.3-.15,16.55,1.17,24.39,3.9l.04.02.04.02.95.56.72.42c3.03,1.05,6.2,2.46,7.08,4.99,1.24.3,2.34,1.04,3.08,2.09l.57-.02c1.79-.05,3.33-.09,4.72-1.38,2.55-2.3,5.89-3.51,9.32-3.39,2.81.05,5.59.57,8.23,1.54.21-.01.42-.02.63-.02,1.84.07,3.67.37,5.43.9,1.59.47,3.23.76,4.88.86h.08l.08.03c.32.11.64.23.96.33.67.23,1.36.47,2.02.73,1.55.56,3.03,1.3,4.4,2.21.92.52,1.55,1.42,1.72,2.46.1,1.46-1.22,2.87-4.29,4.59-2.23,1.25-4.41,2.58-6.52,3.87-.95.58-1.92,1.17-2.9,1.76l-.06.04-.07.02c-.71.19-1.46.18-2.16-.04l-.06.19c-.05.18-.11.37-.17.56l-.08.26-.27.07c-1.1.33-1.97,1.16-2.37,2.24l-.06.14-.13.08c-.67.32-1.14.96-1.25,1.7-.04,1.27,1.5,2.56,2.17,3.05.55.34.92.9,1.02,1.53-.03.77-.37,1.48-.95,1.98.88.57,1.69,1.23,2.43,1.97h.13c3.77,0,4.98,1.53,6.05,2.87.27.35.56.69.87,1.01h.67s.82.13.82.13c1.94.03,3.87.3,5.74.81.85.2,1.74.4,2.62.55l1.35.23-1.18.7c-1.03.57-2.2.83-3.38.77-.63,0-1.27-.04-1.9-.09-.6-.04-1.22-.08-1.81-.08-.55.03-1.1.01-1.65-.07-.48.08-.96.12-1.45.13-.74.49-1.57.82-2.44.97.64,1.21,1.51,2.28,2.57,3.14l.95.81-1.25.07c-1.62.09-3.29.2-4.77.44,1.27.25,2.54.44,3.83.56l1.34.15-1.12.76c-1.69,1.02-2.8,2.79-2.97,4.76l-.04.26-.24.11-.17.08c1.76.23,3.43.89,4.87,1.92l.58-.02.14.09c.08.05.15.11.21.18.41.05.81.13,1.21.22.72-.07,1.45-.06,2.17.04.42.03.89.04,1.48.04.3,0,.61,0,.91,0s.61,0,.92,0c1.92,0,4.12.11,5.89,1.42l1.01.75-1.25.15c-1.18.14-2.35.36-3.49.57-2,.44-4.04.68-6.09.74-.5,0-1.01-.02-1.49-.06l-1.09.13-.92-.07c-.45.45-.88.93-1.27,1.44-.76,1.04-1.7,1.93-2.79,2.62,1.97.25,3.9.57,5.75.97.72.14,1.13.45,1.23.91.19.93-1.05,1.89-3.15,3.32.23.14.46.27.69.41,2.3,1.35,3.27,2.43,3.13,3.51-.15,1.2-1.63,2.12-4.95,3.09-.53.15-1.09.29-1.62.43l-.68.17-.07.02h-.07c-.12,0-.25,0-.38,0-.69.56-1.42,1.14-2.19,1.76-3.44,2.72-7.71,6.11-7.99,8.37-.18,1.45,1.18,2.36,3.44,3.37h.01c.54.28,1.04.62,1.49,1.01.66.63,1.5,1.06,2.4,1.22.9.04,1.78.29,2.58.72l.08.04.06.07c.39.47.85.87,1.37,1.2,3.19,1.35,6.1,2.75,6.78,5.01.31,1.3.02,2.67-.8,3.72l-.08.13-.14.06-.15.06c1.64.56,3.36.82,5.08.77,1.32,0,2.7-.1,4.02-.2h0c1.29-.13,2.59-.19,3.88-.19.63,0,1.27.02,1.9.05l.53.03-.06.53c-.17,1.54-1.12,2.88-2.52,3.55-1.68.81-3.5,1.3-5.36,1.46-.59.08-1.26.1-1.96.12-1.5.05-3.36.12-3.8.85-.21.35-.13.92.24,1.68.16.3.15.66-.03.95-.46.74-1.85.8-2.27.8-.2,0-.41-.01-.61-.04-3.71-.46-7.45-.65-11.19-.56-3.98.11-7.96-.12-11.91-.67-.75,0-1.49-.14-2.18-.41l-6.28.22c-1.23.77-2.65,1.18-4.1,1.19-.57,0-1.13-.06-1.68-.19l-12.17-.59-4.42.45.12,1.82,7.75-.28-1.85,1.01c-2.57,1.35-5.35,2.26-8.22,2.71-2.9.51-5.98.75-8.97.97h-.01c-1.01.05-2.03.08-3.04.08-.87,0-1.76-.02-2.63-.06h-.12c-.68.07-1.36.09-2.03.07-6.44.34-11.01.51-13.58.51-.76,0-1.35-.01-1.75-.05-.45-.03-1.07-.08-1.1-.61-.04-.55.6-.69,1.22-.82.6-.13,1.54-.29,2.77-.48h.02c.21-.02.42-.04.63-.06-.18-.21-.35-.44-.49-.68l-17.91,1.66c-2.93,1.39-6.2,1.65-9.44,1.77.74.05,1.47.09,2.15.13,1.87.12,3.63.22,4.97.33.73.06,1.26.11,1.63.15.22.03.38.05.49.08.46.1.55.36.55.56,0,.16-.07.45-.54.54-.16.03-.32.05-.48.06-.4.04-1.01.07-1.84.1l-.71.02c-4.22.15-8.21.29-11.88,1.7.01.37.02.73.02,1.08v.48l-11.18.46c3.61.21,10.09.47,21.72.74l.07.99c-.92.16-1.86.33-2.77.5-3.99.86-8.05,1.35-12.13,1.47-2.84.02-5.67-.38-8.39-1.19-.99-.26-2.01-.37-3.04-.35-2.98,0-5.93.59-8.68,1.74-6.84,3.17-14.7,3.71-22.31,4.23l-1.82.13c-1.29.09-2.64.23-3.94.37-2.41.29-4.82.46-7.25.5-2.69.07-5.36-.37-7.88-1.3-1.93.05-3.99.07-6.66.07-1.18,0-2.37,0-3.53,0s-2.36,0-3.54,0c-6.61-.12-13.22.26-19.77,1.14-.53.08-1.04.13-1.54.18-1.85.19-3.31.34-4.62,1.78-1.3,1.43-2.91,2.54-4.71,3.24-1.86.7-3.83,1.04-5.81,1.02Zm-6.78-2.02l.09.03c2.18.64,4.43.97,6.7.99,4.12,0,7.4-1.32,9.77-3.93,1.57-1.73,3.36-1.91,5.25-2.1.48-.05.98-.1,1.49-.18,6.6-.89,13.26-1.28,19.92-1.15,1.18,0,2.39,0,3.55,0s2.35,0,3.52,0c2.71,0,4.79-.02,6.74-.07h.1l.1.04c2.43.9,5.02,1.33,7.61,1.26,2.39-.04,4.77-.21,7.14-.5,1.31-.14,2.67-.28,3.98-.37l1.82-.13c7.51-.51,15.28-1.04,21.95-4.14,2.88-1.21,5.97-1.84,9.1-1.84,1.12-.03,2.24.11,3.32.39,2.63.78,5.36,1.17,8.1,1.14,3.33-.07,6.65-.43,9.92-1.09-5.74-.15-10.44-.31-14.01-.47-2.43-.11-4.31-.23-5.58-.34-.68-.06-1.19-.12-1.54-.18s-.92-.16-.94-.66.56-.62.81-.67c.3-.06.73-.11,1.32-.17h.03l13.27-.55c0-.3-.02-.61-.03-.92l-.02-.35.33-.13c2.82-1.04,5.79-1.63,8.8-1.73l-.36-.02c-2-.12-4.07-.25-5.62-.38-.85-.07-1.47-.13-1.91-.19-.25-.03-.45-.07-.58-.1-.38-.09-.57-.29-.57-.58,0-.51.58-.58,1-.63s1.01-.09,1.84-.13c.77-.04,1.56-.06,2.32-.08,3.61-.11,7.35-.23,10.53-1.76l.08-.04,18.75-1.73.15.3c.26.53.65.99,1.12,1.34,1-.06,2.01-.09,3.01-.09,1.94,0,3.89.12,5.82.35,1.12.12,2.25.21,3.37.26,1.1-.06,2.04-.11,2.7-.15.9-.05,1.06-.06,1.11-.06h.48v.27c.59-.01,1.16-.03,1.73-.06,5.24-.39,10.23-.77,14.6-2.53l-4.18.15-.25-3.76,5.45-.56h.04l12.3.6h.05c.49.13.99.18,1.5.19,1.3,0,2.58-.39,3.67-1.1l.11-.07,6.76-.24.1.04c.61.26,1.27.38,1.93.38h.09c3.9.55,7.84.78,11.78.67,3.79-.09,7.58.1,11.34.57.15.02.3.03.46.03.49.03.97-.07,1.4-.31h0c-.52-.78-.6-1.78-.2-2.64.73-1.2,2.71-1.27,4.63-1.33.68-.02,1.32-.05,1.87-.12,1.74-.14,3.43-.6,5.01-1.34.94-.44,1.63-1.26,1.91-2.25-.43-.01-.86-.02-1.28-.02-1.26,0-2.53.06-3.79.19h-.02c-1.35.1-2.74.2-4.1.2-2.21.08-4.41-.35-6.43-1.26l-.04-.02-.04-.03-.09-.07-.11-.08-.84-.61,1-.28c.37-.1.72-.22,1.08-.37.6-.78.82-1.79.6-2.75-.56-1.85-3.39-3.18-6.25-4.39h-.04s-.03-.04-.03-.04c-.59-.37-1.12-.82-1.57-1.35-.65-.34-1.37-.53-2.1-.56h-.05c-1.09-.18-2.1-.68-2.91-1.43-.39-.34-.83-.64-1.29-.88-1.04-.42-2-.98-2.88-1.68-.83-.65-1.26-1.68-1.15-2.72.33-2.66,4.41-5.9,8.36-9.03.82-.65,1.6-1.26,2.31-1.86l.13-.11h.71l.62-.15c.53-.13,1.07-.27,1.59-.42,3.39-.99,4.17-1.77,4.23-2.25.05-.41-.37-1.18-2.65-2.52-.46-.27-.92-.55-1.37-.82l-.66-.4.94-.64c.77-.52,1.56-1.06,2.17-1.55.72-.59.87-.88.9-.97-.13-.08-.28-.13-.43-.15h0c-2.54-.54-5.11-.93-7.7-1.18l-3.12-.31,3.06-.68c1.74-.44,3.25-1.52,4.23-3.03.47-.6.98-1.17,1.53-1.69l.16-.14,1.26.1,1.1-.13h.05c.48.04.96.06,1.46.06,1.99-.06,3.97-.3,5.91-.72.68-.13,1.36-.25,2.06-.37-1.3-.42-2.67-.61-4.04-.54-.3,0-.61,0-.91,0s-.61,0-.92,0c-.62,0-1.11-.01-1.56-.04h-.04c-.67-.09-1.36-.1-2.04-.03h-.09s-.09-.01-.09-.01c-.46-.12-.92-.2-1.39-.25l-.3-.04-.07-.18h-.57s-.15-.13-.15-.13c-1.46-1.27-3.71-1.71-6.08-2.08l-1.6-.25,1.46-.7.71-.34.65-.31c.22-1.71,1.06-3.27,2.36-4.39-1.6-.14-3.17-.49-4.67-1.05l-1.26-.56,1.32-.38c1.85-.46,3.74-.73,5.65-.8-.95-.93-1.71-2.05-2.23-3.28l-.24-.59.63-.1c.99-.1,1.95-.44,2.77-1l.14-.1h.17c.51,0,1.02-.04,1.52-.12h.08s.08,0,.08,0c.51.08,1.02.1,1.53.07h.03c.63,0,1.27.04,1.9.09.61.04,1.23.08,1.83.08.4,0,.8-.01,1.2-.06-.28-.06-.57-.13-.84-.19-1.81-.5-3.67-.76-5.54-.79h-.05l-.83-.14h-.99s-.15-.13-.15-.13c-.4-.39-.77-.81-1.11-1.26-1.01-1.28-1.97-2.49-5.26-2.49h-.55s-.15-.16-.15-.16c-.86-.89-1.83-1.66-2.89-2.31l-.51-.32.41-.44.16-.17c.48-.51.97-1.03.93-1.47-.09-.35-.31-.64-.62-.82-.98-.73-2.63-2.21-2.57-3.89.09-1.02.68-1.92,1.58-2.42.5-1.2,1.49-2.14,2.71-2.59.03-.09.05-.18.08-.28.07-.24.14-.48.23-.73l.18-.53.5.24c.39.19.82.28,1.25.29.23,0,.46-.03.69-.08.95-.57,1.9-1.15,2.83-1.72,2.11-1.29,4.3-2.63,6.55-3.89,2.61-1.47,3.85-2.66,3.78-3.65-.08-1.14-1.87-2.38-5.49-3.81-.64-.25-1.32-.49-1.98-.71-.29-.1-.59-.2-.89-.31-1.7-.11-3.39-.41-5.03-.89-1.68-.51-3.42-.8-5.18-.87-.23,0-.45,0-.67.02h-.1s-.1-.03-.1-.03c-2.55-.95-5.25-1.47-7.98-1.52-3.18-.12-6.28,1-8.64,3.11-1.67,1.55-3.47,1.6-5.38,1.64-.28,0-.57.02-.86.03h-.33s-.14-.29-.14-.29c-.65-1.02-1.69-1.72-2.88-1.93l-.27-.08-.07-.27c-.62-2.27-3.84-3.65-6.57-4.59l-.05-.02-.04-.03-.76-.45-.92-.54c-7.71-2.67-15.84-3.97-24-3.83-4.69.02-9.37.31-14.03.85l-16.89,2.6s.02.08.03.12c.02.28-.18.52-.46.54l-.15.02c-.13.02-.39.06-.63.11h0c3.6-.09,7.37-.2,10.69-.29,7.18-.2,12.84-.36,13.85-.36h.13c.28,0,.51.21.52.49,0,.28-.21.51-.49.52h-.13c-.11.02-.26.03-.48.04-4.55.23-9.13.61-13.56.98-2.45.2-4.97.41-7.47.6l-3,.22,1.41-.6c-.61-.15-1.22-.34-1.81-.56l-1.69.05c.37.05.84.1,1.44.15v.16c.08.09.13.2.13.32,0,.14-.05.27-.14.37v.15l-.55.03c-.1,0-.22.01-.37.02-3.63.21-6.86.31-9.88.31-1.04,0-2.07-.01-3.08-.04-1.72-.04-3.02-.08-3.86-.12-.4-.02-.7-.04-.9-.05-.11-.01-.19-.02-.25-.03-.27-.02-.48-.25-.48-.52,0-.21.14-.4.34-.47-.11-.05-.19-.14-.24-.25-.47,0-.93.06-1.39.16h-.06s-.07.01-.07.01c-.63-.05-1.26-.14-1.88-.27-.65-.14-1.3-.23-1.96-.26-.43,0-.71.08-.83.23-.15.34-.16.72-.03,1.06l.14.58-.6.03-1.01.06-.95.06h-.09c-2.22-.25-4.47-.24-6.68.03h-.02c-.91.08-2.01.12-3.25.12-7.62,0-19.92-1.43-30.76-2.69-6.64-.77-12.37-1.44-16.04-1.66h0c-1.8-.13-3.84-.28-5.81-.28-2.04-.04-4.08.18-6.07.65,0,.66-.26,1.3-.72,1.78-.7.73-1.91,1.09-3.69,1.09-.26,0-.54,0-.82-.02-1.31-.07-2.66-.08-3.96-.1-.43,0-.87-.01-1.31-.02,0,.15,0,.3.01.45,0,.33.02.66.03.99v.53s-.52-.02-.52-.02c-.46-.02-.93-.05-1.38-.08-.69-.05-1.4-.09-2.08-.09-1.19-.09-2.38.2-3.4.82l-.03.02c-.55.26-1.14.4-1.75.44-.49.06-1.31.17-1.44.37-.02.06-.01.13.01.18l.16.54-.56.1c-.72.13-1.41.36-2.05.7l-.12.06-4.69-.18h-.03c-2.04-.34-4.87-.85-8.14-1.43-1.83-.33-3.73-.67-5.68-1.02-2.78-.49-5.78-1.01-8.6-1.46.04.05.08.1.1.16.1.29,0,.61-.24.79l-.17.17-.42-.05c-.45-.06-.91-.12-1.36-.19l-3.06-.49,3.06-.5c.28-.05.53-.08.74-.1-3.18-.57-6.39-.96-9.62-1.15-.22,0-.38,0-.5.02.92.35,1.92.49,2.9.4.76,0,1.52.04,2.28.14l.09.02.08.05s.1.05.15.07c.05.02.1.05.16.08l1.42.73-1.59.2c-.2.01-.4.07-.58.16.45.77.47,1.71.06,2.5-.61.92-2,1.05-3.28,1.05-.48,0-.97-.02-1.45-.04s-.91-.04-1.32-.04c-.2,0-.39,0-.55.01-4.31.23-6.48,1.11-7.1,2.93,1.69.16,3.38.23,5.08.19,3.57,0,7.25,0,10.44,1.77l.04.02.04.03s.07.06.1.08l.08.06.83.68-1.05.2c-.37.07-.73.16-1.09.27-1.14,1.52-1.08,2.78.17,4.07l1.31,1.35-1.81-.52c-.39-.11-.79-.25-1.18-.38-.55-.18-1.07-.35-1.54-.47-1.01-.27-1.98-.68-2.88-1.21-.96-.57-1.99-.99-3.08-1.24.02.02.04.05.06.07.38.55.54,1.22.46,1.89-.06.42.01.84.22,1.22.55.5,1.27.77,2.01.77l3.04.39-3.01.6c-1.05.21-2.12.32-3.19.32-.52,0-1.06-.03-1.58-.08h0c-.62-.03-1.26-.06-1.87-.06-1.26-.07-2.52.19-3.65.75l-.12.07h-.14c-.51,0-1.05,0-1.7-.01h0l-2.62-.08c.78.4,1.59.75,2.42,1.03,1.65.61,3.61,1.23,5.34,1.77,1.03.33,1.92.61,2.58.83.35.12.61.22.8.3.2.09.63.27.56.7-.03.17-.15.47-.69.47-.06,0-.12,0-.19,0-.75-.03-1.52-.05-2.27-.05-3.45,0-6.88.35-10.26,1.03h-.01l-.1.02c.19.17.39.33.6.47.45.31,1.01.63,1.55.95,1.5.88,2.25,1.31,2.08,1.94-.14.53-.8.53-1.08.53h-.04c-.24.01-.48.08-.69.2.02.09.17.43,1.16,1.23.8.65,1.89,1.39,3.04,2.18,3.05,2.09,6.2,4.24,6.48,6.1.1.79-.26,1.56-.92,1.99-.68.48-1.42.87-2.21,1.15-.34.16-.66.35-.95.58-.65.53-1.42.87-2.25.99h-.05c-.53.02-1.06.15-1.54.37-.36.36-.76.66-1.2.91l-.03.02h-.03c-2.18.83-4.33,1.73-4.67,2.92-.11.56.06,1.14.44,1.56.24.08.48.15.78.22l1.02.25-.84.64c-.07.05-.14.09-.19.13l-.03.02h-.03c-1.61.65-3.33.95-5.05.89-.99,0-1.99-.06-2.97-.12h-.03c-.88-.07-1.78-.11-2.66-.11-.33,0-.66,0-.99.01.49,1.09,2.07,1.71,5.09,2.03.41.04.9.06,1.42.07,1.53.04,3.12.08,3.66,1.01.26.54.22,1.18-.1,1.69.28.08.57.12.86.12.12,0,.24,0,.36-.02,2.86-.33,5.75-.48,8.63-.44,2.99.05,5.98-.12,8.94-.5h.04s.08,0,.08,0c.5,0,.99-.1,1.46-.28l.1-.04,4.4.15-.99.83,3.94.13h.05s3.9.93,3.9.93l.04.02c1.93.63,3.96.9,5.98.79.47,0,.95.01,1.43.03h.08l.08.03c1.02.38,2.06.68,3.12.91l2.08.45-2.07.53c-1.76.45-1.81,1.39-1.86,2.69-.05,1.07-.1,2.3-1.34,3.09,1.71-.19,3.36-.74,4.85-1.61.63-.32,1.29-.65,1.97-.92l.12-.05h.12c1.08.13,2.59.41,3.3,1.52.51.99.54,2.16.06,3.17l-.08.22-.22.08c-7.51,2.83-12.16,5.69-15.06,9.25l-.15.19h-.56c-4.48,0-5.77,1.88-7.12,3.87-.43.66-.9,1.29-1.42,1.88l-.15.16h-1.28l-1.09.22h-.31c-2.4.09-4.77.51-7.06,1.24-.69.19-1.4.38-2.11.56.81.25,1.66.37,2.52.35.82,0,1.67-.07,2.51-.15s1.67-.14,2.49-.15h.03c.68.04,1.36,0,2.03-.13l.09-.02.09.02c.66.13,1.34.19,2.02.18h.19l.14.12c1.66,1.42,4.22,1.64,6.93,1.86,2.51.21,5.11.42,6.98,1.7l.72.49-.79.37c-.31.15-.69.29-1.06.44-.44.15-.86.34-1.27.55.05.95-.24,1.89-.81,2.65-.63.77-1.45,1.36-2.38,1.72-1.96.73-4,1.21-6.08,1.43,2,1.79,3.25,4.27,3.49,6.95l4.4,2.36c.35.04.7.1,1.05.2l.05.02c.99.39,1.53.84,1.69,1.43.22.82-.36,1.56-.93,2.27-.45.57-.92,1.16-.85,1.63.11.35.35.64.67.81,1.02.68,2.74,2.08,2.8,3.8-.02,1.06-.55,2.04-1.42,2.63-.42,1.27-1.34,2.31-2.55,2.89-.02.1-.05.21-.07.32-.05.25-.11.5-.18.76l-.15.55-.53-.21c-.62-.25-1.3-.27-1.93-.06-.92.67-1.84,1.35-2.74,2.01-2.02,1.49-4.12,3.04-6.27,4.5-2.54,1.73-3.71,3.08-3.56,4.12.17,1.17,2.04,2.32,5.71,3.52.67.21,1.37.41,2.06.6.29.08.58.16.87.24,1.71-.02,3.41.16,5.08.55h0c1.38.34,2.79.51,4.21.51.56,0,1.12-.03,1.68-.08h.09Zm159.08-20.78c-.33.02-.67.05-1,.08.34,0,.71-.02,1.09-.03l-.09-.05Zm3.4-.11c.26.01.54.01.82,0-.27,0-.55,0-.83,0h0Zm-21.79-118.27l.12.03.66-.05-.79.02Zm-6.19-1.06l-1.81.28,2.33-.06h0l.35-.09c-.25-.03-.54-.05-.87-.08v-.05Z"/>
            <path id="_パス_4978-2" data-name="パス 4978-2" class="cls-5" d="m435.62,36.56c8.05,1.34,16.24,1.24,24.54,1.13-18.19-1.43-30.89-2.18-24.54-1.13"/>
            <path id="_パス_4978_-_アウトライン-2" data-name="パス 4978 - アウトライン-2" class="cls-2" d="m453.35,38.25c-5.96.09-11.92-.31-17.81-1.2-.58-.1-1-.18-1.29-.25-.31-.07-.82-.2-.78-.69.04-.47.55-.51.72-.53.19-.02.46-.03.81-.03,2.92,0,11.87.58,25.2,1.62l-.03,1c-2.42.04-4.6.06-6.81.06Z"/>
          </g>
        </g>
      </g>
    </g>
    <g id="_グループ_2094" data-name="グループ 2094">
      <g class="cls-1">
        <g id="_グループ_2093" data-name="グループ 2093">
          <path id="_パス_3934" data-name="パス 3934" class="cls-5" d="m79.26,176c-1.49.15-3,.03-4.45-.35-1.21-.3-2.45-.44-3.7-.42-.74-.23-1.5-.43-2.22-.68-5.41-1.88-5.82-3.69-1.68-6.71,2.29-1.67,4.45-3.43,6.66-5.15.56-.22,1.18-.21,1.73.04.09-.35.15-.7.22-1.04.93-.42,1.62-1.23,1.87-2.22,2.16-1.78.29-3.64-.91-4.49-2.41-1.73,2.78-3.48-.36-4.79-.25-.08-.52-.13-.78-.15l-3.46-1.98c-.13-2.35-1.26-4.53-3.11-5.98,3.93-.56,7.5-1.22,7.32-4.4-.02-.3,1.26-.68,1.93-1.03-.27-.19-.56-.36-.87-.49-.79.05-1.59,0-2.37-.15.46-.01.92-.07,1.37-.18-2.76-.72-6.4-.14-8.4-1.99-.52.01-1.05-.04-1.56-.14-.52.11-1.05.14-1.58.11-2.26.02-4.72.79-6.63-.57,2.67-.57,5.11-1.72,8.03-1.66l.8-.17h.81c.49-.61.93-1.26,1.34-1.93l-.33-.08-3.19-.11c-1.36-.99,6.56-2.89,10.19-3.91.23-.23.47-.46.72-.68-3.88-.14-7.73-.74-11.46-1.8-2.96-.78,6.26-3.7,3.2-3.84-4.5-.91,6.25-5.31,9.14-8.83-1.66-.02-3.32-.03-4.99-.05-1.28.69-2.82.65-4.07-.1l-3.63-.14c-.39.17-.81.25-1.24.24-4.18.7-8.72.1-12.93.74-.52.08-1.57-.06-1.34-.51,1.03-2.03-1.77-1.57-3.31-1.75-2.36-.27-3.99-.84-4.18-2.36,1.06-.06,2.13-.04,3.19.06,1.99.13,3.98.25,5.75-.56.04-.02.07-.05.11-.08-.24-.06-.48-.14-.72-.22-1.52-2.13.72-3.2,3.21-4.21.32-.19.6-.42.85-.7.41-.21.87-.33,1.33-.35,1.12-.17,1.45-.84,2.26-1.2,1.19-.5,2.21-1.07,2.08-2.05-.17-.62-.51-1.18-1-1.61-1.25.02-2.5-.04-3.73-.19.14-.78.63-1.46,1.33-1.83-2.83-2.12-6.03-4.12-3.61-4.45,2.33.04-4.54-2.62-2.26-3.06,3.06-.66,6.19-.92,9.31-.78,2.2.14-10.11-3.08-8.61-4.03l2.57.08c.42,0,.83,0,1.24.01,1.21-.76,2.73-.68,4.27-.6,1.14.12,2.29.06,3.41-.18-4.03-.55.18-3.48-4.11-3.95,3.39-.41,4.42,1.43,6.61,2,1.33.34,3.14,1.35,3.92.65s3.4-1.76.55-3.04c-1.25-.56-.56-.91.63-1.24,1-.35,1.97-.78,2.9-1.3.67-.77,1.59-1.27,2.6-1.42l-.03,1.37c.05,0,.1,0,.15,0,1.37-.85,5.05-.56,3.81-2.69l-1.42-.8c-.82-.02-1.62-.27-2.3-.72-.9.28-1.87.2-2.7-.23l-2.57-.08c-.69.04-.28-.27.11-.58.52-.41,1.03-.82-1.09-.41-1,.17-2.03-.04-2.88-.61-1.5-.28-4.09.24-4.24-.99-.1-.8,7.89.6,15.33,1.99,5.94,1.11,11.53,2.23,12.35,2.22.97.06,1.94-.17,2.78-.66-.5-1.28,1.71-.85,2.47-1.34,1.41-1.04,3.39-.66,5.27-.58-.01-.52-.03-1.03-.04-1.55,1.42.03,2.85.02,4.27.1,2.78.16,3.51-.77,3.46-2.15,2.91-.84,6.02-.62,9.13-.38,7.82.51,29.1,4.02,36.76,3.33,1.66-.22,3.34-.22,5-.02l1.44-.09c-.55-2.46,2.16-1.17,3.84-1.08,1.28-.28,2.61-.11,3.77.5l7.56.39c14.85-.32,29.74.06,44.61.44,9.71.25,18.88-1.18,28.34-1.69,5.25-.28,10.42-.89,15.63-1.35,2.63-.03,5.09-.75,7.79-.53,6.43-1.06,12.86-2.11,19.29-3.17,9.74-1.15,19.27-1.09,28.18,2.37.42.26.83.52,1.26.79,2.52.93,4.6,2.05,5.07,3.88,1.6.5,2.39,1.3,2.52,2.33,3.85,2.81,7.24,5.76,8.75,9.28,2.59,1.71,5.44,3.3,7.42,5.3-.4.02-.82.02-1.24.02-2.17,0-4.33,0-3.52,2.17,1.99.65,3.91,1.5,5.73,2.55,2.25.24,4.23,1.15,6.55,1.21.73.25,1.47.49,2.18.76,3.62,1.39,4.91,2.58,3.99,3.95.89.21,1.76.45,2.67.61-1.18.56-2.52.73-3.8.47-.5.35-1.01.67-1.55.96-2.25,1.23-4.38,2.54-6.55,3.82,1.22.36,2.47.6,3.74.7-1.36.9-2.22,2.38-2.34,4-.87.44-1.75.89-2.62,1.34-.2.02-.4.05-.6.1-.12.04-.24.1-.36.16.49.05.98.16,1.44.33l2.87.51,3.19-.14c1.17.84-3.97,2.91-7.79,4.42l2.94,1.74v.1c1.96.22,3.9.54,5.82.97,1.68.36-.4,1.79-2.02,2.96.33.22.66.43,1,.64,3.16,1.99,2.86,3.19-1.25,4.47-.55.17-1.12.31-1.68.47-.14,0-.28,0-.42,0-.6.52-1.25,1.08-1.92,1.65,1.39.14,2.71.66,3.81,1.52.52.03,1.04.11,1.55.24.53-.06,1.06-.05,1.59.02.59.04,1.2.03,1.81.03,1.71-.02,3.43-.03,4.77.94-2.7.31-5.2,1.14-8.11.89l-.81.09-.81-.06c-1.77,1.58-2.27,4.01-7.04,3.58-.5.5-1.05.97-1.62,1.39.56.43,1.17.79,1.82,1.07,1.07.54,1.51,1.55,2.98,1.79.62.03,1.22.21,1.76.52.32.4.69.75,1.12,1.04,3.29,1.49,6.23,3.08,4.26,6.29-.3.14-.62.25-.94.35.05.04.1.07.15.11,2.33,1.21,4.95,1,7.56.79,1.39-.15,2.8-.19,4.2-.12-.23,2.29-2.38,3.16-5.48,3.59-2.03.28-5.72-.38-4.35,2.65.31.68-1.07.89-1.75.78-5.54-.91-11.5.04-17.01-.97-.54,0-1.08-.11-1.57-.33l-4.79.18c-1.18.84-2.68,1.13-4.09.78l-4.93-.26c-2.22.56-4.38,1.34-6.45,2.33l3.38-.13c-1.52.86-3.17,1.49-4.88,1.86-.76.92-1.83,1.53-3.01,1.73-.75,2.37-3.57,3.67-6.95,4.68-.58.32-1.15.63-1.72.94-11.96,3.81-24.47,3.09-37.17.75l-25.08-5.81c-1.62,0-3.24-.17-4.83-.5l-22.24.97c-2.91,1.5-6.34,1.32-9.59,1.49-8.27.43-16.55.75-24.83,1.07-3.33.13-6.64.19-9.63,1.48.02.37.03.74.03,1.12l-10.12.45c-4.72.48,4.73.94,18.23,1.27-5.49,1.02-11.01,2.55-16.96.63-2.02-.65-6.25-.18-8.88,1.11-5.37,2.66-11.62,2.93-17.62,3.38-4.58.35-9.53,1.52-13.94-.34-2.52.07-5.04.06-7.56.05-5.75-.18-11.51.12-17.21.9-1.82.3-3.4.09-4.74,1.67-1.87,2.15-4.61,3.34-7.46,3.22-1.71-.03-3.41-.3-5.03-.82m111.71-9.09l.82-.46c-4.56-.07-9.03-.16-13.13-.26,1.16-.22,2.32-.41,3.47-.54,4.44-.51,8.85-1.01,13.32-1.26l-3.67,2.06c7.49.12,15.22.21,21.93.24l-.43.04c-4.41.43-8.87.85-13.38.85-2.99.02-5.99-.21-8.94-.67m28.02-.22c-1.66,0-3.42,0-5.26-.01,6.1-.59,12.11-1.15,18.08-.56,4.06.4-2.33.57-12.76.57h-.06Z"/>
        </g>
      </g>
    </g>
    <g id="_グループ_51991" data-name="グループ 51991">
      <g class="cls-8">
        <g id="_グループ_3858" data-name="グループ 3858">
          <path id="_パス_4964" data-name="パス 4964" class="cls-5" d="m485.37,57.14c.17-.52.17-.67,0,0"/>
          <path id="_パス_4965" data-name="パス 4965" class="cls-5" d="m680.24,149.03c-2.98.26-5.95.52-8.6-.77-.05-.04-.11-.08-.17-.12.36-.11.72-.24,1.07-.39,2.27-3.54-1.07-5.26-4.81-6.84-.48-.31-.9-.69-1.26-1.13-.62-.34-1.3-.52-2-.55-1.68-.24-2.18-1.34-3.39-1.92-1.78-.8-3.31-1.7-3.11-3.31.58-4.58,16.3-12.72,10.5-13.49-3.48.13,6.81-4.43,3.39-5.1-4.57-1.01-9.27-1.36-13.94-1.03-3.29.29,15.15-5.34,12.9-6.87l-3.63.19-3.27-.53c-1.7-.44-3.47-.54-5.21-.28-1.7.23-3.43.16-5.1-.21,6.04-1-.27-5.71,6.16-6.6-5.08-.59-6.61,2.48-9.9,3.46-.99.29-2.16.87-3.24,1.23-.82-.68-1.41-1.58-1.72-2.6-.21-1.32.89-2.2,2.19-3.01.88-.59,1.21-1.54,2.45-1.88.53-.09,1.04-.31,1.47-.63.25-.39.55-.74.9-1.04,2.72-1.64,5.15-3.34,3.32-6.08-.27-.1-.54-.18-.82-.24.04-.04.08-.08.12-.12,2.97-2,6.66-1.01,9.97-1.64-.31-2.05-2.18-2.65-4.83-2.77-.41,0-.81,0-1.22.04-1.64.11-3.41.21-2.6-2.06.23-.65-.95-.71-1.53-.55-4.67,1.31-9.78.98-14.42,2.38-.49.05-.96.21-1.37.47l-4.07.2c-1.33-.83-3.02-.78-4.31.12-3-.58-6.05-.91-9.11-.97l.23-.36c.93-.06,1.87-.11,2.82-.17-1.02-.5-2.11-.87-3.23-1.08,4.4-1.71,10.72-4.17,9.35-5.1-1.21.07-2.42.13-3.63.19l-3.27-.53c-1.7-.44-3.47-.54-5.21-.28-1.7.23-3.42.16-5.1-.21,6.04-1-.27-5.71,6.16-6.6-5.08-.59-6.61,2.48-9.9,3.46-1.99.59-4.71,2.3-5.87,1.17s-5.1-2.8-.82-4.98c1.88-.96.84-1.52-.94-2.02-1.51-.55-2.96-1.24-4.34-2.07-.97-1.22-2.36-2.02-3.9-2.26l.05,2.26-.15.07c-1.96-1.41-7.52-.81-5.86-4.24l2.35-1.52c1.19-.08,2.33-.51,3.28-1.23,1.17.4,2.44.32,3.55-.22l3.89-.48c1.64.21.96-.35.29-.9-.79-.66-1.54-1.32,1.63-.71,1.53.25,3.09-.14,4.32-1.08,2.25-.5,6.13.28,6.36-1.73.27-2.38-38.71,7.67-41.48,7.69-1.44.11-2.89-.23-4.13-.98-.02-.02-.03-.05-.02-.07.69-2.06-2.59-1.32-3.72-2.09-2.12-1.68-5.08-.99-7.89-.81.02-.85.04-1.7.06-2.55-2.13.09-4.27.11-6.39.28-4.16.33-5.26-1.17-5.18-3.45-4.36-1.31-9.02-.87-13.68-.38-11.72,1.06-41.61,9.02-53.09,8.08-1.58-.13-2.78,1.11-4.09,2.16-1.42-.11-2.85-.21-4.28-.31-1.34-1.46-2.96-3.37-3.4-3.4.07-.34.12-.6.17-.79-.28.99-1.08,3.25-2.32,3.87h-.25c-7.86-.34-15.61-1.2-23.41-1.82-1.64-.03-3.27-.15-4.89-.38-2.24-.36-4.51-.45-6.77-.28l-28.9-4.7c-14.6-1.64-28.86-1.27-42.22,4.66-.63.44-1.25.88-1.89,1.33-3.77,1.6-6.89,3.5-7.6,6.52-2.4.88-3.58,2.2-3.77,3.9-5.77,4.72-13.76,4.66-16.02,10.5-3.88,2.89-8.15,5.58-11.12,8.92.6.01,1.23,0,1.86,0,3.24-.06,6.49-.12,5.27,3.48-2.48.95-4.87,2.1-7.16,3.44h-.17c-.62.28-1.25.53-1.85.82-2.84,1.38-4,2.55-3.55,3.82l-.11.14c-1.02-.01-1.65-.05-2.03-.08.44.15.91.54.12,1.43-.03,0,1.62.22,3.91.53l.24.17c-1.03,1.58-2.55,3.12-3.47,3.31,2.16,1.46-12.56,2.51-9.98,2.47.61.03,1.21-.01,1.81-.14.58.11,1.18.16,1.77.14,2.84,2.49,8.59.83,11.67,2.97-.77.38-2.23.81-2.21,1.15.18,3.48-3.89,4.24-8.37,4.9,2.07,1.55,3.35,3.93,3.5,6.51l3.92,2.14c.3.02.6.08.89.16,3.56,1.39-2.36,3.38.37,5.24.87.53,1.56,1.3,2,2.22-.18.04-.36.09-.54.15-.45-.05-.91-.04-1.35.04-1.92.18-4.05-.29-5.6,1.1,2.3.28,4.43,1.1,6.91.8l.18.02c-.18.21-.38.4-.59.57-.32,1.09-1.11,1.99-2.15,2.45-.09.38-.16.75-.26,1.14-.63-.26-1.34-.27-1.97-.02-2.53,1.91,5.27,6.1,5.27,6.1,0,0-11.41,1.75-5.27,3.74.82.27,10.34,1.64,11.18,1.88,1.56-.1,2.97.87,4.38,1.84,1.51,1.03,3.02,2.07,4.74,1.81.52.15.92.27,1.22.36-1.14-.56-3.04-1.94-1.22-4.01.03-.04.06-.07.1-.11,1.66,1.19,3.45,2.29,5.14,3.45,1.92,4.64,5.9,8.29,10.38,11.71.2,1.39,1.15,2.38,2.97,2.9.1.38.25.75.45,1.1-2.1,1.6-4.18,3.22-6.37,4.77-4.74,3.36-4.28,5.33,1.87,7.32.82.27,1.68.49,2.53.72,1.42-.04,2.83.1,4.22.41,1.66.4,3.37.51,5.06.33,1.8.53,3.67.82,5.56.85,3.29.14,6.47-1.18,8.69-3.62,1.54-1.74,3.34-1.54,5.42-1.88,9.4-1.58,18.81-.98,28.21-1.34,5.01,1.98,10.65.63,15.87.2,6.83-.57,13.95-.94,20.09-3.92,3-1.46,7.82-2.01,10.12-1.33,6.77,2.02,13.07.29,19.32-.9-15.38-.2-26.14-.59-20.76-1.17,3.84-.2,7.68-.4,11.52-.61,0-.41,0-.81-.02-1.22,3.41-1.46,7.19-1.56,10.98-1.74,9.43-.44,18.86-.9,28.28-1.47,3.71-.22,7.61-.07,10.93-1.75l36.08-1.89c1.27,2.5,4.02,2.23,6.79,1.96,1-.12,2.02-.18,3.03-.16.64.02,1.28,0,1.91-.07,13.88-1.08,27.79-.79,41.68-3.05,2.97-.35,5.98-.35,8.95-.01,2.64.26,5.3.31,7.95.15,5.1-.45,10.09-.89,14.25-3.27l-5.13.25-.14-2.4c1.38-.16,2.76-.32,4.14-.48l10.26.41c1.61.36,3.3.04,4.66-.9l5.46-.25c.56.24,1.17.35,1.78.34,3.29.44,6.62.6,9.93.47,3.15-.11,6.3.02,9.43.39.78.11,2.35-.13,2-.88-1.54-3.31,2.66-2.62,4.97-2.96,3.53-.51,5.98-1.49,6.27-4-1.6-.06-3.2,0-4.79.18m-228.83-86.06c-13.23-.02-9.2-.14,1.29-.24l-1.29.24Zm19.66,0c-.23-.08-.43-.21-.59-.39h1.7c-.35.18-.72.31-1.1.39m34.83.06c-7.02.25-14.05.08-21.04-.51,1.99,0,3.93,0,5.8,0,14.03,0,23.65.13,15.25.52"/>
          <path id="_パス_4968" data-name="パス 4968" class="cls-5" d="m310.22,101.3c-.47-.15-.9-.07,0,0"/>
          <path id="_パス_4969" data-name="パス 4969" class="cls-5" d="m335.12,156.49h.02-.02s0,0,0,0Z"/>
          <path id="_パス_4970" data-name="パス 4970" class="cls-5" d="m506.3,173.28l4.68-2.31c-5.68.32-11.3.93-16.95,1.54-1.48.16-2.95.38-4.42.63,5.21.06,10.89.1,16.69.13l-1.05.52c3.44.43,6.91.64,10.38.63,6.01-.09,12-.45,17.98-1.1l.57-.05c-8.54.05-18.37.05-27.89,0"/>
          <path id="_パス_4971" data-name="パス 4971" class="cls-5" d="m557.17,172.44h0c-7.59-.57-15.23.11-22.99.83,17.07-.1,28.98-.37,22.99-.83"/>
          <path id="_パス_4972" data-name="パス 4972" class="cls-5" d="m335.14,156.5c.25.12.52.21.79.27.05,0-.16-.09-.79-.27"/>
        </g>
      </g>
    </g>
    <g id="_グループ_286" data-name="グループ 286">
      <path id="_パス_25773" data-name="パス 25773" class="cls-4" d="m151.33,90.31c0,8.8,3.19,15.18,13.31,24.09,7.92,6.93,10.34,11.11,10.34,16.72s-2.42,7.48-6.27,7.48-6.27-1.98-6.27-7.48v-5.5h-11.44v4.73c0,12.32,6.16,19.36,18.04,19.36s18.04-7.04,18.04-19.36c0-8.8-3.19-15.18-13.31-24.09-7.92-6.93-10.34-11.11-10.34-16.72s2.2-7.59,6.05-7.59,6.05,2.09,6.05,7.59v3.19h11.44v-2.42c0-12.32-6.05-19.36-17.82-19.36s-17.82,7.04-17.82,19.36Zm52.69-.77c0-5.5,2.42-7.59,6.27-7.59s6.27,2.09,6.27,7.59v41.58c0,5.5-2.42,7.59-6.27,7.59s-6.27-2.09-6.27-7.59v-41.58Zm-12.1,40.81c0,12.32,6.49,19.36,18.37,19.36s18.37-7.04,18.37-19.36v-40.04c0-12.32-6.49-19.36-18.37-19.36s-18.37,7.04-18.37,19.36v40.04Zm67.1-10.23v11c0,5.5-2.42,7.48-6.27,7.48s-6.27-1.98-6.27-7.48v-41.58c0-5.5,2.42-7.59,6.27-7.59s6.27,2.09,6.27,7.59v8.25h11.44v-7.48c0-12.32-6.16-19.36-18.04-19.36s-18.04,7.04-18.04,19.36v40.04c0,12.32,6.16,19.36,18.04,19.36s18.04-7.04,18.04-19.36v-10.23h-11.44Zm17.71,28.71h12.1v-77h-12.1v77Zm46.64-77h-17.71l-12.32,77h11.11l2.09-13.97h14.85l2.09,13.97h12.21l-12.32-77Zm-9.57,13.64h.22l5.72,38.94h-11.66l5.72-38.94Zm26.4,63.36h32.01v-11h-19.91v-66h-12.1v77Z"/>
      <path id="_パス_25772" data-name="パス 25772" class="cls-4" d="m402.59,71.83h-16.83v77h10.56v-54.45h.22l8.8,54.45h11.44l8.14-55.22h.22v55.22h11.44v-77h-16.83l-8.14,54.67h-.22l-8.8-54.67Zm53.79,11h20.9v-11h-33v77h33v-11h-20.9v-22.55h16.61v-11h-16.61v-21.45Zm27.28,66h19.14c12.1,0,18.04-6.71,18.04-19.03v-38.94c0-12.32-5.94-19.03-18.04-19.03h-19.14v77Zm18.92-66c3.85,0,6.16,1.98,6.16,7.48v40.04c0,5.5-2.31,7.48-6.16,7.48h-6.82v-55h6.82Zm24.86,66h12.1v-77h-12.1v77Zm46.64-77h-17.71l-12.32,77h11.11l2.09-13.97h14.85l2.09,13.97h12.21l-12.32-77Zm-9.57,13.64h.22l5.72,38.94h-11.66l5.72-38.94Z"/>
    </g>
  </g>
</svg>