<?xml version="1.0" encoding="utf-8"?>
<!-- Generator: Adobe Illustrator 26.3.1, SVG Export Plug-In . SVG Version: 6.00 Build 0)  -->
<svg version="1.1" xmlns="http://www.w3.org/2000/svg" xmlns:xlink="http://www.w3.org/1999/xlink" x="0px" y="0px"
	 viewBox="0 0 800 220" style="enable-background:new 0 0 800 220;" xml:space="preserve">
<style type="text/css">
	.st0{enable-background:new    ;}
	.st1{fill:#FFFFFF;}
	.st2{fill:#080808;}
	.st3{opacity:0.44;fill:#FFE73B;enable-background:new    ;}
	.st4{opacity:0.44;fill:#0000FF;enable-background:new    ;}
	.st5{display:none;opacity:0.21;}
	.st6{display:inline;fill:#080808;}
	.st7{display:inline;}
	.st8{display:none;}
	.st9{clip-path:url(#SVGID_00000052803985899994907510000006206598795443670913_);}
	.st10{clip-path:url(#SVGID_00000157988133451438269230000013134804719392473999_);}
	.st11{clip-path:url(#SVGID_00000069398354010773055540000007550286648515672495_);}
	.st12{clip-path:url(#SVGID_00000085208877389213746710000008993156955292226205_);}
	.st13{opacity:0.44;fill:#FF39AF;enable-background:new    ;}
	.st14{clip-path:url(#SVGID_00000041261935430225209280000017603332083567088769_);}
	.st15{clip-path:url(#SVGID_00000103976203506704672000000000648732376465224874_);}
	.st16{clip-path:url(#SVGID_00000143589765541167079910000011463654054155481270_);}
</style>
<g id="レイヤー_1">
</g>
<g id="レイヤー_2">
	<g id="グループ_3020_00000059301483391045337100000010258844954642388401_" transform="translate(-51.787 -667.11)">
		<g class="st0">
			<path class="st1" d="M202.5963898,736.5894775h15.631546l12.1203461,47.4615479h0.2258606v-47.4615479h11.1005249v79.2904663
				h-12.7990723l-14.9516602-57.8822021h-0.2270203v57.8822021h-11.1005249V736.5894775z"/>
			<path class="st1" d="M249.8321075,736.5894775h33.9814606v11.3275146h-21.5211487v20.9553833h17.1042175v11.326416h-17.1042175
				v24.3536377h21.5211487v11.3275146h-33.9814606V736.5894775z"/>
			<path class="st1" d="M286.8742065,736.5894775h12.0074158l5.5496826,60.9405518h0.2270203l5.8896179-60.9405518h13.5930481
				l5.8896484,60.9405518h0.2269897l5.5497131-60.9405518h10.7617188l-8.0422058,79.2904663h-15.5186157l-5.6637573-53.4641724
				h-0.2270203l-5.6625977,53.4641724h-16.5384521L286.8742065,736.5894775z"/>
			<path class="st1" d="M349.6308594,797.0771484v-4.5310059h11.7803955v5.4367676
				c0,5.6637573,2.4913635,7.7022705,6.4565735,7.7022705c3.9640808,0,6.456604-2.0385132,6.456604-7.9293213
				c0-6.569519-2.4925232-10.7605591-10.6476746-17.895874c-10.4217834-9.1749878-13.8200378-15.6315308-13.8200378-24.6936035
				c0-12.4602661,6.4565735-19.7096558,18.5769043-19.7096558c12.1203613,0,18.1240845,7.2493896,18.1240845,19.9355469v3.2853394
				h-11.780426v-4.078186c0-5.6625977-2.2655029-7.8151855-6.2307129-7.8151855
				c-3.9640503,0-6.2295837,2.1525879-6.2295837,7.5893555c0,5.7766724,2.6054688,9.9677734,10.7605896,17.104248
				c10.421814,9.1749268,13.7059937,15.5174561,13.7059937,25.3723145c0,12.913147-6.569519,20.1625366-18.8027954,20.1625366
				S349.6308594,809.7633057,349.6308594,797.0771484z"/>
		</g>
		<g class="st0">
			<path class="st1" d="M406.5036316,767.9677734h2.9315491l2.2735901,8.9018555h0.0426331v-8.9018555h2.0822754v14.8721924
				h-2.4014893l-2.8048096-10.8574219h-0.0414734v10.8574219h-2.0822754V767.9677734z"/>
			<path class="st1" d="M417.1870117,767.9677734h3.166626l2.4210815,14.8721924h-2.3369446l-0.4240723-2.9534912v0.0426636
				h-2.6561584l-0.4252014,2.9108276h-2.1664124L417.1870117,767.9677734z M419.7371216,777.9102173l-1.0417175-7.3508301
				h-0.0414734l-1.0198364,7.3508301H419.7371216z"/>
			<path class="st1" d="M423.7069702,767.9677734h3.4639282c2.4210815,0,3.4627991,1.1258545,3.4627991,3.420166v0.9138184
				c0,1.5291748-0.4885864,2.5075073-1.530304,2.9315796v0.0426025c1.168457,0.3618774,1.5510559,1.4658203,1.5510559,3.1447754
				v2.6135254c0,0.7224731,0.0218811,1.2537231,0.2557983,1.8057251h-2.3795776
				c-0.1278992-0.3826294-0.2131958-0.6165161-0.2131958-1.8276367v-2.7195435c0-1.3804932-0.4033203-1.8264771-1.4657593-1.8264771
				h-0.8078003v6.3736572h-2.3369446V767.9677734z M426.8943481,774.3414307c0.8711548,0,1.4024048-0.3826294,1.4024048-1.5718384
				v-1.1477051c0-1.0625-0.3618469-1.5291748-1.1903687-1.5291748h-1.0624695v4.2487183H426.8943481z"/>
			<path class="st1" d="M431.9900208,779.3126221v-11.3448486h2.3381042v11.5153809
				c0,1.062439,0.4459534,1.4450684,1.189209,1.4450684s1.1903687-0.3826294,1.1903687-1.4450684v-11.5153809h2.2516785v11.3448486
				c0,2.3795776-1.1903687,3.7393188-3.4846802,3.7393188S431.9900208,781.6921997,431.9900208,779.3126221z"/>
			<path class="st1" d="M442.2504883,770.0927124h-2.4429932v-2.124939h7.2229004v2.124939h-2.4429626v12.7472534h-2.3369446
				V770.0927124z"/>
			<path class="st1" d="M447.7079773,779.3126221v-7.8186646c0-2.3795776,1.2537537-3.7393799,3.5480652-3.7393799
				c2.2954712,0,3.5480652,1.3598022,3.5480652,3.7393799v7.8186646c0,2.3795776-1.252594,3.7393188-3.5480652,3.7393188
				C448.961731,783.0519409,447.7079773,781.6921997,447.7079773,779.3126221z M452.4671631,779.4612427v-8.1159058
				c0-1.0625-0.4667053-1.4658203-1.2111206-1.4658203c-0.7432556,0-1.2111206,0.4033203-1.2111206,1.4658203v8.1159058
				c0,1.0625,0.467865,1.46698,1.2111206,1.46698C452.0004578,780.9282227,452.4671631,780.5237427,452.4671631,779.4612427z"/>
			<path class="st1" d="M459.2406311,779.3978882v-7.9880371c0-2.2954712,1.1903687-3.6552734,3.4420471-3.6552734
				s3.4420471,1.3598022,3.4420471,3.6552734v1.5717773h-2.2101746v-1.720459c0-0.9783325-0.4667053-1.3816528-1.1684875-1.3816528
				c-0.7006226,0-1.1684875,0.4033203-1.1684875,1.3816528v8.307251c0,0.9771729,0.467865,1.3598022,1.1684875,1.3598022
				c0.7017822,0,1.1684875-0.3826294,1.1684875-1.3598022v-2.2735596h2.2101746v2.1030273
				c0,2.2943115-1.1903687,3.6540527-3.4420471,3.6540527S459.2406311,781.6921997,459.2406311,779.3978882z"/>
			<path class="st1" d="M467.2056274,779.3126221v-7.8186646c0-2.3795776,1.2537537-3.7393799,3.5480652-3.7393799
				c2.2954712,0,3.5480652,1.3598022,3.5480652,3.7393799v7.8186646c0,2.3795776-1.252594,3.7393188-3.5480652,3.7393188
				C468.4593811,783.0519409,467.2056274,781.6921997,467.2056274,779.3126221z M471.9648132,779.4612427v-8.1159058
				c0-1.0625-0.4667053-1.4658203-1.2111206-1.4658203c-0.7432556,0-1.2111206,0.4033203-1.2111206,1.4658203v8.1159058
				c0,1.0625,0.467865,1.46698,1.2111206,1.46698C471.4981079,780.9282227,471.9648132,780.5237427,471.9648132,779.4612427z"/>
			<path class="st1" d="M475.6811218,767.9677734h3.4627991c2.4222107,0,3.4627991,1.1258545,3.4627991,3.420166v0.9138184
				c0,1.5291748-0.4886169,2.5075073-1.5291748,2.9315796v0.0426025c1.1684875,0.3618774,1.5510559,1.4658203,1.5510559,3.1447754
				v2.6135254c0,0.7224731,0.020752,1.2537231,0.2546692,1.8057251h-2.3795776
				c-0.1279297-0.3826294-0.2120361-0.6165161-0.2120361-1.8276367v-2.7195435c0-1.3804932-0.40448-1.8264771-1.4669495-1.8264771
				h-0.8066406v6.3736572h-2.3369446V767.9677734z M478.8673401,774.3414307c0.8711853,0,1.4024048-0.3826294,1.4024048-1.5718384
				v-1.1477051c0-1.0625-0.3606873-1.5291748-1.189209-1.5291748h-1.0624695v4.2487183H478.8673401z"/>
			<path class="st1" d="M484.0494385,767.9677734h2.9315491l2.2735901,8.9018555h0.0426331v-8.9018555h2.0822754v14.8721924
				h-2.4014587l-2.8048096-10.8574219h-0.0415039v10.8574219h-2.0822754V767.9677734z"/>
			<path class="st1" d="M492.9270935,767.9677734h6.3736267v2.124939h-4.0366821v3.9295044h3.2081299v2.124939h-3.2081299v4.5678711
				h4.0366821v2.124939h-6.3736267V767.9677734z"/>
			<path class="st1" d="M500.4461365,767.9677734h3.4627991c2.4222107,0,3.4627991,1.1258545,3.4627991,3.420166v0.9138184
				c0,1.5291748-0.4886169,2.5075073-1.5291748,2.9315796v0.0426025c1.1684875,0.3618774,1.5510559,1.4658203,1.5510559,3.1447754
				v2.6135254c0,0.7224731,0.020752,1.2537231,0.2546692,1.8057251h-2.3795776
				c-0.1279297-0.3826294-0.2120361-0.6165161-0.2120361-1.8276367v-2.7195435c0-1.3804932-0.40448-1.8264771-1.4669495-1.8264771
				h-0.8066406v6.3736572h-2.3369446V767.9677734z M503.6323547,774.3414307c0.8711853,0,1.4024048-0.3826294,1.4024048-1.5718384
				v-1.1477051c0-1.0625-0.3606567-1.5291748-1.189209-1.5291748h-1.0624695v4.2487183H503.6323547z"/>
		</g>
	</g>
	<g id="h1_00000083786512280149495140000005934644734749412008_" transform="translate(-48.43 -3651.335)">
		<g id="グループ_2019">
			<g id="グループ_2128" transform="translate(84.43 3651.335)">
				<g>
					<defs>
						
							<rect id="SVGID_00000012441113048710025830000015300658230252909240_" x="11.2905369" y="32.1513214" width="445.4169312" height="152.4253082"/>
					</defs>
					<clipPath id="SVGID_00000127031950643928636720000017511068259011631781_">
						<use xlink:href="#SVGID_00000012441113048710025830000015300658230252909240_"  style="overflow:visible;"/>
					</clipPath>
					
						<g id="グループ_2128-2" transform="translate(-36)" style="clip-path:url(#SVGID_00000127031950643928636720000017511068259011631781_);">
						<path id="パス_3958" class="st2" d="M117.3093796,181.1605377l-1.805397-1.1799927
							c-3.5305634-1.2743988-6.4900055-2.9193268-7.3160019-5.8881989c-2.2313766-0.6690674-3.3995819-1.9021606-3.6733398-3.590744
							c-5.5459976-4.2480011-10.4618835-8.7697601-12.8773422-14.4325867
							c-3.7052002-2.5653229-7.7584991-4.899353-10.6683807-7.9921417c3.3394012-0.4153595,7.8658829,0.083786,6.2823181-4.1099396
							c-4.9371185-1.6519928-9.3467789-3.7441406-12.1941147-7.1508026
							c-4.9642639,0.5227509-5.5223999-2.5287323-7.3962402-4.5099487l-0.8366241,0.0743408l-0.838974-0.1179962
							c-3.0290642,0.3115234-5.6451225-0.7375031-8.4606018-1.1327972c1.3806-1.2236633,3.1706581-1.1988831,4.9559975-1.1681976
							c0.638382,0.008255,1.2637825,0.01651,1.8797417-0.0295105c0.5468063-0.0862122,1.103157-0.0933685,1.6520004-0.021225
							c0.5230484-0.1606293,1.0633545-0.2584686,1.6095123-0.2914734c2.4284439-2.7494049,7.7667618-1.5753021,10.4418259-3.9895782
							c-0.7245255-0.3185959-2.0732651-0.6242218-2.07798-0.9557953c0.0279083-1.534584-0.9790115-2.896347-2.4544067-3.3193512
							c-0.6736526-0.0823746-1.3330002-0.2558441-1.9599762-0.5156555
							c-1.1626968-0.1801376-2.3308945-0.3024673-3.5046005-0.3669739c0.0731659-0.0755234,0.1474991-0.1498566,0.2112198-0.2253799
							l-0.3008957-0.051918l-4.0462189,0.1463165c-1.1870804-0.8791046,2.5960007-2.719902,6.641037-4.4190979
							c0.1473694-0.7570648,0.2408218-1.5236282,0.2796631-2.2939224l1.8148346-1.2979965
							c-3.3778534-0.2604065-6.7292633-0.7923355-10.0217361-1.5906525
							c-3.8633232-0.8838196,7.6806183-6.183197,3.7512207-6.1053162c-3.6957626-0.598259,0.2949982-3.8833847,4.5819397-7.6298828
							c-2.2302017-1.5741196-4.4191055-3.1789169-6.7330856-4.6928635c-4.5193977-2.9629822-4.219677-4.9807816,1.2531662-7.5130615
							c0.7304153-0.3386536,1.5009537-0.6324768,2.2537994-0.9439926c1.5955963-0.1466217,3.1661377-0.4951477,4.6739807-1.0372238
							c-0.5255661-0.4067535-1.1431732-0.6778641-1.7983246-0.7894211c-0.8010559-0.0508423-1.578125-0.2936783-2.2655945-0.7080002
							c-0.4070969-0.5351944-0.8942566-1.0044479-1.4443283-1.3912201c-4.2373772-2.0059967-8.0369759-4.160675-5.5212173-8.4004135
							c0.3904953-0.1783981,0.7930908-0.3290253,1.2047806-0.4507599l-0.1911583-0.1522217
							c-3.0101814-1.6248627-6.3720016-1.3747025-9.7243805-1.1257248c-1.7921982,0.1853333-3.596611,0.2228317-5.3949585,0.1121063
							c0.2820168-3.033783,3.0314178-4.1654053,7.0115585-4.7070236c2.5960007-0.3539963,7.3466797,0.5699387,5.5613403-3.4727402
							c-0.4011993-0.9109573,1.3628998-1.174099,2.2420006-1.0183411
							c7.1283798,1.2625999,14.7806778,0.0755196,21.8653946,1.4750023
							c0.7543335-0.0023613,1.4980392,0.1777954,2.1676636,0.5250969l6.0640182-0.3020782
							c1.4093094-1.0028458,3.1705856-1.3782463,4.8663254-1.03722l10.6837234,0.9333801
							c1.9619446-0.2124023,3.9286041-0.4192963,5.8999939-0.6206779l-0.2123947-2.9110603l-5.7890854,0.1828995
							c4.658638-2.7836189,10.2789764-3.2095985,16.0232239-3.6426582c2.9868851-0.1400375,5.9802704-0.0215988,8.9467621,0.3540001
							c3.3529968,0.4802208,6.7527008,0.5416565,10.1208649,0.1828995c15.6373596-2.4284401,31.34198-1.7629204,46.9793396-2.7612
							c0.7162323-0.0670242,1.4364471-0.0804367,2.1546783-0.0401192c1.1390381,0.043911,2.2797852,0.0020981,3.4125519-0.1250839
							c3.109314-0.2654991,6.2174377-0.5309982,7.6853333,2.5287399l40.6816864-1.4867973
							c3.7276154-1.9540825,8.1337433-1.682682,12.3109283-1.8726616
							c10.6270905-0.483799,21.2588959-0.8189201,31.8906708-1.1469612
							c4.2727966-0.1333389,8.5290527-0.1781807,12.3569641-1.864399c-0.0235901-0.4956017-0.0377502-0.9911995-0.0471802-1.4868011
							l12.9989014-0.4720001c6.0675354-0.5840988-6.0899963-1.2980003-23.4383545-1.8797379
							c7.0445862-1.2980003,14.1246033-3.2615204,21.793396-0.6584396c2.6018982,0.8826408,8.0357971,0.3126984,11.3952637-1.3806
							c6.8793945-3.4715614,14.8986816-3.7677422,22.6040955-4.3011017
							c5.8799438-0.4082794,12.2330627-1.9115982,17.9135742,0.598259c3.234375-0.0672569,6.46875-0.0283203,9.7055054,0.0118027
							c7.3702698,0.0955772,14.7429199,0.1840782,22.0990295-1.0018196c2.3316956-0.3752403,4.3742676-0.0814209,6.0829163-2.162941
							c3.6933899-4.5016994,9.5674438-5.1318207,16.0361938-3.0514793c1.919281-0.1850777,3.8562622-0.0142632,5.713562,0.5038605
							c1.5558472,0.4052048,3.1583252,0.6035805,4.7660217,0.5900002c0.9558105,0.3079796,1.9269409,0.5900002,2.856781,0.9321976
							c6.9619751,2.5488014,7.5142517,4.9560013,2.2171936,8.9207993c-2.9334717,2.1936226-5.6828918,4.5028801-8.5136719,6.7614021
							c-0.7206726,0.2868996-1.527832,0.2629814-2.2302246-0.0660782c-0.105011,0.4720001-0.1805725,0.92276-0.2796631,1.3806
							c-1.1955261,0.5650711-2.0728149,1.6387138-2.3883057,2.9228592
							c-2.7564697,2.3363991-0.3457336,4.8202972,1.2024231,5.9672585c3.116394,2.3163376-3.539978,4.5937386,0.5014954,6.3578377
							c0.3275146,0.1044846,0.6647339,0.1756439,1.0065308,0.2124023l4.4604187,2.6668015
							c0.1381226,1.180397,0.403595,2.3423843,0.791748,3.4656601c0.8760376-0.0929565,1.7563171-0.1406097,2.6372986-0.1427841
							c4.6739807,0.0118027,9.2393799,0.0283203,13.1687927,2.0508423l-3.4373169,0.1427765l-1.5788574,2.4650192
							l3.5175476,0.1180038c2.8752747-0.1817245,5.751709-0.3650131,8.6293335-0.549881
							c1.6122437-1.2584457,3.8449707-1.3565063,5.5613708-0.2442627l4.971344-0.1498566
							c0.505127-0.3072739,1.076355-0.4893417,1.6661377-0.5310059c5.6392212-1.5870972,11.8955688-1.0619965,17.5820007-2.53936
							c0.7080078-0.1828918,2.1464233-0.0708008,1.8773804,0.7080002c-0.9440002,2.7328796,1.2201233,2.6455612,3.2190247,2.5582428
							c0.495636-0.0306854,0.9924011-0.0365829,1.4868164-0.0177002c3.2497253,0.2124023,5.5460205,0.9794006,5.9472046,3.4727402
							c-1.446228,0.2000961-2.9066467,0.2790375-4.3659973,0.2360001c-2.7269897,0-5.4551392-0.0094376-7.7880249,1.5198364
							c-0.0460205,0.044838-0.0955505,0.088501-0.1439514,0.1345215c0.3399658,0.078476,0.6742859,0.1797943,1.0006104,0.3032608
							c2.2868347,3.3571014-0.6560669,5.3678131-3.9588928,7.2853165c-0.4226379,0.3562164-0.7879944,0.7752914-1.083252,1.2425385
							c-0.5275574,0.3841095-1.14151,0.632515-1.7877197,0.7233429c-1.5162964,0.3882141-1.8986206,1.5339966-2.9629517,2.2231216
							c-1.5741272,0.9557953-2.9134216,1.994194-2.6290283,3.595459
							c0.8082886,4.5524368,15.6172791,11.3634033,10.3839722,12.6378021
							c-3.1789246,0.172287,6.4664001,3.8633194,3.398407,4.8273849c-4.0696106,1.4029388-8.3339233,2.1594467-12.6377869,2.2420044
							c-3.0125427-0.0082703,14.1246033,4.0473938,12.1539917,5.7819977l-3.5105286,0.1321564
							c-0.5671692,0.0338287-1.1339722,0.0692215-1.7003784,0.1062012
							c-2.7600098,2.4095612-7.0918274,0.6808624-10.4076233,2.0803375
							c5.5578003,0.4920578,0.1062012,5.7595825,6.0180359,6.0958862c-4.5890503,1.0348511-6.1737671-1.9186859-9.2264404-2.6184235
							c-1.84552-0.4248047-4.429718-1.9116058-5.4161987-0.6690674s-4.4733582,3.2497253-0.4425049,5.0657349
							c1.7700195,0.7976837,0.8602295,1.4573059-0.7327576,2.1110229c-1.3526001,0.6891479-2.633606,1.510498-3.8244019,2.4520416
							c-0.7653809,1.270813-1.9846497,2.2036896-3.4113464,2.6101685l-0.0955811-2.2738647h-0.2053223
							c-1.7853394,1.5422516-6.8369446,1.4443207-4.9347839,4.8379974l2.0166321,1.1799927
							c1.1494141-0.0447845,2.2814026,0.291214,3.2202454,0.9558105c1.1824341-0.5619965,2.5627441-0.5225067,3.7110901,0.1061859
							l3.5151978-0.1356964c0.9440002-0.1392365,0.4177246,0.4106445-0.0955505,0.9617004
							c-0.6761475,0.7327881-1.3287048,1.4655609,1.5245361,0.5734863c1.3721924-0.3822327,2.8436584-0.1218719,4.0013733,0.7079926
							c0.7376709,0.0707855,1.4802856,0.0731659,2.2184143,0.0070801c1.7286987-0.0955811,3.4491272-0.1911621,3.67453,1.1858978
							c0.2206726,1.3381195-11.2926025-0.2359924-21.7615356-1.8160248
							c-7.9933167-1.2071381-15.3753967-2.4142761-16.4692688-2.3210602
							c-1.3625183,0.0198364-2.6775208,0.5039673-3.7276306,1.372345c0.8153992,2.0579224-2.2514038,1.581192-3.2378845,2.4650116
							c-1.5009766,1.5340118-3.6190491,1.5127563-5.7536926,1.4868011c-0.4625549,0-0.9251099-0.0094452-1.379425,0
							l0.2111816,2.5488129c-1.9458008,0.0955811-3.8939819,0.2572327-5.8410034,0.2713928
							c-3.809021,0.0259705-4.7200012,1.6295776-4.5052185,3.9069824
							c-3.8939819,1.6909332-8.1573486,1.6413727-12.4336548,1.5634918
							c-10.7380066-0.0460205-40.1318054-3.6650848-50.5299377-1.7334137
							c-2.2350769,0.5291748-4.5377502,0.7145996-6.8286743,0.549881l-1.9564514,0.2949982
							c0.7658386,3.0361328-1.2614136,2.7140045-3.2850952,2.3812408c-0.6083374-0.1170959-1.2251282-0.184967-1.8443604-0.2029572
							c-1.7141418,0.600296-3.6029663,0.4406128-5.1919861-0.4389648l-10.3674927,0.1356964
							c-20.2440796,2.0602875-40.61203,2.9499969-60.9493561,3.8420715
							c-13.2856293,0.5805664-25.6649933,3.872757-38.5187531,5.6911469
							c-7.1342773,1.0088959-14.1387482,2.5393524-21.2010498,3.8373566
							c-3.5930939,0.3185883-6.8687744,1.7617493-10.5798798,1.6708832l-26.0201874,7.2216034
							c-6.362854,1.4899445-12.8683777,2.286377-19.4027405,2.3753357
							c-6.5961914,0.0661469-13.1474304-1.0917358-19.3213196-3.414917 M272.849884,44.7407417
							c5.8634033,0.1474991,11.6053162,0.3185997,16.8739929,0.4908791
							c-1.4867859,0.2737617-2.9736023,0.5180206-4.459198,0.6820412
							c-5.700592,0.6371994-11.3645935,1.2484398-17.1100159,1.5340004L272.849884,44.7407417z M221.4420166,44.7407417
							c-6.0534058-0.6690598,5.9731598-0.7717209,23.2271271-0.5463409
							c-5.2332916,0.4720001-10.4194031,0.9440002-15.576004,0.9440002c-2.5541229,0.0093651-5.106842-0.1226044-7.6463928-0.395298
							L221.4420166,44.7407417z M244.6691437,44.1944008l0.5463409-0.0495605
							c9.3668365-0.860218,18.8929749-1.7157211,28.6952209-0.0082588l-1.0513916,0.6065216
							c-9.6311646-0.243084-19.5679169-0.4365997-28.2019806-0.5475197L244.6691437,44.1944008z"/>
					</g>
				</g>
			</g>
			<g id="グループ_274_00000134251542499582110150000017364541756229826192_" transform="translate(0 -82.275)">
				<g class="st0">
					<path class="st1" d="M199.1464691,3862.5310059v-39.9299316c0-11.4692383,5.9466705-18.2658691,17.2033386-18.2658691
						s17.2039185,6.7966309,17.2039185,18.2658691v7.8588867H222.509079v-8.6020508
						c0-4.8850098-2.3363647-6.9025879-5.8406525-6.9025879c-3.5042725,0-5.8406525,2.0175781-5.8406525,6.9025879v41.5222168
						c0,4.8847656,2.33638,6.7966309,5.8406525,6.7966309c3.5042877,0,5.8406525-1.9118652,5.8406525-6.7966309v-11.3632812
						h11.0446472v10.5141602c0,11.4692383-5.9472504,18.265625-17.2039185,18.265625
						S199.1464691,3874.0002441,199.1464691,3862.5310059z"/>
					<path class="st1" d="M238.8643036,3862.1057129v-39.0793457c0-11.8945312,6.2658691-18.6911621,17.7351532-18.6911621
						c11.468689,0,17.7345581,6.7966309,17.7345581,18.6911621v39.0793457c0,11.8945312-6.2658691,18.690918-17.7345581,18.690918
						C245.1301727,3880.7966309,238.8643036,3874.0002441,238.8643036,3862.1057129z M262.6521301,3862.848877v-40.5668945
						c0-5.309082-2.3363647-7.3266602-6.0526733-7.3266602c-3.7168884,0-6.0532684,2.0175781-6.0532684,7.3266602v40.5668945
						c0,5.3100586,2.33638,7.3278809,6.0532684,7.3278809
						C260.3157654,3870.1767578,262.6521301,3868.1589355,262.6521301,3862.848877z"/>
					<path class="st1" d="M281.1316833,3805.3977051h16.672699l7.4337769,53.2036133h0.2120056l7.4337769-53.2036133h16.672699
						v74.3366699h-11.0440674v-56.2839355h-0.212616l-8.495636,56.2839355h-9.7701721l-8.495636-56.2839355h-0.2120361v56.2839355
						h-10.1947937V3805.3977051z"/>
					<path class="st1" d="M337.2047424,3805.3977051h11.6813049v74.3366699h-11.6813049V3805.3977051z"/>
					<path class="st1" d="M355.7880249,3862.5310059v-39.9299316c0-11.4692383,5.9466553-18.2658691,17.2033386-18.2658691
						c11.2566528,0,17.2038879,6.7966309,17.2038879,18.2658691v7.8588867h-11.0446167v-8.6020508
						c0-4.8850098-2.3363953-6.9025879-5.8406677-6.9025879s-5.8406372,2.0175781-5.8406372,6.9025879v41.5222168
						c0,4.8847656,2.3363647,6.7966309,5.8406372,6.7966309s5.8406677-1.9118652,5.8406677-6.7966309v-11.3632812h11.0446167
						v10.5141602c0,11.4692383-5.9472351,18.265625-17.2038879,18.265625
						C361.7346802,3880.7966309,355.7880249,3874.0002441,355.7880249,3862.5310059z"/>
					<path class="st1" d="M394.3379517,3862.1057129v-4.2475586h11.0440674v5.0969238
						c0,5.3098145,2.3363647,7.2216797,6.0532532,7.2216797s6.0532532-1.9118652,6.0532532-7.4338379
						c0-6.1591797-2.3363647-10.088623-9.9821777-16.7792969c-9.7701416-8.6010742-12.9563599-14.6542969-12.9563599-23.1506348
						c0-11.6811523,6.0532532-18.4777832,17.4165039-18.4777832c11.3627014,0,16.9913025,6.7966309,16.9913025,18.6911621v3.0788574
						h-11.0446167v-3.8232422c0-5.309082-2.1237793-7.3266602-5.8406677-7.3266602s-5.8406372,2.0175781-5.8406372,7.114502
						c0,5.4160156,2.4423828,9.345459,10.0887451,16.0361328c9.7695923,8.6010742,12.8492126,14.5483398,12.8492126,23.7878418
						c0,12.1064453-6.1592712,18.902832-17.62854,18.902832
						C400.0725708,3880.7966309,394.3379517,3874.0002441,394.3379517,3862.1057129z"/>
				</g>
			</g>
		</g>
	</g>
</g>
<g id="レイヤー_3">
</g>
</svg>
