<?xml version="1.0" encoding="utf-8"?>
<!-- Generator: Adobe Illustrator 26.3.1, SVG Export Plug-In . SVG Version: 6.00 Build 0)  -->
<svg version="1.1" xmlns="http://www.w3.org/2000/svg" xmlns:xlink="http://www.w3.org/1999/xlink" x="0px" y="0px" width="800px"
	 height="220px" viewBox="0 0 800 220" style="enable-background:new 0 0 800 220;" xml:space="preserve">
<style type="text/css">
	.st0{enable-background:new    ;}
	.st1{fill:#FFFFFF;}
	.st2{fill:#080808;}
	.st3{opacity:0.44;fill:#FFE73B;enable-background:new    ;}
	.st4{opacity:0.44;fill:#0000FF;enable-background:new    ;}
	.st5{display:none;opacity:0.21;}
	.st6{display:inline;fill:#080808;}
	.st7{display:inline;}
	.st8{display:none;}
	.st9{clip-path:url(#SVGID_00000067236829296197561390000017084987730602678680_);}
	.st10{clip-path:url(#SVGID_00000022551390280213695050000007687891302286789310_);}
	.st11{clip-path:url(#SVGID_00000103230954047634489500000012492373487332625341_);}
	.st12{clip-path:url(#SVGID_00000030452706276440486930000002685377468289829777_);}
	.st13{opacity:0.44;fill:#FF39AF;enable-background:new    ;}
</style>
<g id="レイヤー_1">
</g>
<g id="レイヤー_2">
	<g id="_x2F_comics_00000035488686166842340730000000747606975982341792_" transform="translate(-39.332 -1932.9)">
		<path id="合体_1_00000098921642573109403590000007787196894150640048_" class="st2" d="M208.0866547,2118.6845703
			L208.0866547,2118.6845703c-6.8986816,0.0725098-13.7509766-1.135498-20.2089844-3.5629883l-0.5450439-0.355957
			l-1.3389893-0.8720703c-1.269165-0.4414062-2.4987793-0.9890137-3.6760254-1.6369629
			c-1.8846436-0.9064941-3.3205566-2.5390625-3.9790039-4.5239258c-2.3360596-0.6999512-3.552002-1.9899902-3.8409424-3.7561035
			c-5.7939453-4.435791-10.9449463-9.171875-13.4720459-15.0998535c-3.8759766-2.6850586-8.1169434-5.125-11.1619873-8.3640137l0,0
			l0,0c3.4919434-0.434082,8.2299805,0.0888672,6.5710449-4.2949219c-5.1660156-1.7241211-9.7750244-3.9160156-12.7600098-7.4812012
			l-0.2220459,0.0209961c-4.9880371,0.4350586-5.5789795-2.6999512-7.5129395-4.7399902
			c-0.0999756,0.0100098-0.8769531,0.078125-0.8769531,0.078125l-0.8790283-0.1240234
			c-3.1669922,0.3249512-5.9060059-0.7729492-8.8499756-1.1870117l0,0c1.4489746-1.2790527,3.3170166-1.2529297,5.1850586-1.2270508
			c0.6610107,0.0100098,1.322998,0.019043,1.9649658-0.0290527c0.5721436-0.0888672,1.1539307-0.0959473,1.7280273-0.0209961
			l0.1800537-0.0529785c0.2000732-0.0566406,0.4030762-0.104248,0.6090088-0.1428223
			c0.2946777-0.0561523,0.5926514-0.0939941,0.8919678-0.1130371c1.2659912-1.4321289,3.2879639-1.8459473,5.3430176-2.2131348
			c2.0710449-0.369873,4.1760254-0.6928711,5.5820312-1.9599609c-0.7590332-0.3349609-2.1689453-0.6530762-2.1739502-1.0058594
			c0.0292969-1.6015625-1.0194092-3.0236816-2.5579834-3.4689941c-0.2972412-0.0390625-0.5922852-0.0932617-0.8840332-0.1621094
			c-0.4031982-0.0932617-0.7977295-0.2209473-1.1789551-0.3820801c-1.2128906-0.1884766-2.4343262-0.3161621-3.6600342-0.3818359
			l0.0050049-0.005127h-0.0050049c0.0749512-0.0739746,0.1390381-0.1550293,0.2110596-0.230957l-0.3000488-0.052002
			l-4.2320557,0.1530762c-0.1455078-0.0893555-0.2331543-0.2485352-0.230957-0.4191895
			c0.0410156-1.0119629,3.5-2.6660156,7.1779785-4.2078857c0.1542969-0.7921143,0.2521973-1.5941162,0.2929688-2.4000244l0,0l0,0
			l1.8879395-1.3580322c-0.8406982-0.0546875-1.6740723-0.1300049-2.5-0.2259521
			c-2.6951904-0.2738037-5.3659668-0.7495117-7.9899902-1.4229736c-0.5999756-0.1359863-0.8409424-0.3730469-0.8399658-0.677002
			c0-1.4580078,5.6889648-4.4760742,5.6309814-5.4240723c-0.0150146-0.1929932-0.2700195-0.2999268-0.8649902-0.2869873
			c-1.0059814-0.1629639-1.4680176-0.5150146-1.5209961-1.0179443l0,0c0,0,0-0.0090332,0-0.0130615
			c-0.1340332-1.4310303,3.006958-4.0599365,6.3170166-6.9520264c-2.3339844-1.6469727-4.625-3.3249512-7.0439453-4.9089355
			c-2.552002-1.6710205-3.6350098-3.0560303-3.1929932-4.3930664c0.375-1.1429443,1.8649902-2.25,4.5050049-3.4709473
			c0.7650146-0.3540039,1.5689697-0.6610107,2.3570557-0.9880371c1.1156006-0.0577393,2.2189941-0.2593994,3.282959-0.5999756
			c0.5340576-0.1560059,1.0649414-0.3220215,1.5999756-0.4749756c-0.5461426-0.4256592-1.1893311-0.7091064-1.8719482-0.8250732
			c-0.6027832-0.0380859-1.1943359-0.1807861-1.7480469-0.4219971c-0.1166992-0.0499268-0.2307129-0.1046143-0.342041-0.1639404
			c-0.0947266-0.0493164-0.1876221-0.1016846-0.2790527-0.1569824c-0.4256592-0.5603027-0.9353027-1.0513916-1.5109863-1.4560547
			c-3.4470215-1.6329346-6.618042-3.3579102-6.6230469-6.1300049c0.0332031-0.9471436,0.3234863-1.8673096,0.8399658-2.6619873
			c0.4078369-0.185791,0.8277588-0.3438721,1.256958-0.4730225c-0.0649414-0.052002-0.1309814-0.0999756-0.1999512-0.1549072
			c-3.1490479-1.7000732-6.6610107-1.4400635-10.1719971-1.1781006c-1.875,0.1925049-3.7626953,0.2305908-5.644043,0.1140137
			c0.0554199-0.7456055,0.3043213-1.4638672,0.7220459-2.0839844c1.1419678-1.6629639,3.5240479-2.4239502,6.6149902-2.8439941
			c2.2330322-0.2999268,5.9730225,0.2910156,6.2159424-1.8179932c0.0263672-0.6293945-0.1115723-1.2548828-0.4000244-1.8149414
			c-0.0717773-0.1400146-0.0811768-0.3037109-0.026001-0.4510498l0,0l0.0050049-0.0119629
			c0.2540283-0.5780029,1.618042-0.7359619,2.3709717-0.5999756c7.4589844,1.3209229,15.4620361,0.0789795,22.875,1.5439453
			h0.0679932c0.2790527,0.0030518,0.5574951,0.0299072,0.8320312,0.0799561
			c0.4776611,0.0838623,0.939209,0.2416992,1.368042,0.4680176l6.3449707-0.315918l0,0
			c0.7458496-0.5297852,1.5943604-0.8973389,2.4909668-1.0789795c0.8554688-0.1973877,1.7445068-0.1973877,2.5999756,0
			l11.177002,0.9759521c2.0526123-0.2180176,4.1082764-0.4337158,6.1669922-0.6469727l-0.2209473-3.0450439l-6.0560303,0.19104l0,0
			c4.8730469-2.9119873,10.7530518-3.3590088,16.7650146-3.8110352c3.1248779-0.145874,6.2564697-0.0213623,9.3599854,0.3719482
			c3.5078125,0.5018311,7.0643311,0.56604,10.5880127,0.19104c16.3609619-2.5410156,32.7910156-1.8439941,49.1519623-2.894043
			c0.7496338-0.0698242,1.503418-0.0834961,2.2550049-0.0410156c1.1912842,0.0457764,2.3842773,0.0019531,3.5689697-0.1309814
			c3.2540283-0.2779541,6.5080566-0.5570068,8.0419922,2.6450195l42.5629883-1.552002
			c0.1219482-0.0639648,0.2440186-0.125,0.368042-0.1849365l0.052002-0.0250244l0.0400391-0.019043
			c3.8000488-1.7939453,8.2189941-1.539917,12.4210205-1.730957c11.1169434-0.5059814,22.2419434-0.855957,33.3649902-1.1999512
			c4.4699707-0.1400146,8.9229736-0.1860352,12.927002-1.9510498c-0.0229492-0.5159912-0.0410156-1.0310059-0.0479736-1.5479736l0,0
			l0,0l13.5999756-0.5c1.1209717-0.1080322,1.6469727-0.2199707,1.6540527-0.3339844
			c-0.0679932-0.5330811-11.3050537-1.1230469-26.1949463-1.625l0.0350342-0.0070801h-0.0140381
			c7.3690186-1.3549805,14.7750244-3.4110107,22.7929688-0.6879883c2.7220459,0.9240723,8.407959,0.3260498,11.9229736-1.447998
			c7.1949463-3.6309814,15.5880127-3.9420166,23.6479492-4.5c6.1529541-0.4260254,12.8000488-2,18.7409668,0.6270752
			c3.3830566-0.0720215,6.7679443-0.0290527,10.1529541,0.0129395c7.7120361,0.0999756,15.427002,0.19104,23.1240234-1.0500488
			c2.4389648-0.3929443,4.5760498-0.0849609,6.3620605-2.2609863c3.8649902-4.7099609,10.0140381-5.3709717,16.7810059-3.1949463
			c2.0092773-0.1932373,4.0368652-0.013916,5.980957,0.5289307c1.6268311,0.425415,3.3024902,0.6347656,4.9840393,0.6230469
			c1,0.322998,2.0169678,0.6190186,2.9890137,0.9749756c3.6719971,1.3470459,5.6400146,2.6530762,5.9790039,4.1480713
			c0.3409424,1.473999-0.9000244,3.1300049-3.657959,5.190918c-3.0679932,2.2940674-5.9429932,4.7120361-8.9000549,7.072998
			c-0.7528076,0.2988281-1.595459,0.2735596-2.3289795-0.0699463c-0.1140137,0.4890137-0.1889648,0.9659424-0.2929688,1.44104
			c-1.0445557,0.4925537-1.8656006,1.3599854-2.3000488,2.4299316c-0.0279541,0.0699463-0.0546875,0.140625-0.0799561,0.2120361
			c-0.0473633,0.1333008-0.0883789,0.2716064-0.1230469,0.414917c-1.2906494,0.8452148-1.6936035,2.5529785-0.9169922,3.8861084
			c0.550293,0.927002,1.2900391,1.7275391,2.1710205,2.348999c0.2807617,0.1958008,0.5187988,0.4465332,0.6999512,0.7369385
			c1.0770264,1.8220215-2.4610596,3.5930176-1.3620605,5.0999756c0.3193359,0.3693848,0.7275391,0.6512451,1.1860352,0.8190918
			c0.026001,0.0109863,0.0529785,0.0219727,0.0810547,0.0319824c0.0799561,0.0239258,0.1607666,0.0462646,0.2419434,0.0670166
			c0.2340088,0.0509033,0.4909668,0.0759277,0.7290039,0.1229248l4.6669922,2.7910156v0.0059814l0,0
			c0.1442871,1.2320557,0.4216309,2.4447021,0.8270569,3.6170654c0.9157715-0.0976562,1.8360596-0.1474609,2.756958-0.1490479
			c4.8840332,0.0119629,9.6639404,0.0269775,13.7779541,2.144043l0,0l0,0l-3.5999756,0.1489258
			c-0.5513916,0.859375-1.1019287,1.7189941-1.6519775,2.5789795c1.2259521,0.0380859,2.4523926,0.0777588,3.6789551,0.1190186
			l9.0250244-0.5739746c0.4603271-0.3599854,0.9802246-0.6364746,1.5360107-0.8170166
			c0.4530029-0.1546631,0.9274902-0.2370605,1.4060059-0.2440186c1.0054932-0.0296631,1.996582,0.2435303,2.8449707,0.7840576
			l0.0350342,0.0189209l5.1999512-0.157959c0.3070068-0.1887207,0.6398926-0.3317871,0.9880371-0.4250488
			c0.2290039-0.0629883,0.4632568-0.1052246,0.6999512-0.1259766l0.0560303-0.0050049
			c5.6750488-1.5999756,11.9420166-1.151001,17.6999512-2.4869385c0.2299805-0.0533447,0.4589844-0.1097412,0.6870117-0.1690674
			l0.0770264-0.0179443c0.7590332-0.1660156,2.1610107-0.0290527,1.8869629,0.756958
			c-0.9919434,2.8590088,1.2769775,2.7680664,3.368042,2.6760254c0.5169678-0.0327148,1.0354004-0.0388184,1.5529785-0.0180664
			c3.4000244,0.2180176,5.8000488,1.0230713,6.2249756,3.6330566l0,0l0,0
			c-1.5130615,0.2102051-3.0411377,0.2924805-4.5679932,0.2459717c-2.8549805,0-5.7080078-0.0100098-8.1500244,1.5889893
			c-0.0489502,0.0469971-0.0999756,0.092041-0.1459961,0.1390381c0.354248,0.0804443,0.7025146,0.185791,1.0419922,0.3149414
			c0.5153809,0.6833496,0.8110352,1.506958,0.8480225,2.3620605c0.006958,2.1870117-2.3840332,3.7540283-4.9899902,5.2669678
			c-0.4423828,0.3726807-0.8248291,0.8111572-1.1340332,1.3000488c-0.5516357,0.4020996-1.1939697,0.6621094-1.8699951,0.756958
			c-1.5860596,0.4000244-1.9880371,1.5999756-3.0999756,2.3250732c-1.3630371,0.8289795-2.5600586,1.7149658-2.7609863,2.9459229
			v0.0109863v0.0180664c-0.0368652,0.2584229-0.0313721,0.5212402,0.0159912,0.7779541
			c0.7189941,4.0570068,12.06604,9.8300781,12.032959,12.2740479c0,0.4289551-0.3520508,0.756958-1.1679688,0.9549561
			c-0.4780273,0.026001-0.6789551,0.1280518-0.6820068,0.2869873c0.019043,0.8000488,4.8909912,2.986084,4.8780518,4.184082
			c0,0.237915-0.1850586,0.4370117-0.6390381,0.5799561c-2.3006592,0.7929688-4.6645508,1.3895264-7.06604,1.7830811
			c-1.8991699,0.342041-3.8234863,0.5263672-5.7530518,0.5510254l-0.4000244,0.0100098
			c-0.2469482,0-0.3649902,0.0249023-0.3730469,0.072998c0.0460205,0.5629883,13.4549561,3.9238281,13.2550049,5.6899414
			c-0.0146484,0.1130371-0.0732422,0.2158203-0.1629639,0.2858887l-3.6729736,0.1369629
			c-0.5933838,0.0354004-1.1862793,0.072998-1.7790527,0.1130371c-2.881958,2.5161133-7.4000244,0.7180176-10.868042,2.170166
			c2.4050293,0.2177734,2.8270264,1.2998047,2.9429932,2.5068359c0.0410156,0.4211426,0.0439453,0.8591309,0.0810547,1.2819824
			c0.1130371,1.282959,0.5369873,2.4311523,3.25,2.5871582l-0.0290527,0.0068359h0.0290527
			c-4.8000488,1.0820312-6.4539795-2.0068359-9.6540527-2.7390137c-1.9300537-0.4458008-4.6400146-1.9909668-5.6700439-0.6999512
			c-0.7149658,0.9001465-2.6999512,2.1911621-2.4210205,3.532959c0.1209717,0.5881348,0.6760254,1.1870117,1.9599609,1.7651367
			c0.3768311,0.1279297,0.7069092,0.3654785,0.947998,0.6818848c0.1750488,0.3161621-0.0279541,0.6140137-0.4620361,0.9001465
			c-0.3966064,0.246582-0.8154297,0.4555664-1.2509766,0.6240234h-0.0100098
			c-0.7052002,0.3598633-1.3912354,0.7536621-2.0579834,1.1809082c-0.6479492,0.4550781-1.2700195,0.9418945-1.9320068,1.3798828
			c-0.3587646,0.637207-0.8468018,1.1921387-1.4329834,1.6291504c-0.6333008,0.5043945-1.3603516,0.8781738-2.1390381,1.0998535
			l-0.0999756-2.3808594c-0.0710449,0-0.1419678,0-0.2130127,0c-1.8170166,1.5710449-6.8669434,1.5148926-5.3120117,4.7800293
			c0.0429688,0.0910645,0.092041,0.1850586,0.1459961,0.2810059l2.1169434,1.2358398
			c0.6567383-0.0251465,1.3125,0.0683594,1.9360352,0.276123c0.5158691,0.1567383,1.0003662,0.4018555,1.4320068,0.7250977
			l0.0469971-0.0209961c0.5800781-0.2824707,1.2213135-0.4162598,1.8659668-0.3891602
			c0.6901855,0.0129395,1.3668213,0.1931152,1.9720459,0.5251465l3.6779785-0.144043
			c0.3339844-0.0490723,0.4909668-0.0151367,0.532959,0.0739746c0.0820312,0.171875-0.276001,0.5529785-0.6280518,0.934082
			c-0.3079834,0.3327637-0.6120605,0.6669922-0.6099854,0.8598633c0,0.25,0.519043,0.2651367,2.1999512-0.2619629
			l0.0279541-0.0080566c0.6943359-0.208252,1.4293213-0.2424316,2.1400146-0.0998535
			c0.7272949,0.126709,1.416748,0.4160156,2.0169678,0.8459473c0.7717285,0.0751953,1.5488281,0.0778809,2.3210449,0.0080566
			c1.5250244-0.0842285,3.0460205-0.1672363,3.6259766,0.6708984c0.1153564,0.1706543,0.190918,0.3652344,0.2209473,0.5690918
			c0.2299805,1.4060059-11.8149414-0.25-22.769043-1.9001465c-8.3620605-1.2629395-16.0870361-2.5258789-17.230957-2.427002
			c-0.7332764,0.0498047-1.4577637,0.1896973-2.1569824,0.4160156c-0.6312256,0.2426758-1.2191467,0.5856934-1.7409973,1.0161133
			l0,0c0.317627,0.5068359,0.1643066,1.1750488-0.3425293,1.4926758c-0.086792,0.0544434-0.1809082,0.0961914-0.2794189,0.1242676
			c-0.6629639,0.2910156-1.6209717,0.3898926-2.2910156,0.677002c-0.1727295,0.0693359-0.3331299,0.1662598-0.4749756,0.2871094
			c-0.5620117,0.5708008-1.2608643,0.9880371-2.0300293,1.2119141c-1.305542,0.3164062-2.6513672,0.4335938-3.9919434,0.3479004
			c-0.4830322-0.0048828-0.9649658-0.0100098-1.4429932,0c0.0739746,0.8920898,0.1481934,1.7827148,0.2230225,2.6721191l0,0
			c-2.0369873,0.0998535-4.0749512,0.269043-6.1099854,0.282959c-1.3071289-0.1035156-2.6114502,0.2321777-3.7060547,0.9541016
			c-0.8603516,0.7971191-1.2420654,1.9858398-1.006958,3.1350098c-4.0670166,1.7687988-8.532959,1.7167969-13.006958,1.6359863
			c-11.230957-0.0500488-41.9890137-3.8352051-52.8669434-1.814209c-1.1695557,0.276123-2.3582764,0.4628906-3.5560303,0.559082
			c-1.192749,0.1379395-2.3970947,0.1433105-3.5909424,0.0161133l-0.4000244,0.0588379l-1.6459961,0.2480469
			c0.8000488,3.177002-1.3210449,2.8339844-3.4389648,2.4919434c-0.3349609-0.0539551-0.6710205-0.1079102-0.9940186-0.1489258
			c-0.3070068-0.0407715-0.616333-0.0620117-0.9260254-0.0639648h-0.0090332
			c-0.9151611,0.3217773-1.8895264,0.4394531-2.8549805,0.3449707c-0.907959-0.0803223-1.7884521-0.3530273-2.5830078-0.8000488
			l-10.8449707,0.1420898c-21.1789551,2.1560059-42.4890137,3.0878906-63.7679443,4.0200195
			c-13.9000244,0.6079102-26.8520508,4.0549316-40.3000488,5.9550781
			c-7.4649658,1.0559082-14.7919922,2.6569824-22.1810303,4.013916c-3.7540283,0.3369141-7.177002,1.8449707-11.0539398,1.7490234
			h-0.0159912l-27.2189941,7.5559082c-6.6549072,1.5581055-13.4588623,2.3908691-20.2929688,2.4841309L208.0866547,2118.6845703z
			 M345.7176208,1975.2205811h-0.0119629l4.9000244-2.8199463c-10.0670166-0.2540283-20.4530029-0.4549561-29.4790039-0.5720215
			l0.0770264-0.006958h-0.0810547l0.5749512-0.0529785c9.8000488-0.9000244,19.769043-1.7950439,30.0219727-0.0090332
			l-0.0100098,0.0050049h0.0100098l-1.092041,0.6279297c6.1309814,0.1550293,12.1350098,0.3291016,17.644043,0.5150146
			l-0.0389404,0.0070801h0.0179443c-1.5469971,0.282959-3.092041,0.539917-4.6429443,0.7109375
			c-5.9639893,0.6610107-11.8929443,1.30896-17.9000244,1.5999756L345.7176208,1975.2205811z M296.8295593,1972.3996582
			c-1.1190186-0.1240234-1.6479492-0.2290039-1.6610107-0.3170166c-0.1929932-0.4169922,11.0090332-0.4560547,25.9510498-0.2609863
			l-0.0770264,0.006958h0.0810547c-5.4749756,0.5-10.9000244,0.9840088-16.2919922,0.9840088
			c-2.673584,0.0102539-5.3457031-0.1273193-8.0040283-0.4119873L296.8295593,1972.3996582z"/>
		<g id="グループ_274_00000107575421294022920590000000890908300872102843_" transform="translate(0 -79)">
			<g class="st0">
				<path class="st1" d="M226.2050476,2131.3964844v10.2294922c0,12.3203125-6.1601562,19.3603516-18.0400391,19.3603516
					c-11.8803711,0-18.0400391-7.0400391-18.0400391-19.3603516v-40.0400391
					c0-12.3203125,6.159668-19.3603516,18.0400391-19.3603516c11.8798828,0,18.0400391,7.0400391,18.0400391,19.3603516v7.4804688
					h-11.4399414v-8.25c0-5.5-2.4199219-7.5908203-6.2700195-7.5908203s-6.2700195,2.0908203-6.2700195,7.5908203v41.5800781
					c0,5.5,2.4199219,7.4794922,6.2700195,7.4794922s6.2700195-1.9794922,6.2700195-7.4794922v-11H226.2050476z"/>
				<path class="st1" d="M231.4833679,2101.5859375c0-12.3203125,6.4897461-19.3603516,18.3701172-19.3603516
					c11.8798828,0,18.3701172,7.0400391,18.3701172,19.3603516v40.0400391c0,12.3203125-6.4902344,19.3603516-18.3701172,19.3603516
					c-11.8803711,0-18.3701172-7.0400391-18.3701172-19.3603516V2101.5859375z M243.5834656,2142.3964844
					c0,5.5,2.4199219,7.5898438,6.2700195,7.5898438s6.2700195-2.0898438,6.2700195-7.5898438v-41.5800781
					c0-5.5-2.4199219-7.5908203-6.2700195-7.5908203s-6.2700195,2.0908203-6.2700195,7.5908203V2142.3964844z"/>
				<path class="st1" d="M300.4530945,2137.7763672h0.2197266l8.1401367-54.6699219h16.8300781v77h-11.4399414v-55.2207031
					h-0.2202148l-8.1401367,55.2207031h-11.4399414l-8.7998047-54.4501953h-0.2202148v54.4501953h-10.5600586v-77h16.8300781
					L300.4530945,2137.7763672z"/>
				<path class="st1" d="M333.3412781,2083.1064453h12.1000977v77h-12.1000977V2083.1064453z"/>
				<path class="st1" d="M388.22995,2131.3964844v10.2294922c0,12.3203125-6.1601562,19.3603516-18.0400391,19.3603516
					c-11.8803711,0-18.0400391-7.0400391-18.0400391-19.3603516v-40.0400391
					c0-12.3203125,6.159668-19.3603516,18.0400391-19.3603516c11.8798828,0,18.0400391,7.0400391,18.0400391,19.3603516v7.4804688
					h-11.4399414v-8.25c0-5.5-2.4199219-7.5908203-6.2700195-7.5908203s-6.2700195,2.0908203-6.2700195,7.5908203v41.5800781
					c0,5.5,2.4199219,7.4794922,6.2700195,7.4794922s6.2700195-1.9794922,6.2700195-7.4794922v-11H388.22995z"/>
				<path class="st1" d="M410.7782898,2082.2255859c11.7700195,0,17.8198242,7.0400391,17.8198242,19.3603516v2.4199219h-11.4399414
					v-3.1894531c0-5.5-2.199707-7.5908203-6.0498047-7.5908203s-6.050293,2.0908203-6.050293,7.5908203
					c0,5.609375,2.4199219,9.7900391,10.340332,16.7197266c10.1201172,8.9101562,13.3100586,15.2900391,13.3100586,24.0898438
					c0,12.3203125-6.1601562,19.3603516-18.0400391,19.3603516c-11.8803711,0-18.0405273-7.0400391-18.0405273-19.3603516
					v-4.7294922h11.4404297v5.5c0,5.5,2.4199219,7.4794922,6.2700195,7.4794922s6.2700195-1.9794922,6.2700195-7.4794922
					c0-5.6103516-2.4199219-9.7900391-10.340332-16.7207031c-10.1201172-8.9091797-13.3100586-15.2900391-13.3100586-24.0898438
					C392.9579773,2089.265625,399.0082703,2082.2255859,410.7782898,2082.2255859z"/>
			</g>
		</g>
	</g>
</g>
<g id="レイヤー_3">
</g>
</svg>
