<?xml version="1.0" encoding="utf-8"?>
<!-- Generator: Adobe Illustrator 26.3.1, SVG Export Plug-In . SVG Version: 6.00 Build 0)  -->
<svg version="1.1" xmlns="http://www.w3.org/2000/svg" xmlns:xlink="http://www.w3.org/1999/xlink" x="0px" y="0px" width="800px"
	 height="220px" viewBox="0 0 800 220" style="enable-background:new 0 0 800 220;" xml:space="preserve">
<style type="text/css">
	.st0{enable-background:new    ;}
	.st1{fill:#FFFFFF;}
	.st2{fill:#080808;}
	.st3{opacity:0.44;fill:#FFE73B;enable-background:new    ;}
	.st4{opacity:0.44;fill:#0000FF;enable-background:new    ;}
	.st5{display:none;opacity:0.21;}
	.st6{display:inline;fill:#080808;}
	.st7{display:inline;}
	.st8{display:none;}
	.st9{clip-path:url(#SVGID_00000114790746570418054700000014866860111839432359_);}
	.st10{clip-path:url(#SVGID_00000147200830682461226640000011912483705440817039_);}
	.st11{clip-path:url(#SVGID_00000093873415561207360260000009079023514114800828_);}
	.st12{clip-path:url(#SVGID_00000122686479581495396900000002473662129075416195_);}
	.st13{opacity:0.44;fill:#FF39AF;enable-background:new    ;}
</style>
<g id="レイヤー_1">
</g>
<g id="レイヤー_2">
	<g id="_x2F_anime_00000042704425193317552640000002939815402927270838_" transform="translate(-88.854 -144.581)">
		<g id="h1-2_00000107563672498207369010000004060132357188518294_" transform="translate(-10 -41)">
			<g id="ANIME_00000009586874884055214650000011256852357569826192_" transform="translate(100 186)">
				<path id="合体_3_00000094586411387460896460000011163446678011221654_" class="st2" d="M135.0996399,182.5014343
					c-0.5789948-0.378006-31.8349991-4.9120026-32.4319992-5.3000031c-1.4160004-0.5140076,2.4449997-0.3829956,7.4290009-0.2539978
					c7.1399994,0.1849976,16.5849991,0.371994,16.1110001-1.3339996
					c-2.1780014-0.6560059-28.0309982-5.5919952-28.3000031-7.2379913c-2.470993-1.8939972,0.3560028-3.0640106,3.9250031-4.3000031
					c-0.8249969-0.276001-1.6620026-0.5360107-2.4639969-0.8440094c-6.4720001-2.4909973-6.9820023-4.8329926-2.0590057-8.6999969
					c0.7646713-0.5999908,1.517334-1.2076569,2.2580032-1.822998c-3.1900024-1.5630035-6.1170044-3.1419983-7.3710022-4.4759979
					c1.5926743-0.0646973,3.1879654-0.0078583,4.7720032,0.1699982c3.0130005,0.2230072,6.435997,0.4470062,8.0379944-0.2870026
					l0.2120056-0.1779938c0.0706635-0.026001,0.1406631-0.0493317,0.2099991-0.0700073
					c0.5078354-0.3814697,0.6604385-1.0769348,0.3589935-1.6360016c-4.8169937-1.6079865-9.1159973-3.6549835-11.8949966-6.9779816
					c-4.8410034,0.5099945-1.6170044,0.5699921-3.4449997-1.3630066c-0.0470505-0.605423-0.0470505-1.2135773,0-1.8190002
					v-0.8999939c-0.7300034-0.0279999-1.2129974-0.1170044,0-0.2409973v0.2409973
					c0.927002,0.0350037,2.2519989-0.0279999,0.9929962-0.2409973c-0.4720001-0.0810089,1.0590057-0.1150055,1.0590057-0.1150055
					c-0.0794144-0.3739471-0.1795731-0.7431793-0.3000031-1.1060028c1.3300018-0.8000031,2-1.9940033-0.7590027-2.0639954
					c-1.8289948-0.0480042-1.6839981-2.3209991-0.9929962-2.3740082c0.3720016-0.0569916-0.336998-0.0690002-0.6340027-0.0479889
					c-0.4822845-0.0211792-0.9653854-0.0151825-1.4469986,0.0179901c-0.4710007,0.0220032-0.8209991,0.0429993-0.5999985,0.029007
					c1.2129974-1.3740005,2.8769989-0.9670105,4.5599976-0.5599976c1.5999985,0.3880005,3.227005,0.7749939,4.5-0.3730011
					c-0.7070007-0.3110046-2.022995-0.6100006-2.0279999-0.9369965c-0.0469971-3.4199982-3.6999969-3.8249969-7.7200012-4.0999985
					c1.770134-1.7672348,2.7492065-4.1759491,2.7140045-6.677002c1.1193314-0.8040009,2.2389984-1.6086655,3.3590012-2.4140015
					c0.2667389-0.0512161,0.5276947-0.1289368,0.7789993-0.2320023c2.1999969-1.185997,0.0889969-2.2639999-0.4570007-3.5289993
					c-0.4370041,0.0250015-0.8769989,0.0650024-1.3170013,0.0999985c-2.0390015,0.1849976-4.0790024,0.3710022-5.7669983-0.9400024
					c2.9119949-0.6489944,5.5899963-1.923996,8.6940002-2.0619965c0.8757401-0.9949799,0.7790756-2.5114975-0.2159042-3.3872375
					c-0.0990372-0.0871735-0.205101-0.1660309-0.3171005-0.2357635c-0.3181839-1.0105972-1.0738297-1.8246231-2.0579987-2.2170029
					c-0.1060028-0.3610001-0.1879959-0.723999-0.3000031-1.0999985c-0.5311813,0.3055573-1.1666565,0.3727341-1.75,0.1850052
					c-2.3649979-1.6559982,5.1500015-5.4410019,2.7090073-7.0390015c-4.4090042-2.887001,1.8069992-0.5810013,7.1459961-3.052002
					c0.711998-0.3290024-6.0830002-1.4070053-5.3479996-1.7130051c2.875-0.0810013,1.7340012-5.3450012,4.7060013-5.1289978
					c4.9759979-2.0600052,4.9379959,0.3249969,8.1159973,3.7419968c1.4669952,1.5780029,3.0599976,1.2200012,4.9199982,1.387001
					c2.1979904,0.1882019,4.4045105,0.2579651,6.6100006,0.2089996c-1-1.8709946-4.6190033-1.3539963-7.512001-1.5
					c3.0690002-3.8829956,7.5100021-6.9710007,11.5329971-10.2999954
					c2.2900009-6.8540039,10.6699982-6.6090012,16.6499939-12.0699997c0.1760101-2.0000038,1.4000092-3.5430031,3.9000092-4.5290031
					c0.6999969-3.5519981,3.9420013-5.7319984,7.8739929-7.5389977l1.9650116-1.5349998
					c13.9149933-6.7169991,28.8649902-6.8400002,44.1889954-4.5900002l30.3570099,6.1899986
					c4.2369995-0.4309998,8.1000061,0.9700012,12.2389984,1.0340004c8.1860046,0.9000015,16.322998,2.0839996,24.5650024,2.644001
					l0.2640076,0.0179977c1.2929993-0.6999969,2.0910034-3.3610001,2.375-4.5259972
					c-0.0429993,0.2269974-0.1000061,0.5289993-0.1640015,0.9199982c0.4679871,0.0359993,2.1929932,2.3339996,3.6159973,4.0890007
					c1.4979858,0.1420021,2.9943237,0.293335,4.4889832,0.4540024c1.3560181-1.2140007,2.5910034-2.6570015,4.2530212-2.4700012
					c12.0529785,1.3549995,43.2729797-7.4000015,55.54599-8.4000015c4.8829956-0.4650002,9.7610168-0.8999977,14.3470154,0.7470016
					c-0.0499878,2.6879997,1.1210022,4.4869995,5.4790039,4.1860008c2.2250061-0.1539993,4.4670105-0.1340027,6.7000122-0.1940002
					c-0.0106506,1.0046654-0.0209961,2.0089989-0.0310059,3.0130005c2.9410095-0.151001,6.0419922-0.9000015,8.2839966,1.1259995
					c1.1919861,0.9430008,4.6220093,0.1339989,3.9230042,2.5569992c-0.0073242,0.0297852,0.0014038,0.0612335,0.0230103,0.0830002
					c1.2619934,0.9004402,2.7944641,1.3412552,4.3420105,1.2490005c1.2900085,0.0139999,10.0450134-2.1570015,19.355011-4.3279991
					c11.644989-2.7150002,24.1589966-5.4309998,24.0230103-3.8689995c-0.2090149,2.3739967-4.2950134,1.3779984-6.6419983,1.9149971
					c-1.2420654,1.0693398-2.9089661,1.5038795-4.5150146,1.177002c-3.3349915-0.8000031-2.5329895,0-1.7000122,0.7999992
					c0.7059937,0.6749992,1.4349976,1.3509979-0.2919922,1.0629997l-4.0700073,0.4799995
					c-1.1520996,0.6070747-2.513916,0.6726227-3.7189941,0.1790009c-0.9604187,0.8207016-2.1620483,1.3061981-3.4230042,1.3829994
					l-2.4649963,1.743c-1.6870117,4.0199966,4.1319885,3.4309998,6.2000122,5.1439972l0.1530151-0.0789948l-0.0809937-2.6760025
					c1.6763,0.3592072,3.1511536,1.3473282,4.1210022,2.7610016c1.4361572,0.997345,2.9692383,1.8473129,4.5759888,2.5369949
					c1.8739929,0.6300049,2.9700012,1.3209991,1.0130005,2.4120026c-4.4570007,2.4830017-0.2999878,4.538002,0.927002,5.9049988
					c1.2269897,1.3670044,4.0660095-0.5999985,6.1400146-1.2549973c3.4330139-1.086998,5-4.6869965,10.3330078-3.8759995
					c-6.7279968,0.9140015-0.053009,6.6090012-6.3680115,7.6700058c0.1900024,0.0666656,0.3819885,0.1236649,0.5759888,0.1709976
					c0.8486633,0.0486679,1.6983337,0.1083374,2.5490112,0.1790009c0.4729919,0.0390015,0.9490051,0.0550003,1.428009,0.052002
					c0.2659912-0.0139999,0.5320129-0.0309982,0.7999878-0.0470047c0.42099-0.026001,0.8420105-0.0519943,1.2590027-0.0690002
					c1.4880066-0.1489944,3-0.4189987,4.5299988-0.6889954c2.2992249-0.4718246,4.6356506-0.7395325,6.9819946-0.8000031
					c4.5539856,0.0100021,9.0109863,0.0240021,12.8460083,2l-3.3510132,0.1409988
					c-0.5139771,0.8000031-1.0276489,1.6000061-1.5409851,2.4000015c1.1439819,0.0360031,2.2876587,0.0733337,3.4309998,0.1119995
					l8.4169922-0.5359955c1.5726318-1.2278748,3.750885-1.3234329,5.4249878-0.237999l4.8450012-0.1480026
					c0.4937744-0.3005829,1.0523376-0.4785461,1.6289978-0.5189972c5.5-1.5460052,11.6000061-1.038002,17.1470032-2.4749985
					c0.6879883-0.1800003,2.0939941-0.0709991,1.8309937,0.6889954c-0.9259949,2.6660004,1.1919861,2.5800018,3.1419983,2.4930038
					c0.5130005-0.0220032,1.0140076-0.0439987,1.4460144-0.0169983c3.1679993,0.1999969,5.3999939,0.9560013,5.7999878,3.3880005
					c-1.4117126,0.1957703-2.8374329,0.272377-4.2619934,0.2289963c-2.6600037-0.0049973-5.3190002-0.0079956-7.6000061,1.4800034
					c-0.0450134,0.0449982-0.0950012,0.0889969-0.1409912,0.1329956c0.3320618,0.075737,0.6585083,0.1743011,0.9769897,0.2949982
					c2.230011,3.2770004-0.6390076,5.2369995-3.8609924,7.1070023c-0.4114075,0.3466873-0.7672119,0.754425-1.0549927,1.2089996
					c-0.5148926,0.3744888-1.113678,0.617218-1.743988,0.7070007c-1.4790039,0.3769989-1.8540039,1.4929962-2.8999939,2.1669998
					c-1.5350037,0.9329987-2.8399963,1.9449997-2.5639954,3.5069962
					c0.7869873,4.4400024,15.2330017,11.0870056,10.1289978,12.326004
					c-3.1000061,0.1689987,6.3070068,3.7679977,3.3169861,4.7080002c-3.9678345,1.3668976-8.1251221,2.1044846-12.3210144,2.185997
					c-2.9400024-0.0100021,13.7720032,3.9489975,11.8590088,5.6389999l-3.4240112,0.1279984
					c-0.5533142,0.0326691-1.105957,0.0660019-1.6579895,0.0999985c-2.6929932,2.3499908-6.9169922,0.663002-10.151001,2.0299988
					c5.4219971,0.4769897,0.1000061,5.6159973,5.8670044,5.946991c-4.4760132,1.0080109-6.0220032-1.8730011-9-2.5549927
					c-1.7999878-0.4120026-4.3200073-1.8670044-5.2850037-0.6490021c-0.9649963,1.2179871-4.3599854,3.1729889-0.4299927,4.9459991
					c1.7250061,0.7789917,0.8370056,1.42099-0.7130127,2.0589905c-1.3131714,0.6753693-2.5565491,1.4785919-3.7120667,2.3980103
					c-0.7467651,1.2396088-1.9361877,2.1495667-3.3280029,2.5460052l-0.0939941-2.2190094
					c-0.0650024,0-0.1329956,0-0.2000122,0.0050049c-1.7399902,1.5059967-6.6690063,1.4079895-4.8150024,4.7220001
					c0.6573181,0.3833313,1.3150024,0.7679901,1.9729919,1.1539917c1.1208801-0.0458069,2.2252502,0.2816315,3.1400146,0.9309998
					c1.1532898-0.5488739,2.4997864-0.5116882,3.6210022,0.1000061l3.4289856-0.1340027
					c0.9150085-0.1350098,0.4070129,0.3999939-0.0889893,0.9380035c-0.6600037,0.7149963-1.2999878,1.4299927,1.4859924,0.5599976
					c1.3372498-0.372879,2.7714539-0.1195068,3.8999939,0.6889954c0.7195129,0.0697632,1.4439697,0.0724335,2.1640015,0.0080109
					c1.6860046-0.0920105,3.3659973-0.1860046,3.5849915,1.1569977c0.2160034,1.3099976-11.0150146-0.2340088-21.2269897-1.776001
					c-7.7999878-1.1790009-15-2.3570099-16.0650024-2.2640076c-1.3292236,0.0184326-2.6123047,0.4901123-3.6369934,1.3370056
					c0.7999878,2.0090027-2.2000122,1.5439911-3.1579895,2.4059906c-1.4639893,1.5-3.5329895,1.4759979-5.6149902,1.4550018
					c-0.4490051-0.0049896-0.8999939-0.0099945-1.3439941,0c0.0666809,0.8333435,0.1356506,1.6643372,0.2070007,2.4929962
					c-1.8999939,0.0920105-3.7999878,0.2510071-5.7000122,0.2630005c-3.7149963,0.0279999-4.6000061,1.5910034-4.3999939,3.8130035
					c-3.7919922,1.6500092-7.9559937,1.6000061-12.1260071,1.5250092
					c-10.4720154-0.0449982-39.1459961-3.5749969-49.2879944-1.6910095
					c-2.1803894,0.5149384-4.4263916,0.6953278-6.6610107,0.5350037l-1.9089966,0.2860107
					c0.7430115,2.9629974-1.2309875,2.6429901-3.2049866,2.3239899c-0.5937195-0.1144867-1.1956482-0.181366-1.8000183-0.1999969
					c-1.6733398,0.5871735-3.5177917,0.431427-5.0690002-0.4279938c-3.3706665,0.0426636-6.741333,0.0869904-10.1119995,0.1329956
					c-19.7469788,2.0100098-39.6149902,2.878006-59.4519958,3.7470093
					c-12.9559784,0.5670013-25.0339813,3.7769928-37.5709839,5.552002
					c-6.9580078,0.9830017-13.7890015,2.4759979-20.677002,3.7419891c-3.5,0.3130035-6.6999969,1.7180023-10.3209991,1.6289978
					l-25.3720245,7.0480042c-6.2050476,1.4516907-12.548996,2.2275391-18.9210052,2.3139954
					C147.5095673,185.8910217,141.1207733,184.7646179,135.0996399,182.5014343z M309.5876465,60.3014412
					c9.9769897-0.3139992-4.2879944-0.7329979-22.0650024-1.0589981c7.3229065,0.8478279,14.6944885,1.202961,22.0650024,1.0630035
					V60.3014412z M273.0696411,59.4674416c0.4054871-0.0846786,0.7945557-0.2346268,1.1519775-0.4440002l-1.776001-0.026001
					c0.2790222,0.2890053,0.4980164,0.465004,0.6240234,0.4740028V59.4674416z M252.4606476,59.0364418l1.3439941-0.262001
					c-3.2519989-0.0289993-5.9129944-0.0449982-7.6860046-0.0449982c-4.2200012,0.0050011-3.4259949,0.0940018,6.3419952,0.3110008
					L252.4606476,59.0364418z M92.1926422,133.7054443 M89.8116379,129.2234497
					c0.0540009,0.0099945,0.0550003,0.026001-0.0159988,0.0479889
					C89.6296387,129.2454376,89.6796417,129.2294464,89.8116379,129.2234497z M267.7006226,52.4944458"/>
			</g>
		</g>
		<g id="グループ_3008_00000106861605595791674500000003931654509521369230_" transform="translate(54.318 -507.11)">
			<g class="st0">
				<path class="st1" d="M227.6336517,798.9336548h-12.2099609l-2.0898438-13.9697266h-14.8500977l-2.0898438,13.9697266
					h-11.1103516l12.3203125-77h17.7099609L227.6336517,798.9336548z M200.0237885,774.5137329h11.6601562l-5.7202148-38.9404297
					h-0.2202148L200.0237885,774.5137329z"/>
				<path class="st1" d="M243.1429291,743.163147h-0.2197266v55.7705078h-10.8901367v-77h15.1801758l12.2099457,46.0898438
					h0.2202148v-46.0898438h10.7797852v77h-12.4301758L243.1429291,743.163147z"/>
				<path class="st1" d="M278.0115662,721.9336548h12.1000977v77h-12.1000977V721.9336548z"/>
				<path class="st1" d="M323.3304138,776.6035767h0.2202148l8.1401367-54.6699219h16.8300781v77h-11.4399414v-55.2207031
					h-0.2202148l-8.1401367,55.2207031h-11.4399414l-8.7998047-54.4501953h-0.2202148v54.4501953H297.700531v-77h16.8300781
					L323.3304138,776.6035767z"/>
				<path class="st1" d="M368.3186951,754.3838501h16.6103516v11h-16.6103516v22.5498047h20.9003906v11h-33.0004883v-77h33.0004883
					v11h-20.9003906V754.3838501z"/>
			</g>
		</g>
	</g>
</g>
<g id="レイヤー_3">
</g>
</svg>
