<?xml version="1.0" encoding="utf-8"?>
<!-- Generator: Adobe Illustrator 26.3.1, SVG Export Plug-In . SVG Version: 6.00 Build 0)  -->
<svg version="1.1" xmlns="http://www.w3.org/2000/svg" xmlns:xlink="http://www.w3.org/1999/xlink" x="0px" y="0px" width="800px"
	 height="220px" viewBox="0 0 800 220" style="enable-background:new 0 0 800 220;" xml:space="preserve">
<style type="text/css">
	.st0{enable-background:new    ;}
	.st1{fill:#FFFFFF;}
	.st2{fill:#080808;}
	.st3{opacity:0.44;fill:#FFE73B;enable-background:new    ;}
	.st4{opacity:0.44;fill:#0000FF;enable-background:new    ;}
	.st5{display:none;opacity:0.21;}
	.st6{display:inline;fill:#080808;}
	.st7{display:inline;}
	.st8{display:none;}
	.st9{clip-path:url(#SVGID_00000067197963527184871860000016696642718726529437_);}
	.st10{clip-path:url(#SVGID_00000084531133042873816420000009440986838065817524_);}
	.st11{clip-path:url(#SVGID_00000103966002049535766960000001895039348695466901_);}
	.st12{clip-path:url(#SVGID_00000124144996670531392270000016150166210404184193_);}
	.st13{opacity:0.44;fill:#FF39AF;enable-background:new    ;}
</style>
<g id="レイヤー_1">
</g>
<g id="レイヤー_2">
	<g id="_x2F_news_00000099649340793895404260000016458385698220885169_" transform="translate(-78.821 -151)">
		<path id="パス_3990_00000134955775104984971160000007515410732835134865_" class="st2" d="M574.0526733,204.2859497
			c-2.8619995-0.2000122-7.9500122,1.2700195-6.3429565-3.5809937c0.3629761-1.0999756-1.5800171-1.2550049-2.5300293-1
			c-7.6530151,2.0609741-16.0780029,1.3129883-23.6729736,3.5289917c-0.7990112,0.0584717-1.5710449,0.3141479-2.2470093,0.7440186
			l-6.69104,0.2000122c-2.293335-1.5688477-5.3477783-1.432312-7.4920044,0.335022
			c-3.8766479,0.2513428-7.7506714,0.5013428-11.6220093,0.75l-4.7379761-0.1680298
			c0.706665-1.1552734,1.4140015-2.3096924,2.1220093-3.4630127c1.5413208-0.0666504,3.0839844-0.1313477,4.6279907-0.1939697
			c-5.2999878-2.8540039-11.4530029-2.8859863-17.7430115-2.9119873c-7.1270142-0.0280151-14.1400146,2.789978-20.7059937,2.2069702
			c-17.2219849-1.5310059-34.2579956,0.5460205-51.3630066,0.6729736c-0.7849426-0.0176392-1.5700684,0.0267944-2.3479919,0.1329956
			c-4.2869873,0.6519775-10.0350037-1.3449707-11.8789978,3.7180176l-44.3999939,1.6430054
			c-4.2220154-1.9650269-8.9909973-1.2849731-13.5549927-1.1599731c-11.6000061,0.3170166-23.2050171,0.809021-34.8000183,1.2999878
			c-4.6609802,0.2000122-9.2999878,0.5-13.6000061-1.1459961c-0.0146484-0.5766602-0.0390015-1.1526489-0.072998-1.7280273
			l-14.1949768,0.5200195c-18.6150208-0.492981,117.9889832-13.9660034,99.6260071-10.3619995
			c-18.3999939,3.6090088-37.6239929-1.5479736-57.1499939,3.6430054l6.5310059,3.3729858
			c-6.2730103,0.1519775-12.4920044-0.0999756-18.7480164-0.3590088c-9.3729858-0.3920288-18.8370056-3.822998-28.6759949,0.6140137
			c-2.7569885,1.2440186-8.7200012,1.0289917-12.5180054-0.6660156c-7.7739868-3.4699707-16.5299988-3.1500244-24.9579773-3.1350098
			c-6.4349976,0.0120239-13.4750061-1.2089844-19.4459991,2.1810303c-11.5550079,0.617981-23.0359955,2.59198-34.6999969,1.4810181
			c-2.5690002-0.2440186-4.7680054,0.2670288-6.8000031-2.0120239c-4.4000092-4.9320068-10.8440094-5.1799927-17.7109985-2.2249756
			c-4.1070099-0.315979-7.3460083,2.0419922-11.3139954,2.151001c-1.0130005,0.4379883-2.0490112,0.8480225-3.0330048,1.3209839
			c-7.3679962,3.5490112-7.7660065,6.3900146-1.6690063,10.5620117c3.3740082,2.309021,6.5579987,4.7700195,9.8270111,7.1619873
			c0.8045807,0.2730713,1.6886597,0.1771851,2.4159851-0.2620239c0.1600037,0.5349731,0.2740021,1.0599976,0.4190063,1.5800171
			c1.3757629,0.5913696,2.4172211,1.7640381,2.8419952,3.2000122c3.1999969,2.4890137,0.7770081,5.5809937-0.8119965,7.0469971
			c-3.1999969,2.9520264,4.2360077,5.0529785-0.0159912,7.4420166c-0.3461456,0.1470947-0.7067871,0.2573242-1.076004,0.3289795
			c-1.5453339,1.1566162-3.0896606,2.3146973-4.6329956,3.473999c-0.1949921,3.1740112-0.6109924,6.3129883-3.7420044,9.6160278
			c5.5480042,0.4000244,10.6000061,1,10.6719971,5.9249878c0.0070038,0.4730225,1.8249969,0.9060059,2.8000031,1.3569946
			c-3.5999908,3.3889771-10.7919922,1.7249756-14.0569916,5.5830078c-0.7351532,0.0476074-1.4616394,0.1856079-2.1630096,0.4110107
			c-0.7387085-0.1029053-1.4886627-0.0947876-2.2249908,0.0239868c-3.1650085,0.2449951-6.6800079-0.6500244-9.1999969,1.6729736
			c3.7919922,0.5620117,7.3209991,2.0440063,11.3999939,1.6140137l1.1309967,0.1690063l1.1289978-0.0999756
			c2.5320129,2.7880249,3.2850037,7.0800171,9.9690094,6.3569946c3.8499908,4.7999878,9.7910004,7.7540283,16.4449921,10.0809937
			c2.1470032,5.9000244-3.9550018,5.184021-8.4509888,5.757019c3.9259949,4.3590088,9.3929901,7.6489868,14.3889923,11.2650146
			c3.2669983,7.9730225,13.0630035,6.934021,20.5330048,12.914978c0.3779907,2.3729858,1.9459991,4.0999756,4.9559937,5.0549927
			c1.1190033,4.177002,5.1060028,6.4879761,9.8650055,8.2999878c0.8280029,0.5629883,1.6299896,1.1090088,2.4309998,1.6560059
			c16.871994,6.7789917,34.3950043,5.5930176,52.1529999,1.5410156l35.0289917-10.0939941
			c5,0.1380005,9.4089966-1.8790283,14.2479858-2.3250122c9.5110168-1.7999878,18.9400024-3.940979,28.5480042-5.3439941
			c17.3089905-2.526001,33.980011-7.1259766,51.8720093-7.9119873C444.3317261,303.5490112,316.4637146,314.848999,343.7277222,312
			l13.9660034-0.1680298c2.1234131,1.2409058,4.6891174,1.4718628,7,0.6300049
			c3.0920105-0.0230103,4.9410095,9.8909912,3.5769958,4.2579956c0.8770142-0.1370239,5.0849915-7.5839844,5.9639893-7.7199707
			c3.1470032,0.3900146,5.2919922,4.7299805,8.3349915,4.1459961c14-2.6929932,51.3179932,4.9760132,65.7799988,5.0670166
			c5.7590027,0.1199951,11.5090027,0.2000122,16.7420044-2.1699829c-0.2890015-3.2000122,0.9299927-5.4539795,6.0599976-5.4840088
			c2.6199951-0.0150146,5.2449951-0.2379761,7.8659973-0.3649902c-0.0966492-1.2000122-0.1943054-2.397644-0.2929993-3.5930176
			c3.4590149-0.0819702,7.1560059,0.5390015,9.6080017-2.0830078c1.3259888-1.2390137,5.4599915-0.5629883,4.355011-3.460022
			c1.3959656-1.2108154,3.1743164-1.8903809,5.0220032-1.9190063c3.3999939-0.2999878,52.0369873,9.2440186,51.5089722,5.9119873
			c-0.4469604-2.8120117-5.1469727-1.2600098-7.9439697-1.6920166c-1.5387573-1.1622314-3.534729-1.5327148-5.3880005-1
			c-6.7300415,2.1859741,1.0169678-2.6090088-1.9349976-2.1610107l-4.7340088,0.1849976
			c-1.5349121-0.8863525-3.4112549-0.9467773-5-0.1610107c-1.2497559-0.9312744-2.7805786-1.4069824-4.3380127-1.3480225
			l-2.7260132-1.6680298c-2.5720215-4.7780151,4.2369995-4.6279907,6.6369629-6.7940063c0.0930176,0,0.184021,0,0.2770386-0.0050049
			l0.1339722,3.2000122c1.942688-0.5874634,3.5857544-1.8983154,4.5900269-3.6619873
			c1.7000122-1.1690063,3.190979-2.5999756,5.1430054-3.4359741c2.1409912-0.9180298,3.3659668-1.8410034,0.980957-2.96698
			c-5.4329834-2.5650024-0.7399902-5.3870239,0.5820312-7.1290283c1.3219604-1.7420044,4.8150024,0.3510132,7.2999878,0.9500122
			c4.1149902,0.9899902,6.256958,5.1450195,12.4349976,3.7000122c-7.960022-0.4910278-0.6279907-7.8809814-8.1149902-8.5839844
			c4.4609985-1.9619751,10.2999878,0.4780273,14.0130005-2.9000244c0.7633057-0.0526733,1.5266724-0.1013184,2.289978-0.1459961
			l4.7290039-0.177002c2.6380005-2.4310303-20.4509888-8.1749878-16.3900146-8.1569824
			c5.8016968-0.1067505,11.546936-1.1603394,17.0090332-3.1190186c4.1289673-1.3460083-8.8740234-6.559021-4.592041-6.7940063
			c7.0450439-1.7750244-12.9219971-11.3880005-14.0180054-17.7910156c-0.3859863-2.2509766,1.4160156-3.7059937,3.53302-5.0490112
			c1.4359741-0.9689941,1.9509888-2.5759888,3.9939575-3.1160278c0.8743286-0.1292114,1.7017212-0.4777222,2.4050293-1.0130005
			c0.3929443-0.651123,0.883667-1.2379761,1.4549561-1.7399902c4.4440308-2.6870117,8.4000244-5.5079956,5.31604-10.2340088
			c-0.4382935-0.1750488-0.888855-0.317749-1.3480225-0.427002c0.0629883-0.0650024,0.1300049-0.1279907,0.1920166-0.1920166
			c4.8399658-3.2999878,10.947998-1.4840088,16.3699951-2.4359741
			C581.515686,205.671936,578.4276733,204.5859375,574.0526733,204.2859497z"/>
		<g id="グループ_3006_00000012443352008706058160000016992987257068087949_" transform="translate(54.318 -497.11)">
			<g class="st0">
				<path class="st1" d="M185.5527954,740.0494385h-0.2197266v55.7705078h-10.8901367v-77h15.1801758l12.2099609,46.0898438
					h0.2202148v-46.0898438h10.7797852v77h-12.4301758L185.5527954,740.0494385z"/>
				<path class="st1" d="M232.5215454,751.2701416h16.6103516v11h-16.6103516v22.5498047h20.9003906v11h-33.0004883v-77h33.0004883
					v11h-20.9003906V751.2701416z"/>
				<path class="st1" d="M286.7510376,754.7896729h-0.2197266l-4.2900391,41.0302734h-16.6103516l-8.5800781-77h11.7700195
					l6.3803711,60.7197266h0.2197266l5.7202148-60.7197266h11.6601562l5.9399414,61.1601562h0.2197266l6.1601562-61.1601562
					h10.5600586l-8.5800781,77h-16.0600586L286.7510376,754.7896729z"/>
				<path class="st1" d="M336.9102173,717.9390869c11.7700195,0,17.8198242,7.0400391,17.8198242,19.3603516v2.4199219h-11.4399414
					v-3.1894531c0-5.5-2.199707-7.5908203-6.0498047-7.5908203s-6.050293,2.0908203-6.050293,7.5908203
					c0,5.609375,2.4199219,9.7900391,10.340332,16.7197266c10.1201172,8.9101562,13.3100586,15.2900391,13.3100586,24.0898438
					c0,12.3203125-6.1601562,19.3603516-18.0400391,19.3603516c-11.8803711,0-18.0405273-7.0400391-18.0405273-19.3603516
					v-4.7294922h11.4404297v5.5c0,5.5,2.4199219,7.4794922,6.2700195,7.4794922s6.2700195-1.9794922,6.2700195-7.4794922
					c0-5.6103516-2.4199219-9.7900391-10.340332-16.7207031c-10.1201172-8.9091797-13.3100586-15.2900391-13.3100586-24.0898438
					C319.0899048,724.979126,325.1401978,717.9390869,336.9102173,717.9390869z"/>
			</g>
		</g>
	</g>
</g>
<g id="レイヤー_3">
</g>
</svg>
