<?xml version="1.0" encoding="UTF-8"?>
<svg id="sp" xmlns="http://www.w3.org/2000/svg" xmlns:xlink="http://www.w3.org/1999/xlink" viewBox="0 0 900 220">
  <defs>
    <style>
      .cls-1 {
        clip-path: url(#clippath-2);
      }

      .cls-2 {
        fill: none;
      }

      .cls-2, .cls-3, .cls-4 {
        stroke-width: 0px;
      }

      .cls-5 {
        clip-path: url(#clippath-1);
      }

      .cls-3 {
        fill: #fff;
      }

      .cls-6 {
        clip-path: url(#clippath);
      }

      .cls-4 {
        fill: #080808;
      }
    </style>
    <clipPath id="clippath">
      <rect class="cls-2" x="34.83" y="15.68" width="732.28" height="202.04"/>
    </clipPath>
    <clipPath id="clippath-1">
      <rect class="cls-2" x="176.38" y="25.35" width="476.79" height="182.69"/>
    </clipPath>
    <clipPath id="clippath-2">
      <rect class="cls-2" x="385.87" y="40.68" width="408.16" height="152.04"/>
    </clipPath>
  </defs>
  <g id="h1">
    <g id="_グループ_51984" data-name="グループ 51984">
      <g class="cls-6">
        <g id="_グループ_3859" data-name="グループ 3859">
          <path id="_パス_4976" data-name="パス 4976" class="cls-4" d="m537.24,168.79c-5.88.35-11.76.71-17.01-1.34l-.33-.19c.71-.16,1.42-.36,2.11-.59,4.45-5.44-2.18-8.15-9.58-10.66-.92-.46-1.76-1.05-2.51-1.76-1.25-.54-2.59-.84-3.95-.88-3.32-.4-4.31-2.1-6.71-3.03-3.53-1.27-6.56-2.68-6.18-5.18.61-3.99,10.72-9.65,17.36-14.06h.96c1.26-.26,2.56-.5,3.79-.79,9.23-2.17,9.92-4.21,2.81-7.57-.76-.36-1.51-.72-2.25-1.09,3.65-1.99,8.33-4.41,4.55-5.02-4.25-.73-8.53-1.24-12.82-1.58,5.44-.97,6.82-4.18,9.91-6.45l1.81.11,1.81-.17c6.55.47,12.17-1.08,18.24-1.65-4.1-2.46-9.72-1.53-14.8-1.8-1.19-.13-2.38-.14-3.57-.04-.8-.16-1.6-.28-2.41-.35-.08-.14-.2-.24-.35-.3l-1.01.03c-2.59-1.82-6.48-2.42-10.48-2.93l2.65-1.02c.46-3.02,2.45-5.58,5.26-6.77-3.21-.16-6.4-.67-9.5-1.53,3.66-.69,7.37-1.07,11.1-1.13-2.05-1.28-3.74-3.07-4.91-5.19,1.74-.14,3.43-.63,4.96-1.45.89,0,1.78-.05,2.66-.17.9.12,1.81.15,2.71.1,3.87,0,8.08.84,11.33-.69-4.58-.62-8.76-1.89-13.76-1.8l-1.37-.19h-1.38c-2.88-2.16-3.49-5.31-11.68-5.16-1.52-1.25-3.17-2.31-4.93-3.18,1.49-1.29,3.37-2.66.67-4.27-2.59-1.54-6.54-4.82-1.48-7.43.92-1.73,2.56-2.97,4.48-3.36.22-.55.39-1.1.63-1.66,1.24.47,2.59.57,3.88.29,5.19-2.51,10.23-5.08,15.59-7.5,9.68-4.37,8.97-7.36-2.93-11.13-1.59-.5-3.26-.94-4.89-1.4-6.37-.13-11.62-2.63-18.2-2.31-11.08-3.15-21.42-2.91-28.35,2.26-2.92,2.18-6.13,1.92-9.79,2.05-.72-1.25-2.42-2.25-5.28-2.93-1.06-3.09-5.74-4.99-11.4-6.57l-2.84-1.34c-20.04-5.86-41.46-5.97-63.37-4.02l-43.38,5.38c-6.08-.38-11.59.84-17.51.9-11.71.78,82.69-1.71,70.89-1.22-11.69.48-23.18,1.41-34.8,2.1l.08-.03c-17.3-3.06,6.56-2.89-10.23-2.7,13.82.85-11.37,1.97,4.1,3.05-7.53.37-15.13.58-22.88.43-33.44-.65,47.48-.75,14.08-.2l-17.01-.66c-2.7-1.04-5.63-1.33-8.48-.84-3.76-.16-9.88-2.34-8.63,1.83l-3.24.15c-3.74-.34-7.51-.33-11.24.04-17.23,1.17-65.07-4.77-82.67-5.64-7-.41-13.99-.79-20.53.64.11,2.34-1.53,3.91-7.78,3.64-3.19-.13-6.4-.12-9.6-.17.03.87.06,1.75.09,2.62-4.22-.13-8.67-.79-11.85.98-1.65.8-6.36.16-5.63,2.08-1.25.18-2.47.51-3.63,1l-7.49-.24c-5.26-.69-13.88-1.96-22.86-3.23-16.72-2.37-34.69-4.74-34.47-3.38.34,2.08,6.17,1.2,9.55,1.67.18.09.38.14.56.22-1.1.11-1.97.45-1.62,1.11,2.69,5.11-5.5,3.55-10.09,3.74-7.01.29-11.94,1.43-12.74,5.12,8.71,1.03,18.46-.86,26.3,2.64.1.07.21.14.31.2-.72.11-1.44.26-2.15.44-2.54,2.61-1.96,4.67.19,6.45-1.52-.35-3.15-.87-4.54-1.13-4.93-.95-7.24-4.08-14.86-3.38,9.65.8.18,5.76,9.25,6.68-2.53.41-5.11.51-7.66.31-3.46-.13-6.89-.27-9.61,1.02-.93,0-1.87,0-2.8-.02-1.92-.04-3.85-.09-5.77-.13-3.38,1.62,24.3,7.07,19.36,6.83-7-.25-14.02.19-20.93,1.32-5.12.75,10.32,5.25,5.09,5.19-8.71.89,14.89,8.98,15.76,13.69.3,1.66-1.99,2.61-4.67,3.47-1.82.62-2.56,1.76-5.09,2.04-1.03.03-2.04.24-3,.6-.58.48-1.22.88-1.9,1.18-5.61,1.7-10.63,3.52-7.22,7.13.58.17,1.1.28,1.61.38-.08.05-.17.09-.25.13-3.98,1.38-8.46,1.16-12.93.95-2.39-.16-4.78-.19-7.18-.09.42,2.58,4.1,3.54,9.4,4,3.47.3,9.77-.48,7.46,2.95-.52.78,1.83,1,3.01.86,9.47-1.07,19.67-.06,29.08-1.25.94,0,1.88-.13,2.79-.42l4.95.14c-.63.42-.77.81-.22,1.14l7.17.2,6.39,1.21c3.69,1.24,8.17,1.04,12.56,1.14,1.73.52,3.5.93,5.28,1.24-7.84,1.6,1.34,8.26-10.4,8.71,8.35,1.3,12.04-1.57,16.91-3.13,3.89.33,6.5,1.49,4.86,5.35-10.4,3.16-19.6,6.93-25.26,12.52-10.77-.17-11.53,4.58-15.29,7.85h-1.82l-1.79.29c-6.57-.09-12.06,1.85-18.07,2.82,4.28,2.31,9.81,1,14.9.97,1.19.06,2.38,0,3.56-.17,1.16.18,2.33.26,3.5.25,5.64,3.9,16.97,1.42,23.08,4.78-1.52.58-4.38,1.22-4.34,1.73.4,5.38-7.62,6.49-16.46,7.45,3.85,2.02,6.47,5.81,6.99,10.13l7.78,3.35c.59.04,1.18.13,1.76.26,7.06,2.21-4.62,5.19.8,8.11,2.7,1.45,6.89,4.6,2.04,7.61-.76,1.83-2.31,3.21-4.21,3.75-.17.58-.31,1.16-.51,1.76-1.26-.41-2.62-.43-3.89-.06-4.98,2.91-9.82,5.88-14.98,8.72-9.32,5.12-8.39,8.18,3.77,11.36,1.62.42,3.32.77,4.99,1.16,2.79-.03,5.58.2,8.33.71,3.29.64,6.66.84,10.01.58,3.7.87,7.5,1.32,11.3,1.35,6.68,0,12.53-1.68,16.78-5.45,3.01-2.67,6.59-2.32,10.67-2.83,12.85-1.32,25.78-1.83,38.69-1.52,5.66.02,11.33.03,16.99-.09,9.91,3.14,21.05,1.16,31.35.57,13.49-.77,27.54-1.23,39.62-5.73,5.9-2.2,15.42-2.99,19.97-1.89,13.39,3.24,25.8.66,38.14-1.07-30.36-.56-51.63-1.34-41-2.15l22.75-.76c0-.63-.03-1.26-.07-1.89,6.72-2.2,14.17-2.3,21.65-2.51,18.61-.53-36.24-1.7-17.65-2.43,7.32-.29,15.02.02,21.57-2.52l30.31-2.25c2.53,3.89,7.97,3.52,13.42,3.14,1.99-.17,3.98-.24,5.97-.19,1.26.04,2.52.02,3.77-.07,27.38-1.45-51.17,2.75-23.77-.52,5.89-.49,11.81-.45,17.69.12,5.21.45,10.45.57,15.68.36,10.06-.61,19.91-1.21,28.09-4.82l-10.13.3-.31-3.72,8.17-.67,20.27.79c3.13.59,6.36.13,9.19-1.32l10.78-.3c1.14.38,2.33.57,3.53.55,12.39,1.71,25.79.11,38.26,1.65,1.55.19,4.64-.17,3.94-1.32-3.08-5.14,5.21-4.01,9.78-4.5,6.97-.74,11.8-2.21,12.32-6.08-3.15-.12-6.3-.06-9.44.2M101.15,33.39c-.84-.09-1.69-.17-2.52-.28,2.82-.37,3.04-.13,2.52.28"/>
          <path id="_パス_4978" data-name="パス 4978" class="cls-4" d="m374.47,23.52c13.31,1.78,26.85,1.66,40.58,1.5-30.08-1.9-51.09-2.91-40.58-1.5"/>
        </g>
      </g>
    </g>
    <g id="_グループ_51985" data-name="グループ 51985">
      <g class="cls-5">
        <g id="_グループ_2093" data-name="グループ 2093">
          <path id="_パス_3934" data-name="パス 3934" class="cls-4" d="m144.14,206.75c-2.58.24-5.18.05-7.7-.54-2.1-.46-4.25-.68-6.4-.65-1.28-.35-2.6-.68-3.84-1.07-9.36-2.94-10.08-5.77-2.9-10.49,3.97-2.61,7.69-5.36,11.52-8.05.97-.34,2.04-.32,2.99.06.15-.55.25-1.09.39-1.63,1.55-.6,2.74-1.87,3.24-3.46,3.73-2.78.51-5.69-1.57-7.03-4.18-2.7,4.81-5.45-.62-7.49-.44-.12-.89-.2-1.35-.24l-6-3.1c-.29-3.77-2.27-7.21-5.38-9.36,6.8-.88,12.98-1.92,12.66-6.88-.03-.48,2.17-1.07,3.34-1.61-.47-.31-.98-.56-1.5-.77-1.37.08-2.75,0-4.11-.24.8-.02,1.6-.12,2.38-.29-4.78-1.13-11.07-.22-14.53-3.11-.9.02-1.81-.06-2.7-.22-.9.17-1.82.23-2.74.17-3.92.02-8.17,1.23-11.46-.89,4.62-.89,8.85-2.68,13.9-2.6l1.38-.27h1.4c.84-.96,1.61-1.96,2.32-3.02l-.58-.12-5.52-.17c-2.35-1.54,11.35-4.53,17.63-6.12.4-.37.81-.72,1.24-1.07-6.69-.22-13.34-1.16-19.83-2.82-5.12-1.21,10.83-5.79,5.54-6.01-7.78-1.43,10.82-8.3,15.82-13.81-2.88-.03-5.75-.05-8.63-.07-2.24,1.07-4.85,1.01-7.03-.16l-6.28-.22c-.68.26-1.41.39-2.14.38-7.24,1.1-15.08.16-22.37,1.15-.9.12-2.72-.09-2.31-.8,1.78-3.17-3.07-2.44-5.74-2.72-4.07-.42-6.9-1.32-7.23-3.69,1.84-.09,3.68-.06,5.52.09,3.34.46,6.74.16,9.95-.88.06-.04.13-.08.19-.12-.42-.09-.83-.21-1.24-.35-2.62-3.33,1.24-5.02,5.56-6.59.54-.29,1.03-.66,1.46-1.09.73-.33,1.51-.52,2.31-.56,1.94-.26,2.52-1.31,3.91-1.88,2.07-.79,3.83-1.67,3.6-3.2-.3-1-.91-1.88-1.73-2.52-2.16.03-4.32-.07-6.46-.3.27-1.27,1.13-2.33,2.31-2.86-4.9-3.32-10.43-6.44-6.24-6.96,4.03.06-7.86-4.1-3.91-4.79,5.3-1.04,10.71-1.44,16.1-1.21,3.81.22-17.49-4.81-14.89-6.31l4.44.12c.72,0,1.44.01,2.15.02,2.33-.99,4.89-1.31,7.39-.94,1.97.19,3.95.09,5.89-.28-6.97-.86.31-5.44-7.12-6.17,5.87-.65,7.64,2.25,11.43,3.11,2.29.53,5.44,2.12,6.78,1.01s5.88-2.75.95-4.75c-2.17-.88-.97-1.43,1.08-1.94,1.73-.54,3.4-1.22,5.02-2.04,1.21-1.22,2.79-2,4.5-2.22l-.06,2.15c.09,0,.17,0,.26,0,2.37-1.33,8.73-.88,6.6-4.21l-2.46-1.26c-1.4-.02-2.77-.41-3.98-1.13-1.55.44-3.21.31-4.67-.37l-4.45-.12c-1.2.06-.49-.42.19-.9.91-.64,1.78-1.28-1.88-.65-1.72.27-3.49-.06-4.99-.95-2.59-.43-7.08.37-7.34-1.54-.17-1.26,13.65.93,26.51,3.11,10.28,1.75,19.96,3.51,21.38,3.5,1.67.09,3.33-.26,4.81-1.03-.86-2,2.96-1.33,4.27-2.1,2.44-1.63,5.87-1.03,9.11-.9-.02-.81-.05-1.61-.07-2.42,2.46.05,4.93.03,7.39.16,4.81.24,6.07-1.2,5.99-3.36,5.2-1.05,10.53-1.25,15.79-.59,13.54.8,50.34,6.29,63.59,5.21,2.87-.34,5.77-.35,8.65-.03l2.49-.14c-.96-3.85,3.74-1.83,6.64-1.69,2.2-.45,4.49-.17,6.52.78l13.09.61c25.69-.51,51.45.09,77.17.69,16.8.39,32.67-1.84,49.02-2.64,9.08-.44,18.02-1.38,27.03-2.11,4.56-.05,8.8-1.18,13.47-.83,11.13-1.65,22.25-3.31,33.38-4.97,16.85-1.79,33.33-1.69,48.75,3.72.72.41,1.44.81,2.18,1.24,4.35,1.45,7.96,3.21,8.77,6.05,2.77.79,4.14,2.03,4.35,3.65,6.66,4.39,12.52,9.01,15.13,14.52,4.47,2.68,9.41,5.16,12.84,8.29-.69.02-1.42.02-2.15.02-3.75,0-7.5,0-6.09,3.4,3.43,1,6.75,2.34,9.91,3.99,3.89.37,7.32,1.79,11.33,1.89,1.26.39,2.54.76,3.76,1.18,6.27,2.17,8.5,4.04,6.9,6.19,1.53.33,3.04.7,4.61.96-2.07.88-4.36,1.14-6.57.74-.86.55-1.76,1.05-2.68,1.5-3.89,1.93-7.58,3.98-11.33,5.97,2.12.57,4.28.93,6.47,1.1-2.28,1.31-3.79,3.64-4.05,6.26-1.51.69-3.02,1.39-4.53,2.09-.35.03-.7.08-1.04.16-.21.07-.41.15-.61.25.85.08,1.68.25,2.49.52l4.97.81,5.52-.22c2.03,1.31-6.87,4.55-13.48,6.91l5.08,2.73.02.15c3.42.33,6.75.87,10.05,1.51,2.9.56-.69,2.8-3.5,4.64.57.34,1.15.67,1.73,1,5.47,3.11,4.94,4.99-2.16,6.99-.95.26-1.94.49-2.91.73-.25,0-.49-.01-.74,0-1.04.82-2.17,1.69-3.33,2.58,2.37.2,4.64,1.02,6.59,2.38.9.04,1.8.17,2.68.37.91-.09,1.83-.08,2.74.03,1.02.06,2.08.05,3.13.04,2.96-.02,5.93-.05,8.26,1.48-4.67.48-9,1.79-14.03,1.38l-1.39.15-1.39-.1c-3.07,2.47-3.92,6.27-12.18,5.61-.88.79-1.82,1.52-2.81,2.17.98.67,2.04,1.24,3.14,1.68,1.85.85,2.61,2.42,5.16,2.79,1.06.05,2.1.33,3.04.81.56.64,1.21,1.19,1.93,1.63,5.69,2.33,10.79,4.82,7.37,9.85-.53.22-1.07.4-1.62.55.08.06.17.11.25.17,4.04,1.89,8.56,1.56,13.09,1.23,2.41-.23,4.84-.29,7.27-.17-.41,3.58-4.12,4.94-9.48,5.62-3.51.44-9.89-.6-7.52,4.15.53,1.07-1.84,1.4-3.03,1.22-9.59-1.42-19.9.06-29.43-1.52-.93.01-1.85-.16-2.71-.51l-8.29.28c-2.1,1.33-4.65,1.77-7.07,1.22l-8.53-.4c-3.82.87-7.56,2.09-11.15,3.65l5.84-.21c-2.67,1.36-5.51,2.34-8.45,2.92-1.38,1.47-3.22,2.42-5.21,2.7-1.3,3.7-6.18,5.74-12.02,7.32-1.01.5-1.99.98-2.97,1.46-20.69,5.95-42.33,4.84-64.31,1.17l-43.4-9.09c-2.8,0-5.6-.26-8.35-.78l-38.48,1.51c-5.04,2.34-10.96,2.06-16.59,2.33-14.31.68-28.63,1.17-42.95,1.67-5.76.2-11.49.29-16.66,2.32.03.58.05,1.16.05,1.75l-17.5.69c-8.17.75,8.19,1.46,31.54,1.98-9.5,1.6-19.05,3.98-29.34.99-3.5-1.01-10.82-.29-15.36,1.74-9.29,4.16-20.1,4.59-30.48,5.29-7.92.54-16.49,2.37-24.11-.52-4.36.11-8.72.1-13.07.08-9.94-.29-19.89.18-29.77,1.4-3.14.47-5.88.14-8.21,2.61-3.39,3.43-8.08,5.26-12.9,5.03-2.95-.04-5.88-.47-8.71-1.29m193.26-14.22l1.43-.73c-7.89-.11-15.63-.25-22.71-.41,2-.35,4-.64,6.01-.85,7.68-.8,15.32-1.58,23.05-1.97l-6.34,3.23c12.96.19,26.33.32,37.95.37l-.75.07c-7.63.67-15.34,1.33-23.15,1.33-5.18.03-10.35-.32-15.47-1.04m48.47-.35c-2.87,0-5.92,0-9.1-.02,10.55-.92,20.95-1.8,31.28-.87,7.02.63-4.03.89-22.08.89h-.11Z"/>
        </g>
      </g>
    </g>
    <g id="_グループ_51991" data-name="グループ 51991">
      <g class="cls-1">
        <g id="_グループ_3858" data-name="グループ 3858">
          <path id="_パス_4964" data-name="パス 4964" class="cls-4" d="m562.1,47.68c.16-.59.16-.75,0,0"/>
          <path id="_パス_4965" data-name="パス 4965" class="cls-4" d="m746.99,151.15c-2.82.29-5.65.59-8.16-.87-.05-.05-.11-.09-.16-.14.35-.12.69-.27,1.02-.44,2.16-3.99-1.02-5.92-4.56-7.71-.46-.36-.87-.78-1.2-1.27-.57-.37-1.22-.59-1.9-.62-1.6-.27-2.07-1.51-3.21-2.16-1.69-.9-3.14-1.92-2.95-3.73.55-5.16,15.47-14.33,9.96-15.19-3.3.14,6.46-4.99,3.22-5.74-4.31-1.13-8.78-1.52-13.23-1.16-3.12.33,14.37-6.01,12.23-7.73l-3.44.21-3.1-.6c-1.6-.5-3.29-.6-4.94-.32-1.61.26-3.26.18-4.84-.23,5.73-1.13-.25-6.43,5.85-7.44-4.82-.67-6.28,2.79-9.4,3.9-.94.33-2.05.98-3.07,1.38-.8-.81-1.36-1.82-1.63-2.92-.2-1.48.85-2.47,2.08-3.39.84-.66,1.15-1.73,2.33-2.12.52-.11,1-.35,1.4-.71.23-.43.51-.82.85-1.17,2.58-1.84,4.89-3.77,3.15-6.84-.25-.11-.51-.2-.77-.27.04-.04.08-.08.11-.13,2.82-2.25,6.32-1.14,9.46-1.85-.29-2.31-2.06-2.98-4.58-3.11-.39,0-.77,0-1.16.04-1.56.12-3.24.24-2.47-2.32.22-.73-.9-.8-1.45-.62-4.43,1.48-9.28,1.1-13.68,2.68-.47.05-.92.23-1.3.52l-3.86.23c-1.22-.94-2.93-.88-4.09.13-2.84-.66-5.73-1.02-8.64-1.09l.22-.41,2.67-.2c-.95-.56-1.99-.97-3.06-1.22,4.17-1.93,10.17-4.7,8.87-5.75l-3.44.21-3.1-.6c-1.6-.49-3.29-.6-4.94-.32-1.61.26-3.26.18-4.84-.23,5.73-1.13-.25-6.43,5.85-7.44-4.82-.67-6.28,2.79-9.4,3.9-1.89.67-4.47,2.6-5.57,1.31s-4.84-3.16-.78-5.61c1.78-1.08.8-1.71-.89-2.28-1.45-.63-2.83-1.41-4.12-2.33-.84-1.31-2.17-2.23-3.7-2.55l.04,2.55-.14.08c-1.86-1.59-7.13-.91-5.56-4.78l2.25-1.71c1.16-.1,2.26-.59,3.11-1.38,1.1.45,2.35.36,3.37-.24l3.69-.54c1.56.24.91-.39.28-1.02-.75-.75-1.46-1.49,1.55-.8,1.48.27,3-.18,4.1-1.21,2.13-.56,5.82.31,6.03-1.95.25-2.68-36.73,8.64-39.36,8.66-1.4.12-2.79-.27-3.92-1.1-.02-.02-.03-.05-.02-.08.66-2.32-2.45-1.48-3.53-2.36-2.01-1.89-4.82-1.11-7.49-.91.02-.96.04-1.91.06-2.87-2.02.1-4.05.12-6.07.32-3.95.37-4.99-1.32-4.91-3.88-4.13-1.48-8.55-.97-12.98-.43-11.11,1.2-39.47,10.16-50.36,9.11-1.5-.15-2.63,1.26-3.88,2.44-1.35-.12-2.71-.24-4.06-.35-.91-1.41-1.99-2.69-3.23-3.82.06-.38.12-.67.16-.89-.27,1.11-1.02,3.66-2.2,4.36h-.24c-7.45-.38-14.81-1.34-22.21-2.04-1.56-.03-3.11-.17-4.64-.43-2.12-.4-4.28-.51-6.43-.31l-27.41-5.31c-13.84-1.84-27.38-1.43-40.05,5.25l-1.79,1.5c-3.58,1.8-6.54,3.94-7.21,7.34-1.95.64-3.35,2.35-3.58,4.39-5.47,5.32-13.05,5.25-15.2,11.83-3.68,3.25-7.73,6.28-10.55,10.04.57.02,1.17,0,1.77,0,3.08-.07,6.16-.13,5,3.92-2.38,1.08-4.65,2.38-6.8,3.87h-.16c-.59.31-1.19.6-1.76.93-2.7,1.56-3.79,2.87-3.36,4.3l-.11.16c-.97-.01-1.57-.05-1.93-.09.42.17.86.61.11,1.61-.03,0,1.54.25,3.71.59l.22.19c-.7,1.54-1.85,2.84-3.29,3.73,2.05,1.65-11.92,2.83-9.47,2.77.58.04,1.15-.01,1.71-.15.55.13,1.12.18,1.68.16,2.69,2.81,8.15.93,11.07,3.34-.74.43-2.11.92-2.1,1.29.17,3.91-3.69,4.77-7.94,5.52,2.03,1.91,3.22,4.55,3.32,7.34l3.71,2.41c.29.03.57.08.84.17,3.38,1.57-2.25,3.81.35,5.9.85.64,1.51,1.51,1.9,2.5-.18.05-.35.11-.52.17-.43-.06-.86-.04-1.28.05-1.82.21-3.84-.33-5.32,1.24,2.18.31,4.2,1.24,6.56.9l.17.02c-.17.23-.35.45-.56.64-.25,1.17-1,2.17-2.04,2.76-.09.43-.15.85-.25,1.29-.59-.29-1.27-.3-1.87-.02-2.4,2.15,5,6.87,5,6.87,0,0-10.83,1.97-5,4.21.78.3,9.81,1.85,10.61,2.12,1.59.16,3.07.9,4.15,2.08,1.43,1.16,2.87,2.33,4.5,2.04.49.17.86.3,1.15.41-1.47-.57-2.21-2.23-1.64-3.7.12-.3.28-.57.49-.82l.09-.12c1.57,1.34,3.27,2.57,4.88,3.88,1.82,5.22,5.59,9.34,9.85,13.18.16,1.57,1.29,2.87,2.81,3.27.09.43.24.85.42,1.24-1.99,1.8-3.97,3.62-6.06,5.36-4.5,3.78-4.06,6,1.77,8.25.78.3,1.6.55,2.4.81,1.35-.04,2.7.12,4,.47,1.56.45,3.19.57,4.8.37,1.69.6,3.47.92,5.27.95,3.25.1,6.34-1.43,8.25-4.07,1.46-1.96,3.17-1.73,5.14-2.12,8.92-1.78,17.85-1.1,26.76-1.51,4.75,2.23,10.11.72,15.06.23,6.49-.64,13.24-1.06,19.06-4.41,2.92-1.62,6.32-2.15,9.6-1.49,6.42,2.28,12.4.32,18.34-1.01-14.59-.22-24.8-.66-19.69-1.31,3.64-.23,7.29-.46,10.93-.69,0-.46,0-.92-.02-1.38,3.3-1.37,6.84-2.04,10.41-1.96,8.95-.5,17.89-1.01,26.84-1.65,3.52-.25,7.22-.08,10.38-1.97l34.24-2.12c1.21,2.82,3.82,2.51,6.44,2.21.95-.14,1.91-.2,2.87-.17.6.02,1.2,0,1.8-.08,13.17-1.21,26.37-.89,39.55-3.43,2.82-.39,5.67-.4,8.49-.02,2.5.3,5.03.36,7.54.17,4.84-.51,9.57-1.01,13.52-3.68l-4.87.28-.13-2.7c1.31-.18,2.62-.36,3.93-.54l9.73.46c1.55.4,3.2.02,4.42-1.02l5.18-.29c.52.26,1.11.39,1.69.38,3.12.5,6.27.68,9.43.53,2.99-.13,5.99.02,8.95.44.74.13,2.23-.15,1.9-.99-1.46-3.72,2.52-2.95,4.72-3.33,3.35-.57,5.68-1.68,5.95-4.5-1.52-.07-3.04,0-4.54.2m-217.1-96.92c-12.55-.02-8.72-.15,1.22-.28l-1.22.28Zm18.65,0c-.22-.09-.42-.24-.56-.43h1.61c-.32.2-.68.35-1.05.44m33.04.07c-6.66.28-13.33.09-19.97-.57h5.5c13.32,0,22.44.14,14.47.58"/>
          <path id="_パス_4968" data-name="パス 4968" class="cls-4" d="m395.93,97.41c-.45-.17-.85-.08,0,0"/>
          <path id="_パス_4970" data-name="パス 4970" class="cls-4" d="m581.96,178.45l4.44-2.59c-5.39.37-10.73,1.04-16.08,1.73-1.4.18-2.8.43-4.2.71,4.95.07,10.34.12,15.84.15l-1,.58c3.26.48,6.56.72,9.86.7,5.7-.1,11.4-.51,17.06-1.24l.54-.06c-8.1.05-17.43.06-26.46,0"/>
          <path id="_パス_4971" data-name="パス 4971" class="cls-4" d="m630.22,177.51h0c-7.28-.41-14.59-.1-21.81.93,16.19-.11,27.49-.42,21.81-.93"/>
          <path id="_パス_4972" data-name="パス 4972" class="cls-4" d="m419.56,159.56c.24.13.49.24.75.31.05,0-.15-.1-.75-.31"/>
        </g>
      </g>
    </g>
    <g id="_グループ_1918" data-name="グループ 1918">
      <g id="_グループ_286" data-name="グループ 286">
        <path id="_パス_25775" data-name="パス 25775" class="cls-3" d="m238.9,90.62c0,8.72,3.16,15.04,13.19,23.87,7.85,6.87,10.25,11.01,10.25,16.57s-2.4,7.41-6.21,7.41-6.21-1.97-6.21-7.42v-5.45h-11.33v4.69c0,12.21,6.1,19.18,17.87,19.18s17.87-6.97,17.87-19.18c0-8.72-3.16-15.04-13.19-23.87-7.85-6.87-10.25-11.01-10.25-16.57s2.18-7.52,5.99-7.52,5.99,2.08,5.99,7.52v3.16h11.33v-2.4c0-12.21-5.99-19.18-17.66-19.18s-17.66,6.98-17.66,19.19Zm52.21-.76c0-5.45,2.4-7.52,6.21-7.52s6.22,2.07,6.22,7.52v41.2c0,5.45-2.4,7.51-6.22,7.51s-6.21-2.08-6.21-7.52v-41.19Zm-11.99,40.44c0,12.21,6.43,19.18,18.2,19.18s18.2-6.97,18.2-19.18v-39.67c0-12.21-6.43-19.18-18.2-19.18s-18.2,6.98-18.2,19.18v39.67Zm66.48-10.14v10.9c0,5.45-2.4,7.41-6.21,7.41s-6.21-1.96-6.21-7.41v-41.2c0-5.45,2.4-7.52,6.21-7.52s6.21,2.08,6.21,7.52v8.17h11.33v-7.41c0-12.21-6.1-19.18-17.87-19.18s-17.88,6.98-17.88,19.18v39.67c0,12.21,6.11,19.18,17.88,19.18s17.87-6.97,17.87-19.18v-10.14h-11.33Zm17.55,28.45h11.99v-76.29h-11.99v76.29Zm46.21-76.29h-17.55l-12.21,76.29h11.01l2.08-13.84h14.71l2.08,13.84h12.1l-12.21-76.29Zm-9.48,13.51h.22l5.67,38.58h-11.55l5.67-38.58Zm26.16,62.78h31.72v-10.9h-19.72v-65.39h-11.99v76.29Z"/>
      </g>
    </g>
    <g id="_グループ_51992" data-name="グループ 51992">
      <g id="_グループ_286-2" data-name="グループ 286-2">
        <path id="_パス_25774" data-name="パス 25774" class="cls-3" d="m488.82,72.31h-16.68v76.29h10.46v-53.95h.22l8.72,53.95h11.33l8.07-54.71h.22v54.71h11.33v-76.29h-16.68l-8.07,54.17h-.22l-8.71-54.17Zm53.28,10.9h20.71v-10.9h-32.7v76.29h32.7v-10.9h-20.71v-22.34h16.46v-10.9h-16.46v-21.25Zm27.03,65.39h18.96c11.99,0,17.87-6.65,17.87-18.86v-38.58c0-12.21-5.88-18.86-17.87-18.86h-18.96v76.29Zm18.75-65.39c3.81,0,6.1,1.96,6.1,7.41v39.67c0,5.45-2.29,7.41-6.1,7.41h-6.76v-54.49h6.76Zm24.63,65.39h11.99v-76.29h-11.99v76.29Zm46.21-76.29h-17.55l-12.21,76.29h11.01l2.08-13.84h14.7l2.08,13.84h12.1l-12.21-76.29Zm-9.48,13.51h.22l5.67,38.58h-11.55l5.67-38.58Z"/>
      </g>
    </g>
  </g>
</svg>