<?xml version="1.0" encoding="utf-8"?>
<!-- Generator: Adobe Illustrator 26.3.1, SVG Export Plug-In . SVG Version: 6.00 Build 0)  -->
<svg version="1.1" xmlns="http://www.w3.org/2000/svg" xmlns:xlink="http://www.w3.org/1999/xlink" x="0px" y="0px" width="800px"
	 height="220px" viewBox="0 0 800 220" style="enable-background:new 0 0 800 220;" xml:space="preserve">
<style type="text/css">
	.st0{enable-background:new    ;}
	.st1{fill:#FFFFFF;}
	.st2{fill:#080808;}
	.st3{opacity:0.44;fill:#FFE73B;enable-background:new    ;}
	.st4{opacity:0.44;fill:#0000FF;enable-background:new    ;}
	.st5{display:none;opacity:0.21;}
	.st6{display:inline;fill:#080808;}
	.st7{display:inline;}
	.st8{display:none;}
	.st9{clip-path:url(#SVGID_00000083067422103989342030000006448935168301930889_);}
	.st10{clip-path:url(#SVGID_00000127755584886403349200000000456681529952532099_);}
	.st11{clip-path:url(#SVGID_00000173855746944074025430000000151074833032088970_);}
	.st12{clip-path:url(#SVGID_00000117642099487490007960000014919176544177623195_);}
	.st13{opacity:0.44;fill:#FF39AF;enable-background:new    ;}
</style>
<g id="レイヤー_1">
</g>
<g id="レイヤー_2">
	<g id="_x2F_top-story-sp" transform="translate(-37.008 -1899.137)">
		<g id="グループ_2125" transform="translate(37.008 1899.137)">
			<g>
				<defs>
					
						<rect id="SVGID_00000065760424451451086250000012732987072995759006_" x="49" y="38.2566071" width="447.5657349" height="146.6076813"/>
				</defs>
				<clipPath id="SVGID_00000036250793701255676770000015250280517847042983_">
					<use xlink:href="#SVGID_00000065760424451451086250000012732987072995759006_"  style="overflow:visible;"/>
				</clipPath>
				<g id="グループ_2125-2" style="clip-path:url(#SVGID_00000036250793701255676770000015250280517847042983_);">
					<path id="パス_3955" class="st2" d="M483.7111206,76.1460495c-2.0606995-0.1388855-5.7260742,0.9299927-4.5633545-2.5841599
						c0.2622986-0.792366-1.1367188-0.9064484-1.8196716-0.7192001c-5.5133362,1.5003967-11.5796814,0.9696732-17.0493164,2.5816803
						c-0.5730896,0.0432587-1.1280518,0.2294617-1.6187744,0.5431137l-4.8173828,0.1525192
						c-1.6647339-1.1333694-3.8312683-1.033783-5.3952026,0.2480011l-8.3692932,0.5580063
						c-1.1343689-0.0396805-2.2710571-0.0768814-3.4100952-0.1116028c0.5088806-0.8382416,1.0209351-1.6748276,1.5360718-2.509758
						l3.3321228-0.1463242c-3.8130188-2.059639-8.2428589-2.0745163-12.7731018-2.0869217
						c-5.1316833-0.0111542-10.1842041,2.0385666-14.910614,1.6244049
						c-12.3985596-1.0874863-24.6718445,0.4377213-36.9841003,0.551796
						c-0.5652161-0.0121994-1.1304932,0.0209656-1.6908875,0.0991974c-3.0839539,0.4761658-7.2231445-0.9609985-8.5571594,2.7056808
						l-31.9717712,1.2400055c-3.0367126-1.4173203-6.4716187-0.9176025-9.7576599-0.8221207
						c-8.3562927,0.2480011-16.7102051,0.6138-25.0605774,0.9919968c-3.3580933,0.1488037-6.6996765,0.3720016-9.7954712-0.8134384
						c-0.0094299-0.4166412-0.026001-0.8345184-0.0508118-1.2511597l-10.2090149,0.3918381
						c-13.399353-0.3348007-26.8637085-1.0044022-40.0917358,1.6231613
						c-13.250473,2.6362381-27.0870209-1.0738373-41.1551666,2.7081604l4.699234,2.4341202
						c-4.5160828,0.1240005-8.9943542-0.0557938-13.4974365-0.2368393
						c-6.7493134-0.2715607-13.5588684-2.7428818-20.6484833,0.4811172
						c-1.9886322,0.9039612-6.2813873,0.7576447-9.0132599-0.4662399
						c-5.593689-2.5023193-11.8987122-2.2605209-17.9721527-2.2381973
						c-4.6318665,0.0161209-9.6997528-0.858078-14.0031433,1.6033173
						c-8.3208389,0.4625244-16.5896912,1.9046402-24.9908752,1.1160049
						c-1.8480225-0.1735992-3.4325485,0.1996384-4.8918304-1.450798c-3.1595993-3.5650024-7.7985687-3.7373581-12.7494736-1.5884399
						c-2.95401-0.2231979-5.2923965,1.487999-8.1530533,1.5723267c-0.7302322,0.3174362-1.4769974,0.6199951-2.1847839,0.9597549
						c-5.3089294,2.5779572-5.5996094,4.6338806-1.2158661,7.6470795c2.4281921,1.673996,4.7157745,3.447197,7.0671616,5.1745224
						c0.5806351,0.1955566,1.2129135,0.1253281,1.7416763-0.1934433c0.1122513,0.3868866,0.1937866,0.7663269,0.2989426,1.1432877
						c0.977417,0.4106598,1.7271194,1.260704,2.0418091,2.3150787c2.2970352,1.7992401,0.5529861,4.039917-0.5908051,5.1038437
						c-2.307663,2.1402359,3.043808,3.6517944-0.0212708,5.3865509c-0.2502213,0.1067047-0.5098495,0.1872787-0.7751236,0.2405624
						l-3.3403854,2.5196838c0.0325394,2.6105042-0.9435883,5.1235809-2.7058716,6.9663162
						c3.9938126,0.2852097,7.628418,0.7068024,7.6804123,4.2755203c0,0.3422394,1.3115768,0.6534805,2.0205383,0.978363
						c-2.5995255,2.4552002-7.7725754,1.2623138-10.128685,4.060997c-0.5285797,0.0352173-1.0513306,0.1359406-1.5573578,0.3000793
						c-0.5322647-0.0733948-1.0717773-0.0667114-1.6022491,0.0198364c-2.2793045,0.1810455-4.8102951-0.4625244-6.6287842,1.2276001
						c2.7294998,0.4017639,5.2675781,1.4706421,8.20504,1.1544342l0.8141251,0.1240082c0,0,0.7207794-0.0644836,0.8141251-0.0744019
						c1.8184814,2.0149994,2.3561096,5.1224365,7.1711349,4.5879974c2.764946,3.4720001,7.039978,5.6010742,11.8266449,7.2763214
						c1.5360794,4.2655945-2.8523865,3.7584381-6.0911484,4.1788025c2.8228378,3.1508331,6.7540283,5.5242004,10.3460999,8.1356354
						c2.3395691,5.7684784,7.1179657,10.3787994,12.4907074,14.6952362c0.268219,1.717392,1.3954697,2.9685516,3.5613403,3.6530304
						c0.8011322,3.0218811,3.6629715,4.6872101,7.0896149,5.9929199l1.7475815,1.1953583
						c12.1397781,4.8868408,24.7580948,4.0064392,37.5489273,1.0515289l25.2342834-7.3532104
						c3.5991516,0.0942383,6.776474-1.3726807,10.262207-1.7000427c6.853302-1.3206024,13.6415863-2.8780365,20.5598602-3.9060059
						c12.4658966-1.8513184,24.4756927-5.2017975,37.3587036-5.7932739
						c19.725647-0.9064331,39.480835-1.8141174,59.1143188-3.9059906l10.0566101-0.1401215
						c1.5422363,0.8965149,3.375946,1.0589447,5.0395508,0.4463959c2.2272949-0.0198364,5.9552612,1.8600006,4.975708-2.2183533
						l1.897644-0.3000793c2.222229,0.1684418,4.4559021-0.0197144,6.6240845-0.5579987
						c10.0849609-1.9666443,38.5970154,1.7174072,49.0092468,1.7645111
						c4.1474304,0.079361,8.2877808,0.1302032,12.0523682-1.5909119c-0.2044373-2.3188019,0.6758423-3.9506378,4.3719177-3.9779205
						c1.890564-0.0136414,3.7811584-0.1785583,5.6646118-0.2740479c-0.0708923-0.866333-0.139801-1.7343445-0.2067566-2.6039886
						c2.489624-0.0644836,5.1506042,0.3806763,6.9194336-1.5189972c0.9570923-0.900238,3.9347229-0.4141693,3.140686-2.5097656
						c1.0185852-0.8838654,2.2941589-1.3764343,3.6156921-1.3962402c2.4459229-0.2232056,37.4567871,6.6265564,37.0809937,4.2160034
						c-0.3190002-2.036087-3.703125-0.9064484-5.7165833-1.2139587c-1.1226807-0.8435822-2.5490723-1.1080322-3.8792114-0.7192078
						c-4.8445435,1.5909271,0.7349854-1.8897552-1.3907471-1.5623932l-3.408905,0.1401215
						c-1.1136475-0.6408386-2.4526062-0.6823425-3.6003418-0.1116028c-0.9103088-0.6766357-2.0083923-1.0180206-3.1229858-0.9709167
						l-1.9614563-1.2040405c-1.8456726-3.4583588,3.055603-3.3554382,4.7854614-4.9265137h0.1985168l0.0921631,2.3163147
						c1.3831482-0.4146118,2.5652466-1.3636475,3.3084717-2.6560822c1.1539307-0.9581604,2.3955688-1.793869,3.706665-2.494873
						c1.5431824-0.6696014,2.4258423-1.3392029,0.7089844-2.1489258c-3.9087524-1.8500824-0.5317383-3.8997955,0.425354-5.1621246
						s3.4656372,0.2480011,5.2545776,0.6782684c2.9622498,0.7117615,4.4983521,3.7200012,8.9506226,2.6660156
						c-5.7319641-0.3447266-0.4430847-5.7040024-5.8335571-6.2000046c3.2151489-1.4260025,7.4169006,0.3347931,10.0932312-2.1203995
						c0.5514526-0.0380249,1.1027832-0.0752258,1.6542358-0.1115952l3.4030151-0.1339264
						c1.9023438-1.7620316-14.7145081-5.8924789-11.7912292-5.8825607c4.1723633-0.08461,8.306427-0.8540421,12.2520142-2.2803574
						c2.9776306-0.9808426-6.3806152-4.7368011-3.2966614-4.9104004c5.0808716-1.2945557-9.2909546-8.2274017-10.0719604-12.8625183
						c-0.2753296-1.629364,1.0244446-2.6846008,2.5522766-3.6592407c1.0350647-0.7043228,1.4072876-1.8674393,2.8783875-2.2617645
						c0.6264954-0.0930557,1.2216797-0.3459702,1.7333984-0.736557c0.2862549-0.4749451,0.640564-0.9007263,1.0504456-1.2623291
						c3.2033386-1.9517593,6.0616455-3.997757,3.84021-7.4151993c-0.3161926-0.1262665-0.6403503-0.2294312-0.9700928-0.308754
						c0.0448914-0.0471191,0.0945129-0.0930023,0.1382446-0.1388855c3.4892578-2.3956757,7.8848267-1.0887146,11.7911987-1.7855988
						c-0.3934937-2.5432358-2.6148987-3.3269196-5.7662048-3.5389557"/>
					<path id="パス_3956" class="st2" d="M49.3072166,42.3262863c2.5782547-0.0595207,7.0825157,1.5450401,5.8430176-3.0999985
						c-0.2788582-1.0465622,1.4710922-1.1160011,2.3123932-0.8295631
						c6.7800255,2.2803612,14.3753624,1.9443207,21.0998573,4.3635597c0.7391281,0.0936508,1.4429779,0.3848381,2.0441666,0.8456802
						l5.9410934,0.4340019c1.4698334-0.915226,3.2487259-1.1061249,4.8646545-0.5220413l10.2799301,2.3560028
						c1.9354706,0.0198402,3.8736801,0.0413322,5.8146591,0.0644798l0.1536102-3.2078819
						c-1.8850479-0.1769066-3.7708817-0.3525734-5.6575089-0.5270004
						c4.8800125-2.4490013,10.4028168-2.2109184,16.0496902-1.9629211c6.3983765,0.285202,12.5746002,3.2475624,18.4908905,2.98592
						c15.5203247-0.6869583,30.7216339,2.0088005,46.0706329,2.884243c0.7052155,0.0149994,1.4081421,0.089222,2.102066,0.2219582
						c3.8201141,0.8010406,9.0617065-0.8283195,10.5044403,4.017601l39.7809601,3.4930801
						c3.869751-1.6640816,8.1235199-0.814682,12.2142334-0.4960022c10.3981018,0.8084831,20.7961731,1.7793999,31.1824646,2.7528038
						c4.1757507,0.3905983,8.3243713,0.879158,12.2590942-0.4823608c0.0366516-0.5431213,0.0827332-1.0837593,0.1358948-1.6268806
						l12.7092896,1.1085587c16.7267761,0.3496819-105.3113708-18.3222389-88.9816589-14.1248398
						c16.3592682,4.2060814,33.8316193,0.1909599,51.1397095,5.934639l-6.0013428,2.8916817
						c5.6208801,0.417881,11.2122192,0.4550781,16.8389893,0.4823608
						c8.4295654,0.0409203,17.0658569-2.7751198,25.7104797,1.8352013
						c2.4246521,1.2920799,7.7843933,1.3516006,11.2642212-0.0806007
						c7.1250305-2.9263992,14.9673462-2.2431602,22.5319519-1.8600006
						c5.7744751,0.2926407,12.1445007-0.5493202,17.3612671,2.9015999
						c10.3449402,1.0874825,20.559845,3.4509201,31.0761108,2.916481c2.315918-0.1240005,4.2679443,0.460041,6.1868591-1.5971184
						c4.1474304-4.4528427,9.9479065-4.40448,15.9870605-1.3193626c3.6983948-0.1177979,6.5082397,2.2444,10.0660706,2.5209198
						c0.8909302,0.4575615,1.8078308,0.8928032,2.6657104,1.3776398c6.4645386,3.6654396,6.6996765,6.3611984,1.0575256,10.0204391
						c-3.1253357,2.0274048-6.0840759,4.2060852-9.1184387,6.3153229c-0.7336426,0.2221909-1.5233765,0.0928421-2.1575928-0.3534012
						c-0.1654358,0.4960022-0.2894897,0.9919968-0.4431152,1.4706421c-1.2602844,0.4980316-2.2441101,1.5586548-2.6846008,2.8941574
						c-2.9705505,2.203476-0.9299011,5.2216415,0.434845,6.6724396c2.7496033,2.9201965-4.0174255,4.5755997-0.2953796,7.0097198
						c0.3063965,0.1534653,0.6271362,0.27314,0.9570923,0.3571167c1.3391724,1.1573334,2.6782837,2.3146667,4.0174255,3.4720001
						c-0.2064514,3.3612518,0.8544922,6.672966,2.95401,9.2206421c-4.9981995,0.1388779-9.552063,0.4736786-9.8250122,5.1125183
						c-0.0248108,0.4464035-1.6743164,0.7737656-2.5699768,1.1556778c3.0887146,3.3480072,9.6134949,2.0980835,12.3831787,5.8751221
						c0.65802,0.0766754,1.3045349,0.2382736,1.9248352,0.4811172c0.6677856-0.0636902,1.3409119-0.0218964,1.9969177,0.1240005
						c2.8358459,0.3720016,6.0261841-0.3211594,8.1884766,1.9840012c-3.4266357,0.3620834-6.6547546,1.6045609-10.2964478,1.0205231
						l-1.0232544,0.1115952l-1.0090942-0.1450806c-2.388031,2.5159607-3.2434998,6.526123-9.2164917,5.5502396
						c-3.6546631,4.3524017-9.1101379,6.8745575-15.1788635,8.7767181c-2.1729431,5.4560089,3.3321228,5.0554962,7.3436584,5.790802
						c-3.7054749,3.9332733-8.7438354,6.7914734-13.3828125,9.9782715
						c-3.2659607,7.3656158-12.0169067,5.9594421-18.9682617,11.2654114
						c-0.4371643,2.2183533-1.9141846,3.7795105-4.6578369,4.5446014c-1.1816101,3.8849182-4.8528442,5.8862762-9.1999817,7.3804779
						l-2.2450256,1.4507904c-15.4257812,5.6457214-31.1021118,3.7596893-46.870575-0.8345032l-31.018219-11.0360107
						c-4.4900818-0.0880432-8.3657227-2.1824036-12.689209-2.8123169
						c-8.4602661-2.1203918-16.8354645-4.5433655-25.4044342-6.284317
						c-15.4281769-3.137207-30.2017212-8.200119-46.2242279-9.7253265
						c-25.965683-2.4688416,103.5508118,15.8720093,59.6708679,9.1450043l-8.3361969,0.7539215
						c-1.5847626,0.4241791-3.2574921,0.3024597-4.7713013-0.3471985c-2.7743988-0.1562347-4.844574,9.101593-3.3876495,3.8563995
						c-0.7822266-0.1674042-4.2466736-7.3656006-5.03125-7.5329895c-2.8358459,0.2231903-4.9461975,4.2159882-7.6567841,3.5401917
						c-12.4540558-3.1495972-46.2655945,2.437851-59.2478485,1.8972015
						c-5.1742249-0.1413574-10.3390045-0.3174286-14.936615-2.7788391c0.3934784-3.0032654-0.6061554-5.1782379-5.2108612-5.4299469
						c-2.3525543-0.1240082-4.6968536-0.4538422-7.044693-0.6894379c0.1370544-1.1234436,0.2749176-2.2472992,0.413559-3.3715668
						c-3.1017075-0.2232056-6.4432831,0.1934357-8.5358963-2.3832855c-1.1319733-1.2164307-4.8280182-0.7749939-3.7811203-3.396347
						c0.0122986-0.0309296,0.0067978-0.0664978-0.0141754-0.0917664c-1.2005997-1.1748505-2.7524872-1.8760681-4.390831-1.9839935
						c-3.0402603-0.4290466-47.0903549,6.4269257-46.4723816,3.3132782c0.51754-2.6287994,4.6708679-0.9609985,7.200676-1.2462006
						c1.4287338-1.0294037,3.2362823-1.2917938,4.877655-0.7080383c6.2624817,2.4799957-1.5478973-3.0317993,2.321846-1.8178406
						l4.29039,0.0247955c1.2909775-0.5372467,2.7445908-0.4300385,3.9512787,0.2913971
						c1.1043777-0.7884521,2.4264984-1.1708679,3.7598572-1.0874786l2.6869583-1.4098816
						c2.5876999-4.4739227-3.7338638-4.5755997-5.7272263-6.8013992l-0.1760559,0.0620041l-0.2540436,3.0057678
						c-1.7187347-0.6390305-3.1387253-1.9450302-3.9678192-3.6493225c-1.375061-1.3089218-2.8731308-2.4680634-4.4711761-3.4596024
						c-1.8822937-0.958519-2.9445496-1.879837-0.7562256-2.8358841c4.982811-2.1786804,0.8885651-5.0430832-0.2245026-6.7406387
						c-1.1130676-1.6975632-4.3352966,0.1240005-6.593338,0.5741196c-3.7350388,0.7539215-5.8311996,4.5755997-11.3150101,2.9437637
						c7.1652298-0.1116028,0.8921051-7.3965988,7.6414185-7.7301636c-3.5518951-1.8488388-8.2712135-0.3509216-11.4946213-2.5345612
						l-3.2908859-1.0874939l-3.9560013-0.3484421c-2.2651291-2.4055939,18.6952972-6.8075943,15.051239-6.9638367
						c-5.2030907-0.355629-10.3160591-1.5995636-15.1374969-3.6828003c-3.6487846-1.450798,8.2381248-5.7895584,4.4050102-6.2000046
						c-6.2494888-1.9839935,12.072422-10.1555939,13.3237343-16.1423187
						c0.4407425-2.1080017-1.1166077-3.5538406-2.9540024-4.9104004c-1.2477722-0.9758835-1.6424255-2.5122414-3.4538193-3.1111603
						c-0.7791023-0.1600342-1.5068092-0.524807-2.1150665-1.0601997c-0.3259392-0.6299133-0.7419662-1.2036705-1.233593-1.7012787
						c-3.8768349-2.7280006-7.3117485-5.5551987-4.3447456-9.872879c0.4008331-0.145298,0.8111229-0.2600861,1.227684-0.343483
						c-0.0543556-0.0632401-0.1063461-0.1240005-0.1642456-0.1884804
						c-4.2076797-3.3194771-9.7647514-1.8761177-14.5915909-3.0119553
						C42.5508194,43.3071251,45.3677559,42.4168053,49.3072166,42.3262863"/>
				</g>
			</g>
		</g>
		<g id="グループ_270" transform="translate(135.618 1901.253)">
			<g class="st0">
				<path class="st1" d="M69.5263977,67.6344452c11.9404526,0,18.0780869,7.1421051,18.0780869,19.6414032v2.4545746H75.9988632
					v-3.2356262c0-5.5800018-2.2317581-7.7003555-6.1376343-7.7003555c-3.9058838,0-6.1382446,2.1203537-6.1382446,7.7003555
					c0,5.6914062,2.4551773,9.932106,10.4903488,16.9628067c10.2669373,9.0384445,13.5031662,15.5109024,13.5031662,24.4391403
					c0,12.4980927-6.249649,19.6401978-18.3021088,19.6401978c-12.051857,0-18.301506-7.1421051-18.301506-19.6401978v-4.7989426
					h11.6062317v5.5799942c0,5.5800018,2.4551773,7.587738,6.3610535,7.587738c3.9052734,0,6.3604507-2.0077362,6.3604507-7.587738
					c0-5.6913986-2.4551773-9.932106-10.4897461-16.9628067c-10.2669334-9.03965-13.5031662-15.5121078-13.5031662-24.4391403
					C51.4477081,74.7765503,57.5853462,67.6344452,69.5263977,67.6344452z"/>
				<path class="st1" d="M90.0608749,68.5281143h37.9422989v11.1587906h-12.8335114v66.9575806h-12.2758789V79.6869049H90.0608749
					V68.5281143z"/>
				<path class="st1" d="M131.2400208,87.2758484c0-12.4992981,6.5838623-19.6414032,18.636322-19.6414032
					s18.636322,7.1421051,18.636322,19.6414032v40.6208954c0,12.4980927-6.5838623,19.6401978-18.636322,19.6401978
					s-18.636322-7.1421051-18.636322-19.6401978V87.2758484z M143.5152893,128.6777954
					c0,5.5800018,2.4551697,7.7003632,6.3610535,7.7003632s6.3610535-2.1203613,6.3610535-7.7003632V86.4947968
					c0-5.5800018-2.4551697-7.7003555-6.3610535-7.7003555s-6.3610535,2.1203537-6.3610535,7.7003555V128.6777954z"/>
				<path class="st1" d="M200.9875946,146.6444855c-0.6696472-2.0089417-1.1158752-3.2368469-1.1158752-9.5966797v-12.2764893
					c0-7.2535172-2.4551849-9.932106-8.0345764-9.932106h-4.2407074v31.805275h-12.2758789V68.5281143h18.5249329
					c12.7221069,0,18.190094,5.9142227,18.190094,17.9666824v6.1370316c0,8.0357819-2.5665894,13.1689453-8.0345764,15.7349167
					v0.2240295c6.1376343,2.5659714,8.1465912,8.368782,8.1465912,16.515976v12.0524597
					c0,3.793869,0.1114044,6.5838623,1.3386841,9.4852753H200.9875946z M187.5964355,79.6869049v23.993515h4.7983398
					c4.575531,0,7.3655396-2.0089493,7.3655396-8.2585907v-7.6991425c0-5.5800018-1.8969421-8.0357819-6.249649-8.0357819
					H187.5964355z"/>
				<path class="st1" d="M229.4464417,120.7546387l-15.5121155-52.2265244h12.8335266l9.2624512,35.5979309h0.2234192
					l9.2624664-35.5979309h11.7170258l-15.5115051,52.2265244v25.8898468h-12.2752686V120.7546387z"/>
			</g>
		</g>
	</g>
</g>
<g id="レイヤー_3">
</g>
</svg>
