<?xml version="1.0" encoding="utf-8"?>
<!-- Generator: Adobe Illustrator 26.3.1, SVG Export Plug-In . SVG Version: 6.00 Build 0)  -->
<svg version="1.1" xmlns="http://www.w3.org/2000/svg" xmlns:xlink="http://www.w3.org/1999/xlink" x="0px" y="0px"
	 viewBox="0 0 800 220" style="enable-background:new 0 0 800 220;" xml:space="preserve">
<style type="text/css">
	.st0{enable-background:new    ;}
	.st1{fill:#FFFFFF;}
	.st2{fill:#080808;}
	.st3{opacity:0.44;fill:#FFE73B;enable-background:new    ;}
	.st4{opacity:0.44;fill:#0000FF;enable-background:new    ;}
	.st5{display:none;opacity:0.21;}
	.st6{display:inline;fill:#080808;}
	.st7{display:inline;}
	.st8{display:none;}
	.st9{clip-path:url(#SVGID_00000004543946720180598210000006651278045544962461_);}
	.st10{clip-path:url(#SVGID_00000149342950751826970170000001892029366303357361_);}
	.st11{clip-path:url(#SVGID_00000156567413313842026820000010680841181351104915_);}
	.st12{clip-path:url(#SVGID_00000046303127306261288080000012917151506218534579_);}
	.st13{opacity:0.44;fill:#FF39AF;enable-background:new    ;}
	.st14{clip-path:url(#SVGID_00000157296578895308836560000002088243034446828713_);}
	.st15{clip-path:url(#SVGID_00000114762966715804184050000018177791011020590251_);}
	.st16{clip-path:url(#SVGID_00000155105217119500643070000006104018509662172813_);}
</style>
<g id="レイヤー_1">
</g>
<g id="レイヤー_2">
	<g id="h1_00000036970293801373361370000016462693177796436384_" transform="translate(7836.879 -6971.926)">
		<path id="合体_14_00000150064392144750001740000001467279844142006178_" class="st2" d="M-7665.8813477,7183.5234375
			c-2.9213867,0.2719727-5.8666992,0.109375-8.7407227-0.4824219c-2.3959961-0.4614258-4.8344727-0.6669922-7.2739258-0.6118164
			c-1.4541016-0.3603516-2.9394531-0.6767578-4.3540039-1.0800781c-10.6074219-2.9555664-11.402832-5.8769531-3.222168-10.8520508
			c3.8432617-2.340332,7.484375-4.7700195,11.1708984-7.1821289c-1.1074219-0.9868164-1.9116211-2.2675781-2.3198242-3.6938477
			c-3.0908203-0.8422852-4.6801758-2.4570312-5.0400391-4.7070312c-7.6196289-5.5400391-14.378418-11.4692383-17.6313477-18.9936523
			c-1.425293-0.9321289-2.8886719-1.8393555-4.3447266-2.7519531c-1.3916016,0.3271484-2.6674805,1.027832-3.6904297,2.0268555
			c-3.1499023,3.0688477,0.1279297,5.1171875,2.0952148,5.9399414c-0.5112305-0.1420898-1.1972656-0.3222656-2.0952148-0.5400391
			c-2.9555664,0.3852539-5.5800781-1.1464844-8.1772461-2.6782227c-2.2001953-1.6269531-4.8276367-2.5756836-7.5600586-2.7290039
			c-1.4526367-0.3598633-17.8774414-2.3959961-19.2939453-2.7880859c-10.6074219-2.9555664,9.0917969-5.5424805,9.0917969-5.5424805
			s-13.4677734-6.2080078-9.0917969-9.0375977c1.1064453-0.3671875,2.3037109-0.3569336,3.4038086,0.0288086
			c0.1796875-0.5761719,0.293457-1.1337891,0.4536133-1.6938477c1.7197266-0.5893555,3.0825195-1.9223633,3.7094727-3.6289062
			c4.2626953-2.9228516,0.6191406-5.9057617-1.7260742-7.2734375c-0.222168-0.1274414-0.4321289-0.2744141-0.6279297-0.4394531
			c-3.1376953-0.1313477-6.0268555-1.03125-9.0917969-1.3876953c2.6225586-2.2539062,6.2080078-1.4975586,9.4604492-1.7836914
			c1.3320312-1.5375977,3.0908203-2.9863281-0.3867188-4.152832c-0.503418-0.1196289-1.015625-0.1987305-1.5317383-0.2358398
			l-6.7753906-3.1518555c-0.3540039-3.9990234-2.5991211-7.5874023-6.0405273-9.6552734
			c7.730957-0.9863281,14.7470703-2.1166992,14.4394531-7.2680664c-0.0307617-0.4951172,2.4765625-1.1303711,3.8071289-1.7011719
			c-5.3227539-3.1699219-15.2460938-0.7055664-20.1401367-4.3974609c-1.0244141,0.0268555-2.0488281-0.0429688-3.0600586-0.2084961
			c-1.0288086,0.1831055-2.0742188,0.2509766-3.1176758,0.2011719c-4.4477539,0.0668945,20.9536133-1.4848633,17.2275391-3.6518555
			c1.6381836-0.3041992,4.3652344-2.7001953,6.1367188-5.0942383c-4.2285156-0.4838867-7.3530273-0.8442383-7.2939453-0.8442383
			c1.371582-1.3139648,0.5527344-1.8950195-0.2016602-2.1240234c0.6499023,0.0507812,1.7514648,0.0991211,3.5063477,0.1137695
			c2.2319336-2.331543,4.7988281-4.3178711,7.6157227-5.8935547c-1.184082-0.78125-2.3813477-1.5551758-3.5996094-2.309082
			c-6.2280273-3.8447266-5.7744141-6.5576172,1.8769531-10.0947266c1.0209961-0.4677734,2.097168-0.8818359,3.1484375-1.3208008
			c1.5615234-0.1152344,3.1020508-0.425293,4.5864258-0.9238281c4.6459961-3.5512695,10.2436523-6.6938477,15.4296875-10.0151367
			c3.9057617-8.6503906,17.7011719-8.5625,27.6567383-15.5625c0.3276367-2.5200195,2.3759766-4.4804688,6.5107422-5.7797852
			c1.2167969-4.4711914,6.6005859-7.2880859,13.1113281-9.6572266l3.2631836-1.9799805
			c23.0400391-8.7875977,47.6674805-9.3291016,72.8569336-6.9067383l49.8598633,6.9770508
			c3.8994141-0.2539062,7.8149414-0.1157227,11.6875,0.4121094c2.8037109,0.3383789,5.6230469,0.5268555,8.4472656,0.5654297
			c13.4604492,0.9160156,26.8364258,2.1870117,40.3974609,2.6748047l0.4355469,0.0161133
			c2.1455078-0.9199219,3.5097656-4.2734375,3.9995117-5.7368164c-0.0756836,0.284668-0.1801758,0.6679688-0.2900391,1.1630859
			c0.769043,0.0322266,3.5639648,2.8671875,5.8735352,5.0307617c2.4658203,0.1391602,4.9257812,0.2900391,7.3798828,0.4516602
			c2.2573242-1.5566406,4.3203125-3.3984375,7.0522461-3.2075195c19.8198242,1.3862305,71.4023438-10.4057617,91.6328125-11.9697266
			c8.0512695-0.7202148,16.0898438-1.3808594,23.6123047,0.5649414c-0.1386719,3.371582,1.7568359,5.5947266,8.9389648,5.1049805
			c3.6679688-0.2519531,7.3583984-0.284668,11.0390625-0.4174805c-0.0375977,1.2597656-0.0717773,2.5200195-0.1113281,3.7797852
			c4.847168-0.2661133,9.9682617-1.2905273,13.6186523,1.1972656c1.9462891,1.1499023,7.6108398,0.0483398,6.4135742,3.1010742
			c-0.0136719,0.0395508,0.0014648,0.0830078,0.0361328,0.1064453c2.1972656,1.125,4.6601562,1.6274414,7.1225586,1.4526367
			c4.7861328-0.0341797,72.0522461-14.9399414,71.5913086-11.4013672c-0.390625,2.9770508-7.0976562,1.8359375-10.9799805,2.5703125
			c-2.2163086,1.4052734-4.8623047,1.9707031-7.4594727,1.5932617c-5.4736328-0.9125977-4.1723633,0.0683594-2.8129883,1.0454102
			c1.1479492,0.828125,2.3398438,1.65625-0.5004883,1.3413086l-6.7124023,0.7089844
			c-1.9458008,0.7910156-4.1020508,0.9033203-6.1201172,0.3188477c-1.6972656,1.090332-3.6494141,1.7192383-5.6645508,1.8251953
			l-4.0913086,2.25c-2.8598633,5.0830078,6.7358398,4.1958008,10.1142578,6.2871094l0.2524414-0.1044922l-0.0810547-3.3515625
			c2.5639648,0.3066406,4.9423828,1.4916992,6.7319336,3.3535156c2.4013672,1.2363281,4.90625,2.2602539,7.4863281,3.0600586
			c3.0708008,0.7416992,4.8598633,1.5805664,1.6196289,2.9970703c-4.9946289,2.1831055-3.5024414,4.0175781-1.3950195,5.4990234
			c3.6791992-0.8183594,7.4199219-1.3271484,11.1835938-1.5209961c1.9799805-0.0341797,3.9492188-0.0668945,5.8823242-0.0214844
			c3.434082-1.8291016,6.5737305-4.0791016,12.96875-3.4379883c-4.987793,0.5917969-5.5366211,2.3271484-5.5795898,4.1918945
			c1.7216797,0.3525391,3.3950195,0.909668,4.9838867,1.659668l-4.7788086,0.2841797l-0.2773438,0.4125977
			c-0.1279297,0.887207-0.6518555,1.6679688-1.4238281,2.1240234l-0.5400391,0.8041992l4.8852539,0.0595703
			c3.9995117-0.3178711,7.9995117-0.6381836,12.0004883-0.9609375c2.2387695-1.7294922,5.3061523-1.9179688,7.7402344-0.4755859
			l6.90625-0.3330078c0.7084961-0.425293,1.5043945-0.684082,2.3276367-0.7558594
			c7.8676758-2.2734375,16.5493164-1.7368164,24.4799805-3.862793c0.9829102-0.2626953,2.9863281-0.152832,2.5957031,0.8999023
			c-1.3681641,3.6811523,1.6416016,3.5102539,4.4169922,3.3408203c0.6899414-0.0551758,1.3818359-0.0751953,2.0737305-0.0610352
			c4.5107422,0.1923828,7.6787109,1.1625977,8.2041016,4.5c-5.6083984,1.0224609-11.8798828-0.5776367-16.9199219,2.6660156
			c-0.0664062,0.0629883-0.1367188,0.1274414-0.2016602,0.1796875c0.4697266,0.0947266,0.9316406,0.2207031,1.3842773,0.3779297
			c1.0859375,1.25,1.3706055,3.0073242,0.734375,4.5361328c4.1704102-0.4804688,6.7084961-0.5004883,6.6186523,0.1962891
			c-0.3203125,2.4550781-4.9321289,2.1113281-8.7158203,2.3256836c-1.3447266,1.0498047-2.7744141,1.9873047-4.2734375,2.8022461
			c-0.5898438,0.4829102-1.1044922,1.0517578-1.5263672,1.6870117c-0.7407227,0.5302734-1.5961914,0.8793945-2.496582,1.0185547
			c-2.1147461,0.5561523-2.6694336,2.0986328-4.1650391,3.0600586c-2.2050781,1.3212891-4.0859375,2.746582-3.7207031,4.8818359
			c0.6254883,1.8554688,1.8051758,3.4746094,3.3808594,4.6381836c0.5493164,0.1943359,1.1088867,0.3608398,1.6757812,0.4985352
			c2.8295898,0.6806641,4.5737305,1.4404297,2.2949219,2.6733398c3.5605469,2.6420898,7.2612305,5.1137695,8.1933594,6.8256836
			c0.9306641-0.3276367,1.8432617-0.6411133,2.6787109-0.8535156c5.6772461-1.4526367,8.3266602-6.0063477,17.1000977-5.1279297
			c-11.0991211,1.3212891-0.2177734,8.2797852-10.6362305,9.7827148c2.8994141,0.5419922,5.8642578,0.6455078,8.7944336,0.3081055
			c2.9990234-0.3774414,6.0405273-0.2353516,8.9912109,0.4194336l5.6430664,0.7827148l6.2729492-0.2807617
			c3.8950195,2.2700195-27.9379883,10.609375-22.2553711,10.1772461c8.0541992-0.4838867,16.137207,0.0288086,24.065918,1.5263672
			c5.8916016,0.9863281-11.8691406,7.7402344-5.8554688,7.5600586
			c10.0083008,1.1357422-17.1303711,13.1977539-18.1279297,19.9926758c-0.3598633,2.3867188,2.2915039,3.722168,5.3676758,4.9067383
			c2.0898438,0.8657227,2.9448242,2.4912109,5.8466797,2.8476562c1.1938477,0.034668,2.3681641,0.3105469,3.4521484,0.8115234
			c0.6376953,0.6645508,1.3735352,1.2270508,2.1816406,1.6689453c6.4443359,2.3525391,12.2202148,4.8920898,8.2963867,10.1391602
			c-0.605957,0.2280273-1.2236328,0.4223633-1.8500977,0.5834961c0.0932617,0.059082,0.1923828,0.1186523,0.2861328,0.1796875
			c4.5722656,1.9135742,9.7202148,1.5249023,14.8535156,1.1396484c2.7441406-0.2680664,5.5029297-0.355957,8.2583008-0.2626953
			c-0.4892578,3.7167969-4.7192383,5.1674805-10.8144531,5.925293c-3.9907227,0.4970703-11.2338867-0.5180664-8.5786133,4.3833008
			c0.5991211,1.1030273-2.1079102,1.46875-3.4580078,1.2993164c-5.4077148-0.5527344-10.8457031-0.7460938-16.2792969-0.5795898
			c-5.7246094,0.1889648-11.4560547-0.0444336-17.1464844-0.6982422c-1.0478516,0.0229492-2.0913086-0.1469727-3.078125-0.5004883
			l-9.4208984,0.3798828c-2.4326172,1.4023438-5.2905273,1.878418-8.0463867,1.3388672l-17.706543-0.6025391
			c-2.3759766,0.2397461-4.7558594,0.4799805-7.140625,0.7197266l0.2446289,3.5585938
			c2.9521484-0.1201172,5.9057617-0.2397461,8.8613281-0.3598633c-7.1816406,3.5170898-15.7875977,4.1743164-24.5878906,4.840332
			c-4.5717773,0.2416992-9.1542969,0.168457-13.7158203-0.2197266c-5.1367188-0.5043945-10.3105469-0.4970703-15.4458008,0.0214844
			c-23.9726562,3.3461914-47.9902344,2.9125977-71.9355469,4.5180664c-1.0961914,0.0981445-2.1972656,0.1303711-3.2973633,0.097168
			c-1.7431641-0.027832-3.4863281,0.0498047-5.2202148,0.2319336c-4.7626953,0.4018555-9.5273438,0.8012695-11.7089844-2.9013672
			l-62.2797852,2.793457c-5.7421875,2.4785156-12.472168,2.2539062-18.871582,2.5869141
			c-16.2646484,0.8496094-32.5400391,1.5136719-48.8139648,2.1757812
			c-6.5429688,0.2646484-13.0556641,0.4233398-18.9467773,2.5795898c0.0288086,0.6000977,0.0439453,1.203125,0.0449219,1.809082
			l-19.8955078,0.8999023c-9.2915039,0.8603516,9.2919922,1.4399414,35.8203125,1.7353516
			c-10.800293,1.7548828-21.6704102,4.3198242-33.3466797,1.3300781
			c-3.9599609-1.0151367-12.2905273-0.1889648-17.4599609,1.9672852
			c-10.5859375,4.4121094-22.8598633,4.9682617-34.6645508,5.8071289c-9,0.6425781-18.7543945,2.6313477-27.3959961-0.2988281
			c-16.2216797,0.5292969-32.4541016-0.3603516-48.6831055,1.9799805c-3.574707,0.5166016-6.6958008,0.2050781-9.3452148,2.7900391
			c-4.0922852,3.7016602-9.4863281,5.628418-14.9980469,5.3564453
			C-7659.5063477,7184.7338867-7662.7353516,7184.3164062-7665.8813477,7183.5234375z M-7740.5200195,7057.2158203
			c-0.730957,0.0288086-0.2895508,0.0395508,0.777832,0.0410156c-0.1948242-0.03125-0.3916016-0.0458984-0.5888672-0.0449219
			L-7740.5200195,7057.2158203z M-7444.4199219,7001.9140625c12.0839844,0.8725586,24.2050781,1.1245117,36.3149414,0.7543945
			c14.5385742-0.5776367-2.159668-0.7631836-26.4599609-0.7631836c-3.1826172-0.0019531-6.4819336,0.0019531-9.8662109,0.0073242
			L-7444.4199219,7001.9140625z M-7469.2402344,7001.9990234c0.2895508,0.269043,0.6386719,0.465332,1.019043,0.5722656
			c0.6567383-0.1132812,1.2963867-0.3105469,1.902832-0.5869141L-7469.2402344,7001.9990234z M-7502.1494141,7002.565918
			l2.2211914-0.3598633c-18.0976562,0.1601562-25.0561523,0.3276367-2.2270508,0.3598633H-7502.1494141z
			 M-7446.1889648,7166.7924805l1.6196289-0.7685547c-8.9672852-0.0395508-17.7514648-0.1064453-25.8100586-0.1962891
			c2.2788086-0.3706055,4.5556641-0.7036133,6.840332-0.9414062c8.7314453-0.9106445,17.4150391-1.7998047,26.2026367-2.2807617
			l-7.2290039,3.4204102c14.7167969,0.0644531,29.9194336,0.0610352,43.1171875-0.0092773l-0.8876953,0.0791016
			c-9.15625,0.8120117-18.4121094,1.6201172-27.7988281,1.6201172c-5.3671875,0.0224609-10.730957-0.2861328-16.0600586-0.9233398
			H-7446.1889648z M-7365.9091797,7164.7856445c9.2573242,0.6767578-9.152832,1.0795898-35.5390625,1.2290039
			c11.9838867-1.0654297,23.7973633-2.0839844,35.5371094-1.230957L-7365.9091797,7164.7856445z M-7709.2285156,7141.1533203
			c1.0004883,0.2773438,1.328125,0.4140625,1.2436523,0.4140625c-0.4287109-0.0932617-0.8461914-0.2319336-1.2456055-0.4140625
			H-7709.2285156z M-7747.7163086,7059.3774414c-1.3935547-0.1079102-0.7348633-0.2177734-0.0019531-0.0019531
			L-7747.7163086,7059.3774414z M-7476.9262695,6993.9599609c0.2753906-1.0366211,0.2646484-0.8007812-0.0019531-0.0014648
			L-7476.9262695,6993.9599609z"/>
		<g id="GOODS_EVENT_00000116948376748493514790000016558095659085355176_" transform="translate(-7941 -100.134)">
			<g id="グループ_282_00000008149250513127732550000005900562946941973637_" transform="translate(12 -8)">
				<g class="st0">
					<path class="st1" d="M268.2167969,7229.7695312c-0.6806641-2.0410156-1.1342773-3.2885742-1.1342773-9.7529297v-12.4741211
						c0-7.3710938-2.4946289-10.0927734-8.1650391-10.0927734h-4.309082v32.3198242h-12.4746094v-79.3823242h18.8251953
						c12.9277344,0,18.484375,6.0102539,18.484375,18.2578125v6.2373047c0,8.1650391-2.6083984,13.3813477-8.1650391,15.9897461
						v0.2270508c6.2373047,2.6079102,8.2783203,8.5053711,8.2783203,16.7836914v12.2475586
						c0,3.8554688,0.1137695,6.690918,1.3613281,9.6391602H268.2167969z M254.6083984,7161.7275391v24.3818359h4.8759766
						c4.6494141,0,7.4848633-2.0415039,7.4848633-8.3920898v-7.824707c0-5.6699219-1.9282227-8.1650391-6.3505859-8.1650391
						H254.6083984z"/>
					<path class="st1" d="M299.0605469,7183.8413086h17.1235352v11.340332h-17.1235352v23.2475586h21.5463867v11.340332h-34.0209961
						v-79.3823242h34.0209961v11.340332h-21.5463867V7183.8413086z"/>
					<path class="st1" d="M327.1826172,7150.387207h12.4746094v68.0419922h20.5258789v11.340332h-33.0004883V7150.387207z"/>
					<path class="st1" d="M404.8613281,7229.7695312h-12.5878906l-2.1542969-14.4023438h-15.3095703l-2.1547852,14.4023438
						h-11.4536133l12.7011719-79.3823242h18.2578125L404.8613281,7229.7695312z M376.3969727,7204.59375h12.0209961
						l-5.8969727-40.1445312h-0.2270508L376.3969727,7204.59375z"/>
					<path class="st1" d="M401.5717773,7150.387207h38.5571289v11.340332h-13.0415039v68.0419922h-12.4741211v-68.0419922
						h-13.0415039V7150.387207z"/>
					<path class="st1" d="M456.9101562,7183.8413086h17.1240234v11.340332h-17.1240234v23.2475586h21.546875v11.340332h-34.0209961
						v-79.3823242h34.0209961v11.340332h-21.546875V7183.8413086z"/>
					<path class="st1" d="M485.0327148,7150.387207h19.7319336c12.4746094,0,18.5986328,6.9174805,18.5986328,19.6186523v40.1450195
						c0,12.7011719-6.1240234,19.6186523-18.5986328,19.6186523h-19.7319336V7150.387207z M497.5068359,7161.7275391v56.7016602
						h7.03125c3.9692383,0,6.3505859-2.0415039,6.3505859-7.7114258v-41.2788086
						c0-5.6704102-2.3813477-7.7114258-6.3505859-7.7114258H497.5068359z"/>
					<path class="st1" d="M546.6074219,7150.387207h12.4746094v79.3823242h-12.4746094V7150.387207z"/>
					<path class="st1" d="M563.3891602,7150.387207h38.5571289v11.340332h-13.0415039v68.0419922h-12.4741211v-68.0419922
						h-13.0415039V7150.387207z"/>
					<path class="st1" d="M618.7275391,7183.8413086h17.1235352v11.340332h-17.1235352v23.2475586h21.5463867v11.340332h-34.0209961
						v-79.3823242h34.0209961v11.340332h-21.5463867V7183.8413086z"/>
					<path class="st1" d="M673.1591797,7206.7485352h0.2265625l8.3920898-56.3613281h17.3505859v79.3823242h-11.7939453v-56.9287109
						h-0.2265625l-8.3920898,56.9287109H666.921875l-9.0722656-56.1347656h-0.2265625v56.1347656h-10.8867188v-79.3823242
						h17.3505859L673.1591797,7206.7485352z"/>
					<path class="st1" d="M723.847168,7149.4799805c12.1342773,0,18.371582,7.2578125,18.371582,19.9589844v2.4946289h-11.7939453
						v-3.2885742c0-5.6699219-2.2685547-7.824707-6.2373047-7.824707c-3.9692383,0-6.2373047,2.1547852-6.2373047,7.824707
						c0,5.7836914,2.4951172,10.0932617,10.6601562,17.2373047c10.4326172,9.1860352,13.7216797,15.7631836,13.7216797,24.8354492
						c0,12.7011719-6.3505859,19.9589844-18.5981445,19.9589844s-18.5981445-7.2578125-18.5981445-19.9589844v-4.8764648h11.7939453
						v5.6704102c0,5.6699219,2.4946289,7.7114258,6.4638672,7.7114258s6.4638672-2.0415039,6.4638672-7.7114258
						c0-5.7836914-2.4946289-10.0927734-10.659668-17.2373047c-10.4331055-9.1855469-13.722168-15.7631836-13.722168-24.8354492
						C705.4755859,7156.737793,711.7128906,7149.4799805,723.847168,7149.4799805z"/>
				</g>
			</g>
		</g>
	</g>
</g>
<g id="レイヤー_3">
</g>
</svg>
