<?xml version="1.0" encoding="utf-8"?>
<!-- Generator: Adobe Illustrator 26.3.1, SVG Export Plug-In . SVG Version: 6.00 Build 0)  -->
<svg version="1.1" xmlns="http://www.w3.org/2000/svg" xmlns:xlink="http://www.w3.org/1999/xlink" x="0px" y="0px" width="800px"
	 height="220px" viewBox="0 0 800 220" style="enable-background:new 0 0 800 220;" xml:space="preserve">
<style type="text/css">
	.st0{enable-background:new    ;}
	.st1{fill:#FFFFFF;}
	.st2{fill:#080808;}
	.st3{opacity:0.44;fill:#FFE73B;enable-background:new    ;}
	.st4{opacity:0.44;fill:#0000FF;enable-background:new    ;}
	.st5{display:none;opacity:0.21;}
	.st6{display:inline;fill:#080808;}
	.st7{display:inline;}
	.st8{font-family:'BebasNeue';}
	.st9{font-size:56px;}
	.st10{font-family:'UDKakugoC80Pro-B-90ms-RKSJ-H';}
	.st11{font-size:12px;}
	.st12{display:none;}
	.st13{clip-path:url(#SVGID_00000157271349365249808640000004108278342684978316_);}
	.st14{clip-path:url(#SVGID_00000165211174044014622880000010897931360465604244_);}
	.st15{clip-path:url(#SVGID_00000066479348852001260190000012153540520494572732_);}
	.st16{clip-path:url(#SVGID_00000013903674189976580950000011954314849876515498_);}
	.st17{opacity:0.44;fill:#FF39AF;enable-background:new    ;}
</style>
<g id="レイヤー_1">
	<g id="_x2F_animeindex-sp" transform="translate(16.01 -158.469)" class="st5">
		<g id="h1" transform="translate(-52.542 -52.694)" class="st7">
			<g id="h1-2_00000025411982901421792620000016586363740479155108_" transform="translate(37.678 211.616)">
				<g id="ANIME_00000040574974970271192840000009479726565368718765_" transform="translate(0 0)">
					<path id="合体_3_00000130625535517219126690000011629697367671979961_" class="st2" d="M140.9162445,132.0022583
						c-0.3450012-0.2249908-18.9550018-2.9250031-19.3110046-3.1559906c-0.8430023-0.3059998,1.4560013-0.2279968,4.423996-0.151001
						c4.2510071,0.1100006,9.875,0.220993,9.5930023-0.7939987c-1.3000031-0.3909988-16.6910019-3.3290024-16.8519974-4.3099976
						c-1.4710007-1.1279984,0.211998-1.8239975,2.336998-2.5630035c-0.4909973-0.1640015-0.9899979-0.3190002-1.4669952-0.5
						c-3.852005-1.4860077-4.1560059-2.8810043-1.2240067-5.1820068c0.4553375-0.357338,0.9036713-0.7193375,1.3450012-1.0859985
						c-1.5833282-0.6730652-3.0615005-1.57061-4.3889999-2.6650009c0.9481659-0.0389099,1.8979187-0.0054779,2.8410034,0.0999985
						c1.7939987,0.1329956,3.8320007,0.2659988,4.7859955-0.1710052l0.1260071-0.1059952
						c0.0419998-0.0153351,0.0836639-0.029335,0.125-0.0419998c0.3022156-0.2271805,0.3931503-0.6410599,0.2139969-0.973999
						c-2.8670044-0.9570007-5.427002-2.1740036-7.0830002-4.1529999c-2.8830032,0.2999954-0.9629974,0.3389969-2.0510025-0.8110046
						c-0.0280075-0.3604584-0.0280075-0.7225418,0-1.0830002v-0.534996c-0.4349976-0.0159988-0.7229996-0.0690002,0-0.1429977
						v0.1429977c0.552002,0.0210037,1.3410034-0.0159988,0.5910034-0.1429977
						c-0.2809982-0.0480042,0.6299973-0.0680008,0.6299973-0.0680008c-0.0474243-0.2224808-0.1071854-0.4421539-0.1790009-0.6580048
						c0.7919998-0.4819946,1.1900024-1.1909943-0.4560013-1.2309952c-1.0889969-0.0279999-1-1.3820038-0.5909958-1.413002
						c0.2210007-0.0339966-0.2000046-0.0410004-0.3769989-0.0279999c-0.2869797-0.0124969-0.57444-0.0088196-0.8610001,0.0110016
						c-0.2799988,0.0130005-0.489006,0.0250015-0.3600006,0.0169983c0.7220001-0.8180008,1.7129974-0.5759964,2.7149963-0.3330002
						c0.9550018,0.2310028,1.9220047,0.4620056,2.6800003-0.2220001c-0.4209976-0.1849976-1.1999969-0.362999-1.2070007-0.5579987
						c-0.0279999-2.0359955-2.1999969-2.2770004-4.5999985-2.4409943c1.0555878-1.0513077,1.6403732-2.485321,1.6210022-3.9749985
						c0.6666641-0.4786682,1.3333282-0.9576721,2-1.4370041c0.1588745-0.0304489,0.3143082-0.0766754,0.4639969-0.1380005
						c1.3099976-0.7060013,0.0530014-1.3479996-0.2719955-2.0999985c-0.2600021,0.0149994-0.5220032,0.0390015-0.7840042,0.0620041
						c-1.1722946,0.2686844-2.4032211,0.0665207-3.4280014-0.5630112c1.7340012-0.3860016,3.3290024-1.1449966,5.1760025-1.2279968
						c0.5205231-0.5910263,0.4633713-1.4921036-0.127655-2.0126266c-0.0594101-0.05233-0.1230774-0.099617-0.1903458-0.1413727
						c-0.1886902-0.6016006-0.6376953-1.0865936-1.2229996-1.3209991c-0.0629959-0.215004-0.1119995-0.4309998-0.1790009-0.6529999
						c-0.3162842,0.1819382-0.6946945,0.2218857-1.0419998,0.1100006c-1.4079971-0.9860001,3.0670013-3.2389984,1.612999-4.1910019
						c-2.6269989-1.7229996,1.0730057-0.3509979,4.2550049-1.8209991c0.423996-0.1999969-3.6220016-0.8379974-3.1850052-1.0199966
						c1.7120056-0.0480042,1.0320053-3.1830063,2.8000031-3.0540009c2.9629974-1.2269974,2.9400024,0.1930008,4.8320007,2.2279968
						c0.8730011,0.9400024,1.8219986,0.7260056,2.9290009,0.826004c1.3087997,0.1122513,2.6227036,0.1539764,3.935997,0.125
						c-0.6000061-1.1139984-2.7509918-0.8059998-4.4729996-0.8929977c1.8279953-2.3120041,4.4710007-4.151001,6.8669968-6.1340027
						c1.3630066-4.0810013,6.3540039-3.9349976,9.9140015-7.1870003c0.1491852-1.2900963,1.0687714-2.3593903,2.3220062-2.7000008
						c0.4149933-2.1150017,2.3470001-3.413002,4.6879883-4.4889984l1.1690063-0.9140015
						c8.2879944-3.9980011,17.1900024-4.0720024,26.3190002-2.7320023l18.0700073,3.6860008
						c2.522995-0.257,4.8249969,0.5779991,7.2870026,0.6160011c4.8739929,0.5369987,9.7189941,1.2409973,14.6269989,1.5739975
						l0.1569977,0.0110016c0.769989-0.420002,1.2449951-2,1.4140015-2.6949997
						c-0.026001,0.1349983-0.0579987,0.3149986-0.1000061,0.5480003c0.8161163,0.7189941,1.5393677,1.536972,2.1529999,2.4349976
						c0.8919983,0.0846672,1.7829895,0.1746674,2.6730042,0.2700005c0.8079987-0.7229996,1.5429993-1.5820007,2.5319977-1.4710007
						c7.1759949,0.807003,25.7660065-4.4089966,33.0740051-5c2.9129944-0.2770004,5.8129883-0.5349998,8.5469971,0.446003
						c-0.0299988,1.5999985,0.6669922,2.6719971,3.2619934,2.493c1.3249817-0.0910034,2.6600037-0.0800018,3.9909973-0.1150017
						c-0.0066833,0.5999985-0.0126648,1.1980019-0.0180054,1.7939987c1.7510071-0.0900002,3.6000061-0.5369987,4.9329834,0.670002
						c0.710022,0.5620003,2.7520142,0.079998,2.3359985,1.5219994c-0.0041809,0.0176582,0.0010986,0.036232,0.0140076,0.0489998
						c0.751709,0.5360146,1.6644287,0.7982445,2.5859985,0.743c0.7680054,0.0079994,5.9810181-1.2849998,11.5240173-2.5769997
						c6.9339905-1.6170006,14.3849792-3.2330017,14.2999878-2.2999992
						c-0.1239929,1.4129982-2.5570068,0.8199997-3.9549866,1.1399994c-0.739502,0.6365547-1.7319641,0.8950119-2.6880188,0.7000008
						c-1.9859924-0.4740028-1.5079956,0-1.0119934,0.4769974c0.4200134,0.4000015,0.8540039,0.8000031-0.1739807,0.6330032
						l-2.4240112,0.2859993c-0.6859436,0.3612785-1.4966736,0.4000969-2.2139893,0.105999
						c-0.5718689,0.4884796-1.2872925,0.7773857-2.0379944,0.822998l-1.4680176,1.038002
						c-1,2.394001,2.460022,2.0429993,3.6940002,3.0629997l0.0910034-0.0470009l-0.0480042-1.5929985
						c0.9981079,0.2140808,1.8762817,0.8023949,2.45401,1.6439972c0.8548889,0.5939484,1.7675171,1.100174,2.723999,1.5110016
						c1.1159973,0.3749962,1.7689819,0.7859993,0.6000061,1.4360008c-2.6540222,1.4779968-0.1790161,2.6999969,0.552002,3.5159988
						c0.7309875,0.8160019,2.42099-0.3560028,3.6560059-0.7470016c2.0440063-0.6469955,2.9779968-2.7910004,6.1529846-2.3079987
						c-4.0059814,0.5439987-0.0310059,3.9349976-3.7919922,4.5670013c0.1133118,0.0393295,0.2276611,0.07267,0.3429871,0.0999985
						c0.5053406,0.029335,1.0113525,0.0650024,1.5180054,0.1070023c0.2820129,0.0230026,0.5650024,0.0329971,0.8500061,0.0309982
						l0.4750061-0.0279999c0.2510071-0.0159988,0.5-0.0309982,0.7489929-0.0410004
						c0.8860168-0.0889969,1.7860107-0.2490005,2.7000122-0.409996c1.3700256-0.2833939,2.7624512-0.4450226,4.1609802-0.4830017
						c2.7120056,0.0059967,5.3650208,0.0139999,7.6490173,1.1900024l-2,0.0839996
						c-0.3059998,0.4759979-0.6119995,0.9529953-0.9179993,1.4309998c0.6813354,0.0213318,1.3623352,0.0433273,2.0429993,0.0659943
						l5.0119934-0.3190002c0.9362793-0.7311096,2.2331543-0.7881241,3.2299805-0.1419983l2.8850098-0.0879974
						c0.2940369-0.1789551,0.6266174-0.2849121,0.9700012-0.3089981c3.276001-0.9210052,6.9079895-0.6180038,10.2099915-1.4740067
						c0.4100037-0.1069946,1.2470093-0.0419998,1.0899963,0.4100037c-0.552002,1.586998,0.7090149,1.5359955,1.8710022,1.4840012
						c0.3049927-0.0130005,0.6000061-0.026001,0.8609924-0.0100021c1.8869934,0.1210022,3.2180176,0.5690002,3.4550171,2.0169983
						c-0.8403625,0.1164246-1.6890259,0.1619186-2.5370178,0.1360016c-1.5617371-0.1628265-3.1365356,0.1439209-4.5229797,0.8809967
						c-0.0270081,0.0270004-0.0559998,0.0530014-0.0840149,0.0790024c0.1978149,0.0448761,0.3922729,0.1033478,0.5820007,0.1750031
						c1.3280029,1.9509964-0.3809814,3.1179962-2.2999878,4.2319946c-0.2449341,0.2064819-0.4567261,0.4493103-0.6280212,0.7200012
						c-0.3063965,0.2230072-0.6628113,0.3675537-1.0379944,0.4209976c-0.8809814,0.2240067-1.1000061,0.8889999-1.723999,1.2900009
						c-0.9140015,0.5559998-1.690979,1.1580048-1.5269775,2.0880051c0.4689941,2.6439972,9.0699768,6.5999985,6.0310059,7.3389969
						c-1.8470154,0.0999985,3.7559814,2.2440033,1.9750061,2.8000031c-2.3625793,0.8133163-4.8378296,1.2519531-7.3359985,1.2999954
						c-1.7510071-0.0059967,8.1999817,2.3510056,7.0610046,3.3570023l-2.0390015,0.0759964
						c-0.3293457,0.0193329-0.6583557,0.0400009-0.9869995,0.0620041c-1.6000061,1.4000015-4.1190186,0.3949966-6.0440063,1.2089996
						c3.2279968,0.2839966,0.0599976,3.3440018,3.492981,3.5410004c-2.664978,0.5999985-3.5859985-1.1150055-5.3589783-1.5210037
						c-1.0710144-0.2449951-2.5720215-1.1119995-3.1470032-0.387001c-0.5750122,0.7249985-2.6000061,1.8899994-0.256012,2.9449997
						c1.0270081,0.4640045,0.5,0.8460007-0.4249878,1.2260056c-0.783783,0.4034882-1.5257263,0.8834915-2.2150269,1.4329987
						c-0.444397,0.7380676-1.1524353,1.2799072-1.9809875,1.5159988l-0.0559998-1.3209991c-0.0379944,0-0.07901,0-0.1190186,0
						c-1.0359802,0.9000015-3.9709778,0.8380051-2.8670044,2.8110046l1.1750183,0.6869965
						c0.6674805-0.0274582,1.3251953,0.1673965,1.8699951,0.5540009c0.6870728-0.326004,1.4887695-0.302948,2.1560059,0.0620041
						l2.0419922-0.0800018c0.5450134-0.0800018,0.2420044,0.2389984-0.0529785,0.5589981
						c-0.3930054,0.4259949-0.7730103,0.8509979,0.8849792,0.3330002c0.7964783-0.2223358,1.6507874-0.0715561,2.322998,0.409996
						c0.4287415,0.039978,0.86026,0.039978,1.2890015,0c1-0.0550003,2-0.1110001,2.1350098,0.689003
						c0.1279907,0.7799988-6.5580139-0.1389999-12.6390076-1.0579987c-4.6409912-0.7000046-8.9309998-1.4000015-9.565979-1.3479996
						c-0.7920837,0.0119858-1.5563049,0.2942429-2.1660156,0.7999954c0.473999,1.2000046-1.3079834,0.9189987-1.8800049,1.4319992
						c-0.8719788,0.8919983-2.1000061,0.8790054-3.3429871,0.8660049c-0.2669983,0-0.5360107-0.0060043-0.8000183,0
						c0.0413513,0.4960022,0.0823364,0.9906693,0.1230164,1.4840012c-1.1300049,0.0550003-2.2619934,0.1490021-3.3910217,0.1569977
						c-2.2120056,0.0159988-2.7389832,0.9469986-2.6170044,2.2699966c-2.2579956,0.9820023-4.7369995,0.9530029-7.2200012,0.9079971
						c-6.2349854-0.0270004-23.3089905-2.1289978-29.3479919-1.0070038
						c-1.2981873,0.3067245-2.6354675,0.4142838-3.9660034,0.3190002l-1.1369934,0.1699982
						c0.4429932,1.7639999-0.7330017,1.5739975-1.9089966,1.3840027c-0.3532715-0.0677643-0.7114258-0.1072235-1.0709839-0.1179962
						c-0.9963074,0.3495026-2.0944824,0.2567139-3.0180054-0.2549973l-6.0209961,0.0790024
						c-11.7579956,1.1999969-23.5879974,1.7139969-35.4000092,2.2310028
						c-7.7149963,0.3379974-14.9059906,2.2490005-22.3710022,3.3059998
						c-4.1429901,0.5859985-8.2099915,1.473999-12.3119965,2.2279968c-2.0870056,0.185997-3.9900055,1.0230026-6.1450043,0.9699936
						l-15.1109924,4.1999969c-3.6958618,0.865387-7.4745483,1.3280945-11.2700043,1.3800049
						C148.3067474,134.0207672,144.5019989,133.3500824,140.9162445,132.0022583z M244.8162384,59.2432594
						c5.9400024-0.1870003-2.5529938-0.435997-13.1380005-0.6309967
						C236.0385132,59.1164246,240.4277191,59.3272362,244.8162384,59.2432594z M223.0722351,58.7432594
						c0.2415009-0.0506134,0.473175-0.14011,0.6859894-0.2649994l-1.0579987-0.0149994
						c0.1640167,0.1730003,0.2940216,0.2779999,0.3690186,0.2840004L223.0722351,58.7432594z M210.7982483,58.4902611
						l0.8000031-0.156002c-1.9360046-0.0169983-3.5209961-0.0269966-4.5770111-0.0269966
						C204.5092468,58.3072624,204.9842377,58.3612595,210.7982483,58.4902611z M115.3722382,102.947258 M113.95224,100.2762604
						c0.0319977,0.0059967,0.0329971,0.0149994-0.0090027,0.0279999
						C113.8432388,100.2922592,113.8732376,100.2822571,113.95224,100.2762604z M219.8722382,54.5922623"/>
				</g>
			</g>
		</g>
		<g id="h1-3" transform="translate(-29.294 -510.761)" class="st7">
			<g id="グループ_83_00000080910675873786409790000001654655605928118144_" transform="translate(50.942 678.516)">
				<text transform="matrix(1 0 0 1 111.9162216 100.6202393)" class="st1 st8 st9">ANIME</text>
			</g>
			<text transform="matrix(1 0 0 1 277.81427 755.6362305)" class="st1 st10 st11">アニメ</text>
			<text transform="matrix(1 0 0 1 277.81427 770.6362305)" class="st1 st10 st11">各話あらすじ</text>
		</g>
	</g>
</g>
<g id="レイヤー_2">
	<g id="_x2F_anime-sp_00000116220543153352403680000014102306322358065845_" transform="translate(15.009 -158.469)">
		<g id="h1_00000037685086842884652060000012855727680823855236_" transform="translate(-51.541 -52.695)">
			<g id="h1-2_00000018200714364135775730000006022023653442048903_" transform="translate(37.678 211.616)">
				<g id="ANIME_00000174578131123257605750000010698582859139173272_" transform="translate(0 0)">
					<path id="合体_3_00000167386286504709474300000000487453284576529587_" class="st2" d="M131.1497803,193.2978973
						c-0.6900024-0.4499969-37.909996-5.8500061-38.6220016-6.3119965c-1.685997-0.6119995,2.9120026-0.4559937,8.8479996-0.302002
						c8.5019989,0.2200012,19.75,0.4420013,19.1860046-1.5879974c-2.5999985-0.7819977-33.3820038-6.6580048-33.7040024-8.6199951
						c-2.9419937-2.2559967,0.4240036-3.647995,4.6740036-5.1260071c-0.9820023-0.3280029-1.9800034-0.6380005-2.9339981-1
						c-7.7040024-2.9720154-8.3120041-5.7620087-2.4480057-10.3640137c0.9106674-0.7146759,1.8073349-1.4386749,2.6900024-2.1719971
						c-3.1666641-1.3461304-6.1229935-3.1412048-8.7779999-5.3300018c1.8963318-0.0778198,3.7958374-0.0109558,5.6819992,0.1999969
						c3.5880051,0.2660065,7.6640015,0.5319977,9.5719986-0.3419952l0.2520065-0.2120056
						c0.0839996-0.0306549,0.1673279-0.0586548,0.25-0.0839996c0.6044388-0.4543457,0.7863083-1.2821198,0.4279938-1.947998
						c-5.7340012-1.9140015-10.8539963-4.3479919-14.1660004-8.3059998c-5.7659988,0.6000061-1.9259949,0.678009-4.1019974-1.621994
						c-0.056015-0.7209167-0.056015-1.4450836,0-2.1660004v-1.0699921c-0.8700027-0.0319977-1.4459991-0.1380005,0-0.2860107
						v0.2860107c1.1040039,0.0419922,2.6819992-0.0319977,1.1819992-0.2860107
						c-0.5619965-0.095993,1.2600021-0.1360016,1.2600021-0.1360016c-0.0948563-0.4449615-0.2143707-0.8843079-0.3580017-1.3159943
						c1.5839996-0.9640045,2.3799973-2.3820038-0.9120026-2.4620056c-2.1779938-0.0559998-2-2.7639923-1.1819992-2.8259888
						c0.4420013-0.0680084-0.4000015-0.0820007-0.7539978-0.0559998c-0.5739594-0.0249939-1.1488647-0.0176544-1.7220001,0.0220032
						c-0.5599976,0.026001-0.9779968,0.0500031-0.7200012,0.0339966c1.4440002-1.6360016,3.4260025-1.1520081,5.4300003-0.6660004
						c1.9100037,0.4619904,3.8440018,0.923996,5.3600006-0.4440002c-0.8420029-0.3700104-2.4000015-0.7259979-2.4140015-1.1160049
						c-0.0559998-4.0719986-4.4000015-4.5540009-9.1999969-4.8819962c2.1111679-2.1026154,3.2807465-4.9706421,3.2419968-7.9499969
						c1.3333359-0.9573288,2.6666718-1.9153366,4-2.8740005c0.317749-0.0608978,0.628624-0.1533508,0.9280014-0.276001
						c2.6200027-1.4120026,0.1060028-2.6959991-0.5439987-4.1999969c-0.5200043,0.0299988-1.0439987,0.0780029-1.5680008,0.1240005
						c-2.3445969,0.5373764-4.8064499,0.133049-6.8560028-1.1260147c3.4680023-0.7720032,6.6580048-2.2900009,10.352005-2.4560013
						c1.0410385-1.182045,0.9267349-2.9842072-0.2553024-4.0252457c-0.1188354-0.10466-0.24617-0.199234-0.3806992-0.282753
						c-0.3773804-1.2032013-1.2753983-2.1731796-2.4459991-2.6419983c-0.1259995-0.4300003-0.223999-0.8619995-0.3580017-1.3059998
						c-0.632576,0.3638763-1.3893814,0.4437714-2.0839996,0.2200012c-2.8160019-1.9720001,6.1340027-6.4779968,3.2259979-8.3819962
						c-5.2539978-3.4459991,2.1460037-0.7020035,8.5100021-3.6419983c0.8479996-0.4000015-7.2440033-1.6760025-6.3700027-2.0400009
						c3.4240036-0.0960007,2.064003-6.3660049,5.5999985-6.1080017c5.9260025-2.4539948,5.8800049,0.3860016,9.6640015,4.4560013
						c1.7460022,1.8800049,3.6439972,1.4520035,5.8580017,1.6520004c2.6176147,0.2245026,5.2454147,0.3079605,7.8720016,0.25
						c-1.2000046-2.2279968-5.5019989-1.6119995-8.9459991-1.7859955c3.6559982-4.6240005,8.9420013-8.302002,13.7340012-12.2680054
						c2.7259979-8.1619949,12.7080002-7.8699951,19.8279953-14.3739967
						c0.2983551-2.5801888,2.1375427-4.7187767,4.6439972-5.4000015c0.8300018-4.2299995,4.6940002-6.8260002,9.3760071-8.9780006
						l2.3379974-1.8279991c16.576004-7.9960041,34.3800049-8.1440029,52.6380005-5.4640045l36.1399994,7.3720016
						c5.0460052-0.5139999,9.6499939,1.1559982,14.5740051,1.2319984
						c9.7480164,1.0740013,19.4380188,2.4820023,29.2539978,3.1480026l0.3139954,0.0219994
						c1.5400085-0.8400002,2.4900208-4,2.8280029-5.3899994c-0.052002,0.2700005-0.1159973,0.6299973-0.1999817,1.0960007
						c1.6322327,1.4379883,3.0787354,3.0739479,4.3059998,4.8699989c1.7839966,0.1693344,3.565979,0.3493309,5.3459778,0.5400009
						c1.6159973-1.446003,3.0859985-3.1640015,5.0639954-2.9420013c14.3520203,1.6140022,51.5320129-8.8180008,66.1480103-10
						c5.8259888-0.5540009,11.6260071-1.0700016,17.0939941,0.8919983
						c-0.0599976,3.2000008,1.3340149,5.3440018,6.5239868,4.9860001c2.6499939-0.1819992,5.3200073-0.1599998,7.9819946-0.2299995
						c-0.0133362,1.2000008-0.0253296,2.3959999-0.0360107,3.5880013c3.5020142-0.1800003,7.2000122-1.0740013,9.8659973,1.3400002
						c1.4200134,1.1240005,5.5039978,0.1599998,4.6719971,3.0439987c-0.0083923,0.0353165,0.0021973,0.072464,0.0280151,0.0979996
						c1.503418,1.0720291,3.3288269,1.5964928,5.1719971,1.4860001c1.5360107,0.0160027,11.9620056-2.5699997,23.0480042-5.1539993
						c13.8680115-3.2340012,28.769989-6.4659996,28.6000061-4.5999985
						c-0.2479858,2.8260002-5.1140137,1.6399994-7.9100037,2.2799988c-1.4789734,1.2731133-3.4639282,1.7900238-5.3760071,1.4000015
						c-3.9719849-0.9480019-3.0159912,0-2.0239868,0.9539986c0.8399963,0.7999992,1.7080078,1.6000023-0.3479919,1.2659988
						l-4.8479919,0.5720024c-1.3718872,0.7225609-2.9933777,0.8001938-4.428009,0.211998
						c-1.1437378,0.9769592-2.574585,1.5547752-4.0759888,1.6459999l-2.9360046,2.0760002
						c-2,4.788002,4.9200134,4.0860023,7.3880005,6.1259995l0.1820068-0.093998l-0.0960083-3.1860008
						c1.9962158,0.4281654,3.7525635,1.6047935,4.9079895,3.2879982c1.7098083,1.1878929,3.5350342,2.2003479,5.447998,3.0219994
						c2.2319946,0.75,3.5379944,1.5720024,1.2000122,2.8720016c-5.3080139,2.9560013-0.3580017,5.3999977,1.1040039,7.0320015
						c1.4620056,1.6319962,4.8420105-0.7120056,7.3120117-1.4940033c4.0880127-1.2939987,5.9559937-5.5819969,12.3059998-4.6159973
						c-8.0119934,1.0879974-0.0620117,7.8699951-7.5840149,9.1339951c0.2266541,0.0786667,0.4553223,0.14534,0.6860046,0.2000046
						c1.0106506,0.0586624,2.0226746,0.1299973,3.0360107,0.2139969c0.5639954,0.0460052,1.1300049,0.0660019,1.7000122,0.0620041
						l0.9500122-0.0559998c0.5020142-0.0320053,1-0.0620041,1.4979858-0.0820007
						c1.7720032-0.1780014,3.571991-0.4980011,5.3999939-0.8199997c2.7400818-0.5667801,5.5249329-0.8900452,8.321991-0.9660034
						c5.4240112,0.012001,10.730011,0.0279999,15.2980042,2.3800049l-4,0.1679993
						c-0.6119995,0.9519958-1.223999,1.9059982-1.8359985,2.8619995c1.3626709,0.0426636,2.7246704,0.0866623,4.0859985,0.1319962
						l10.0240173-0.6380005c1.8725586-1.4622192,4.4663086-1.5762482,6.4599609-0.2839966l5.7700195-0.1760025
						c0.5880737-0.3579102,1.2532349-0.5698166,1.9400024-0.6179962c6.552002-1.8420029,13.815979-1.2360001,20.4199829-2.9480057
						c0.8200073-0.2139969,2.4940186-0.0839996,2.1799927,0.8199997c-1.1040039,3.1740036,1.4180298,3.0719986,3.7420044,2.9680023
						c0.6099854-0.026001,1.2000122-0.052002,1.7219849-0.0200043c3.7739868,0.2420044,6.4360352,1.1380005,6.9100342,4.0340042
						c-1.6807251,0.2328491-3.3780518,0.3238297-5.0740356,0.2719955c-3.1234741-0.3256454-6.2730713,0.2878494-9.0459595,1.762001
						c-0.0540161,0.0540009-0.1119995,0.1060028-0.1680298,0.1580048c0.3956299,0.0897446,0.7845459,0.2066879,1.1640015,0.3499985
						c2.6560059,3.9020004-0.7619629,6.2360001-4.5999756,8.4639969c-0.4898682,0.4129639-0.9134521,0.898613-1.2560425,1.4400024
						c-0.612793,0.4460144-1.3256226,0.7350998-2.0759888,0.8419952c-1.7619629,0.4480057-2.2000122,1.7779999-3.447998,2.5800018
						c-1.8280029,1.1119995-3.381958,2.3160019-3.0539551,4.1760025
						c0.9379883,5.288002,18.1399536,13.1999969,12.0620117,14.6780014
						c-3.6940308,0.1999969,7.5119629,4.487999,3.9500122,5.5999985c-4.7251587,1.6266403-9.6756592,2.5039139-14.6719971,2.5999985
						c-3.5020142-0.012001,16.3999634,4.7020035,14.1220093,6.7139969l-4.0780029,0.1520004
						c-0.6586914,0.0386658-1.3167114,0.0800018-1.973999,0.1240005c-3.2000122,2.8000031-8.2380371,0.7900009-12.0880127,2.4179993
						c6.4559937,0.5680084,0.1199951,6.6880035,6.9859619,7.0820007c-5.3299561,1.1999969-7.1719971-2.2299957-10.7179565-3.0419922
						c-2.1420288-0.4900055-5.144043-2.223999-6.2940063-0.7740021c-1.1500244,1.4499969-5.2000122,3.7799988-0.5120239,5.8899994
						c2.0540161,0.9279938,1,1.6920013-0.8499756,2.4519958c-1.5675659,0.8069763-3.0514526,1.766983-4.4300537,2.8660126
						c-0.8887939,1.4761353-2.3048706,2.5597992-3.9619751,3.0319977l-0.1119995-2.6419983c-0.0759888,0-0.15802,0-0.2380371,0
						c-2.0719604,1.8000031-7.9419861,1.6759949-5.7340088,5.621994l2.3500366,1.3740082
						c1.3349609-0.0549164,2.6503906,0.3347931,3.7399902,1.1080017c1.3741455-0.6520233,2.9775391-0.6059113,4.3120117,0.1239929
						l4.0839844-0.1600037c1.0900269-0.1600037,0.4840088,0.4779968-0.105957,1.1179962
						c-0.7860107,0.852005-1.5460205,1.7020111,1.7699585,0.6660004c1.5929565-0.4446716,3.3015747-0.1430969,4.6459961,0.8200073
						c0.8574829,0.0799561,1.72052,0.0799561,2.5780029,0c2-0.1100006,4-0.2220001,4.2700195,1.3779907
						c0.2559814,1.5599976-13.1160278-0.2779999-25.2780151-2.1159973
						c-9.2820129-1.3999939-17.8619995-2.8000031-19.1319885-2.6959991
						c-1.5841675,0.0239716-3.1125793,0.5884857-4.3320007,1.6000061c0.947998,2.3999939-2.6159973,1.8379974-3.7600098,2.8639984
						c-1.743988,1.7839966-4.2000122,1.7579956-6.6860046,1.7319946c-0.5339966,0-1.071991-0.0119934-1.6000061,0
						c0.0826721,0.9920044,0.1646423,1.9813385,0.2460022,2.9680023c-2.2600098,0.1100006-4.5239868,0.2980042-6.7820129,0.3139954
						c-4.4240112,0.0319977-5.4779968,1.8939972-5.2340088,4.5399933c-4.5159912,1.9640045-9.473999,1.9060059-14.4400024,1.8159943
						c-12.4700012-0.0540009-46.6180115-4.2579956-58.6959839-2.0140076
						c-2.5963745,0.6134491-5.2709656,0.8285675-7.9320068,0.6380005l-2.2739868,0.3399963
						c0.8859863,3.5279999-1.4660034,3.147995-3.8179932,2.7680054c-0.7065735-0.1355286-1.4228516-0.214447-2.1419983-0.2359924
						c-1.9926147,0.6990051-4.1889343,0.5134277-6.0360107-0.5099945l-12.0419922,0.1580048
						c-23.5159912,2.3999939-47.1759949,3.4279938-70.7999878,4.4620056
						c-15.4300232,0.6759949-29.8120117,4.4980011-44.7420197,6.6119995
						c-8.2859955,1.1719971-16.4199982,2.947998-24.6240082,4.4559937c-4.173996,0.371994-7.9799957,2.0460052-12.2899933,1.9400024
						l-30.2220001,8.3999939c-7.3916931,1.7307739-14.9490662,2.6561737-22.5399933,2.7600098
						C145.9308014,197.3349152,138.3213043,195.9935455,131.1497803,193.2978973z M338.9497681,47.779892
						c11.8800049-0.3740005-5.1059875-0.8719978-26.276001-1.262001
						C321.3943176,47.5262222,330.1727295,47.9478416,338.9497681,47.779892z M295.4617615,46.779892
						c0.4830017-0.1012268,0.9463806-0.2802238,1.3720093-0.5299988l-2.1159973-0.0299988
						c0.3280029,0.3459969,0.5880127,0.5559998,0.7380066,0.567997L295.4617615,46.779892z M270.9137878,46.2738914
						l1.6000061-0.3120003c-3.8719788-0.0340004-7.0419922-0.0540009-9.1539917-0.0540009
						C258.3357849,45.9078903,259.2857971,46.015892,270.9137878,46.2738914z M80.0617828,135.1878967 M77.2217865,129.8458862
						c0.0639954,0.0120087,0.0659943,0.0299988-0.0180054,0.0559998
						C77.0037842,129.8778992,77.0637817,129.8578949,77.2217865,129.8458862z M289.0617981,38.47789"/>
				</g>
			</g>
		</g>
		<g id="h1-3_00000069385459010827539040000000804799378344396416_" transform="translate(-27.293 -510.761)">
			<g id="グループ_83" transform="translate(50.942 678.516)">
				<g class="st0">
					<path class="st1" d="M155.0133667,139.3676758h-12.4316406l-2.1279297-14.2246094h-15.1201248l-2.1279297,14.2246094
						h-11.3115234l12.5439453-78.4003906h18.0312576L155.0133667,139.3676758z M126.9020309,114.5043945h11.8720779
						l-5.8242188-39.6484375h-0.2246094L126.9020309,114.5043945z"/>
					<path class="st1" d="M170.8053589,82.5844727h-0.2236328v56.7832031h-11.0878906V60.9672813h15.4560547l12.4316406,46.9277382
						h0.2236328V60.9672813h10.9765625v78.4003906h-12.65625L170.8053589,82.5844727z"/>
					<path class="st1" d="M206.3082886,60.9672813h12.3193359v78.4003906h-12.3193359V60.9672813z"/>
					<path class="st1" d="M252.4498901,116.6313477h0.2236328l8.2880859-55.6640663h17.1357422v78.4003906h-11.6474609V83.1430664
						h-0.2236328l-8.2880859,56.2246094h-11.6484375l-8.9599609-55.4394531h-0.2236328v55.4394531H226.354187V60.9672813h17.1357422
						L252.4498901,116.6313477z"/>
					<path class="st1" d="M298.2565308,94.0083008h16.9121094v11.1992188h-16.9121094v22.9609375h21.2802734v11.1992188h-33.5996094
						V60.9672813h33.5996094V72.168457h-21.2802734V94.0083008z"/>
				</g>
			</g>
		</g>
	</g>
</g>
<g id="レイヤー_3">
</g>
</svg>
