<svg xmlns="http://www.w3.org/2000/svg" width="58" height="126" viewBox="0 0 58 126">
  <path id="パス_5219" data-name="パス 5219" d="M39-27.609a30.478,30.478,0,0,1-.716-6.941c0-8.008,2.327-14.059,10.025-24.381C57.98-71.744,61.56-81.355,61.56-94.7c0-19.932-9.846-31.322-29-31.322s-29,11.39-29,31.322v12.28H22.177V-95.948c0-8.9,3.58-12.28,9.846-12.28s9.846,3.381,9.846,12.28c0,11.924-2.506,20.11-11.278,32.568-7.7,10.856-10.2,18.153-10.2,28.119a23.175,23.175,0,0,0,1.074,7.653Zm-18.438,8.72V-.024H39.541V-18.888Z" transform="translate(-3.56 126.024)" fill="#fff" opacity="0.15"/>
</svg>
