<svg xmlns="http://www.w3.org/2000/svg" xmlns:xlink="http://www.w3.org/1999/xlink" width="195" height="45" viewBox="0 0 195 45">
  <defs>
    <clipPath id="clip-path">
      <rect id="長方形_1443" data-name="長方形 1443" width="194.688" height="44.256" fill="none"/>
    </clipPath>
  </defs>
  <g id="グループ_3829" data-name="グループ 3829" transform="translate(-1166 411)">
    <rect id="長方形_1445" data-name="長方形 1445" width="195" height="45" transform="translate(1166 -411)" fill="rgba(0,0,0,0)"/>
    <g id="グループ_3827" data-name="グループ 3827" transform="translate(1166.156 -410.628)" clip-path="url(#clip-path)">
      <path id="パス_4955" data-name="パス 4955" d="M188.891,0H5.8A5.8,5.8,0,0,0,0,5.8v19.84a6.511,6.511,0,0,0,1.907,4.6L15.923,44.257v-7.07H188.891a5.8,5.8,0,0,0,5.8-5.8V5.8a5.8,5.8,0,0,0-5.8-5.8m.786,32.459H15.923v4.728L5.011,26.275V4.729H189.677Z" transform="translate(0 -0.001)" fill="#fff"/>
      <path id="パス_4956" data-name="パス 4956" d="M257.769,104.127v13.431h-3.256V107.67l-3.709,5.3a1.844,1.844,0,0,1-3.02,0l-3.709-5.3v9.888h-3.256V104.127a2.092,2.092,0,0,1,.877-1.721,2.038,2.038,0,0,1,2.829.506l4.769,6.81,4.768-6.81a2.038,2.038,0,0,1,2.83-.506,2.092,2.092,0,0,1,.877,1.721m-38.145,7.962-6.425-9.177a2.038,2.038,0,0,0-2.838-.5,2.072,2.072,0,0,0-.869,1.688v13.459h3.256V107.67l6.423,9.172a2.038,2.038,0,0,0,2.838.5h0a2.071,2.071,0,0,0,.869-1.688V102.2h-3.253Zm49.229-7.434a5.549,5.549,0,0,1,4.006,1.754l1.833-2.541a9.169,9.169,0,0,0-5.839-1.978c-4.72,0-8.783,3.167-8.783,7.988s4.063,7.988,8.783,7.988a9.169,9.169,0,0,0,5.839-1.978l-1.833-2.541a5.549,5.549,0,0,1-4.006,1.754,5.225,5.225,0,0,1,0-10.446m23.584,5.223c0,4.821-3.944,7.988-8.526,7.988s-8.526-3.167-8.526-7.988,3.944-7.988,8.526-7.988,8.526,3.167,8.526,7.988m-3.6,0a4.931,4.931,0,1,0-4.922,5.217,4.948,4.948,0,0,0,4.922-5.217m-54.759-6.32,5.657,14h-3.478l-1.379-3.508h-6.269l-1.379,3.508H223.78l5.657-14a2.446,2.446,0,0,1,4.638,0m-.226,7.881-2.108-5.365-2.108,5.365Zm-98.369,1.972a4.086,4.086,0,0,1-4.268,4.148h-8.35a1.258,1.258,0,0,1-1.306-1.306V103.5a1.258,1.258,0,0,1,1.306-1.306h7.431c2.549,0,4.31,1.731,4.31,3.81a3.815,3.815,0,0,1-2.8,3.651,3.767,3.767,0,0,1,3.677,3.754m-10.667-4.993h4.244a1.74,1.74,0,1,0,0-3.456h-4.244Zm7.1,4.493a1.93,1.93,0,0,0-2.1-1.882h-5v3.764h5a1.93,1.93,0,0,0,2.1-1.882m31.105-.823-6.425-9.177a2.038,2.038,0,0,0-2.838-.5,2.072,2.072,0,0,0-.869,1.688v13.459h3.256V107.67l6.423,9.172a2.038,2.038,0,0,0,2.838.5,2.071,2.071,0,0,0,.869-1.688V102.2h-3.253Zm36.652,5.47h3.38V102.2h-3.38ZM183,109.8c0,5.061-3.724,7.758-7.95,7.758h-4.34a1.258,1.258,0,0,1-1.306-1.306V103.5a1.258,1.258,0,0,1,1.306-1.306h4.378c4.226,0,7.911,2.44,7.911,7.6m-3.574,0c0-3.67-2.734-4.839-5.039-4.839h-1.726v9.831h1.65c2.715,0,5.116-1.425,5.116-4.993m-33.29-6.243,5.657,14h-3.478l-1.379-3.508H140.67l-1.379,3.508h-3.447l5.657-14a2.446,2.446,0,0,1,4.638,0m-.226,7.881-2.108-5.365-2.108,5.365Zm47.01-7.881,5.657,14H195.1l-1.379-3.508h-6.269l-1.379,3.508h-3.447l5.657-14a2.446,2.446,0,0,1,4.638,0m-.226,7.881-2.108-5.365-2.108,5.365Z" transform="translate(-108.904 -91.284)" fill="#fff"/>
    </g>
  </g>
</svg>
