<svg xmlns="http://www.w3.org/2000/svg" width="151.006" height="39.502" viewBox="0 0 151.006 39.502">
  <g id="グループ_3828" data-name="グループ 3828" transform="translate(-1349.499 481.251)">
    <rect id="長方形_1444" data-name="長方形 1444" width="150" height="39" transform="translate(1350 -481)" fill="rgba(0,0,0,0)"/>
    <g id="グループ_3826" data-name="グループ 3826" transform="translate(1237.5 -13136.332)">
      <path id="合体_25" data-name="合体 25" d="M115.824,151.186l-.4-.091-.244-.1-.387-.192-.467-.123-.549-.091-.659-.08-2.964.071-3.027-.021-3.4-.029-1.747-.124-.415-.172-.255-.16-.223-.212-.173-.194-.112-.192-.1-.253v-.265l.04-.263.1-.255.1-.192.173-.213.16-.16.253-.263.143-.2.16-.253.091-.263.061-.233.021-.406.011-4.019.03-5.431v-5.522l.071-1.817.021-4.05.061-2.1.029-3.442-.01-.731.01-.446-.08-1.123-.143-.568-.072-.2-.09-.192-.143-.223-.183-.225-.183-.192-.122-.183-.132-.192-.091-.173-.061-.244v-.284l.04-.335.091-.265.173-.284.244-.223.335-.172.356-.1.406-.091.711-.029,1.2.01,2.5-.021h3.562l1.217.03,1.1.021.741-.04.244-.04.335-.112.335-.16.294-.152.335-.16.417-.051.356.03.375.091.274.143.244.16.2.223.16.213.111.274.255.823.516,1.764.345,1.524.274,1.036.2.711.16.67.141.609.082.68.019.539-.019.427-.16.568-.132.236-.183.192-.2.2-.276.122-.3.132-.539-.011-.345-.071-.321-.173-.406-.274-.507-.518-.481-.642-.436-.72-1.036-1.532-1.283-1.533-.73-.577-.481-.294-.343-.183-.447-.072-.284-.01-.253.051-.213.071s-.1.172-.183.183-.112.151-.112.152l-.091.321-.03.356-.071,1.7-.051,2.5-.021,2.366.03.321.029.321.071.263.1.263.132.244.192.16.183.051.255.029.284-.069.213-.132.183-.2.2-.284.143-.3.111-.183.133-.213.16-.194.16-.173.213-.141.16-.091.16-.072.223-.019.253-.03.244.021.223.059.2.1.223.132.16.143.265.253.233.345.16.321.244.516.579,1.381.364,1.035.407,1.123.425,1.123.173.568.183.589.143.481.091.4.1.427a2.358,2.358,0,0,1,.021.321c-.01.061-.021.273-.021.276l-.04.273-.091.255-.112.2-.141.152-.183.16-.132.082-.16.071-.213.071-.2.051-.2-.027h-.2l-.244-.051-.213-.091-.173-.1-.406-.3-.579-.549-.549-.691-.691-.812-.537-.669-.65-.558-.456-.274-.335-.143-.265-.05-.436.01-.294.04s-.16.192-.234.2-.151.212-.152.213l-.132.3-.04.468-.061,2.913-.03,3.857V142.2l.019,2.085.03.5.04.294.122.321.16.233.212.173.172.122.223.1.345.061h.356l.436-.051.427-.1.415-.143.481-.244.417-.274.427-.345.253-.284.233-.253.321-.385.385-.459.233-.356.356-.5.321-.446.3-.436.192-.3.213-.284.192-.284.183-.244.244-.234.183-.192.16-.16.16-.111.16-.082.132-.061.16-.061.173-.051.2-.01.16.01.173-.01.16.03.183.01.183.08.173.1.192.122.122.122.1.143.132.223.072.265.051.265.021.273-.011.539-.1.6-.192.781-.375,1.35-.467,1.684-.518,1.878-.415,1.31-.16.436-.3.518-.183.253a3.237,3.237,0,0,1-.274.225.647.647,0,0,0-.083.053.627.627,0,0,1-.141.08c-.029,0-.281.08-.284.08l-.263.042Zm-26.29-.111-.335-.01-.481-.03-.427-.042-.568-.082-.7-.151-.63-.184-.427-.151-.659-.345-.589-.3-.6-.407-.407-.321-.5-.457-.568-.69-.366-.589-.294-.577-.2-.619-.091-.528-.1-.518-.04-.446-.071-.962.01-.6.042-1.764-.011-1.238.08-2.966.01-1.086.03-3.065.061-4.01.111-5.132.051-4.953v-1.137l-.019-.321-.04-.253-.061-.172-.071-.143-.063-.122-.112-.16-.2-.223-.192-.2-.16-.225-.143-.172-.111-.223-.061-.141-.021-.213v-.183l.026-.181.122-.284.183-.225.212-.212.244-.124.345-.143.375-.1.467-.051.9-.021,1.7.011,1.086-.011.752-.021h.711l.752.091.446.082.3.112.194.08.213.183.173.244.132.263.08.284v.481l-.111.215-.213.321-.183.172-.223.233-.183.2-.143.2-.122.253-.061.225-.04.244-.059,1.36-.011,1.217.011,1.849-.1,2.475.011,1.432.011,2.983.019,3.166.021,1.564.011,3.116-.021,1.634-.021,3.3.011,1.31.01.962.071.343.091.335.111.294.1.2.143.2.091.132.112.132.143.132.16.112a.439.439,0,0,1,.143.071.918.918,0,0,0,.192.111l.213.072.345.08.321.051.366-.03.334-.071.321-.1.321-.132.274-.2.234-.223.16-.192.172-.244.16-.415.091-.427.061-.427.04-.6.03-.731.01-.913.021-2.253.01-1.989-.04-2.579v-4.213l.03-3.1,0-3.367-.019-2.772.01-2.69-.071-.9-.03-.321-.061-.213-.091-.244-.091-.2-.122-.16-.141-.132-.255-.253-.111-.124-.112-.16-.08-.16-.082-.192-.03-.16-.01-.285.04-.244.071-.215.122-.141.183-.16.234-.132.273-.143.415-.124.528-.091,1.524-.061.914-.021.863.04.642.072.447.132.375.111.265.141.253.215.132.132.143.183a1.05,1.05,0,0,1,.03.172c0,.051.01.231.01.234l.011.192s-.021.133-.03.16-.1.2-.1.2l-.1.132-.111.143-.16.143-.16.173-.132.141-.132.16-.112.16-.112.183-.1.2-.061.192-.061.711-.011.406v1.076l.011,2.954.03,2.335.061,2.791.051,2,.011,1.857-.011.021.03,4.2.04,3.837.051,1.512v2.406l-.091,1.37-.061.468-.051.265-.071.4-.091.3-.071.274-.122.425-.16.3-.16.3-.244.457-.234.335-.253.345-.3.375-.244.192-.253.225-.284.192-.356.274-.335.225-.356.223s-.285.122-.345.143-.3.12-.3.122l-.356.143-.4.071-.366.091-.385.069-.321.072-.547.059-.7.042-.771.021Zm50.634-.032-.481-.071-.619-.1-.467-.122-.68-.2-.528-.16-.294-.082-.366-.021-.335.011-.253.05-.321.091-.263.112-.274.071-.4.01-.321-.04-.3-.1-.233-.143-.263-.16-.255-.233-.151-.225-.143-.253-.122-.345-.1-.265-.1-.274-.071-.356-.072-.447-.069-.507-.112-.72-.091-.528-.04-.4-.112-.589-.111-.6-.143-.783-.111-.589-.16-1.238-.063-.335-.05-.518.01-.406.011-.375.011-.263v-.3l.051-.2.05-.183.051-.122.091-.213.082-.16.071-.082.091-.1.1-.093.071-.059.143-.071.132-.072.173-.051.213-.04.213-.021h.192l.213.011.173.05.183.082.143.061.173.122.16.16.173.2.143.234.143.253.183.436.481,1.249.16.356.122.321.284.669.467.962.335.771.415.659.375.5.2.233.172.183.183.173.2.141.181.143.192.071.194.082.273.05.253.021.253.01.194-.04.181-.082.194-.1.172-.071.16-.132.192-.143.122-.143.233-.3.172-.335.223-.481.1-.518.132-.568.082-.743.071-.945.011-.669-.011-.608v-.67l-.05-.609-.03-.751-.072-.609-.12-.569-.132-.425-.194-.481-.183-.481-.273-.569-.375-.568-.356-.481-.354-.436-.417-.436-.356-.3-.65-.589-.76-.68-1-.913-.6-.609-.436-.457-.366-.436-.385-.427-.335-.457-.335-.481-.387-.642-.244-.447-.181-.427-.16-.417-.143-.537-.111-.447-.1-.457-.122-.568-.08-.5-.029-.375V122.8l.019-.406.019-.3.061-.539.03-.375.061-.4.1-.68.051-.265.061-.354.112-.3.059-.3.1-.321.111-.3.122-.321.122-.321.2-.415.133-.213.132-.244.111-.17.122-.183.16-.244.223-.273.143-.2.151-.183.143-.213.16-.223.16-.16.192-.223.192-.183.16-.141.16-.132.143-.122.244-.143.16-.08.375-.183.321-.143.3-.1.321-.132.233-.061.183-.03.2-.061.234-.03.223-.03.213-.01.194-.021h.446l.223-.01.375.01.244.021.375.051.274.069.234.03.2.061.234.061.244.061.244.04.183.03.143.019h.212l.183-.019.192-.021.16-.019.143-.04.192-.03.16-.011h.143l.192.021.2.042.172.051.16.061.151.1.143.132.143.16.132.152.244.375.1.234.061.265.061.284.051.321.082.4.051.335.132.69.061.375.091.6.071.528.08.436.08.467.072.481.051.427.03.233-.011.274.03.321.021.294.011.255.01.213-.01.253-.021.194-.04.212-.051.173-.04.16-.091.192-.1.143-.091.091-.132.1-.143.1-.173.093-.223.071-.16.061-.16.01-.2.021-.16-.011-.183-.04-.2-.082-.112-.082-.122-.069-.111-.072-.112-.111-.1-.072-.1-.111-.1-.16-.143-.192-.111-.173-.1-.234-.172-.321-.143-.3-.122-.321-.1-.273-.132-.335-.1-.284-.143-.321-.213-.481-.244-.508-.294-.608-.244-.415-.274-.417-.192-.2-.16-.213-.3-.213-.253-.112-.335-.04-.321.04-.233.082a1.1,1.1,0,0,1-.194.1,1.36,1.36,0,0,0-.212.192,1.269,1.269,0,0,1-.215.183c-.03,0-.13.2-.132.2l-.1.2-.133.244-.091.3-.1.354-.061.345-.071.3-.021.345.021.415.03.406.01.284.019.284.072.354.284.579.233.406.244.417.2.335.345.415.569.507.425.335.924.722.642.481.481.385.579.447.481.427.367.321,1.044.994.528.6.417.528.436.589.223.356.3.456.263.529.274.642.255.63.4.914.172.481.122.481.1.547.091.569.132.9.091,1.381.042.812-.03.752-.051.792-.061.873-.112.661s-.124.751-.143.812-.181.744-.183.751l-.183.6-.2.642-.223.569-.3.6-.265.589-.321.539-.335.547-.263.356-.558.651-.253.263-.2.2-.345.273-.882.621s-.457.274-.518.3-.553.271-.558.273l-.507.213-.481.173-.547.1-.691.051s-.4.051-.425.051l-.566.008Zm-91.262-.13-.481-.069-.619-.1-.467-.122-.68-.2-.528-.16-.3-.08-.366-.021-.335.01-.253.051-.321.091-.265.111-.274.071-.4.011-.321-.042-.3-.1-.233-.143-.265-.16-.255-.233-.16-.223-.143-.255L41.823,149l-.1-.263-.1-.276-.071-.356-.071-.446-.071-.507-.112-.72-.091-.528-.04-.4-.112-.589-.112-.6-.143-.783-.112-.589-.16-1.238-.061-.335-.051-.516.019-.781.011-.265v-.3l.051-.2.051-.183.051-.123.091-.212.082-.16.071-.083.091-.1.1-.093.071-.061.143-.071.132-.071.173-.051.213-.042.213-.021h.192l.213.011.173.051.183.08.143.061.172.123.16.16.173.2.143.234.143.253.183.436.481,1.248.16.356.122.321.284.669.467.962.334.771.417.659.375.5.2.233.172.183.183.172.2.143.183.143.192.071.194.082.273.051.253.019.255.011.192-.04.183-.082.194-.1.172-.071.16-.132.192-.143.124-.143.233-.3.172-.335.223-.481.1-.516.132-.568.082-.741.071-.945.011-.669-.011-.609v-.67l-.051-.608-.03-.751-.071-.609-.122-.568-.132-.427-.192-.481-.183-.481-.274-.568-.375-.568-.356-.481-.356-.436-.417-.436-.356-.3-.642-.589-.76-.68-1-.913-.6-.609-.436-.457-.366-.436-.385-.427-.335-.457-.335-.481-.385-.642-.244-.447-.183-.427-.16-.415-.143-.539-.112-.447-.1-.456-.122-.569-.082-.5-.03-.375v-.448l.021-.406.019-.3.061-.539.03-.375.061-.4.1-.68.051-.263.061-.356.112-.3.061-.3.1-.321.111-.3.122-.321.123-.321.2-.417.132-.212L43,116.6l.122-.172.122-.183.16-.244.225-.274.141-.2.16-.183.143-.213.16-.223.16-.16.192-.223.192-.184.16-.141.16-.132.143-.122.244-.143.16-.08.375-.183.321-.143.3-.1.321-.132.234-.061.183-.029.2-.061.233-.03.225-.03.213-.01.192-.021H48.9l.223-.01.375.01.244.021.375.051.274.071.233.03.2.061.233.061.244.061.244.04.183.03.141.021h.213l.183-.021.192-.021.16-.021.143-.04.192-.029.16-.011h.143l.194.019.2.04.173.051.16.061.16.1.143.132.143.16.132.16.244.375.1.234.061.263.061.284.051.321.082.4.051.335.132.691.061.375.091.6.071.528.082.436.08.467.071.481.051.427.03.233-.01.274.029.321.021.294.01.255.01.212-.01.255-.021.192-.04.213-.051.172-.042.16-.091.192-.1.143-.091.091-.132.1-.143.1-.172.091-.225.071-.16.061-.16.01-.2.021-.16-.011-.183-.04-.1-.042-.1-.04-.111-.082-.122-.071-.112-.071-.112-.112-.1-.071-.1-.112-.1-.16-.143-.192-.112-.172-.164-.216-.172-.321-.143-.3-.225-.6-.132-.335-.1-.284-.143-.321-.213-.481-.244-.508-.3-.609-.244-.415-.276-.417-.191-.2-.16-.212-.3-.213-.253-.112-.335-.04-.321.04-.233.08a1.062,1.062,0,0,1-.194.1,1.393,1.393,0,0,0-.212.192,1.243,1.243,0,0,1-.213.183c-.029,0-.13.2-.132.2l-.1.2-.132.244-.091.3-.1.354-.061.345-.071.294-.019.345.019.417.03.406.011.284.021.284.071.354.284.579.233.406.244.415.2.335.345.415.568.508.427.335.924.72.642.481.481.385.579.446.481.427.366.321,1.046,1,.528.6.415.528.436.589.223.356.3.457.265.529.274.642.253.629.4.913.173.481.122.481.1.549.091.568.132.9.091,1.381.04.812-.03.751-.05.792-.061.873-.111.659s-.124.752-.143.812-.181.744-.183.751l-.183.6-.2.65-.223.569-.3.6-.265.589-.321.539-.335.547-.263.356-.558.651-.253.263-.2.2-.345.274-.882.619s-.457.274-.518.3-.553.271-.558.274l-.507.212-.481.173-.549.1-.691.05s-.4.051-.427.051-.515-.008-.52-.01Zm137.57-.071h-2.7l-1.187-.061-.642-.111-.274-.133-.253-.2-.215-.265-.111-.183-.082-.244-.051-.3.059-.321.1-.255.16-.3.215-.253.132-.132.183-.212.1-.234.04-.481-.1-.741-.173-.844-.141-.528-.132-.2-.133-.16L181,144.5l-.447-.122-.415-.03-.771-.01-.863.03-.8.011a.577.577,0,0,0-.183.051l-.253.132-.181.141-.132.223-.124.507-.1.568-.061.508-.071.642.059.457.213.375.223.294.255.253.233.3.183.3.04.356v.3l-.1.284-.122.213s-.16.173-.234.173-.241.149-.244.151l-.419.1-.73.051-.882.029-1.838-.01-1.283-.061-.722-.082-.395-.091-.356-.132-.274-.223-.143-.143-.132-.285-.051-.284-.01-.234.04-.274.124-.183.1-.143.132-.141.212-.223.213-.173.225-.192.173-.244.143-.223.16-.446.082-.457.082-.447.557-3.176.609-3.614.762-4.491.812-4.711.294-1.735.528-2.887.321-1.878.354-2.274.225-1.36.345-1.888.233-1.259.213-1.188.192-.791.122-.335.16-.3.16-.2.172-.143.2-.132.253-.082.539-.1,1.36-.019,1.461.061.4.051.223.111.173.112.122.132.143.122.122.183.112.192.093.3.1.335.436,2.1.72,3.787.691,3.837.448,2.638.6,3.025.589,3.217.549,2.983.642,3.3.589,2.995.5,2.415.172.9.132.659.16.415.2.356.3.366.16.141.223.234.16.223.122.253.072.234.03.3-.051.244-.111.3-.122.2-.236.183-.183.16a1.684,1.684,0,0,1-.3.091,1.028,1.028,0,0,0-.2.061,1.065,1.065,0,0,1-.231.072c-.071,0-1.065.05-1.075.05Zm-7.41-19.653L179,131.4l-.072.3-.059.321-.2,1.027-.2,1.283-.172,1.055-.192,1.123-.213,1.4-.1.68-.059.642.04.335.082.173.122.141.16.091.184.071.374.04,1.36-.04.175-.082.152-.091.091-.124.061-.143.051-.2.01-.234-.021-.192-.273-1.925-.354-2.518-.5-2.842-.04-.284-.011-.133-.082-.091-.082-.03h0Zm-54.99,19.526-1.33-.051-.321-.071-.335-.082-.253-.111-.233-.16-.175-.16-.16-.16-.091-.16-.061-.255-.011-.183.051-.233.051-.192.1-.183.1-.192.122-.141.132-.16.183-.183.192-.192.16-.194.132-.321.091-.321.051-.436.03-.9V144.7l.01-1.461.011-2.245-.053-2.152.051-2.334.011-2.1-.024-2.8.011-1.7-.011-3.128.011-1.654.021-2.727.03-1.492-.03-1.238-.021-1.259-.071-.852-.061-.321-.072-.223-.183-.321-.213-.253-.212-.192-.213-.255-.173-.223-.1-.181-.072-.263-.019-.2.04-.244.042-.192.122-.194.122-.152.16-.143.16-.122.253-.122.284-.091.335-.072.468-.05.446-.011h.354l.823-.011,1.107.021H127.1l1.35.01,1.017.091.364.1.284.132.284.16.184.213.12.213.124.3.011.183-.011.265-.091.274-.132.273-.2.3.2-.3.132-.274.091-.274.011-.265-.011-.181-.122-.3-.12-.212-.183-.213-.284-.16-.285-.132-.364-.1-1.017-.091-1.35-.011h-1.24l-1.107-.021-.823.01h-.354l-.446.011-.467.051-.335.071-.285.091-.253.122-.16.122-.16.143-.122.152-.122.194-.04.192-.04.244.019.2.072.263.091.173.173.223.212.253.213.192.213.253.183.321.072.223.061.321.071.852.021,1.259.03,1.238-.03,1.492-.021,2.727-.01,1.654.01,3.128-.018,1.715.019,2.8-.01,2.1-.048,2.33.051,2.152-.01,2.245-.01,1.461v.975l-.03.9-.051.436-.091.321-.132.321-.16.192-.191.192-.183.181-.132.16-.122.141-.1.192-.1.183-.051.192-.051.233.011.183.061.253.091.16.16.16.173.16.233.16.253.112.337.082.321.069,1.33.051,2.061.011.943-.04.985.021.76-.011.579-.04.427-.071.385-.173.253-.2.2-.244.141-.356.04-.385-.042.385-.141.356-.2.244-.253.2-.385.172-.427.071-.579.04-.76.011-.986-.019-.943.04-2.061-.011-1.33-.051-.321-.071-.335-.082-.253-.111-.233-.16-.173-.16-.16-.16-.091-.16-.063-.253-.01-.183.051-.233.051-.192.1-.183.1-.192.122-.141.132-.16.183-.183.192-.192.16-.194.132-.321.091-.321.051-.436.03-.9v-.975l.011-1.461.01-2.253-.05-2.14.051-2.335.011-2.1-.026-2.8.01-1.7-.01-3.126.01-1.654.021-2.727.03-1.492-.03-1.238-.021-1.259-.071-.853-.061-.321-.072-.223-.181-.321-.215-.253-.213-.192-.212-.253-.173-.223-.095-.183-.071-.263-.021-.2.042-.244.04-.192.122-.192.122-.152.16-.143.16-.122.253-.122.284-.091.335-.071.467-.051.446-.011h.356l.832,0,1.105.021h1.248l1.35.011,1.017.091.364.1.284.132.284.16.184.213.12.212.124.3.01.183-.01.263-.091.274-.132.274-.2.294-.181.192-.274.255-.244.356-.132.366-.072.427-.01.629-.011.913-.01,1.1-.042,1.371-.03,4.071v3.41l-.01,1.869-.03,4.282v7.339l-.03,1.867.04,1.9.051.415.132.4.172.3.321.321.321.285.3.321.122.233.071.356-.071-.354-.122-.234-.3-.321-.321-.284-.321-.321-.172-.3-.132-.4-.051-.417-.04-1.9.03-1.867v-7.339l.029-4.282.011-1.867V125.93l.029-4.071.043-1.37.01-1.1.011-.914.01-.629.072-.427.132-.366.244-.354.274-.253.183-.192-.181.192-.274.253-.244.354-.132.366-.072.427-.01.629-.011.914-.01,1.1-.04,1.37-.03,4.071v3.411l-.011,1.867-.03,4.282v7.339l-.03,1.867.042,1.9.051.417.132.395.172.3.321.321.321.284.3.321.122.234.071.356-.04.385-.141.356-.2.244-.253.2-.387.173-.427.072-.579.04-.76.011-.985-.021-.943.042Zm27.33-.045-.619-.071-.274-.091-.406-.132-.306-.2-.233-.173-.16-.265-.1-.244-.061-.345.011-.3.08-.274.112-.2.143-.192.143-.123.16-.16.143-.133.181-.2.122-.2.122-.321.082-.284.061-.852-.03-5.705-.021-4.071-.01-3.168-.01-2.446V127.4l.01-2.7-.03-4.435.03-1.492-.03-.731-.061-.446-.061-.387-.143-.273-.244-.3-.2-.212-.2-.255-.16-.233-.1-.284-.05-.335.03-.335.091-.284.091-.172.173-.2.213-.233.4-.192.366-.091.558-.1,1.026-.04,1.419-.011,1.283.021,1.545-.021.913.04.518.08.255.122.223.16.192.173.16.192.112.225.071.223.051.3v.151l-.021.123-.091.2-.08.16-.152.2-.16.194-.233.233-.225.253-.132.223-.132.273-.051.345-.04.842-.021.853.021,1.248-.011,2.085.011,2.3-.011,1.36.03,1.156.05.284.063.2.122.143.12.122.183.111.481.061.68.029.609-.05.172-.061.16-.061.151-.1.112-.16.112-.2.051-.265.05-.669-.019-1.249.019-1.5-.01-2.162-.01-1.025.019-1.444v-1.2l-.029-.457-.042-.321-.071-.265-.16-.294-.356-.467-.141-.16-.16-.16-.143-.233-.122-.223-.059-.234-.03-.183.01-.253v-.147l.091-.192.112-.16.112-.143.152-.16.143-.1.2-.124.274-.091.589-.16.467-.019.842-.061.863-.011h2.122l1.764.061.812.08.244.061.244.1.225.122.172.172.16.215.111.244.051.244.011.346-.061.263-.071.183-.175.244-.132.16-.244.253-.192.234-.172.253-.112.252-.1.569-.03,3.035-.011,4.892-.04,4.491-.011,4.17v4.709l.03,3.572-.03,2.183-.021,1.7.021.457.1.321.112.3.111.263.223.263.194.225.16.213.124.192.1.223.051.274v.255l-.091.3-.16.255-.244.255-.234.172-.356.122-.557.082-1.067.061-1.764.042-2.01-.021-1.35-.051-.537-.059-.387-.061a2.741,2.741,0,0,1-.321-.184,2.11,2.11,0,0,0-.244-.173l-.2-.233-.132-.192-.051-.255-.021-.234.051-.2.091-.194.1-.183.122-.192.132-.143.192-.192.2-.173.141-.172.143-.16.082-.152.112-.143.05-.282.03-.518.021-3.036-.021-4.4-.021-3.594v-1.471l-.05-.539-.08-.223-.082-.12-.122-.1-.122-.059-.16-.042-.343-.011-.568.011-.508.011-.366.021-.335.1-.16.112-.112.1-.048.213-.021.364-.04.975-.042,1.533v3.6l.03,1.97-.019,1.907.019.892V145.9l.021.823.019.427.04.284.1.183.143.244.192.244.194.213.16.16.112.122.1.143.083.172.051.194-.04.406-.143.345-.16.223a1.1,1.1,0,0,1-.244.194.848.848,0,0,0-.213.143,1.482,1.482,0,0,1-.321.112,1.676,1.676,0,0,0-.321.091l-.529.021h-.659l-.8.01-1.283.021Zm-89.918-.34-.619-.071-.269-.093-.406-.132-.3-.2-.233-.172-.16-.265-.1-.244-.061-.345.01-.3.082-.274.112-.2.143-.192.143-.122.16-.16.141-.133.184-.2.122-.2.122-.321.082-.284.061-.852-.021-3.837-.011-1.867-.021-4.071-.01-3.166-.034-2.449V127.06l.011-2.7-.027-4.451.03-1.492-.03-.731-.061-.446-.061-.387-.143-.274-.244-.3-.2-.212-.2-.253-.16-.234-.1-.284-.051-.335.03-.337.091-.284.091-.172.172-.2.215-.233.4-.194.366-.091.558-.1,1.025-.04,1.421-.01,1.283.021,1.543-.021.913.04.516.08.255.122.225.16.192.173.16.192.111.223.071.223.051.3v.151l-.021.124-.091.2-.082.16-.152.2-.16.192-.234.234-.223.253-.132.223-.132.273-.051.345-.04.842-.019.852.019,1.249-.01,2.085.01,2.3-.01,1.36.03,1.156.051.284.061.2.12.141.122.122.184.112.481.061.68.03.608-.051.173-.061.16-.061.152-.1.112-.16.111-.2.051-.265.051-.669-.021-1.248.021-1.5,0-2.16-.011-1.025.021-1.444v-1.188l-.03-.457-.042-.321-.069-.263-.16-.3-.35-.467-.143-.16-.152-.16-.143-.234-.12-.223-.061-.234-.029-.183.011-.253v-.133l.091-.192.111-.16.112-.143.16-.16.143-.1.2-.124.274-.091.589-.16.468-.019.842-.061.863-.011h2.122l1.764.061.812.082.244.061.244.1.225.12.172.173.16.215.112.244.051.244.011.345-.061.263-.071.184-.173.244-.132.16-.244.253-.192.234-.172.253-.112.252-.1.569-.03,3.035-.011,4.894-.04,4.491-.011,4.17v4.709l.03,3.572-.03,2.183-.021,1.7.021.457.1.321.111.3.111.263.223.263.194.225.16.213.124.192.1.223.05.276v.252l-.091.306-.16.253-.244.253-.233.173-.356.122-.558.082-1.065.061-1.764.042-2.01-.021-1.35-.051-.537-.059-.387-.061a2.62,2.62,0,0,1-.321-.183,2.336,2.336,0,0,0-.244-.173l-.2-.233-.132-.192-.051-.255-.019-.234.051-.2.071-.183.1-.183.122-.192.132-.143.192-.192.2-.173.143-.172.143-.16.082-.151.111-.143.051-.284.03-.516.021-3.035-.021-4.406-.021-3.593v-1.471l-.051-.539-.082-.223-.08-.122-.122-.1-.122-.059-.16-.04-.345-.011-1.076.021-.366.021-.335.1-.16.111-.112.1-.051.212-.019.364-.042.975-.04,1.532v3.6l.029,1.97-.019,1.907.019.892v1.219l.021.823.019.425.042.284.1.183.143.244.192.244.192.213.16.16.111.122.1.143.082.172.051.194-.04.406-.143.345-.16.225s-.183.183-.245.192a.877.877,0,0,0-.212.141,1.4,1.4,0,0,1-.321.112,1.639,1.639,0,0,0-.321.091l-.529.021h-.659l-.8.01-1.283.021Z" transform="translate(72.085 12542.872)" fill="#fff" stroke="rgba(0,0,0,0)" stroke-miterlimit="10" stroke-width="1"/>
    </g>
  </g>
</svg>
