<svg xmlns="http://www.w3.org/2000/svg" width="27.6" height="27.595" viewBox="0 0 27.6 27.595"><g transform="translate(-176.301 -1795.869)"><path d="M93.6,13.8A13.8,13.8,0,1,0,77.64,27.43V17.787h-3.5V13.8h3.5v-3.04c0-3.459,2.061-5.371,5.212-5.371a21.33,21.33,0,0,1,3.09.271v3.4H84.21a2,2,0,0,0-2.25,2.16V13.8h3.824l-.612,3.988H81.956v9.643A13.8,13.8,0,0,0,93.6,13.8" transform="translate(110.301 1795.869)"/><path d="M85.171,17.787l.612-3.988H81.955V11.21a1.992,1.992,0,0,1,2.25-2.159h1.74v-3.4a21.052,21.052,0,0,0-3.09-.271c-3.151,0-5.212,1.911-5.212,5.371v3.039h-3.5v3.988h3.5v9.644a13.857,13.857,0,0,0,4.312,0V17.782Z" transform="translate(110.301 1795.869)" fill="#fff"/></g></svg>