<svg xmlns="http://www.w3.org/2000/svg" width="23" height="23" viewBox="0 0 23 23"><g transform="translate(-20.313 -410.274)"><path d="M43.313,421.774a11.5,11.5,0,1,0-13.3,11.36V425.1H27.1v-3.324h2.92V419.24c0-2.882,1.717-4.474,4.343-4.474a17.657,17.657,0,0,1,2.575.225v2.83h-1.45a1.662,1.662,0,0,0-1.875,1.8v2.157H36.8l-.51,3.324h-2.68v8.036A11.5,11.5,0,0,0,43.313,421.774Z" fill="#fff"/><path d="M36.289,425.1l.51-3.324h-3.19v-2.157a1.662,1.662,0,0,1,1.875-1.8h1.45v-2.83a17.657,17.657,0,0,0-2.575-.225c-2.626,0-4.343,1.592-4.343,4.474v2.534H27.1V425.1h2.92v8.036a11.6,11.6,0,0,0,3.593,0V425.1Z"/></g></svg>