<svg xmlns="http://www.w3.org/2000/svg" width="28.8" height="27.442" viewBox="0 0 28.8 27.442"><g transform="translate(-239.901 -1795.869)"><path d="M158.4,11.686C158.4,5.242,151.94,0,144,0s-14.4,5.242-14.4,11.686c0,5.777,5.123,10.614,12.043,11.529.468.1,1.107.309,1.269.71a2.951,2.951,0,0,1,.046,1.3s-.169,1.016-.206,1.234c-.062.36-.289,1.423,1.248.776a46.5,46.5,0,0,0,11.314-8.359,10.4,10.4,0,0,0,3.086-7.192" transform="translate(110.301 1795.869)"/><path d="M153.61,15.407h-4.046a.275.275,0,0,1-.275-.274V8.854a.275.275,0,0,1,.275-.274h4.046a.275.275,0,0,1,.275.274V9.876a.275.275,0,0,1-.275.274h-2.75v1.062h2.75a.275.275,0,0,1,.275.274v1.021a.275.275,0,0,1-.275.274h-2.75v1.06h2.75a.277.277,0,0,1,.275.275v1.02a.275.275,0,0,1-.275.271" transform="translate(110.301 1795.869)" fill="#fff"/><path d="M138.644,15.407a.275.275,0,0,0,.275-.274V14.112a.277.277,0,0,0-.275-.274H135.9V8.849a.276.276,0,0,0-.276-.274H134.6a.275.275,0,0,0-.275.274v6.28a.275.275,0,0,0,.275.274h4.046Z" transform="translate(110.301 1795.869)" fill="#fff"/><path d="M140.058,8.572h1.021a.275.275,0,0,1,.275.275v6.284a.275.275,0,0,1-.275.275h-1.021a.275.275,0,0,1-.275-.275V8.847a.275.275,0,0,1,.275-.275" transform="translate(110.301 1795.869)" fill="#fff"/><path d="M148.032,8.572h-1.021a.275.275,0,0,0-.275.274V12.58L143.856,8.7l-.023-.028-.017-.019-.015-.011h-.007l-.015-.01h-.008l-.016-.008h-.008l-.016-.007h-1.118a.275.275,0,0,0-.275.274v6.285a.275.275,0,0,0,.275.274h1.021a.275.275,0,0,0,.275-.274V11.441l2.88,3.888a.274.274,0,0,0,.071.069l.016.011h.063a.246.246,0,0,0,.072.01h1.015a.275.275,0,0,0,.275-.274V8.86a.276.276,0,0,0-.261-.288Z" transform="translate(110.301 1795.869)" fill="#fff"/></g></svg>