<svg xmlns="http://www.w3.org/2000/svg" width="24" height="22.868" viewBox="0 0 24 22.868"><g transform="translate(-20.473 -446.146)"><path d="M44.473,455.885c0-5.37-5.383-9.739-12-9.739s-12,4.369-12,9.739c0,4.814,4.269,8.845,10.036,9.607.39.085.922.258,1.057.592a2.471,2.471,0,0,1,.039,1.085s-.141.847-.172,1.027c-.052.3-.241,1.187,1.04.647a38.723,38.723,0,0,0,9.428-6.967h0A8.664,8.664,0,0,0,44.473,455.885Z" fill="#fff"/><path d="M40.481,458.985H37.109a.229.229,0,0,1-.229-.229v0h0v-5.228h0v0a.229.229,0,0,1,.229-.229h3.372a.23.23,0,0,1,.229.229v.851a.229.229,0,0,1-.229.229H38.189v.884h2.292a.23.23,0,0,1,.229.229v.851a.229.229,0,0,1-.229.229H38.189v.884h2.292a.23.23,0,0,1,.229.229v.851A.229.229,0,0,1,40.481,458.985Z"/><path d="M28.01,458.985a.229.229,0,0,0,.229-.229V457.9a.23.23,0,0,0-.229-.229H25.719v-4.157a.23.23,0,0,0-.23-.229h-.851a.229.229,0,0,0-.229.229v5.233h0v0a.229.229,0,0,0,.229.229H28.01Z"/><rect width="1.309" height="5.695" rx="0.229" transform="translate(28.959 453.29)"/><path d="M35.833,453.29h-.851a.228.228,0,0,0-.229.229v3.111l-2.4-3.236a.222.222,0,0,0-.019-.024v0l-.014-.014,0,0-.013-.01-.006-.005-.012-.008-.007-.005-.013-.007-.007,0-.013-.006-.008,0-.014,0-.008,0-.014,0-.009,0h-.879a.228.228,0,0,0-.229.229v5.237a.228.228,0,0,0,.229.229h.851a.229.229,0,0,0,.229-.229v-3.109l2.4,3.239a.232.232,0,0,0,.059.058l0,0,.014.009.007,0,.011.006.011.005.008,0,.015.005h0a.235.235,0,0,0,.06.008h.846a.229.229,0,0,0,.229-.229v-5.237A.229.229,0,0,0,35.833,453.29Z"/></g></svg>