<svg xmlns="http://www.w3.org/2000/svg" xmlns:xlink="http://www.w3.org/1999/xlink" width="68" height="68" viewBox="0 0 68 68"><defs><clipPath id="a"><rect width="25" height="25" transform="translate(0.055 0.055)" fill="none"/></clipPath></defs><g transform="translate(-1204 -10)"><rect width="68" height="68" transform="translate(1204 10)"/><g transform="translate(1225.945 29.945)" clip-path="url(#a)"><path d="M23.075,24.575a1.5,1.5,0,0,1-1.061-.439L-1.061,1.061a1.5,1.5,0,0,1,0-2.121,1.5,1.5,0,0,1,2.121,0L24.135,22.014a1.5,1.5,0,0,1-1.061,2.561Z" transform="translate(1.018 1.018)" fill="#fff"/><path d="M0,24.575a1.5,1.5,0,0,1-1.061-.439,1.5,1.5,0,0,1,0-2.121L22.014-1.061a1.5,1.5,0,0,1,2.121,0,1.5,1.5,0,0,1,0,2.121L1.061,24.135A1.5,1.5,0,0,1,0,24.575Z" transform="translate(1.018 1.018)" fill="#fff"/></g></g></svg>