<svg xmlns="http://www.w3.org/2000/svg" xmlns:xlink="http://www.w3.org/1999/xlink" width="375" height="667" viewBox="0 0 375 667">
  <defs>
    <clipPath id="clip-path">
      <rect id="長方形_1454" data-name="長方形 1454" width="375" height="667" fill="#fff" stroke="#707070" stroke-width="1"/>
    </clipPath>
    <clipPath id="clip-path-2">
      <rect id="長方形_1453" data-name="長方形 1453" width="624.532" height="894.237" fill="none"/>
    </clipPath>
  </defs>
  <g id="bg_blush" clip-path="url(#clip-path)">
    <g id="グループ_3824" data-name="グループ 3824" transform="translate(-53.566 -28)">
      <g id="グループ_3824-2" data-name="グループ 3824" transform="translate(0 -1)" clip-path="url(#clip-path-2)">
        <path id="パス_4859" data-name="パス 4859" d="M491.839,409.037c7.186-.736,8.154-3.087,3.431-8.819-.63-.765-1.336-1.5-2.008-2.252-3.372-1.7-5.082-4.832-8.772-6.26-4.566-5.074-14.98-8.637-14.98-8.637s-2.63-.644-5.234-1.343v-.855a6.715,6.715,0,0,0,2.07.485,9.916,9.916,0,0,1,2.677-.347c6.076,1.013,11.821,1.583,12.876-4.317a9.991,9.991,0,0,0-.847-1.287c.107-.007.217-.009.323-.017,6.914.812,10.852,6.551,16.4,9.625,2.308-3.168.453-6.2-3.167-9.524-2.369-2.178-8.029-4.613-2.734-7.3,1.2-.607-.391-2.1-1.434-2.572-8.4-3.775-15.241-10.3-23.717-13.913a6.11,6.11,0,0,0-2.447-.974V271.6h-21V23.6H222.456A66.264,66.264,0,0,0,206.279,10.14c-.919-.286-1.844-.576-2.794-.875-4.359-2.673-12.559-2.494-12.559-2.494s.918-1.589-1.158-.308c-9.279-2.086-8,1.492-16.217,4.164-5.906-1.655-11.852-3.91-17.671-4.194,2.347,4.048,6.687,8.548.778,10.739-5.934-3.873-11.917-6.731-18.028-6.662-3.587-5.932-7.385-3.678-11.118-3.874l-.621-.988-.832-.806A15.424,15.424,0,0,0,121.927,0a5.075,5.075,0,0,0,.222,5.249,7.725,7.725,0,0,0,1.362,1.83,9.5,9.5,0,0,0,1.024,2.039c-.966,5.243,4.789,9.992,4.393,15.194-.957-.5-2.416-1.689-2.792-1.376-3.869,3.238-7.463-.488-11.22-4.736-.619,4.762-2.8,7.2-5.138,9.483q.087,3.048.183,6.1a5.809,5.809,0,0,1,.412,1.1c.788,5.063-5.457.407-5.762,4.989-.149,2.273-1.046,6.31-4.962,5.372a4.74,4.74,0,0,1-4.249-.174c-.5.229-.974.489-1.488.717a3.014,3.014,0,0,0-1.3-2.145c-3.885-1.066-7.771-2.017-11.653-3.219-7.019-2.176-8.977.047-7.156,8.427.243,1.115.569,2.234.856,3.35,2.38,3.309,2.56,7.526,5.355,10.663a28.951,28.951,0,0,0,3.965,8.228,20.315,20.315,0,0,0-3.5-.267C76.9,64.889,73.1,67.144,69.365,66.947l-.621-.988-.832-.806a15.424,15.424,0,0,0-4.132-4.842A5.075,5.075,0,0,0,64,65.56a7.725,7.725,0,0,0,1.362,1.83,9.5,9.5,0,0,0,1.024,2.039c-.966,5.244,4.789,9.992,4.393,15.194-.957-.5-2.416-1.688-2.792-1.375-3.869,3.237-7.463-.489-11.22-4.736-.619,4.762-2.8,7.2-5.138,9.484q.087,3.046.183,6.1a5.8,5.8,0,0,1,.4,1.085c.788,5.064-5.458.407-5.762,4.989-.15,2.273-1.046,6.311-4.962,5.372a4.734,4.734,0,0,1-4.267-.172L42.77,118.9l23.571,35.5c-1.352,1.2-1.45,3.519-.481,7.119,1.132,4.2,1.972,8.384,2.946,12.575a3.413,3.413,0,0,0,2.342,1.5c-.292.534-.61,1.029-.9,1.543a4.789,4.789,0,0,1-.054,4.529c.83,4.216-3.777,4.946-6.349,4.979-5.186.071-.3,6.97-5.964,5.852a6.718,6.718,0,0,1-1.213-.5q-3.435-.269-6.867-.53c-2.711,2.364-5.594,4.545-10.994,4.939,4.573,4.231,8.558,8.258,4.681,12.194-.374.38.888,2,1.388,3.046-5.888.132-10.9-6.25-16.873-5.513a10.914,10.914,0,0,0-2.239-1.2,8.635,8.635,0,0,0-1.983-1.55,6.017,6.017,0,0,0-5.9-.526s1.276,2.128,5.216,4.662l.865.931,1.077.715c0,3.986-2.763,7.9,3.715,12.043-.438,6.5,2.439,13.017,6.453,19.542-2.816,6.163-7.636,1.3-12.062-1.423-.02,6.205,2.174,12.652,3.693,19.025-3.494,8.586-7.455,7.032-5.647,17.016-1.566,2.137.279,1.248.279,1.248s-.682,8.713,2.075,13.494c.281,1.027.553,2.02.822,3.02,6.447,11.738,16.117,20.774,27.6,28.294.549,2.345,2.274,6.023,1.529,5.3a14.668,14.668,0,0,0-5.619-3.143c-1.582-.546-.08,4.635-1.29,3.645-2.507-1.124-.784,7.428-2.854,10.048a3.035,3.035,0,0,1-2.786.958c-.739-.007-1.464.452-2.2.135a1.722,1.722,0,0,0-1.006-.233,3.969,3.969,0,0,1-1.021.27c-2.162-.136-4.236-.1-5.162,2.41a2.732,2.732,0,0,0,.2.5l-.121.022c-2.487-.01-3.426-2.215-5.2-3.234a2.433,2.433,0,0,0-.6,2.235,3.983,3.983,0,0,1-1.092-.372c-.456-.009-.915-.038-1.374-.029-3.443.068-4.442,1.16-3.774,4.02.367,1.584.63,3.2.943,4.789a.857.857,0,0,0,.852.348c-.114.25-.237.487-.351.728a2.165,2.165,0,0,1-.076,1.85c.258,1.624-1.464,2.44-2.422,2.74-1.928.61-.2,2.872-2.289,3.052a1.707,1.707,0,0,1-.443-.07l-2.547.554a9.424,9.424,0,0,1-4.146,3.241c1.648,1.213,3.079,2.406,1.59,4.443-.142.2.3.716.48,1.084-2.186.714-3.974-1.324-6.2-.356a2.758,2.758,0,0,0-.818-.239,2.007,2.007,0,0,0-.717-.408c-1.086-.5-1.933-1.526-3.453-1.048,1.039.946,1.713,2.219,3.146,2.811l.309.282.392.17c-.048,1.622-1.124,3.526,1.233,4.489a11.357,11.357,0,0,0,2.159,7.237c-1.122,2.824-2.852,1.382-4.466.77-.084,2.53.654,4.909,1.138,7.335-1.4,3.888,2.05,5.308,2.6,9.171a2.6,2.6,0,0,0,.032,3.009c-.924,1.925-.36,3.624.606,5.263.091.388.18.762.268,1.138.208.377.428.739.657,1.091a6.1,6.1,0,0,0-1.231,2.421l-.815.825c-.511.239-.918.492-.647.859C7.753,413.569,13.665,415,7.7,419.8c-1.346,1.08.238,2.491,1.324,2.78,4.869,1.3,9.138,3.778,13.49,6.088a60.78,60.78,0,0,0,2.133,7.306c-1.31,4.716,3.252,6.5,4.426,11.216a3.114,3.114,0,0,0,.408,3.668c-.941,2.331-.014,4.412,1.415,6.424.163.474.322.931.48,1.391a26.88,26.88,0,0,0,10.006,8.74c.031.213.068.419.1.629-1.188,2.965-1,6.31-3.023,9.044-.643,1.388-1.152,2.82-1.852,4.2-1.137,2.258-2.275,4.563-1.95,7.178-.635.7-.451,1.6-.742,2.385,1.531,3.673,4.78,5.693,8.687,7.08a78.471,78.471,0,0,0,7.99,4.027l.307.12c1.094,3.77,2.036,7.7.994,10.19-.908,2.176-3.018,2.933-5.3,3.485-1.581.43-2.815,1.73-4.615,1.576a4.4,4.4,0,0,0-2.318.165,9.149,9.149,0,0,1-2,1.124c-4.722,1.043-9.154,2.36-9.384,7.654a5.907,5.907,0,0,0,.772.817c-.081.039-.163.076-.245.114-5.342,1.477-8.9-2.122-13.422-2.974-1.453,3.379.255,5.352,3.336,7.016,2.017,1.087,6.564,1.363,2.794,5.281-.852.885.5,1.647,1.341,1.715,6.765.553,12.608,3.911,19.413,4.3a3.775,3.775,0,0,0,2.06.033l5.061,1.943c1.126,2.181,2.968,2.992,5.726,2.074l9.008,3q1.708.831,3.419,1.658l-3.415,2.488-3.53-1.294c2.415,4.289,6.954,6.269,11.6,8.289,5.265,2.29,11.958,1.945,16.511,4.56l.016.008c.342,1.788-.49,3.419-.576,5.139a1.072,1.072,0,0,0-.232,1.286,62.036,62.036,0,0,1-4.469,14.811l-.52.891a.279.279,0,0,0-.016.04.334.334,0,0,0,.208.425.444.444,0,0,0,.156.032c.538.658-.06,1.068-.328,1.547-.385.811.153,1.384.774,1.934.109.081.223.156.34.226.332,1.047,1.535,1.486,2.489,2.1l1.745-.147c.292.38.5.93.9,1.111a37.8,37.8,0,0,1,5.522,3.5c.2.135.588.046.888.061l1.013.633c.149.843.654,1.209,1.6.976.933.811,1.558,1.9,2.8,2.429.116-.133.236-.275.352-.412a1.719,1.719,0,0,0,1.39.228c.533.21,1.042.883,1.624.332.311-.3-.12-.65-.42-.909l.054-.42a2.77,2.77,0,0,0,1.813.5l.073.039a4.578,4.578,0,0,1-.658,1.1,1.816,1.816,0,0,0-.22.218,1.767,1.767,0,0,0,.208,2.49,2.229,2.229,0,0,0,.829.461c1.313.576,2.623.723,3.191-.324.4,2.814,2.95,4.44,5.258,6.2,1.734.354,2.557,2.091,4.334,2.383a3.775,3.775,0,0,0,1.292.108,5.165,5.165,0,0,0,.656-.1,6.278,6.278,0,0,0,2.177.839c.362.06.934.472,1.062.025.53-1.857,1.446-.5,2.046-.045.7.527,1.107,1.343,1.953,1.779.231.147.473.278.711.4a12.588,12.588,0,0,1-2.017,3.261c-1.4.648-2.29-1.319-4.335.222,2.427,2.032.994,6.323,4.06,8.25-2.042,1.49-2.963-.458-4.607.009-1.168,1.327.029,1.92.4,2.773,2.49,1.816,2.492,1.942,0,4.242-.234-.1-.471-.19-.708-.279-.656.033-.823.3-.571.772a.063.063,0,0,0,.024.049q-.254.4-.521.783l-1.16.038c.185.245.367.492.55.738a.122.122,0,0,0,.071.088c.081,1.456,1.388,1.627,2.388,2.117l.028.07a7.571,7.571,0,0,1-.525.579l-.717-.18c-1.609-.537-2.848-1.882-5.4-1.194.193,3-.631,6.055-1.117,9-1.132.883-1.986-.4-3.332.875,1.295,1.442,2.591,2.987,2.84,5.177,2.337.572,3.115,2.791,4.637,4.212a13.879,13.879,0,0,0,5.4,3.619l2.061,1.117c-.331,1.307-1.937,3.387,1.169,2.614a1.879,1.879,0,0,1,1.415-.334l-1.415.334,1.3.629c.558,1.852,2.524,2.063,3.931,2.922,1.078,2.763,3.829,3.654,6.216,4.954-1.1,1.788-1.094,3.1.935,3.358a8.7,8.7,0,0,1,3.127.6l-.267,1.9c-1.364.469-2.318-.689-3.808-.079.948,2.268,3.438,2.678,5.075,4.042,2.861,1.667,6.553,1.476,9.871,2.114,2.145.415,4.333-.575,6.4-2.025l1.855.776c-.15,1.795-2.521,1.278-2.95,2.728a94.258,94.258,0,0,0,22.6,15.913c-1.1,3.272-2.34,6.5-3.708,9.689-.279.481-.559.958-.841,1.439a.631.631,0,0,0-.027.065.541.541,0,0,0,.341.685.721.721,0,0,0,.247.052c.868,1.066-.1,1.724-.532,2.5-.621,1.312.25,2.24,1.25,3.127.182.132.365.252.549.363.539,1.685,2.484,2.394,4.023,3.385q1.408-.123,2.82-.24c.48.619.815,1.5,1.463,1.8,3.287,1.5,6.019,3.676,8.919,5.649.322.218.948.074,1.434.1.542.339,1.091.68,1.634,1.022.245,1.36,1.059,1.953,2.588,1.576,1.5,1.308,2.51,3.066,4.516,3.924q.287-.333.568-.667a2.776,2.776,0,0,0,2.251.372c.862.335,1.683,1.426,2.626.535.5-.473-.191-1.05-.678-1.473l.089-.677A4.473,4.473,0,0,0,214.1,738l.116.063a7.435,7.435,0,0,1-1.063,1.783c-1.707,1.995-1.246,4,1.318,5.119,2.124.928,4.238,1.169,5.156-.523.641,4.553,4.763,7.177,8.493,10.021,2.807.569,4.134,3.379,7,3.849a6.074,6.074,0,0,0,2.088.175,9.026,9.026,0,0,0,1.06-.16,10.092,10.092,0,0,0,3.519,1.356c.594.1,1.51.762,1.715.043.857-3,2.326-.809,3.306-.073,1.134.854,1.788,2.174,3.154,2.874a15.328,15.328,0,0,0,5.468,2.082c4.512.891,9.018,1.962,12.867,5.068,2.788,2.249,5.443,5.3,9.8,5.4l1.67,1.016c2.563-1.375,4.352-.179,5.375,1.887,1.588,3.2,3.989,4.648,7.832,4.219a18.746,18.746,0,0,1,3.388.226c1.713,2.421,3.82,4.227,7.673,4.1-.723-2.584-1.01-4.976,1.05-6.539l.646.226a6.533,6.533,0,0,0,1.558.426c.172.015.344.024.512.032,1.488,2.2,4.11,2.382,6.756,2.526,1.822,1.014,3.2,2.843,5.664,2.672.279.148.555.3.825.463l.415.271.421.263c1.578,3.008,4.366,4.986,7.35,6.8l3.089.889a2.152,2.152,0,0,0,1.127,1.8,2.856,2.856,0,0,1,.6,2.475l1.678,1.076a2.012,2.012,0,0,0,1.157,1.769l1.388-.127c2.891,1.543,5.34,4.565,9.267,2.643,1.611-.188,3.215-.417,4.831-.58a1.317,1.317,0,0,1,1.524.884c.137.475-.23.74-.717.918-3.082,1.13-.54,2.274.49,2.317,3.06.135,5.35,1.53,7.665,3.07a11.235,11.235,0,0,0,4.744-1.25,2.773,2.773,0,0,1,3.116,1.078c1.482,3.659,5.354,3.845,8.428,5.2,1.428.736,2.735,2.347,4.487.729q.424.249.846.505c.8,2.18,3.31,2.694,5.262,3.841-.862,1.215-2.617.2-3.127,1.4,1.21,1.713,3.146,2.092,5.155,2.3.867.089,2.034-.08,1.958-.833-.414-4.169,3.068-2.575,5.359-2.76l.841.53c5.33,3.092,11.407,5.034,16.262,8.884.594.47,1.587.062,2.309-.293,1.515,1.1.944,3.367,3.115,4.1,3.194-.989,6.2-.84,8.654,1.785.8.859,1.515,1.6,2.859,1.273a10.449,10.449,0,0,1,3.764,3.453c.868,1.331,1.554,2.92,3.581,3.331.181-.233.364-.467.547-.7a3.9,3.9,0,0,0,.847.489c3.33.921,6.274,4.923,10.219,1.449.577-.508,2.214.141,3.247.727,1.317,1.653,5.409,2.254,2.929,5.39-.113.146.33.862.687,1.068,1.549.9,2.8,2.436,5.064,2.562-.322-2.718-4.415-4.858-1.1-7.384l.849.5c2.91,2.414,5.711,4.593,3.462,8.658-1.527,2.76,2.4,3.848,4.036,5.526,1.434,1.469,2.57.181,3.706-.649a5.6,5.6,0,0,1,2.611-1.009c.809-.08,1.976.739,1.276,1.348-2.481,2.139-1.447,3.182,1.311,4.439,1.117.512,1.031,2.112.885,3.312q2.537,1.608,5.068,3.219c.184-.236.366-.47.549-.707a2.553,2.553,0,0,1,2.252.347l2.241.363c.458-.1.933-.112,1.4-.177s.925-.158,1.4-.177l1.108-1.428a9.848,9.848,0,0,0,1.44,1.839c3.3,2.658,6.2,6.153,11.438,4.992.732-.161,1.132.465,1.621.875a11.356,11.356,0,0,1,3.543,4.8c3.024.285,5.526,2.128,8.483,2.662.538.1,1.025.731,1.466,1.173,2.818,2.811,2.811,2.817,6.771.882-1-1.519-2.834-2.568-3.424-4.337.9-.891,2.082-.662,3.231-.546a1.174,1.174,0,0,0,.781-.562l.631.389c2.013,1.159,3.9,2.461,6.052,3.475a10.417,10.417,0,0,1,5.212,4.737c-1.584.2-2.084-2.3-3.937-1.428,1.012,1.9,2.889,2.946,4.712,4.046L624.532,771.7Z"/>
      </g>
    </g>
  </g>
</svg>
