<svg xmlns="http://www.w3.org/2000/svg" width="68" height="68" viewBox="0 0 68 68">
  <g id="グループ_473" data-name="グループ 473" transform="translate(-1204 -10)">
    <rect id="長方形_134" data-name="長方形 134" width="68" height="68" transform="translate(1204 10)"/>
    <g id="グループ_472" data-name="グループ 472" transform="translate(-1 -2)">
      <g id="グループ_471" data-name="グループ 471">
        <path id="パス_1264" data-name="パス 1264" d="M1248.642,31.429c-.644-.44-1.246-.9-1.89-1.282a12.04,12.04,0,0,0-7.939-1.767A9.686,9.686,0,0,0,1231.6,32.8a9.829,9.829,0,0,0-1.463,6,8.4,8.4,0,0,0,1.781,4.954,8.644,8.644,0,0,0,7.317,3.366,7.666,7.666,0,0,0,5.068-1.838,7.386,7.386,0,0,0,2.659-6.018,6.138,6.138,0,0,0-5.1-5.875,6.4,6.4,0,0,0-3.914.392,4.538,4.538,0,0,0-2.708,3.86,3.728,3.728,0,0,0,.695,2.805,4.046,4.046,0,0,0,4.221,1.356,2.555,2.555,0,0,0,1.314-4.07,1.075,1.075,0,1,1,1.714-1.294,4.931,4.931,0,0,1,.97,3.182,4.612,4.612,0,0,1-3.409,4.256,6,6,0,0,1-7.56-4.46,6.858,6.858,0,0,1,4.865-7.963,8.786,8.786,0,0,1,9.547,3.212,8.136,8.136,0,0,1,1.474,5.666,9.479,9.479,0,0,1-5.493,7.951,10.522,10.522,0,0,1-5.055.994q-6.847-.189-13.695-.379a1.077,1.077,0,0,1-1.056-1.566c1.562-4.251,3.137-8.5,4.676-12.758a13.5,13.5,0,0,1,1.744-3.519,11.776,11.776,0,0,1,7.345-4.648,14.1,14.1,0,0,1,10.729,2.145.339.339,0,0,0,.489-.036q2.041-1.75,4.1-3.478a1.075,1.075,0,1,1,1.383,1.643q-1.657,1.407-3.319,2.809Zm-20.316,9.753-2.063,5.617,5.737.154A11.187,11.187,0,0,1,1228.326,41.182Z" fill="#fff"/>
      </g>
    </g>
    <path id="パス_5215" data-name="パス 5215" d="M2.688-9.8H.546V0H1.89V-6.93h.028L3.038,0H4.494L5.53-7.028h.028V0H7.014V-9.8H4.872L3.836-2.842H3.808Zm7.336,1.4h2.66V-9.8h-4.2V0h4.2V-1.4h-2.66V-4.27h2.114v-1.4H10.024ZM17.276,0h1.582V-9.8H17.486v5.866h-.028L15.9-9.8H13.972V0h1.386V-7.1h.028Zm2.968-9.8v7.462c0,1.568.784,2.464,2.3,2.464s2.3-.9,2.3-2.464V-9.8H23.38v7.56c0,.7-.308.952-.8.952s-.8-.252-.8-.952V-9.8Z" transform="translate(1223.98 64.331)" fill="#fff"/>
  </g>
</svg>
