<svg xmlns="http://www.w3.org/2000/svg" xmlns:xlink="http://www.w3.org/1999/xlink" width="70" height="72.437" viewBox="0 0 70 72.437">
  <defs>
    <clipPath id="clip-path">
      <rect id="長方形_4854" data-name="長方形 4854" width="70" height="72.437" fill="none"/>
    </clipPath>
  </defs>
  <g id="グループ_5844" data-name="グループ 5844" clip-path="url(#clip-path)">
    <path id="パス_5052" data-name="パス 5052" d="M36.713,31.942c-1.832-1.832-3.97-2.036-6.515-.2-4.067,2.928-3.018,9.438.611,12.825a17.42,17.42,0,0,0,11.4,4.377C53,48.534,57.336,43.424,58.8,36.217c1.957-9.2-1.527-19.034-11.3-23.818-6.563-3.213-16.7-3.1-23.322.037A25.516,25.516,0,0,0,10.35,27.667c-5.8,15.474,2,33.6,17.406,38.679a42.274,42.274,0,0,0,31.353-1.984c1.182-.527,1.389.475.305,1.222a41.03,41.03,0,0,1-33.49,5.445C13.84,67.827,5.972,59.624,1.9,47.821-4.206,30.11,4.135,5.006,30.708.49,44.1-1.787,60.023,3.95,66.334,16.369c4.812,9.469,5.167,22.435-.611,31.554-4.794,7.7-14.59,12.715-23.823,12.927-14.851.615-28.806-11.2-26.058-27.279.992-5.805,5.746-17.411,21.274-16.8,8.794.349,14.775,6.973,14.963,14.25.071,2.741-.252,4.55-1.832,6.616C47.6,41.1,41.6,41.1,39.258,37.031c-1.354-2.354-1.018-3.563-2.545-5.089" fill="#d7d7d7"/>
  </g>
</svg>
