<svg xmlns="http://www.w3.org/2000/svg" width="41.188" height="52.825" viewBox="0 0 41.188 52.825">
  <g id="icon_pagetop_pc" transform="translate(-0.624 1.5)">
    <g id="グループ_8" data-name="グループ 8" transform="translate(2.124)">
      <path id="パス_4" data-name="パス 4" d="M1233.4,12426.742l12.045-6.954-12.045-6.955-6.955-12.045-6.954,12.045-12.046,6.955,12.046,6.954,6.954,12.046Zm-11.463-6.954a4.508,4.508,0,1,1,4.508,4.508A4.508,4.508,0,0,1,1221.936,12419.788Z" transform="translate(-1207.444 -12400.788)"/>
      <path id="パス_4_-_アウトライン" data-name="パス 4 - アウトライン" d="M1226.444,12438.788l6.955-12.046,12.045-6.954-12.045-6.955-6.955-12.045-6.954,12.045-12.046,6.955,12.046,6.954,6.954,12.046m0-23.509a4.508,4.508,0,1,1-4.508,4.509,4.509,4.509,0,0,1,4.508-4.509m0,25.009h0a1.5,1.5,0,0,1-1.3-.75l-6.753-11.7-11.7-6.753a1.5,1.5,0,0,1,0-2.6l11.7-6.754,6.753-11.7a1.5,1.5,0,0,1,2.6,0l6.754,11.7,11.7,6.754a1.5,1.5,0,0,1,0,2.6l-11.7,6.753-6.754,11.7A1.5,1.5,0,0,1,1226.444,12440.288Zm0-23.509a3.008,3.008,0,1,0,3.009,3.009A3.012,3.012,0,0,0,1226.444,12416.779Z" transform="translate(-1207.444 -12400.788)" fill="#fff"/>
    </g>
    <path id="パス_9321" data-name="パス 9321" d="M2.626-9.1H.52V0H1.95V-3.419h.676c1.43,0,2.132-.793,2.132-2.249V-6.851C4.758-8.307,4.056-9.1,2.626-9.1Zm0,1.3c.455,0,.7.208.7.858v1.365c0,.65-.247.858-.7.858H1.95V-7.8ZM8.749-9.1H6.656L5.2,0H6.513L6.76-1.651H8.515L8.762,0H10.2ZM7.618-7.488h.026l.676,4.6H6.942ZM13.325-3.77h.65v1.677c0,.65-.286.884-.741.884s-.741-.234-.741-.884V-7.007c0-.65.286-.9.741-.9s.741.247.741.9v.975h1.352v-.884c0-1.456-.728-2.288-2.132-2.288s-2.132.832-2.132,2.288v4.732C11.063-.728,11.791.1,13.195.1s2.132-.832,2.132-2.288V-5.07h-2Zm4.68-4.03h2.47V-9.1h-3.9V0h3.9V-1.3h-2.47V-3.965h1.963v-1.3H18.005Zm5.6,0h1.5V0h1.43V-7.8h1.5V-9.1h-4.42Zm6.682.793c0-.65.286-.9.741-.9s.741.247.741.9v4.914c0,.65-.286.9-.741.9s-.741-.247-.741-.9ZM28.86-2.184A2.019,2.019,0,0,0,31.031.1,2.019,2.019,0,0,0,33.2-2.184V-6.916A2.019,2.019,0,0,0,31.031-9.2,2.019,2.019,0,0,0,28.86-6.916Zm7.7-6.916H34.45V0h1.43V-3.419h.676c1.43,0,2.132-.793,2.132-2.249V-6.851C38.688-8.307,37.986-9.1,36.556-9.1Zm0,1.3c.455,0,.7.208.7.858v1.365c0,.65-.247.858-.7.858H35.88V-7.8Z" transform="translate(1.624 49.721)" fill="#fff"/>
    <path id="PAGE_TOP_-_アウトライン" data-name="PAGE TOP - アウトライン" d="M13.195-10.7a3.725,3.725,0,0,1,2.215.659,1.5,1.5,0,0,1,1.165-.555h3.9a1.5,1.5,0,0,1,1.5,1.5v1.3a1.5,1.5,0,0,1-1.007,1.417,1.5,1.5,0,0,1,.5,1.118v1.3a1.5,1.5,0,0,1-.617,1.213A1.5,1.5,0,0,1,21.975-1.3V0a1.5,1.5,0,0,1-1.5,1.5h-3.9A1.5,1.5,0,0,1,15.41.945a3.725,3.725,0,0,1-2.215.659,3.832,3.832,0,0,1-1.974-.5,1.5,1.5,0,0,1-1.016.4H8.762A1.5,1.5,0,0,1,7.638.993,1.5,1.5,0,0,1,6.513,1.5H5.2A1.5,1.5,0,0,1,4.059.973a1.5,1.5,0,0,1-.34-1.21l.3-1.9a3.853,3.853,0,0,1-.573.148V0a1.5,1.5,0,0,1-1.5,1.5H.52A1.5,1.5,0,0,1-.98,0V-9.1a1.5,1.5,0,0,1,1.5-1.5H2.626a3.6,3.6,0,0,1,2.625.975A1.5,1.5,0,0,1,6.656-10.6H8.749A1.5,1.5,0,0,1,10.23-9.337l.008.047A3.454,3.454,0,0,1,13.195-10.7Zm17.836,0a3.789,3.789,0,0,1,2.249.666,1.5,1.5,0,0,1,1.17-.562h2.106a3.425,3.425,0,0,1,3.632,3.749v1.183A3.4,3.4,0,0,1,37.38-1.99V0a1.5,1.5,0,0,1-1.5,1.5H34.45A1.5,1.5,0,0,1,33.28.938a3.789,3.789,0,0,1-2.249.666A3.5,3.5,0,0,1,28.024.164,1.5,1.5,0,0,1,26.533,1.5H25.1A1.5,1.5,0,0,1,23.6,0V-6.3a1.5,1.5,0,0,1-1.5-1.5V-9.1a1.5,1.5,0,0,1,1.5-1.5h4.42a1.494,1.494,0,0,1,1.013.394A3.908,3.908,0,0,1,31.031-10.7Z" transform="translate(1.624 49.721)" fill="#fff"/>
    <path id="パス_9320" data-name="パス 9320" d="M2.626-9.1H.52V0H1.95V-3.419h.676c1.43,0,2.132-.793,2.132-2.249V-6.851C4.758-8.307,4.056-9.1,2.626-9.1Zm0,1.3c.455,0,.7.208.7.858v1.365c0,.65-.247.858-.7.858H1.95V-7.8ZM8.749-9.1H6.656L5.2,0H6.513L6.76-1.651H8.515L8.762,0H10.2ZM7.618-7.488h.026l.676,4.6H6.942ZM13.325-3.77h.65v1.677c0,.65-.286.884-.741.884s-.741-.234-.741-.884V-7.007c0-.65.286-.9.741-.9s.741.247.741.9v.975h1.352v-.884c0-1.456-.728-2.288-2.132-2.288s-2.132.832-2.132,2.288v4.732C11.063-.728,11.791.1,13.195.1s2.132-.832,2.132-2.288V-5.07h-2Zm4.68-4.03h2.47V-9.1h-3.9V0h3.9V-1.3h-2.47V-3.965h1.963v-1.3H18.005Zm5.6,0h1.5V0h1.43V-7.8h1.5V-9.1h-4.42Zm6.682.793c0-.65.286-.9.741-.9s.741.247.741.9v4.914c0,.65-.286.9-.741.9s-.741-.247-.741-.9ZM28.86-2.184A2.019,2.019,0,0,0,31.031.1,2.019,2.019,0,0,0,33.2-2.184V-6.916A2.019,2.019,0,0,0,31.031-9.2,2.019,2.019,0,0,0,28.86-6.916Zm7.7-6.916H34.45V0h1.43V-3.419h.676c1.43,0,2.132-.793,2.132-2.249V-6.851C38.688-8.307,37.986-9.1,36.556-9.1Zm0,1.3c.455,0,.7.208.7.858v1.365c0,.65-.247.858-.7.858H35.88V-7.8Z" transform="translate(1.624 49.721)"/>
  </g>
</svg>
