<svg xmlns="http://www.w3.org/2000/svg" width="72" height="72" viewBox="0 0 72 72">
  <g id="グループ_7041" data-name="グループ 7041" transform="translate(-13517 5115)">
    <rect id="長方形_5050" data-name="長方形 5050" width="72" height="72" transform="translate(13517 -5115)" fill="#fff" opacity="0"/>
    <g id="グループ_7040" data-name="グループ 7040" transform="translate(13214.934 -5799)">
      <g id="グループ_3000" data-name="グループ 3000" transform="translate(-857.99 529.132)">
        <path id="パス_2518" data-name="パス 2518" d="M1229.99,190.868l-10.241,3.413,8.874,6.148-10.788.382,6.769,8.409-10.458-2.68,4.134,9.973-9.286-5.5,1.165,10.732-7.354-7.9-1.923,10.622-4.824-9.659-4.824,9.659-1.923-10.622-7.355,7.9,1.165-10.732-9.286,5.5,4.134-9.973-10.458,2.68,6.769-8.409-10.788-.382,8.874-6.147-10.241-3.413,10.241-3.413-8.874-6.148,10.788-.382-6.769-8.409,10.458,2.68-4.134-9.973,9.286,5.5-1.165-10.732,7.354,7.9,1.923-10.622,4.824,9.659,4.824-9.659L1202.8,167.9l7.355-7.9-1.165,10.732,9.287-5.5-4.134,9.973,10.458-2.68-6.769,8.409,10.788.382-8.874,6.147Z"/>
        <path id="パス_2519" data-name="パス 2519" d="M1191.008,155.707l5.049,10.108,5.049-10.108,2.013,11.119,7.7-8.272-1.22,11.235,9.719-5.76-4.326,10.436,10.945-2.8-7.085,8.8,11.295.4-9.29,6.435,10.716,3.572-10.716,3.572,9.29,6.436-11.3.4,7.085,8.8-10.945-2.8,4.326,10.436-9.718-5.761,1.219,11.235-7.7-8.273-2.013,11.119-5.049-10.108-5.049,10.108-2.013-11.119-7.7,8.272,1.22-11.235-9.719,5.76,4.326-10.436-10.945,2.8,7.085-8.8-11.3-.4,9.29-6.435-10.716-3.572,10.716-3.572-9.29-6.436,11.3-.4-7.085-8.8,10.945,2.8-4.326-10.436,9.718,5.761-1.219-11.235,7.7,8.273Zm11.482,13.261-1.833-10.126-4.6,9.21-4.6-9.21-1.833,10.125-7.009-7.531,1.11,10.23-8.854-5.249,3.942,9.509-9.971-2.555,6.452,8.016-10.282.364,8.458,5.86-9.766,3.255,9.766,3.255-8.458,5.859,10.281.364-6.453,8.016,9.97-2.555-3.942,9.509,8.854-5.248-1.111,10.23,7.01-7.53,1.834,10.126,4.6-9.21,4.6,9.21,1.833-10.125,7.009,7.531-1.11-10.23,8.854,5.249-3.942-9.509,9.971,2.555-6.452-8.016,10.282-.364-8.458-5.86,9.766-3.255-9.766-3.255,8.458-5.859-10.281-.364,6.453-8.016-9.97,2.555,3.942-9.509-8.855,5.248,1.111-10.23Z" fill="#fff"/>
      </g>
      <path id="パス_9318" data-name="パス 9318" d="M-18.5-8.4h2.534V-9.8h-4.074V0h1.54V-4.046h1.988v-1.4H-18.5Zm4.676,0h2.66V-9.8h-4.2V0h4.2V-1.4h-2.66V-4.27h2.114v-1.4h-2.114Zm6.888-1.4H-9.191L-10.759,0h1.414l.266-1.778h1.89L-6.923,0h1.554ZM-8.155-8.064h.028L-7.4-3.108H-8.883Zm2.38-.336h1.61V0h1.54V-8.4h1.61V-9.8h-4.76ZM-.553-9.8v7.462C-.553-.77.231.126,1.743.126s2.3-.9,2.3-2.464V-9.8H2.583v7.56c0,.7-.308.952-.8.952s-.8-.252-.8-.952V-9.8ZM9.737,0a2.886,2.886,0,0,1-.168-1.19V-2.7c0-1.022-.252-1.75-1.022-2.072V-4.8A1.932,1.932,0,0,0,9.555-6.776v-.77c0-1.512-.686-2.254-2.282-2.254H4.949V0h1.54V-3.99h.532c.7,0,1.008.336,1.008,1.246V-1.2A3.014,3.014,0,0,0,8.169,0ZM7.231-8.4c.546,0,.784.308.784,1.008v.966c0,.784-.35,1.036-.924,1.036h-.6V-8.4Zm4.746,0h2.66V-9.8h-4.2V0h4.2V-1.4h-2.66V-4.27h2.114v-1.4H11.977ZM15.449,0h2.436c1.54,0,2.3-.854,2.3-2.422V-7.378c0-1.568-.756-2.422-2.3-2.422H15.449Zm2.408-8.4c.49,0,.784.252.784.952v5.1c0,.7-.294.952-.784.952h-.868v-7Z" transform="translate(338 725)" fill="#fff"/>
    </g>
  </g>
</svg>
